<svg width="44" height="26" viewBox="0 0 44 26" fill="none" xmlns="http://www.w3.org/2000/svg">
<mask id="path-2-outside-1" maskUnits="userSpaceOnUse" x="0" y="0" width="44" height="26" fill="black">
<rect fill="white" width="44" height="26"/>
<path d="M41.9438 3.58891C42.2631 4.44551 41.2218 6.413 38.8199 9.4914C38.4867 9.91969 38.0355 10.4885 37.4663 11.1979C36.9109 11.8805 36.5291 12.3623 36.3208 12.6434C36.1126 12.9245 35.9009 13.2557 35.6857 13.6372C35.4705 14.0186 35.3871 14.2997 35.4357 14.4804C35.4843 14.6611 35.5746 14.892 35.7065 15.173C35.8384 15.4541 36.064 15.7419 36.3833 16.0363C36.7026 16.3308 37.0983 16.6855 37.5704 17.1004C37.6259 17.1272 37.6606 17.1539 37.6745 17.1807C39.6321 18.934 40.958 20.413 41.6522 21.6176C41.6939 21.6845 41.739 21.7682 41.7876 21.8685C41.8362 21.9689 41.8848 22.1463 41.9334 22.4006C41.982 22.6549 41.9785 22.8824 41.923 23.0832C41.8674 23.2839 41.6939 23.468 41.4023 23.6353C41.1108 23.8026 40.7012 23.8862 40.1736 23.8862L34.8422 23.9665C34.509 24.0335 34.1203 24 33.676 23.8662C33.2317 23.7323 32.8707 23.5851 32.593 23.4245L32.1765 23.1836C31.76 22.9025 31.2741 22.4742 30.7187 21.8987C30.1634 21.3231 29.6878 20.8045 29.2921 20.3427C28.8965 19.881 28.473 19.4928 28.0218 19.1783C27.5706 18.8638 27.1783 18.76 26.8451 18.8671C26.8035 18.8805 26.7479 18.9039 26.6785 18.9374C26.6091 18.9708 26.4911 19.0679 26.3245 19.2285C26.1579 19.3891 26.0086 19.5865 25.8767 19.8207C25.7448 20.055 25.6268 20.403 25.5227 20.8647C25.4186 21.3265 25.3734 21.8451 25.3873 22.4207C25.3873 22.6214 25.363 22.8054 25.3144 22.9728C25.2658 23.1401 25.2138 23.2639 25.1582 23.3442L25.0749 23.4445C24.825 23.6989 24.4571 23.8461 23.9712 23.8862H21.5762C20.5905 23.9398 19.5769 23.8293 18.5356 23.555C17.4944 23.2806 16.5815 22.9259 15.7971 22.4909C15.0126 22.0559 14.2976 21.6142 13.652 21.1659C13.0064 20.7175 12.517 20.3327 12.1838 20.0115L11.6631 19.5296C11.5243 19.3958 11.3334 19.195 11.0904 18.9273C10.8475 18.6597 10.3511 18.0507 9.6014 17.1004C8.85167 16.1501 8.11583 15.1396 7.39387 14.0688C6.67191 12.9981 5.82153 11.586 4.84272 9.8327C3.8639 8.07935 2.95798 6.25908 2.12495 4.37189C2.04165 4.15774 2 3.97706 2 3.82983C2 3.6826 2.02083 3.57553 2.06248 3.5086L2.14578 3.38815C2.35404 3.13384 2.74973 3.00669 3.33285 3.00669L9.0391 2.96654C9.20571 2.99331 9.36537 3.03681 9.5181 3.09704C9.67082 3.15727 9.78189 3.21415 9.85131 3.26769L9.95544 3.32792C10.1776 3.47514 10.3442 3.68929 10.4553 3.97036C10.7329 4.63958 11.0523 5.33222 11.4132 6.04828C11.7742 6.76434 12.0588 7.30975 12.2671 7.68451L12.6003 8.26673C13.0029 9.06979 13.3917 9.76577 13.7665 10.3547C14.1414 10.9436 14.4781 11.402 14.7766 11.7299C15.0751 12.0578 15.3632 12.3155 15.6409 12.5029C15.9185 12.6902 16.1546 12.7839 16.3489 12.7839C16.5433 12.7839 16.7307 12.7505 16.9112 12.6836C16.939 12.6702 16.9737 12.6367 17.0154 12.5832C17.057 12.5296 17.1403 12.3824 17.2653 12.1415C17.3902 11.9006 17.4839 11.586 17.5464 11.1979C17.6089 10.8098 17.6748 10.2677 17.7443 9.5717C17.8137 8.87572 17.8137 8.0392 17.7443 7.06214C17.7165 6.52677 17.654 6.03824 17.5568 5.59656C17.4596 5.15488 17.3625 4.84704 17.2653 4.67304L17.1403 4.43212C16.7932 3.97706 16.2032 3.68929 15.3701 3.56883C15.1896 3.54207 15.2244 3.38145 15.4743 3.087C15.6964 2.8327 15.9602 2.63193 16.2656 2.4847C17.0015 2.13671 18.6606 1.9761 21.243 2.00287C22.3815 2.01625 23.3186 2.10325 24.0545 2.26386C24.3321 2.33078 24.5647 2.42113 24.7521 2.53489C24.9396 2.64866 25.0819 2.80927 25.1791 3.01673C25.2762 3.22419 25.3491 3.43834 25.3977 3.65918C25.4463 3.88002 25.4706 4.18451 25.4706 4.57266C25.4706 4.9608 25.4637 5.32887 25.4498 5.67686C25.4359 6.02486 25.4186 6.49665 25.3977 7.09226C25.3769 7.68786 25.3665 8.23996 25.3665 8.74857C25.3665 8.89579 25.3596 9.17686 25.3457 9.59178C25.3318 10.0067 25.3283 10.3279 25.3353 10.5554C25.3422 10.783 25.3665 11.054 25.4081 11.3685C25.4498 11.6831 25.5296 11.9441 25.6476 12.1515C25.7657 12.359 25.9218 12.5229 26.1162 12.6434C26.2273 12.6702 26.3453 12.6969 26.4703 12.7237C26.5952 12.7505 26.7757 12.6769 27.0117 12.5029C27.2478 12.3289 27.5115 12.098 27.8031 11.8102C28.0947 11.5225 28.4556 11.0741 28.886 10.4651C29.3164 9.85612 29.7885 9.13671 30.3022 8.30688C31.1352 6.91491 31.878 5.40918 32.5306 3.78967C32.5861 3.65583 32.6555 3.53872 32.7388 3.43834C32.8221 3.33795 32.8985 3.26769 32.9679 3.22753L33.0512 3.1673L33.1553 3.11711L33.4261 3.05688L33.8426 3.04685L39.8404 3.00669C40.3819 2.93977 40.8261 2.9565 41.1732 3.05688C41.5203 3.15727 41.7355 3.26769 41.8188 3.38815L41.9438 3.58891Z"/>
</mask>
<path d="M41.9438 3.58891C42.2631 4.44551 41.2218 6.413 38.8199 9.4914C38.4867 9.91969 38.0355 10.4885 37.4663 11.1979C36.9109 11.8805 36.5291 12.3623 36.3208 12.6434C36.1126 12.9245 35.9009 13.2557 35.6857 13.6372C35.4705 14.0186 35.3871 14.2997 35.4357 14.4804C35.4843 14.6611 35.5746 14.892 35.7065 15.173C35.8384 15.4541 36.064 15.7419 36.3833 16.0363C36.7026 16.3308 37.0983 16.6855 37.5704 17.1004C37.6259 17.1272 37.6606 17.1539 37.6745 17.1807C39.6321 18.934 40.958 20.413 41.6522 21.6176C41.6939 21.6845 41.739 21.7682 41.7876 21.8685C41.8362 21.9689 41.8848 22.1463 41.9334 22.4006C41.982 22.6549 41.9785 22.8824 41.923 23.0832C41.8674 23.2839 41.6939 23.468 41.4023 23.6353C41.1108 23.8026 40.7012 23.8862 40.1736 23.8862L34.8422 23.9665C34.509 24.0335 34.1203 24 33.676 23.8662C33.2317 23.7323 32.8707 23.5851 32.593 23.4245L32.1765 23.1836C31.76 22.9025 31.2741 22.4742 30.7187 21.8987C30.1634 21.3231 29.6878 20.8045 29.2921 20.3427C28.8965 19.881 28.473 19.4928 28.0218 19.1783C27.5706 18.8638 27.1783 18.76 26.8451 18.8671C26.8035 18.8805 26.7479 18.9039 26.6785 18.9374C26.6091 18.9708 26.4911 19.0679 26.3245 19.2285C26.1579 19.3891 26.0086 19.5865 25.8767 19.8207C25.7448 20.055 25.6268 20.403 25.5227 20.8647C25.4186 21.3265 25.3734 21.8451 25.3873 22.4207C25.3873 22.6214 25.363 22.8054 25.3144 22.9728C25.2658 23.1401 25.2138 23.2639 25.1582 23.3442L25.0749 23.4445C24.825 23.6989 24.4571 23.8461 23.9712 23.8862H21.5762C20.5905 23.9398 19.5769 23.8293 18.5356 23.555C17.4944 23.2806 16.5815 22.9259 15.7971 22.4909C15.0126 22.0559 14.2976 21.6142 13.652 21.1659C13.0064 20.7175 12.517 20.3327 12.1838 20.0115L11.6631 19.5296C11.5243 19.3958 11.3334 19.195 11.0904 18.9273C10.8475 18.6597 10.3511 18.0507 9.6014 17.1004C8.85167 16.1501 8.11583 15.1396 7.39387 14.0688C6.67191 12.9981 5.82153 11.586 4.84272 9.8327C3.8639 8.07935 2.95798 6.25908 2.12495 4.37189C2.04165 4.15774 2 3.97706 2 3.82983C2 3.6826 2.02083 3.57553 2.06248 3.5086L2.14578 3.38815C2.35404 3.13384 2.74973 3.00669 3.33285 3.00669L9.0391 2.96654C9.20571 2.99331 9.36537 3.03681 9.5181 3.09704C9.67082 3.15727 9.78189 3.21415 9.85131 3.26769L9.95544 3.32792C10.1776 3.47514 10.3442 3.68929 10.4553 3.97036C10.7329 4.63958 11.0523 5.33222 11.4132 6.04828C11.7742 6.76434 12.0588 7.30975 12.2671 7.68451L12.6003 8.26673C13.0029 9.06979 13.3917 9.76577 13.7665 10.3547C14.1414 10.9436 14.4781 11.402 14.7766 11.7299C15.0751 12.0578 15.3632 12.3155 15.6409 12.5029C15.9185 12.6902 16.1546 12.7839 16.3489 12.7839C16.5433 12.7839 16.7307 12.7505 16.9112 12.6836C16.939 12.6702 16.9737 12.6367 17.0154 12.5832C17.057 12.5296 17.1403 12.3824 17.2653 12.1415C17.3902 11.9006 17.4839 11.586 17.5464 11.1979C17.6089 10.8098 17.6748 10.2677 17.7443 9.5717C17.8137 8.87572 17.8137 8.0392 17.7443 7.06214C17.7165 6.52677 17.654 6.03824 17.5568 5.59656C17.4596 5.15488 17.3625 4.84704 17.2653 4.67304L17.1403 4.43212C16.7932 3.97706 16.2032 3.68929 15.3701 3.56883C15.1896 3.54207 15.2244 3.38145 15.4743 3.087C15.6964 2.8327 15.9602 2.63193 16.2656 2.4847C17.0015 2.13671 18.6606 1.9761 21.243 2.00287C22.3815 2.01625 23.3186 2.10325 24.0545 2.26386C24.3321 2.33078 24.5647 2.42113 24.7521 2.53489C24.9396 2.64866 25.0819 2.80927 25.1791 3.01673C25.2762 3.22419 25.3491 3.43834 25.3977 3.65918C25.4463 3.88002 25.4706 4.18451 25.4706 4.57266C25.4706 4.9608 25.4637 5.32887 25.4498 5.67686C25.4359 6.02486 25.4186 6.49665 25.3977 7.09226C25.3769 7.68786 25.3665 8.23996 25.3665 8.74857C25.3665 8.89579 25.3596 9.17686 25.3457 9.59178C25.3318 10.0067 25.3283 10.3279 25.3353 10.5554C25.3422 10.783 25.3665 11.054 25.4081 11.3685C25.4498 11.6831 25.5296 11.9441 25.6476 12.1515C25.7657 12.359 25.9218 12.5229 26.1162 12.6434C26.2273 12.6702 26.3453 12.6969 26.4703 12.7237C26.5952 12.7505 26.7757 12.6769 27.0117 12.5029C27.2478 12.3289 27.5115 12.098 27.8031 11.8102C28.0947 11.5225 28.4556 11.0741 28.886 10.4651C29.3164 9.85612 29.7885 9.13671 30.3022 8.30688C31.1352 6.91491 31.878 5.40918 32.5306 3.78967C32.5861 3.65583 32.6555 3.53872 32.7388 3.43834C32.8221 3.33795 32.8985 3.26769 32.9679 3.22753L33.0512 3.1673L33.1553 3.11711L33.4261 3.05688L33.8426 3.04685L39.8404 3.00669C40.3819 2.93977 40.8261 2.9565 41.1732 3.05688C41.5203 3.15727 41.7355 3.26769 41.8188 3.38815L41.9438 3.58891Z" stroke="#FCFCFC" stroke-width="4" mask="url(#path-2-outside-1)"/>
</svg>
