<svg width="60" height="60" viewBox="0 0 60 60" fill="none" xmlns="http://www.w3.org/2000/svg">
<path d="M51.409 21.2959L53.2892 10.2102L53.2727 10.207C53.2784 10.1323 53.3086 10.0629 53.3086 9.98682C53.3086 4.8342 40.0099 2.48682 27.6542 2.48682C15.5803 2.48682 2.64085 4.73588 2.05554 9.64627C2.03947 9.70604 2.03334 9.76604 2.0258 9.82862C2.02274 9.88264 2 9.93221 2 9.98682C2 10.0323 2.01891 10.0748 2.02088 10.1201C2.02405 10.1508 2.01399 10.1795 2.01935 10.2103L2.52912 13.2156C2.19591 13.9131 2 14.6837 2 15.4849V27.4869C2 29.9207 3.6312 31.9477 5.78244 32.3912L8.99663 51.2369C8.99663 55.5313 18.6683 57.4868 27.6543 57.4868C36.6404 57.4868 46.312 55.5312 46.2927 51.4602L49.7612 31.0117C50.8171 31.1446 51.8377 31.2391 52.7553 31.2391C55.387 31.2391 57.3252 30.6275 57.8467 29.0382C58.1081 28.2401 58.8636 25.8548 51.409 21.2959ZM27.6543 4.9869C42.6305 4.9869 50.8419 8.23873 50.9649 9.94651L50.9313 10.1446C50.4638 11.8788 42.3016 14.987 27.6543 14.987C25.9685 14.987 24.2238 14.9153 22.4777 14.8166C21.7968 13.3671 20.4912 12.2987 18.904 12.0866L7.24288 10.524C6.47587 10.4216 5.70821 10.5503 4.99576 10.8438C4.63215 10.5466 4.44762 10.3057 4.37699 10.1423L4.34387 9.94627C4.4674 8.23838 12.6786 4.9869 27.6543 4.9869ZM4.33217 27.4869V15.4849C4.33217 14.7574 4.61237 14.0921 5.12137 13.6099C5.55407 13.2009 6.08931 12.9849 6.65298 12.9849C6.75322 12.9849 6.85336 12.991 6.95361 13.0045L18.6147 14.567C19.7796 14.7232 20.6577 15.7889 20.6577 17.0475V27.4869C20.6577 28.865 19.6112 29.9869 18.3255 29.9869H6.66445C5.37871 29.9869 4.33217 28.865 4.33217 27.4869ZM47.8778 28.1944C44.6814 27.6114 40.6155 26.5324 35.8296 24.7439C33.7925 23.9831 31.8286 23.1518 29.9482 22.2837C29.8466 21.0052 28.8728 19.9868 27.6543 19.9868C26.3687 19.9868 25.3222 21.1086 25.3222 22.4868C25.3222 23.8649 26.3687 24.9867 27.6543 24.9867C28.1308 24.9867 28.549 24.7953 28.9186 24.5312C30.8821 25.4409 32.9343 26.3103 35.062 27.1046C38.5669 28.415 43.2407 29.8657 47.4621 30.6517L43.9798 51.2369C43.9798 52.3587 38.426 54.9869 27.6543 54.9869C16.8827 54.9869 11.3288 52.3587 11.3094 51.0135L8.16698 32.4868H18.3254C20.8979 32.4868 22.9899 30.2445 22.9899 27.4868V17.3331C24.5601 17.4115 26.1348 17.4867 27.6543 17.4867C36.4577 17.4867 45.7137 16.2874 50.3233 13.7386L47.8778 28.1944ZM50.1784 28.551L50.9652 23.9121C54.7678 26.3489 55.66 27.862 55.6568 28.1863C55.3012 28.721 53.3705 28.9434 50.1784 28.551Z" fill="#43C951"/>
</svg>
