<svg width="60" height="60" viewBox="0 0 60 60" fill="none" xmlns="http://www.w3.org/2000/svg">
<g clip-path="url(#clip0)">
<path d="M38.8534 21.2585C38.4921 21.0437 38.1234 20.8227 37.7474 20.5835L37.749 17.5H37.7498C38.4408 17.5 38.9999 16.9409 38.9999 16.2499V8.74992C38.9999 3.92578 35.0741 0 30.2498 0H16.4999C15.1205 0 13.9999 1.12184 13.9999 2.49996H11.5C10.1205 2.49996 9 3.6218 9 4.99992V7.5C9 8.87813 10.1207 9.99996 11.5 9.99996H13.9999C13.9999 11.3781 15.1206 12.4999 16.4999 12.4999H17.9142L14.2098 18.0566C13.9534 18.4399 13.929 18.933 14.1487 19.3396C14.366 19.7461 14.7884 19.9999 15.2498 19.9999H17.7498C18.0209 19.9999 18.2845 19.912 18.4993 19.7497L26.4998 13.7494V16.25C26.4998 16.941 27.0589 17.5001 27.7499 17.5001V20.5909L27.618 20.6824C22.9941 23.833 18.9998 26.5553 18.9998 46.25V55.0001C18.9998 57.7576 21.2435 60 23.9999 60H41.4998C44.2562 60 46.4999 57.7576 46.4999 55V46.2499C46.4999 26.8127 43.5946 24.0906 38.8534 21.2585ZM13.9999 7.5H11.5V5.00004H13.9999V7.5ZM17.8378 17.1216L20.9189 12.4999H24.0006L17.8378 17.1216ZM16.4999 9.99996V2.49996H30.2498C33.6971 2.49996 36.4998 5.30391 36.4998 8.74992V15H28.9998V11.25C28.9998 10.5591 28.4407 9.99996 27.7498 9.99996H16.4999ZM29.0243 22.7479L29.7103 22.2779C30.0497 22.0447 30.2498 21.6602 30.2498 21.2501V17.5001H35.2499L35.2474 21.2512C35.2474 21.6626 35.4476 22.0459 35.787 22.2803C36.3949 22.7014 36.9906 23.0591 37.5716 23.4057C40.5094 25.1602 42.9398 26.6265 43.728 37.5H21.8345C22.7769 27.0067 25.6089 25.0752 29.0243 22.7479ZM43.9999 55C43.9999 56.3781 42.8793 57.4999 41.5 57.4999H23.9999C22.6205 57.4999 21.4999 56.3781 21.4999 55V52.5H43.9999V55ZM43.9999 50H21.4999V46.25C21.4999 43.9167 21.5546 41.848 21.6568 40.0001H43.8743C43.9561 41.8459 44 43.9143 44 46.25V50H43.9999Z" fill="#43C951" stroke="#43C951" stroke-width="0.3"/>
<path d="M6.50004 6.24992C6.50004 5.55898 5.94094 4.99988 5.25 4.99988H2.75004C2.0591 5 1.5 5.5591 1.5 6.24992C1.5 6.94085 2.0591 7.49996 2.75004 7.49996H5.25C5.94094 7.49996 6.50004 6.94085 6.50004 6.24992Z" fill="#43C951" stroke="#43C951" stroke-width="0.3"/>
<path d="M3.44092 2.36814L5.93853 3.61818C6.11677 3.70724 6.30967 3.75001 6.49763 3.75001C6.9542 3.75001 7.39611 3.49736 7.61584 3.05908C7.92346 2.44267 7.67443 1.69068 7.05674 1.38177L4.559 0.131853C3.95103 -0.172131 3.19177 0.0720873 2.8817 0.690954C2.5742 1.30736 2.82322 2.05935 3.44092 2.36814Z" fill="#43C951" stroke="#43C951" stroke-width="0.3"/>
<path d="M5.94084 8.88192L3.44087 10.1318C2.82318 10.4406 2.57415 11.1914 2.88177 11.8091C3.1015 12.2474 3.54341 12.5001 3.99998 12.5001C4.18794 12.5001 4.37837 12.4573 4.55908 12.3682L7.05904 11.1182C7.67674 10.8094 7.92576 10.0586 7.61814 9.4409C7.30806 8.82332 6.56099 8.57676 5.94084 8.88192Z" fill="#43C951" stroke="#43C951" stroke-width="0.3"/>
</g>
<defs>
<clipPath id="clip0">
<path d="M0 0H60V60H0V0Z" fill="white"/>
</clipPath>
</defs>
</svg>
