<svg width="60" height="60" viewBox="0 0 60 60" fill="none" xmlns="http://www.w3.org/2000/svg">
<path d="M59.7344 40.4799C59.6978 40.4335 56.1089 35.8156 54.9419 32.1241C54.666 31.2452 54.3193 30.0074 53.9214 28.5889C52.0244 21.803 50.2983 16.029 48.3842 14.1161C46.201 11.9329 37.6454 10.5442 34.7996 10.1353C33.8142 8.41793 32.6316 7.49976 31.2502 7.49976C27.3683 7.49976 12.5 12.6646 12.5 21.2499C12.5 24.9987 8.79149 30.5249 5.51759 35.4004C2.55624 39.8122 0 43.622 0 46.2502C0 52.5002 6.23783 52.5002 11.2501 52.5002C14.0455 52.5002 15.5128 51.7666 16.8093 51.1183C18.008 50.5177 19.0456 50.0001 21.2503 50.0001C29.0409 50.0001 35.0004 49.7242 35.0004 46.2501C35.0004 45.9806 35.0344 45.4302 35.0891 44.7059C35.1219 44.7257 35.1532 44.7457 35.186 44.7656C37.7324 46.3111 40.3691 47.909 42.669 51.8776C42.8936 52.2634 43.3038 52.5002 43.7505 52.5002C55.6451 52.5002 59.8761 41.8056 59.9176 41.6968C60.0738 41.2881 60.0055 40.8254 59.7344 40.4799ZM32.8543 11.7259L34.9833 20.0927L34.7852 22.0086C34.3645 21.1722 33.9807 20.3271 33.66 19.5325C32.7371 17.2461 29.0993 12.6525 25.9255 12.0067C25.2635 11.8691 24.6423 11.9023 24.0823 12.0967C27.0324 10.7687 29.8948 9.99986 31.2502 9.99986C31.7142 9.99986 32.3098 10.6419 32.8543 11.7259ZM32.5101 46.2123C31.7973 47.5002 23.8577 47.5002 21.2503 47.5002C20.2885 47.5002 19.5241 47.6062 18.8296 47.7466C20.3681 44.2968 22.5002 37.8822 22.5002 28.75C22.5002 28.0591 21.9411 27.5 21.2502 27.5C20.5592 27.5 20.0001 28.0591 20.0001 28.75C20.0001 40.5376 16.2004 47.6319 15.3739 49.0347C14.2984 49.5651 13.2583 50.0003 11.25 50.0003C5.30267 50.0003 2.49987 49.6305 2.49987 46.2503C2.49987 44.3838 5.0902 40.5252 7.59511 36.7934C11.0646 31.6212 15.0001 25.7593 15.0001 21.25C15.0001 17.5312 19.2544 14.3744 23.5149 12.3582C23.2842 12.4956 23.0673 12.665 22.8664 12.8662C19.8561 15.8741 21.5798 20.9912 23.97 24.4593C25.884 27.2364 27.3049 30.5153 27.5052 32.6186C27.5394 32.9677 27.5541 33.2985 27.5687 33.6257C27.6517 35.4311 27.7396 37.2988 30.2397 40.7352C30.959 41.724 31.8005 42.4814 32.7071 43.1502C32.5804 44.6648 32.5017 45.8004 32.5101 46.2123ZM44.4487 49.9856C41.9048 45.9169 38.9115 44.1018 36.4823 42.6283C34.7782 41.5956 33.3085 40.7033 32.2611 39.2653C30.2006 36.4332 30.142 35.1441 30.0663 33.5108C30.0492 33.1434 30.032 32.7723 29.9955 32.3817C29.7537 29.8524 28.1986 26.1854 26.0306 23.0408C24.1019 20.2454 22.8445 16.4233 24.6341 14.6337C24.783 14.4884 24.9759 14.3651 25.4276 14.4568C27.3856 14.8547 30.5449 18.4973 31.3407 20.4676C32.2978 22.8371 34.8881 28.5 38.2719 29.9049C38.6577 30.0624 39.0996 30.021 39.4438 29.7902C40.6939 28.9577 41.2652 27.654 41.6826 26.703C41.8022 26.4296 41.9683 26.0548 41.9634 26.028C42.4736 25.674 42.6469 24.9977 42.3686 24.441C41.9877 23.6805 41.4018 21.6443 41.2064 20.9242C41.1039 20.5445 40.8305 20.2357 40.4643 20.0892L37.2336 18.797L35.7082 12.8036C40.066 13.5066 45.4803 14.7487 46.6167 15.8839C48.2231 17.4903 50.2838 24.8586 51.5142 29.2617C51.9195 30.7119 52.276 31.9778 52.5592 32.8763C53.6066 36.1966 56.236 39.9612 57.3053 41.4115C56.3213 43.4084 52.5981 49.6463 44.4487 49.9856ZM36.933 25.5298L37.3474 21.5353L38.9628 22.1814C39.1556 22.8601 39.4852 23.9588 39.8148 24.8157C39.6634 25.083 39.5316 25.3809 39.3925 25.6982C39.1654 26.2158 38.9188 26.7822 38.5722 27.2217C38.0222 26.83 37.4702 26.2317 36.933 25.5298Z" fill="#43C951"/>
</svg>
