<svg width="50" height="50" viewBox="0 0 50 50" fill="none" xmlns="http://www.w3.org/2000/svg">
<path d="M46.7322 11.9899C46.6911 11.5787 46.5451 11.1846 46.3078 10.8444C46.0706 10.5043 45.7499 10.2291 45.3758 10.0449L25.5745 0.25864C25.2306 0.0885542 24.8514 0 24.4669 0C24.0823 0 23.7031 0.0885542 23.3592 0.25864L3.55787 10.0449C3.18479 10.2302 2.8651 10.5056 2.62842 10.8456C2.39174 11.1857 2.24574 11.5792 2.20395 11.9899C2.17672 12.2516 -0.174686 38.3319 23.4632 48.7224C23.779 48.8633 24.1216 48.9362 24.4681 48.9362C24.8146 48.9362 25.1572 48.8633 25.473 48.7224C49.1109 38.3319 46.7595 12.2541 46.7322 11.9899V11.9899ZM24.4681 43.7877C7.71368 35.7826 6.92162 18.6983 7.05776 13.7881L24.4681 5.18355L41.866 13.7832C41.9576 18.6494 41.0542 35.8462 24.4681 43.7877Z" fill="#43C951"/>
<path d="M21.982 25.7965L16.2813 19.973L12.766 23.5641L21.982 32.9787L36.1702 18.4847L32.6549 14.8936L21.982 25.7965Z" fill="#43C951"/>
</svg>
