<svg width="50" height="50" viewBox="0 0 50 50" fill="none" xmlns="http://www.w3.org/2000/svg">
<path d="M40.625 44H40.875V43.75V6.25V6H40.625H6.25H6V6.25V43.75V44H6.25H40.625ZM17.1875 19H20.1383C20.1962 19.0021 20.2543 19.0031 20.3124 19.0031C20.3717 19.0031 20.4308 19.0021 20.4898 19H23.4375C24.6837 19 25.8059 19.3403 26.6094 19.876C27.415 20.4131 27.875 21.1259 27.875 21.875V24.75H12.75V21.875C12.75 21.1259 13.21 20.4131 14.0156 19.876C14.8191 19.3403 15.9413 19 17.1875 19ZM20.4807 18.5H20.1474C19.0301 18.4581 17.9673 17.9957 17.1741 17.2019C16.3419 16.3691 15.8746 15.2399 15.875 14.0626C15.8752 13.4796 15.9902 12.9024 16.2135 12.3639C16.4367 11.8254 16.7639 11.3362 17.1762 10.9241C17.5886 10.5121 18.078 10.1852 18.6167 9.96234C19.1553 9.73943 19.7326 9.62481 20.3155 9.625C20.8985 9.62519 21.4757 9.74021 22.0142 9.96347C22.5527 10.1867 23.0419 10.5139 23.454 10.9262C23.8661 11.3386 24.1929 11.828 24.4158 12.3667C24.6387 12.9053 24.7533 13.4826 24.7531 14.0655C24.7527 15.2429 24.2847 16.3718 23.4519 17.204C22.6589 17.9965 21.5969 18.4581 20.4807 18.5ZM4.6875 0.25H42.1875C44.6276 0.25 46.625 2.24745 46.625 4.6875V45.3125C46.625 47.7526 44.6276 49.75 42.1875 49.75H4.6875C2.24745 49.75 0.25 47.7526 0.25 45.3125V4.6875C0.25 2.24745 2.24745 0.25 4.6875 0.25ZM34.125 28.375V31H12.75V28.375H34.125ZM34.125 34.625V37.25H12.75V34.625H34.125Z" fill="#43C951" stroke="white" stroke-width="0.5"/>
</svg>
