<svg width="60" height="60" viewBox="0 0 60 60" fill="none" xmlns="http://www.w3.org/2000/svg">
<path d="M52.9382 20.519L54.9527 8.42549L54.935 8.42204C54.9411 8.34047 54.9735 8.26479 54.9735 8.18182C54.9735 2.56078 40.7249 0 27.4867 0C14.5504 0 0.686622 2.45352 0.0595026 7.81032C0.0422843 7.87552 0.035725 7.94097 0.0276429 8.00924C0.0243633 8.06817 0 8.12225 0 8.18182C0 8.23143 0.0202637 8.27783 0.022372 8.32718C0.0257688 8.36067 0.0149928 8.39199 0.0207322 8.42562L0.566914 11.7041C0.209899 12.465 0 13.3057 0 14.1797V27.2728C0 29.9278 1.74771 32.1391 4.05262 32.623L7.49639 53.1819C7.49639 57.8667 17.8589 60 27.4868 60C37.1147 60 47.4772 57.8666 47.4565 53.4255L51.1727 31.118C52.304 31.263 53.3976 31.3662 54.3807 31.3662C57.2004 31.3662 59.277 30.699 59.8358 28.9652C60.1159 28.0945 60.9252 25.4924 52.9382 20.519ZM27.4868 2.72736C43.5327 2.72736 52.3306 6.27482 52.4624 8.13785L52.4264 8.3539C51.9255 10.2458 43.1802 13.6365 27.4868 13.6365C25.6805 13.6365 23.8112 13.5583 21.9404 13.4507C21.2109 11.8694 19.812 10.7039 18.1114 10.4725L5.61737 8.76785C4.79558 8.65611 3.97308 8.79648 3.20974 9.11672C2.82016 8.79252 2.62245 8.52968 2.54678 8.35147L2.51129 8.13759C2.64365 6.27444 11.4414 2.72736 27.4868 2.72736ZM2.49876 27.2728V14.1797C2.49876 13.3861 2.79896 12.6603 3.34433 12.1343C3.80793 11.6881 4.3814 11.4525 4.98533 11.4525C5.09274 11.4525 5.20003 11.4592 5.30744 11.4739L17.8015 13.1784C19.0496 13.3488 19.9904 14.5114 19.9904 15.8844V27.2728C19.9904 28.7762 18.8691 30.0001 17.4916 30.0001H4.99763C3.62005 30.0001 2.49876 28.7762 2.49876 27.2728ZM49.1547 28.0446C45.7301 27.4086 41.3737 26.2316 36.246 24.2805C34.0633 23.4505 31.9592 22.5436 29.9445 21.5966C29.8356 20.2018 28.7923 19.0909 27.4868 19.0909C26.1093 19.0909 24.988 20.3147 24.988 21.8181C24.988 23.3215 26.1093 24.5453 27.4868 24.5453C27.9972 24.5453 28.4454 24.3366 28.8414 24.0484C30.9451 25.0409 33.1439 25.9893 35.4236 26.8558C39.1788 28.2853 44.1865 29.8679 48.7094 30.7253L44.9783 53.1819C44.9783 54.4057 39.0278 57.2728 27.4868 57.2728C15.9458 57.2728 9.99514 54.4057 9.97441 52.9382L6.60748 32.7273H17.4915C20.2477 32.7273 22.4892 30.2811 22.4892 27.2727V16.1959C24.1715 16.2814 25.8587 16.3635 27.4868 16.3635C36.919 16.3635 46.8361 15.0552 51.775 12.2747L49.1547 28.0446ZM51.6198 28.4336L52.4628 23.373C56.5369 26.0314 57.4928 27.6821 57.4894 28.0358C57.1084 28.6191 55.0399 28.8618 51.6198 28.4336Z" fill="#43C951"/>
</svg>
