<svg width="60" height="60" viewBox="0 0 60 60" fill="none" xmlns="http://www.w3.org/2000/svg">
<path d="M56.6968 20.982C55.4401 19.9126 53.9267 19.2616 52.3323 18.9652C51.5058 12.518 46.0431 7.5 39.375 7.5H20.6249C13.9562 7.5 8.49327 12.5191 7.66744 18.9672C6.07462 19.2636 4.56019 19.9136 3.30316 20.982C1.20486 22.7673 0 25.371 0 28.1249C0 30.5017 0.902749 32.7685 2.54149 34.5062C3.32153 35.3339 3.74994 36.5936 3.74994 38.0548V46.8749C3.74994 47.9113 4.58854 48.7499 5.62491 48.7499H11.25V52.4998H14.9999V48.7499H45V52.4998H48.7499V48.7499H54.375C55.4113 48.7499 56.2499 47.9113 56.2499 46.8749V38.0548C56.2499 36.5936 56.6783 35.3339 57.4584 34.5062C59.0971 32.7686 59.9999 30.5017 59.9999 28.1249C60 25.371 58.7953 22.7673 56.6968 20.982ZM20.6251 11.2499H39.375C43.9886 11.2499 47.8126 14.607 48.5859 19.0026C44.3782 19.9423 41.25 23.9269 41.25 28.5259V33.75H18.75V28.5259C18.75 23.9277 15.6225 19.9438 11.4141 19.0031C12.1873 14.6077 16.0112 11.2499 20.6251 11.2499ZM54.7303 31.9354C53.2929 33.4607 52.5001 35.6341 52.5001 38.0548V45H7.50002V38.0548C7.50002 35.6341 6.7072 33.4607 5.26983 31.9354C4.29015 30.8953 3.75007 29.5422 3.75007 28.1251C3.75007 26.4734 4.47329 24.9098 5.73311 23.8385C7.01304 22.7509 8.65364 22.3114 10.3327 22.5787C12.9932 23.0108 15 25.5688 15 28.5259V33.75V37.4999H45.0001V33.75V28.5259C45.0001 25.5688 47.007 23.0108 49.6656 22.5787C51.3574 22.3004 52.9852 22.7472 54.267 23.8385C55.5268 24.9096 56.2501 26.4734 56.2501 28.1251C56.2501 29.5422 55.7098 30.8953 54.7303 31.9354Z" fill="#43C951"/>
</svg>
