<svg width="60" height="60" viewBox="0 0 60 60" fill="none" xmlns="http://www.w3.org/2000/svg">
<path d="M41.0713 25.8835C40.3361 26.0108 39.6052 26.1207 38.8883 26.2164L38.2493 19.5478C42.5356 16.8086 43.8071 12.0003 44.1474 8.70737C44.2535 7.64685 43.8254 6.60273 43.0056 5.92165C42.0148 5.09185 40.6806 4.79936 39.4335 5.13837C36.3486 5.93691 33.1836 6.38422 29.9983 6.47232C26.8131 6.38422 23.6477 5.93691 20.5632 5.13837C19.3157 4.79936 17.9808 5.09338 16.9911 5.92509C16.1712 6.60502 15.7424 7.64762 15.847 8.70737C16.1869 11.9995 17.4577 16.8071 21.7424 19.5463L21.1084 26.2175C20.3915 26.1207 19.6605 26.0108 18.9254 25.8842C17.6591 25.6554 16.3742 26.1737 15.6219 27.217C14.892 28.2116 14.797 29.5364 15.3769 30.6251C16.4257 32.4071 17.9968 33.8238 19.8772 34.6845L16.1636 52.4597C15.9351 53.5602 16.6111 54.6463 17.6996 54.9285C18.788 55.2107 19.9066 54.5895 20.2423 53.5168L23.2208 44.159H36.7766L39.7543 53.5133C40.0874 54.5906 41.209 55.2157 42.3009 54.9316C43.3924 54.6478 44.0677 53.5557 43.8331 52.4528L40.1229 34.6803C42.0033 33.82 43.5744 32.4029 44.6232 30.6209C45.2031 29.5322 45.1077 28.2078 44.3782 27.2128C43.624 26.1699 42.3375 25.6528 41.0713 25.8835ZM37.2375 26.4189C36.6645 26.4818 36.1117 26.5371 35.5791 26.5855L35.048 20.9924C35.5993 20.831 36.1391 20.6339 36.6649 20.4028L37.2375 26.4189ZM29.9983 21.6662C31.1413 21.6704 32.2824 21.5728 33.4079 21.3748L33.9138 26.7106C31.6011 26.8639 30.0273 26.8689 29.9968 26.8689C29.9659 26.8689 28.3941 26.8639 26.0795 26.7106L26.5853 21.3748C27.7123 21.5731 28.8542 21.6708 29.9983 21.6662ZM17.5054 8.53653C17.4608 8.01981 17.6763 7.51491 18.0803 7.18962C18.484 6.85061 18.9952 6.6668 19.5221 6.67138C19.7319 6.6729 19.9406 6.70074 20.1432 6.75451C23.3639 7.59423 26.6708 8.0587 29.9983 8.13841C33.3259 8.0587 36.6328 7.59423 39.8535 6.75451C40.5731 6.55507 41.3445 6.71904 41.9206 7.19382C42.323 7.51948 42.5371 8.024 42.4913 8.53996C41.9515 13.7667 39.3442 20.0001 29.9983 20.0001C27.5609 20.084 25.1455 19.515 23.0026 18.3516C22.9908 18.3458 22.9816 18.3367 22.9702 18.331C19.2062 16.1241 17.8735 12.0994 17.5054 8.53653ZM23.3353 20.3994C23.8606 20.6305 24.4008 20.8276 24.9521 20.9889L24.421 26.5813C23.8881 26.5348 23.3353 26.4791 22.7626 26.4147L23.3353 20.3994ZM18.6522 53.0153C18.5942 53.1987 18.4233 53.3234 18.2303 53.3227C18.0986 53.3234 17.9739 53.2643 17.8911 53.1617C17.8049 53.0595 17.7698 52.9238 17.7953 52.7926L21.4281 35.3869C22.2636 35.7252 23.1163 36.0196 23.9827 36.269L18.6522 53.0153ZM34.3956 36.6805L35.1846 39.1607H24.8121L25.6011 36.6805C28.5005 37.2937 31.4962 37.2937 34.3956 36.6805ZM23.7477 42.4929L24.2776 40.8268H35.7157L36.2456 42.4929H23.7477ZM42.1998 52.7861C42.2273 52.9192 42.1926 53.0576 42.1056 53.1617C42.0228 53.2643 41.898 53.3234 41.7664 53.3227C41.5722 53.3234 41.4006 53.1972 41.3437 53.0119L36.014 36.2675C36.8804 36.0181 37.7331 35.7237 38.5686 35.385L42.1998 52.7861ZM43.1463 29.8403C42.0472 31.9163 39.3427 33.6099 35.3281 34.7387C31.8426 35.7191 28.1541 35.7191 24.6686 34.7387C20.654 33.6099 17.9495 31.9163 16.8503 29.8403C16.5653 29.3144 16.6123 28.6707 16.9713 28.1917C17.3494 27.664 17.9998 27.4039 18.6381 27.5252C22.3933 28.1517 26.1912 28.4892 29.9983 28.535C33.8047 28.4892 37.6015 28.1513 41.3563 27.5252C41.9942 27.4039 42.6447 27.664 43.0231 28.1917C43.3825 28.67 43.4306 29.3137 43.1463 29.8403Z" fill="#43C951"/>
</svg>
