<svg width="60" height="60" viewBox="0 0 60 60" fill="none" xmlns="http://www.w3.org/2000/svg">
<path d="M44.0643 54.3732H15.9375C13.353 54.3732 11.25 52.2702 11.25 49.6857V4.6875C11.25 2.10297 13.353 0 15.9375 0H44.0643C46.6489 0 48.7518 2.10297 48.7518 4.6875V49.6857C48.7518 52.2702 46.6489 54.3732 44.0643 54.3732ZM15.9375 1.875C14.3871 1.875 13.125 3.13705 13.125 4.6875V49.6857C13.125 51.2361 14.3871 52.4982 15.9375 52.4982H44.0643C45.6148 52.4982 46.8768 51.2361 46.8768 49.6857V4.6875C46.8768 3.13705 45.6148 1.875 44.0643 1.875H15.9375Z" fill="#43C951"/>
<path d="M44.0643 60.0001H15.9375C13.353 60.0001 11.25 57.8972 11.25 55.3126V10.3145C11.25 9.79626 11.6689 9.37695 12.1875 9.37695C12.7061 9.37695 13.125 9.79626 13.125 10.3145V55.3126C13.125 56.8631 14.3871 58.1251 15.9375 58.1251H44.0643C45.6148 58.1251 46.8768 56.8631 46.8768 55.3126V10.3145C46.8768 9.79626 47.2961 9.37695 47.8143 9.37695C48.333 9.37695 48.7518 9.79626 48.7518 10.3145V55.3126C48.7518 57.8972 46.6489 60.0001 44.0643 60.0001Z" fill="#43C951"/>
<path d="M18.751 60.0001C18.2328 60.0001 17.8135 59.5813 17.8135 59.0626V57.1895C17.8135 56.6713 18.2328 56.252 18.751 56.252C19.2696 56.252 19.6885 56.6713 19.6885 57.1895V59.0626C19.6885 59.5813 19.2696 60.0001 18.751 60.0001Z" fill="#43C951"/>
<path d="M24.376 60.0001C23.8578 60.0001 23.4385 59.5813 23.4385 59.0626V57.1895C23.4385 56.6713 23.8578 56.252 24.376 56.252C24.8946 56.252 25.3135 56.6713 25.3135 57.1895V59.0626C25.3135 59.5813 24.8946 60.0001 24.376 60.0001Z" fill="#43C951"/>
<path d="M30.001 60.0001C29.4828 60.0001 29.0635 59.5813 29.0635 59.0626V57.1895C29.0635 56.6713 29.4828 56.252 30.001 56.252C30.5196 56.252 30.9385 56.6713 30.9385 57.1895V59.0626C30.9385 59.5813 30.5196 60.0001 30.001 60.0001Z" fill="#43C951"/>
<path d="M35.626 60.0001C35.1078 60.0001 34.6885 59.5813 34.6885 59.0626V57.1895C34.6885 56.6713 35.1078 56.252 35.626 56.252C36.1446 56.252 36.5635 56.6713 36.5635 57.1895V59.0626C36.5635 59.5813 36.1446 60.0001 35.626 60.0001Z" fill="#43C951"/>
<path d="M41.251 60.0001C40.7328 60.0001 40.3135 59.5813 40.3135 59.0626V57.1895C40.3135 56.6713 40.7328 56.252 41.251 56.252C41.7696 56.252 42.1885 56.6713 42.1885 57.1895V59.0626C42.1885 59.5813 41.7696 60.0001 41.251 60.0001Z" fill="#43C951"/>
<path d="M30.9375 10.3108C30.6976 10.3108 30.4573 10.2188 30.2746 10.0361L28.4015 8.16294C28.0348 7.79627 28.0348 7.20393 28.4015 6.83726C28.7681 6.47059 29.3605 6.47059 29.7271 6.83726L31.6003 8.71043C31.967 9.0771 31.967 9.66944 31.6003 10.0361C31.4177 10.2188 31.1773 10.3108 30.9375 10.3108Z" fill="#43C951"/>
<path d="M29.0643 10.3108C28.8244 10.3108 28.5846 10.2188 28.4015 10.0361C28.0348 9.66944 28.0348 9.0771 28.4015 8.71043L30.2746 6.83726C30.6413 6.47059 31.2337 6.47059 31.6003 6.83726C31.967 7.20393 31.967 7.79627 31.6003 8.16294L29.7271 10.0361C29.5445 10.2188 29.3042 10.3108 29.0643 10.3108Z" fill="#43C951"/>
<path d="M40.3296 10.3108C40.0897 10.3108 39.8494 10.2188 39.6667 10.0361L37.7936 8.16294C37.4269 7.79627 37.4269 7.20393 37.7936 6.83726C38.1602 6.47059 38.7526 6.47059 39.1192 6.83726L40.9924 8.71043C41.3591 9.0771 41.3591 9.66944 40.9924 10.0361C40.8084 10.2188 40.5685 10.3108 40.3296 10.3108Z" fill="#43C951"/>
<path d="M38.4564 10.3108C38.2165 10.3108 37.9762 10.2188 37.7936 10.0361C37.4269 9.66944 37.4269 9.0771 37.7936 8.71043L39.6667 6.83726C40.0334 6.47059 40.6257 6.47059 40.9924 6.83726C41.3591 7.20393 41.3591 7.79627 40.9924 8.16294L39.1192 10.0361C38.9352 10.2188 38.6954 10.3108 38.4564 10.3108Z" fill="#43C951"/>
<path d="M21.5757 10.3108C21.3353 10.3108 21.0955 10.2188 20.9128 10.0361L19.0396 8.16294C18.673 7.79627 18.673 7.20393 19.0396 6.83726C19.4063 6.47059 19.9987 6.47059 20.3653 6.83726L22.2385 8.71043C22.6047 9.0771 22.6047 9.66944 22.2385 10.0361C22.0545 10.2188 21.8155 10.3108 21.5757 10.3108Z" fill="#43C951"/>
<path d="M19.7025 10.3108C19.4622 10.3108 19.2223 10.2188 19.0396 10.0361C18.673 9.66944 18.673 9.0771 19.0396 8.71043L20.9128 6.83726C21.2795 6.47059 21.8718 6.47059 22.2385 6.83726C22.6047 7.20393 22.6047 7.79627 22.2385 8.16294L20.3653 10.0361C20.1813 10.2188 19.9424 10.3108 19.7025 10.3108Z" fill="#43C951"/>
<path d="M30.9375 29.0793C30.6976 29.0793 30.4573 28.9873 30.2746 28.8047L28.4015 26.9315C28.0348 26.5648 28.0348 25.9725 28.4015 25.6058C28.7681 25.2391 29.3605 25.2391 29.7271 25.6058L31.6003 27.479C31.967 27.8456 31.967 28.438 31.6003 28.8047C31.4177 28.9873 31.1773 29.0793 30.9375 29.0793Z" fill="#43C951"/>
<path d="M29.0643 29.0793C28.8244 29.0793 28.5846 28.9873 28.4015 28.8047C28.0348 28.438 28.0348 27.8456 28.4015 27.479L30.2746 25.6058C30.6413 25.2391 31.2337 25.2391 31.6003 25.6058C31.967 25.9725 31.967 26.5648 31.6003 26.9315L29.7271 28.8047C29.5445 28.9873 29.3042 29.0793 29.0643 29.0793Z" fill="#43C951"/>
<path d="M40.3296 29.0793C40.0897 29.0793 39.8494 28.9873 39.6667 28.8047L37.7936 26.9315C37.4269 26.5648 37.4269 25.9725 37.7936 25.6058C38.1602 25.2391 38.7526 25.2391 39.1192 25.6058L40.9924 27.479C41.3591 27.8456 41.3591 28.438 40.9924 28.8047C40.8084 28.9873 40.5685 29.0793 40.3296 29.0793Z" fill="#43C951"/>
<path d="M38.4564 29.0793C38.2165 29.0793 37.9762 28.9873 37.7936 28.8047C37.4269 28.438 37.4269 27.8456 37.7936 27.479L39.6667 25.6058C40.0334 25.2391 40.6257 25.2391 40.9924 25.6058C41.3591 25.9725 41.3591 26.5648 40.9924 26.9315L39.1192 28.8047C38.9352 28.9873 38.6954 29.0793 38.4564 29.0793Z" fill="#43C951"/>
<path d="M21.5757 29.0793C21.3353 29.0793 21.0955 28.9873 20.9128 28.8047L19.0396 26.9315C18.673 26.5648 18.673 25.9725 19.0396 25.6058C19.4063 25.2391 19.9987 25.2391 20.3653 25.6058L22.2385 27.479C22.6047 27.8456 22.6047 28.438 22.2385 28.8047C22.0545 28.9873 21.8155 29.0793 21.5757 29.0793Z" fill="#43C951"/>
<path d="M19.7025 29.0793C19.4622 29.0793 19.2223 28.9873 19.0396 28.8047C18.673 28.438 18.673 27.8456 19.0396 27.479L20.9128 25.6058C21.2795 25.2391 21.8718 25.2391 22.2385 25.6058C22.6047 25.9725 22.6047 26.5648 22.2385 26.9315L20.3653 28.8047C20.1813 28.9873 19.9424 29.0793 19.7025 29.0793Z" fill="#43C951"/>
<path d="M30.9375 47.8474C30.6976 47.8474 30.4573 47.7554 30.2746 47.5727L28.4015 45.6996C28.0348 45.3329 28.0348 44.7405 28.4015 44.3739C28.7681 44.0072 29.3605 44.0072 29.7271 44.3739L31.6003 46.247C31.967 46.6137 31.967 47.2061 31.6003 47.5727C31.4177 47.7554 31.1773 47.8474 30.9375 47.8474Z" fill="#43C951"/>
<path d="M29.0643 47.8474C28.8244 47.8474 28.5846 47.7554 28.4015 47.5727C28.0348 47.2061 28.0348 46.6137 28.4015 46.247L30.2746 44.3739C30.6413 44.0072 31.2337 44.0072 31.6003 44.3739C31.967 44.7405 31.967 45.3329 31.6003 45.6996L29.7271 47.5727C29.5445 47.7554 29.3042 47.8474 29.0643 47.8474Z" fill="#43C951"/>
<path d="M40.3296 47.8474C40.0897 47.8474 39.8494 47.7554 39.6667 47.5727L37.7936 45.6996C37.4269 45.3329 37.4269 44.7405 37.7936 44.3739C38.1602 44.0072 38.7526 44.0072 39.1192 44.3739L40.9924 46.247C41.3591 46.6137 41.3591 47.2061 40.9924 47.5727C40.8084 47.7554 40.5685 47.8474 40.3296 47.8474Z" fill="#43C951"/>
<path d="M38.4564 47.8474C38.2165 47.8474 37.9762 47.7554 37.7936 47.5727C37.4269 47.2061 37.4269 46.6137 37.7936 46.247L39.6667 44.3739C40.0334 44.0072 40.6257 44.0072 40.9924 44.3739C41.3591 44.7405 41.3591 45.3329 40.9924 45.6996L39.1192 47.5727C38.9352 47.7554 38.6954 47.8474 38.4564 47.8474Z" fill="#43C951"/>
<path d="M21.5757 47.8474C21.3353 47.8474 21.0955 47.7554 20.9128 47.5727L19.0396 45.6996C18.673 45.3329 18.673 44.7405 19.0396 44.3739C19.4063 44.0072 19.9987 44.0072 20.3653 44.3739L22.2385 46.247C22.6047 46.6137 22.6047 47.2061 22.2385 47.5727C22.0545 47.7554 21.8155 47.8474 21.5757 47.8474Z" fill="#43C951"/>
<path d="M19.7025 47.8474C19.4622 47.8474 19.2223 47.7554 19.0396 47.5727C18.673 47.2061 18.673 46.6137 19.0396 46.247L20.9128 44.3739C21.2795 44.0072 21.8718 44.0072 22.2385 44.3739C22.6047 44.7405 22.6047 45.3329 22.2385 45.6996L20.3653 47.5727C20.1813 47.7554 19.9424 47.8474 19.7025 47.8474Z" fill="#43C951"/>
<path d="M35.6295 19.6875C35.3896 19.6875 35.1498 19.5955 34.9667 19.4128L33.0935 17.5396C32.7273 17.173 32.7273 16.5806 33.0935 16.214C33.4602 15.8473 34.053 15.8473 34.4192 16.214L36.2924 18.0871C36.659 18.4538 36.659 19.0462 36.2924 19.4128C36.1097 19.5955 35.8698 19.6875 35.6295 19.6875Z" fill="#43C951"/>
<path d="M33.7563 19.6875C33.5165 19.6875 33.2766 19.5955 33.0935 19.4128C32.7273 19.0462 32.7273 18.4538 33.0935 18.0871L34.9667 16.214C35.3333 15.8473 35.9257 15.8473 36.2924 16.214C36.659 16.5806 36.659 17.173 36.2924 17.5396L34.4192 19.4128C34.2365 19.5955 33.9967 19.6875 33.7563 19.6875Z" fill="#43C951"/>
<path d="M26.268 19.6875C26.0282 19.6875 25.7878 19.5955 25.6052 19.4128L23.732 17.5396C23.3654 17.173 23.3654 16.5806 23.732 16.214C24.0987 15.8473 24.691 15.8473 25.0577 16.214L26.9309 18.0871C27.2976 18.4538 27.2976 19.0462 26.9309 19.4128C26.7469 19.5955 26.507 19.6875 26.268 19.6875Z" fill="#43C951"/>
<path d="M24.3949 19.6875C24.155 19.6875 23.9147 19.5955 23.732 19.4128C23.3654 19.0462 23.3654 18.4538 23.732 18.0871L25.6052 16.214C25.9719 15.8473 26.5642 15.8473 26.9309 16.214C27.2976 16.5806 27.2976 17.173 26.9309 17.5396L25.0577 19.4128C24.8742 19.5955 24.6338 19.6875 24.3949 19.6875Z" fill="#43C951"/>
<path d="M35.6295 38.4563C35.3896 38.4563 35.1498 38.3643 34.9667 38.1816L33.0935 36.3084C32.7273 35.9418 32.7273 35.3494 33.0935 34.9828C33.4602 34.6161 34.053 34.6161 34.4192 34.9828L36.2924 36.8559C36.659 37.2226 36.659 37.8149 36.2924 38.1816C36.1097 38.3643 35.8698 38.4563 35.6295 38.4563Z" fill="#43C951"/>
<path d="M33.7563 38.4563C33.5165 38.4563 33.2766 38.3643 33.0935 38.1816C32.7273 37.8149 32.7273 37.2226 33.0935 36.8559L34.9667 34.9828C35.3333 34.6161 35.9257 34.6161 36.2924 34.9828C36.659 35.3494 36.659 35.9418 36.2924 36.3084L34.4192 38.1816C34.2365 38.3643 33.9967 38.4563 33.7563 38.4563Z" fill="#43C951"/>
<path d="M26.268 38.4563C26.0282 38.4563 25.7878 38.3643 25.6052 38.1816L23.732 36.3084C23.3654 35.9418 23.3654 35.3494 23.732 34.9828C24.0987 34.6161 24.691 34.6161 25.0577 34.9828L26.9309 36.8559C27.2976 37.2226 27.2976 37.8149 26.9309 38.1816C26.7469 38.3643 26.507 38.4563 26.268 38.4563Z" fill="#43C951"/>
<path d="M24.3949 38.4563C24.155 38.4563 23.9147 38.3643 23.732 38.1816C23.3654 37.8149 23.3654 37.2226 23.732 36.8559L25.6052 34.9828C25.9719 34.6161 26.5642 34.6161 26.9309 34.9828C27.2976 35.3494 27.2976 35.9418 26.9309 36.3084L25.0577 38.1816C24.8742 38.3643 24.6338 38.4563 24.3949 38.4563Z" fill="#43C951"/>
</svg>
