<svg width="60" height="60" viewBox="0 0 60 60" fill="none" xmlns="http://www.w3.org/2000/svg">
<path d="M11.1778 43.4378C11.3495 43.6093 11.5745 43.6952 11.7994 43.6952C12.0243 43.6952 12.2493 43.6095 12.4209 43.4378L13.0127 42.846L13.6045 43.4378C13.7762 43.6093 14.0012 43.6952 14.2261 43.6952C14.451 43.6952 14.676 43.6095 14.8477 43.4378C15.1909 43.0945 15.1909 42.538 14.8477 42.1949L14.2557 41.603L14.8477 41.0111C15.1909 40.6678 15.1909 40.1113 14.8477 39.7682C14.5043 39.4249 13.9479 39.4249 13.6046 39.7682L13.0129 40.36L12.4211 39.7682C12.0777 39.4249 11.5213 39.4249 11.178 39.7682C10.8348 40.1114 10.8348 40.6679 11.178 41.0111L11.77 41.603L11.178 42.1949C10.8346 42.538 10.8346 43.0945 11.1778 43.4378Z" fill="#43C951"/>
<path d="M28.1651 28.857C28.3368 29.0286 28.5617 29.1144 28.7867 29.1144C29.0116 29.1144 29.2366 29.0286 29.4083 28.857L30.0002 28.265L30.5921 28.857C30.7638 29.0285 30.9888 29.1144 31.2137 29.1144C31.4385 29.1144 31.6635 29.0286 31.8352 28.857C32.1785 28.5137 32.1785 27.9572 31.8352 27.6141L31.2433 27.0222L31.8352 26.4302C32.1785 26.087 32.1785 25.5306 31.8352 25.1874C31.492 24.8441 30.9356 24.844 30.5922 25.1874L30.0001 25.779L29.4082 25.1871C29.0648 24.8439 28.5084 24.8439 28.1651 25.1871C27.8219 25.5304 27.8219 26.0869 28.1651 26.43L28.7571 27.0219L28.1651 27.6138C27.8219 27.9572 27.8219 28.5137 28.1651 28.857Z" fill="#43C951"/>
<path d="M56.846 2.88974e-06H41.8304C41.1039 2.88974e-06 40.4477 0 39.8285 0C39.6223 0 39.6091 0 39.5 0C38.6583 0 38.2344 2.88974e-06 37.5079 2.88974e-06H22.4923C21.7656 2.88974e-06 21.5 0 20.5 4.45948e-07C20.332 5.20854e-07 20.3477 7.17026e-07 20.1715 4.45948e-07C19 -1.35709e-06 18.8961 2.88974e-06 18.1696 2.88974e-06H3.15398C1.4148 2.88974e-06 0 1.41492 0 3.15399V10.093C0 10.5784 0.393398 10.9719 0.878906 10.9719C1.36441 10.9719 1.75781 10.5784 1.75781 10.093V3.15399C1.75781 2.38418 2.38418 1.75782 3.15398 1.75782H18.1697C18.4956 1.75782 18.5312 1.75782 19.0834 1.75782C20.2383 1.75782 20.4883 1.75782 21.6411 1.75782C21.9844 1.75782 22.1664 1.75782 22.4923 1.75782H37.5079C37.8337 1.75782 38.052 1.75782 38.4423 1.75782C39.552 1.75782 40.052 1.75782 41 1.75782C41.552 1.75782 41.5045 1.75782 41.8304 1.75782H56.846C57.6158 1.75782 58.2422 2.38418 58.2421 3.15399V51.7818C57.8209 51.5729 57.347 51.4549 56.8459 51.4549H45.2432C44.7577 51.4549 44.3643 51.8484 44.3643 52.3338C44.3643 52.8192 44.7577 53.2127 45.2432 53.2127H56.8459C57.6157 53.2127 58.2421 53.8391 58.2421 54.6089V55.7079V56.846C58.2421 57.6158 57.6157 58.2422 56.8459 58.2422H41.8303C41.5044 58.2422 41.1993 58.1333 40.9479 57.9272C40.1948 57.3096 39.1432 57.3096 38.3902 57.9272C38.1389 58.1332 37.8336 58.2422 37.5077 58.2422H22.4921C22.1662 58.2422 21.8611 58.1333 21.6097 57.9272C20.8568 57.3096 19.8052 57.3096 19.052 57.9272C18.8007 58.1332 18.4955 58.2422 18.1696 58.2422H3.15398C2.38418 58.2422 1.75781 57.6158 1.75781 56.846V55.7079V54.6089C1.75781 53.8391 2.38418 53.2127 3.15398 53.2127H18.1697C18.4956 53.2127 18.8007 53.3216 19.0521 53.5277C19.805 54.1453 20.8567 54.1453 21.6098 53.5277C21.8611 53.3217 22.1664 53.2127 22.4923 53.2127H37.508C37.8339 53.2127 38.139 53.3216 38.3904 53.5277C39.1434 54.1453 40.1951 54.1453 40.9481 53.5277C41.1994 53.3217 41.5047 53.2127 41.8305 53.2127H45.2432C45.7287 53.2127 46.1221 52.8192 46.1221 52.3338C46.1221 51.8484 45.7287 51.4549 45.2432 51.4549H41.8305C41.104 51.4549 40.3946 51.7084 39.8334 52.1686C39.7337 52.2503 39.6049 52.2505 39.505 52.1686C38.9438 51.7084 38.2344 51.4549 37.5079 51.4549H22.4923C21.7657 51.4549 21.0564 51.7084 20.4952 52.1686C20.3954 52.2503 20.2666 52.2505 20.1667 52.1686C19.6055 51.7084 18.8961 51.4549 18.1696 51.4549H3.15398C2.65289 51.4549 2.17898 51.5729 1.75781 51.7818V8C1.75781 7.51461 1.36441 7.1211 0.878906 7.1211C0.393398 7.1211 0 7.51461 0 8L0 54.6089V55.7079V56.846C0 58.5851 1.4148 60 3.15398 60H18.1696C18.8961 60 19.6055 59.7465 20.1667 59.2863C20.2664 59.2047 20.3952 59.2044 20.4952 59.2863C21.0564 59.7465 21.7657 60 22.4923 60H37.5077C38.2343 60 38.9436 59.7465 39.5048 59.2863C39.6047 59.2047 39.7334 59.2044 39.8333 59.2863C40.3945 59.7465 41.1039 60 41.8304 60H56.846C58.5852 60 60 58.5851 60 56.846V55.7079V54.6089V3.15399C60 1.41492 58.5852 2.88974e-06 56.846 2.88974e-06Z" fill="#43C951"/>
<path d="M11.1778 14.3167C11.3495 14.4883 11.5745 14.5741 11.7994 14.5741C12.0243 14.5741 12.2493 14.4884 12.4209 14.3167L13.0127 13.7249L13.6045 14.3167C13.7762 14.4883 14.0012 14.5741 14.2261 14.5741C14.451 14.5741 14.676 14.4884 14.8477 14.3167C15.1909 13.9734 15.1909 13.4169 14.8477 13.0738L14.2557 12.4819L14.8477 11.89C15.1909 11.5467 15.1909 10.9902 14.8477 10.6471C14.5043 10.3038 13.9479 10.3038 13.6046 10.6471L13.0129 11.2389L12.4211 10.6471C12.0777 10.3038 11.5213 10.3038 11.178 10.6471C10.8348 10.9903 10.8348 11.5468 11.178 11.89L11.77 12.4819L11.178 13.0738C10.8346 13.4169 10.8346 13.9734 11.1778 14.3167Z" fill="#43C951"/>
<path d="M11.1778 28.857C11.3495 29.0286 11.5745 29.1145 11.7994 29.1145C12.0243 29.1145 12.2493 29.0287 12.4209 28.857L13.0127 28.2652L13.6045 28.857C13.7762 29.0287 14.0011 29.1145 14.2261 29.1145C14.451 29.1145 14.676 29.0287 14.8477 28.857C15.1909 28.5138 15.1909 27.9574 14.8477 27.6141L14.2557 27.0222L14.8477 26.4303C15.1909 26.0871 15.1909 25.5305 14.8477 25.1874C14.5043 24.8442 13.9479 24.8442 13.6046 25.1874L13.0129 25.7792L12.4211 25.1874C12.0778 24.8442 11.5214 24.844 11.178 25.1874C10.8348 25.5306 10.8348 26.0872 11.178 26.4303L11.77 27.0222L11.178 27.6141C10.8346 27.9573 10.8346 28.5138 11.1778 28.857Z" fill="#43C951"/>
<path d="M28.1651 14.3166C28.3368 14.4883 28.5617 14.5741 28.7867 14.5741C29.0116 14.5741 29.2366 14.4883 29.4081 14.3166L30.0002 13.7246L30.5922 14.3166C30.7638 14.4883 30.9888 14.5741 31.2137 14.5741C31.4385 14.5741 31.6635 14.4883 31.8352 14.3166C32.1785 13.9734 32.1785 13.4168 31.8351 13.0737L31.2432 12.4818L31.8351 11.8899C32.1785 11.5466 32.1785 10.9902 31.8352 10.647C31.492 10.3038 30.9354 10.3038 30.5923 10.647L30.0001 11.2389L29.408 10.6469C29.0649 10.3035 28.5084 10.3036 28.1651 10.6469C27.8219 10.9901 27.8219 11.5466 28.1653 11.8898L28.7572 12.4817L28.1653 13.0736C27.8219 13.4168 27.8219 13.9734 28.1651 14.3166Z" fill="#43C951"/>
<path d="M45.1524 28.857C45.3241 29.0286 45.5491 29.1145 45.774 29.1145C45.9989 29.1145 46.2239 29.0287 46.3955 28.857L46.9873 28.2652L47.5791 28.857C47.7508 29.0287 47.9757 29.1145 48.2007 29.1145C48.4256 29.1145 48.6506 29.0287 48.8223 28.857C49.1655 28.5138 49.1655 27.9574 48.8223 27.6141L48.2303 27.0222L48.8223 26.4303C49.1655 26.0871 49.1655 25.5305 48.8223 25.1874C48.4789 24.8442 47.9225 24.8442 47.5793 25.1874L46.9875 25.7792L46.3957 25.1874C46.0523 24.8442 45.4959 24.844 45.1527 25.1874C44.8094 25.5306 44.8094 26.0872 45.1527 26.4303L45.7446 27.0222L45.1527 27.6141C44.8092 27.9573 44.8092 28.5138 45.1524 28.857Z" fill="#43C951"/>
<path d="M45.1524 43.4378C45.3241 43.6093 45.5491 43.6952 45.774 43.6952C45.9989 43.6952 46.2239 43.6095 46.3955 43.4378L46.9873 42.846L47.5791 43.4378C47.7508 43.6093 47.9758 43.6952 48.2007 43.6952C48.4256 43.6952 48.6506 43.6095 48.8223 43.4378C49.1655 43.0945 49.1655 42.538 48.8223 42.1949L48.2303 41.603L48.8223 41.0111C49.1655 40.6678 49.1655 40.1113 48.8223 39.7682C48.4789 39.4249 47.9225 39.4249 47.5793 39.7682L46.9875 40.36L46.3957 39.7682C46.0523 39.4249 45.4959 39.4249 45.1527 39.7682C44.8094 40.1114 44.8094 40.6679 45.1527 41.0111L45.7446 41.603L45.1527 42.1949C44.8092 42.538 44.8092 43.0945 45.1524 43.4378Z" fill="#43C951"/>
<path d="M28.1651 43.4376C28.3368 43.6093 28.5617 43.695 28.7867 43.695C29.0116 43.695 29.2366 43.6093 29.4081 43.4376L30.0002 42.8456L30.5922 43.4376C30.7638 43.6093 30.9888 43.695 31.2137 43.695C31.4385 43.695 31.6635 43.6093 31.8352 43.4376C32.1785 43.0943 32.1785 42.5378 31.8351 42.1947L31.2432 41.6028L31.8351 41.0109C32.1782 40.6677 32.1782 40.1113 31.835 39.768C31.4917 39.4247 30.9352 39.4246 30.5921 39.768L30.0001 40.36L29.408 39.768C29.0649 39.4246 28.5084 39.4247 28.1651 39.768C27.8219 40.1112 27.8219 40.6677 28.1653 41.0109L28.7572 41.6028L28.1653 42.1947C27.8219 42.5379 27.8219 43.0943 28.1651 43.4376Z" fill="#43C951"/>
<path d="M45.1524 14.3167C45.3241 14.4883 45.5491 14.5741 45.774 14.5741C45.9989 14.5741 46.2239 14.4884 46.3955 14.3167L46.9873 13.7249L47.5791 14.3167C47.7508 14.4883 47.9758 14.5741 48.2007 14.5741C48.4256 14.5741 48.6506 14.4884 48.8223 14.3167C49.1655 13.9734 49.1655 13.4169 48.8223 13.0738L48.2303 12.4819L48.8223 11.89C49.1655 11.5467 49.1655 10.9902 48.8223 10.6471C48.4789 10.3038 47.9225 10.3038 47.5793 10.6471L46.9875 11.2389L46.3957 10.6471C46.0523 10.3038 45.4959 10.3038 45.1527 10.6471C44.8094 10.9903 44.8094 11.5468 45.1527 11.89L45.7446 12.4819L45.1527 13.0738C44.8092 13.4169 44.8092 13.9734 45.1524 14.3167Z" fill="#43C951"/>
</svg>
