<svg width="60" height="60" viewBox="0 0 60 60" fill="none" xmlns="http://www.w3.org/2000/svg">
<path d="M49.5375 31.725V26.25V26.2498C49.5387 25.1352 49.9243 24.0551 50.6293 23.1917C51.3084 22.36 52.2438 21.7785 53.2875 21.5367V19.6877C53.2856 17.9875 52.6094 16.3575 51.4072 15.1553C50.205 13.9531 48.5751 13.2769 46.875 13.275C46.8749 13.275 46.8749 13.275 46.8748 13.275M49.5375 31.725L46.875 13.125L46.8748 13.275M49.5375 31.725H10.4625V26.25V26.2498C10.4613 25.1352 10.0757 24.0551 9.37072 23.1917C8.69163 22.36 7.75624 21.7785 6.7125 21.5367V19.6877C6.71438 17.9875 7.3906 16.3575 8.5928 15.1553C9.79496 13.9531 11.4249 13.2769 13.125 13.275M49.5375 31.725L13.125 13.275M46.8748 13.275H13.1252M46.8748 13.275H13.1252M13.1252 13.275L13.125 13.275M13.1252 13.275L13.125 13.275M55.4625 19.6875V19.6873C55.4599 17.4106 54.5543 15.2279 52.9444 13.6181C51.3346 12.0082 49.1519 11.1026 46.8752 11.1H46.875L13.125 11.1L13.1248 11.1C10.8481 11.1026 8.66543 12.0082 7.05556 13.6181C5.4457 15.2279 4.54012 17.4106 4.5375 19.6873V19.6875V21.5367C3.49376 21.7785 2.55837 22.36 1.87928 23.1917C1.1743 24.0551 0.788687 25.1352 0.7875 26.2498V26.25V44.0625C0.7875 44.3509 0.902075 44.6275 1.10602 44.8315C1.30997 45.0354 1.58658 45.15 1.875 45.15H2.6625V48.75C2.6625 49.0384 2.77708 49.315 2.98102 49.519C3.18497 49.7229 3.46158 49.8375 3.75 49.8375H7.40571C7.40574 49.8375 7.40576 49.8375 7.40579 49.8375C7.65715 49.8376 7.90077 49.7505 8.09512 49.5911C8.2895 49.4317 8.42257 49.2098 8.47165 48.9633L8.47474 48.9477L8.47452 48.9319L8.42089 45.15H51.5791L51.5255 48.9319L51.5252 48.9477L51.5283 48.9633C51.5774 49.2098 51.7105 49.4317 51.9049 49.5911C52.0992 49.7505 52.3428 49.8376 52.5942 49.8375C52.5942 49.8375 52.5943 49.8375 52.5943 49.8375H56.25C56.5384 49.8375 56.815 49.7229 57.019 49.519C57.2229 49.315 57.3375 49.0384 57.3375 48.75V45.15H58.125C58.4134 45.15 58.69 45.0354 58.894 44.8315C59.0979 44.6275 59.2125 44.3509 59.2125 44.0625V26.25V26.2498C59.2113 25.1352 58.8257 24.0551 58.1207 23.1917C57.4416 22.36 56.5062 21.7785 55.4625 21.5367V19.6875ZM49.5375 33.9V39.225H10.4625V33.9H49.5375ZM6.20625 47.6625H4.8375V45.15H6.20625V47.6625ZM55.1625 47.6625H53.7938V45.15H55.1625V47.6625ZM57.0375 42.975H2.9625V26.25C2.9625 25.5439 3.24301 24.8666 3.74233 24.3673C4.24164 23.868 4.91886 23.5875 5.625 23.5875C6.33114 23.5875 7.00836 23.868 7.50767 24.3673C8.00699 24.8666 8.2875 25.5439 8.2875 26.25V40.3125C8.2875 40.6009 8.40208 40.8775 8.60602 41.0815C8.80997 41.2854 9.08658 41.4 9.375 41.4H50.625C50.9134 41.4 51.19 41.2854 51.394 41.0815C51.5979 40.8775 51.7125 40.6009 51.7125 40.3125V26.25C51.7125 25.5439 51.993 24.8666 52.4923 24.3673C52.9916 23.868 53.6689 23.5875 54.375 23.5875C55.0811 23.5875 55.7584 23.868 56.2577 24.3673C56.757 24.8666 57.0375 25.5439 57.0375 26.25V42.975Z" fill="#43C951" stroke="#43C951" stroke-width="0.3"/>
<path d="M30 25.3125C30.5563 25.3125 31.1 25.1476 31.5625 24.8385C32.0251 24.5295 32.3855 24.0902 32.5984 23.5763C32.8113 23.0624 32.867 22.4969 32.7585 21.9513C32.6499 21.4057 32.3821 20.9046 31.9887 20.5113C31.5954 20.1179 31.0943 19.8501 30.5487 19.7415C30.0031 19.633 29.4376 19.6887 28.9237 19.9016C28.4098 20.1145 27.9705 20.4749 27.6615 20.9375C27.3524 21.4 27.1875 21.9437 27.1875 22.5C27.1884 23.2457 27.485 23.9605 28.0122 24.4878C28.5395 25.015 29.2543 25.3116 30 25.3125ZM30 21.5625C30.1854 21.5625 30.3667 21.6175 30.5208 21.7205C30.675 21.8235 30.7952 21.9699 30.8661 22.1412C30.9371 22.3125 30.9557 22.501 30.9195 22.6829C30.8833 22.8648 30.794 23.0318 30.6629 23.1629C30.5318 23.294 30.3648 23.3833 30.1829 23.4195C30.001 23.4557 29.8125 23.4371 29.6412 23.3661C29.4699 23.2952 29.3235 23.175 29.2205 23.0208C29.1175 22.8667 29.0625 22.6854 29.0625 22.5C29.0628 22.2514 29.1616 22.0132 29.3374 21.8374C29.5132 21.6616 29.7514 21.5628 30 21.5625Z" fill="#43C951"/>
<path d="M18.75 25.3125C19.3063 25.3125 19.85 25.1476 20.3125 24.8385C20.7751 24.5295 21.1355 24.0902 21.3484 23.5763C21.5613 23.0624 21.617 22.4969 21.5085 21.9513C21.3999 21.4057 21.1321 20.9046 20.7387 20.5113C20.3454 20.1179 19.8443 19.8501 19.2987 19.7415C18.7531 19.633 18.1876 19.6887 17.6737 19.9016C17.1598 20.1145 16.7205 20.4749 16.4115 20.9375C16.1024 21.4 15.9375 21.9437 15.9375 22.5C15.9384 23.2457 16.235 23.9605 16.7622 24.4878C17.2895 25.015 18.0043 25.3116 18.75 25.3125ZM18.75 21.5625C18.9354 21.5625 19.1167 21.6175 19.2708 21.7205C19.425 21.8235 19.5452 21.9699 19.6161 22.1412C19.6871 22.3125 19.7057 22.501 19.6695 22.6829C19.6333 22.8648 19.544 23.0318 19.4129 23.1629C19.2818 23.294 19.1148 23.3833 18.9329 23.4195C18.751 23.4557 18.5625 23.4371 18.3912 23.3661C18.2199 23.2952 18.0735 23.175 17.9705 23.0208C17.8675 22.8667 17.8125 22.6854 17.8125 22.5C17.8128 22.2514 17.9116 22.0132 18.0874 21.8374C18.2631 21.6616 18.5014 21.5628 18.75 21.5625Z" fill="#43C951"/>
<path d="M41.25 25.3125C41.8063 25.3125 42.35 25.1476 42.8125 24.8385C43.2751 24.5295 43.6355 24.0902 43.8484 23.5763C44.0613 23.0624 44.117 22.4969 44.0085 21.9513C43.8999 21.4057 43.6321 20.9046 43.2387 20.5113C42.8454 20.1179 42.3443 19.8501 41.7987 19.7415C41.2531 19.633 40.6876 19.6887 40.1737 19.9016C39.6598 20.1145 39.2205 20.4749 38.9115 20.9375C38.6025 21.4 38.4375 21.9437 38.4375 22.5C38.4384 23.2457 38.735 23.9605 39.2622 24.4878C39.7895 25.015 40.5043 25.3116 41.25 25.3125ZM41.25 21.5625C41.4354 21.5625 41.6167 21.6175 41.7708 21.7205C41.925 21.8235 42.0452 21.9699 42.1161 22.1412C42.1871 22.3125 42.2057 22.501 42.1695 22.6829C42.1333 22.8648 42.044 23.0318 41.9129 23.1629C41.7818 23.294 41.6148 23.3833 41.4329 23.4195C41.251 23.4557 41.0625 23.4371 40.8912 23.3661C40.7199 23.2952 40.5735 23.175 40.4705 23.0208C40.3675 22.8667 40.3125 22.6854 40.3125 22.5C40.3128 22.2514 40.4116 22.0132 40.5874 21.8374C40.7632 21.6616 41.0014 21.5628 41.25 21.5625Z" fill="#43C951"/>
</svg>
