<svg width="60" height="60" viewBox="0 0 60 60" fill="none" xmlns="http://www.w3.org/2000/svg">
<path d="M56.1884 21.7197V17.3166C56.1884 11.9278 52.4425 10.022 48.8938 10.022H11.1062C7.5575 10.022 3.81161 11.9278 3.81161 17.3166V21.7197C1.64294 22.2454 0 24.2169 0 26.5828V42.0264C0 43.4721 1.18291 44.655 2.6287 44.655H3.87733V47.6123C3.87733 48.9267 4.92881 49.9782 6.24315 49.9782H8.87185C10.1862 49.9782 11.2377 48.9267 11.2377 47.6123V44.655H48.7623V47.6123C48.7623 48.9267 49.8138 49.9782 51.1281 49.9782H53.7568C55.0712 49.9782 56.1227 48.9267 56.1227 47.6123V44.655H57.3713C58.8171 44.655 60 43.4721 60 42.0264V26.5828C60 24.2169 58.3571 22.2454 56.1884 21.7197ZM6.11172 17.3823C6.17744 13.2421 8.87185 12.3878 11.1062 12.3878H48.6309C50.8653 12.3878 53.6254 13.2421 53.6254 17.3823V21.7854C51.4567 22.3111 49.8138 24.2827 49.8138 26.5828V27.9628H9.92333V26.5828C9.92333 24.2827 8.28039 22.3111 6.11172 21.7854V17.3823ZM49.8138 30.3287V34.8632H30.7557V30.3287H49.8138ZM28.3899 30.3287V34.8632H9.92333V30.3287H28.3899ZM8.80613 47.6123H6.17744V44.655H8.80613V47.6123ZM53.6254 47.6123H50.9967V44.655H53.6254V47.6123ZM57.5027 42.0264C57.5027 42.1578 57.3713 42.2892 57.2399 42.2892H53.6911H51.0624H8.80613H6.17744H2.6287C2.49726 42.2892 2.36583 42.1578 2.36583 42.0264V26.5828C2.36583 25.137 3.54874 23.9541 4.99452 23.9541C6.44031 23.9541 7.62322 25.137 7.62322 26.5828V36.0461C7.62322 36.7032 8.14896 37.229 8.80613 37.229H51.0624C51.7196 37.229 52.2453 36.7032 52.2453 36.0461V26.5828C52.2453 25.137 53.4283 23.9541 54.874 23.9541C56.3198 23.9541 57.5027 25.137 57.5027 26.5828V42.0264Z" fill="#43C951"/>
<path d="M16.758 16.7251C14.7208 16.7251 13.1436 18.3023 13.1436 20.3396C13.1436 22.3111 14.7865 23.954 16.758 23.954C18.7295 23.954 20.3725 22.3768 20.3725 20.3396C20.3725 18.368 18.7953 16.7251 16.758 16.7251ZM16.758 21.5882C16.1008 21.5882 15.5094 21.0624 15.5094 20.3396C15.5094 19.6167 16.0351 19.0909 16.758 19.0909C17.4152 19.0909 18.0066 19.6167 18.0066 20.3396C18.0066 21.0624 17.4152 21.5882 16.758 21.5882Z" fill="#43C951"/>
<path d="M42.4533 16.7251C40.4161 16.7251 38.8389 18.3023 38.8389 20.3396C38.9046 22.3111 40.4818 23.954 42.4533 23.954C44.4248 23.954 46.0678 22.3768 46.0678 20.3396C46.0678 18.368 44.4906 16.7251 42.4533 16.7251ZM42.4533 21.5882C41.7961 21.5882 41.2047 21.0624 41.2047 20.3396C41.2047 19.6167 41.7961 19.0909 42.4533 19.0909C43.1105 19.0909 43.702 19.6167 43.702 20.3396C43.702 21.0624 43.1762 21.5882 42.4533 21.5882Z" fill="#43C951"/>
</svg>
