<svg width="60" height="60" viewBox="0 0 60 60" fill="none" xmlns="http://www.w3.org/2000/svg">
<path d="M52.6243 0H7.37544C6.83245 0 6.47046 0.361991 6.47046 0.904977V59.095C6.47046 59.638 6.83245 60 7.37544 60H52.6243C53.1673 60 53.5293 59.638 53.5293 59.095V0.904977C53.5293 0.361991 53.1673 0 52.6243 0ZM51.7193 58.19H8.28041V1.80995H51.7193V58.19Z" fill="#43C951"/>
<path d="M48.3711 4.07227H11.5385C10.9955 4.07227 10.6335 4.43426 10.6335 4.97724V54.932C10.6335 55.475 10.9955 55.837 11.5385 55.837H48.3711C48.9141 55.837 49.2761 55.475 49.2761 54.932V4.97724C49.2761 4.52475 48.9141 4.07227 48.3711 4.07227ZM12.4435 5.88222H29.0046V37.3754H12.4435V5.88222ZM47.4661 54.027H12.4435V37.3754H29.0046V54.932H30.8145V37.3754H47.4661V54.027ZM47.4661 37.3754H30.8145V5.88222H47.4661V37.3754Z" fill="#43C951"/>
</svg>
