<svg width="60" height="60" viewBox="0 0 60 60" fill="none" xmlns="http://www.w3.org/2000/svg">
<path d="M60 34.25L60 2.75C60 2.28587 59.8104 1.84075 59.4728 1.51256C59.1352 1.18437 58.6774 1 58.2 1L25.8 0.999999C25.3226 0.999998 24.8648 1.18437 24.5272 1.51256C24.1896 1.84075 24 2.28587 24 2.75L24 34.25C24 34.7141 24.1896 35.1592 24.5272 35.4874C24.8648 35.8156 25.3226 36 25.8 36L58.2 36C58.6774 36 59.1352 35.8156 59.4728 35.4874C59.8104 35.1592 60 34.7141 60 34.25ZM25.8 34.5L25.8 2.5L45.6 2.5L45.6 34.5L25.8 34.5ZM45.6 34.5L45.6 2.5L58.2 2.5L58.2 34.5L45.6 34.5Z" fill="#43C951"/>
<path d="M23 34.7336V3C23 2.44772 22.5523 2 22 2H3C2.44772 2 2 2.44771 2 3V34.7336M23 34.7336V55C23 55.5523 22.5523 56 22 56H3C2.44772 56 2 55.5523 2 55V34.7336M23 34.7336H2" stroke="#43C951" stroke-width="1.6"/>
<path d="M4.45884 32V5C4.45884 4.8067 4.61554 4.65 4.80884 4.65H20.4112C20.6045 4.65 20.7612 4.8067 20.7612 5V32C20.7612 32.1933 20.6045 32.35 20.4112 32.35H4.80884C4.61554 32.35 4.45884 32.1933 4.45884 32Z" stroke="#43C951" stroke-width="1.3"/>
<path d="M27.7467 32V5C27.7467 4.8067 27.9034 4.65 28.0967 4.65H55.9999C56.1932 4.65 56.3499 4.8067 56.3499 5V32C56.3499 32.1933 56.1932 32.35 55.9999 32.35H28.0967C27.9034 32.35 27.7467 32.1933 27.7467 32Z" stroke="#43C951" stroke-width="1.3"/>
</svg>
