<svg width="60" height="60" viewBox="0 0 60 60" fill="none" xmlns="http://www.w3.org/2000/svg">
<path d="M59.3465 8.09424H0.71588C0.286352 8.09424 0 8.38059 0 8.81012V51.1902C0 51.6198 0.286352 51.9061 0.71588 51.9061H59.2749C59.7044 51.9061 59.9908 51.6198 59.9908 51.1902V8.81012C60.0624 8.38059 59.7044 8.09424 59.3465 8.09424ZM1.43176 50.4743V9.526H58.559V50.4743H1.43176Z" fill="#43C951"/>
<path d="M56.2682 11.3872H3.86578C3.43625 11.3872 3.1499 11.6736 3.1499 12.1031V47.8971C3.1499 48.255 3.43625 48.613 3.86578 48.613H56.2682C56.6977 48.613 56.9841 48.3266 56.9841 47.8971V12.1031C56.9841 11.6736 56.6977 11.3872 56.2682 11.3872ZM48.2504 12.819H55.4807V19.1187H48.2504V12.819ZM39.3734 12.819H46.8186V19.1187H39.3734V12.819ZM30.7113 12.819H37.9417V19.1187H30.7113V12.819ZM21.9776 12.819H29.3511V19.1187H29.2795H21.9776V12.819ZM4.58166 12.819H11.8121V19.1187H4.58166V12.819ZM20.5458 46.9665C20.5458 47.038 20.5458 47.1096 20.5458 47.1096H4.58166V20.5505H20.5458V46.9665ZM20.5458 19.1187H13.2438V12.819H20.5458V19.1187ZM38.0133 46.9665C38.0133 47.038 38.0133 47.1096 38.0133 47.1096H21.906C21.906 47.038 21.906 47.038 21.906 46.9665V20.5505H21.9776H38.0133V46.9665ZM55.4807 47.1096H39.3734C39.3734 47.0917 39.3734 47.0738 39.3734 47.038V20.5505H55.4807V47.1096Z" fill="#43C951"/>
</svg>
