<svg width="86" height="86" viewBox="0 0 86 86" fill="none" xmlns="http://www.w3.org/2000/svg">
<path fill-rule="evenodd" clip-rule="evenodd" d="M13.9881 31.2137C13.9798 31.2238 13.9683 31.2337 13.9582 31.242C13.9059 31.2778 13.8361 31.2804 13.7835 31.2378C13.7203 31.1879 13.7104 31.0954 13.7578 31.0339C13.9756 30.7556 14.1095 30.422 14.1437 30.0702C14.152 29.9877 14.2244 29.9297 14.3016 29.938C14.384 29.9463 14.4422 30.0176 14.4339 30.0976C14.3941 30.5059 14.2402 30.8918 13.9881 31.2135V31.2137ZM11.2238 28.3863C10.3938 28.9817 10.2042 30.1395 10.7981 30.9702C10.8438 31.0341 10.8304 31.1265 10.7639 31.1722C10.6981 31.2196 10.6083 31.2038 10.5619 31.138C9.87398 30.1776 10.0937 28.838 11.0541 28.15C11.1199 28.1017 11.2123 28.1178 11.258 28.1842C11.3062 28.2481 11.2903 28.3396 11.2238 28.3863ZM14.354 28.422C13.544 27.29 11.964 27.0298 10.8346 27.8398C9.7019 28.6498 9.44234 30.23 10.2524 31.3602C11.0616 32.4922 12.6418 32.7524 13.772 31.9415C14.9047 31.1315 15.1642 29.5513 14.354 28.422Z" fill="#43C951"/>
<path fill-rule="evenodd" clip-rule="evenodd" d="M18.7785 31.9416C18.7318 31.9756 18.6686 31.9773 18.6163 31.9433C18.5522 31.8999 18.5347 31.8118 18.5779 31.7478C18.6844 31.5913 18.7526 31.4117 18.7785 31.2255C18.7884 31.1475 18.8608 31.0933 18.9365 31.1033C19.0145 31.1133 19.0687 31.1856 19.0578 31.2639C19.0263 31.4916 18.9421 31.7153 18.8125 31.9058C18.8041 31.92 18.7924 31.9315 18.7785 31.9416ZM16.8397 30.0554C16.2884 30.4513 16.1604 31.2238 16.5561 31.7752C16.6019 31.8393 16.5861 31.9275 16.5245 31.974C16.4598 32.0173 16.3725 32.0039 16.3259 31.94C15.8402 31.2613 15.9965 30.3132 16.6759 29.8275C16.7384 29.7818 16.8265 29.795 16.8723 29.8601C16.918 29.924 16.9046 30.0114 16.8397 30.0554ZM18.9122 30.0878C18.3768 29.3393 17.3346 29.1682 16.5861 29.7035C15.8402 30.2401 15.6681 31.282 16.2019 32.0299C16.7384 32.7757 17.7803 32.947 18.5281 32.4131C19.2766 31.8775 19.4487 30.8329 18.9122 30.0878Z" fill="#43C951"/>
<path fill-rule="evenodd" clip-rule="evenodd" d="M21.7701 28.7055C21.7618 28.7154 21.7536 28.7253 21.7444 28.7312C21.7079 28.7569 21.6605 28.7595 21.6197 28.7337C21.5724 28.6995 21.5606 28.6338 21.594 28.584C21.7036 28.4235 21.7718 28.2337 21.7876 28.0351C21.7942 27.9778 21.8458 27.9337 21.904 27.9396C21.9622 27.9437 22.0063 27.9952 22.0023 28.0534C21.9823 28.288 21.9024 28.5133 21.7701 28.7054V28.7055ZM19.9964 27.0198C19.4881 27.3833 19.37 28.0959 19.7343 28.6032C19.7701 28.6513 19.7586 28.7181 19.7102 28.7537C19.6619 28.7879 19.5964 28.7753 19.5598 28.727C19.1282 28.1233 19.2661 27.2794 19.8724 26.8461C19.9198 26.8119 19.9856 26.8218 20.0204 26.8691C20.0563 26.9175 20.0438 26.9856 19.9964 27.0198ZM21.9823 26.9931C21.4583 26.2631 20.4379 26.0959 19.7086 26.6171C18.9785 27.1419 18.8096 28.1617 19.3344 28.8918C19.8557 29.6219 20.8762 29.79 21.6063 29.2652C22.3366 28.7438 22.5037 27.7232 21.9823 26.9931Z" fill="#43C951"/>
<path fill-rule="evenodd" clip-rule="evenodd" d="M25.7781 13.8096C25.7058 13.8609 25.61 13.8678 25.5304 13.8194C25.4238 13.7537 25.3897 13.6158 25.4564 13.5092C25.5603 13.3394 25.6275 13.1532 25.6617 12.9535C25.6817 12.8315 25.798 12.7499 25.9196 12.7699C26.0418 12.789 26.124 12.9055 26.1042 13.0276C26.0618 13.2838 25.972 13.526 25.838 13.7438C25.8223 13.772 25.8022 13.7938 25.7781 13.8096ZM23.2317 11.4418C22.5398 11.9392 22.38 12.9078 22.8757 13.6032C22.9505 13.7039 22.9257 13.8435 22.8257 13.9152C22.7243 13.9875 22.5839 13.9649 22.5122 13.8635C21.8703 12.9696 22.0757 11.7171 22.9722 11.0775C23.0719 11.0035 23.2126 11.0275 23.284 11.1273C23.3555 11.2295 23.334 11.3693 23.2317 11.4418ZM25.9562 11.3976C25.236 10.3939 23.8337 10.1619 22.8299 10.8795C21.8278 11.5997 21.5959 13.0012 22.3161 14.0056C23.0337 15.0071 24.4358 15.2398 25.4396 14.5213C26.4418 13.802 26.6737 12.3998 25.9562 11.3976Z" fill="#43C951"/>
<path fill-rule="evenodd" clip-rule="evenodd" d="M10.8241 26.0395C10.82 26.0453 10.8143 26.0513 10.8084 26.0553C10.7866 26.072 10.756 26.072 10.7343 26.057C10.7044 26.0353 10.6962 25.9952 10.7159 25.9653C10.7702 25.8856 10.8084 25.7958 10.8258 25.6994C10.8341 25.6652 10.8682 25.6412 10.9041 25.6494C10.9406 25.6552 10.9623 25.6892 10.9564 25.7257C10.9323 25.8389 10.8906 25.9429 10.8241 26.0393V26.0395ZM9.70226 24.9775C9.38041 25.2081 9.3064 25.6579 9.53602 25.9796C9.55848 26.0096 9.55256 26.0497 9.52262 26.072C9.49193 26.0937 9.45185 26.0853 9.43039 26.0553C9.1567 25.6753 9.24394 25.143 9.62658 24.8696C9.65651 24.8495 9.69636 24.8554 9.71807 24.8854C9.73811 24.9136 9.7322 24.9551 9.70226 24.9775ZM10.9521 24.9653C10.6245 24.5077 9.98419 24.4013 9.52587 24.7298C9.06855 25.0591 8.96202 25.698 9.28969 26.1553C9.61835 26.6136 10.2579 26.7192 10.7159 26.3915C11.1742 26.0638 11.2798 25.4234 10.9521 24.9653Z" fill="#43C951"/>
<path fill-rule="evenodd" clip-rule="evenodd" d="M18.6442 12.7336C18.6185 12.752 18.5819 12.7577 18.5503 12.7435C18.502 12.7221 18.4803 12.6654 18.502 12.6181C18.5386 12.5355 18.5602 12.4474 18.5678 12.3576C18.572 12.3053 18.6185 12.2661 18.6701 12.2694C18.7225 12.2736 18.7623 12.3194 18.7581 12.3717C18.7482 12.4842 18.7198 12.5922 18.6741 12.6961C18.6683 12.7119 18.656 12.7237 18.6442 12.7336ZM17.3087 11.6433C16.9502 11.9003 16.8679 12.4001 17.1239 12.7577C17.1539 12.8001 17.144 12.86 17.1025 12.8899C17.06 12.9198 17.0002 12.9099 16.9702 12.8675C16.6517 12.4234 16.754 11.8055 17.1963 11.4877C17.2403 11.4577 17.2979 11.4679 17.3302 11.5094C17.3601 11.5545 17.3502 11.6117 17.3087 11.6433ZM18.7465 11.5933C18.3599 11.0554 17.6121 10.934 17.0759 11.3173C16.5376 11.7042 16.4139 12.4516 16.8005 12.9899C17.1838 13.5278 17.9323 13.6502 18.4704 13.2659C19.0077 12.88 19.1315 12.1315 18.7465 11.5933Z" fill="#43C951"/>
<path fill-rule="evenodd" clip-rule="evenodd" d="M28.5419 11.3776C28.5385 11.3901 28.532 11.3976 28.5221 11.4035C28.5063 11.416 28.4846 11.4177 28.4639 11.4101C28.4339 11.395 28.4204 11.3601 28.4339 11.3294C28.4563 11.2779 28.4704 11.2222 28.4763 11.1656C28.478 11.1314 28.5063 11.1074 28.5402 11.1098C28.5744 11.1115 28.5977 11.1413 28.5935 11.1755C28.5902 11.2453 28.5718 11.3136 28.5419 11.3776ZM27.6779 10.7139C27.4499 10.8755 27.3985 11.1913 27.5598 11.4177C27.5798 11.4459 27.5739 11.4832 27.5482 11.5016C27.5199 11.5216 27.4824 11.5157 27.4624 11.4875C27.262 11.2081 27.3262 10.8156 27.6081 10.6159C27.6338 10.5958 27.672 10.6018 27.6903 10.63C27.7104 10.6557 27.7045 10.6939 27.6779 10.7139ZM28.5885 10.6817C28.3441 10.3415 27.87 10.2642 27.5298 10.5077C27.1906 10.7521 27.1124 11.2255 27.3561 11.5657C27.568 11.8599 27.9507 11.9573 28.2724 11.82L28.2741 11.8175C28.3599 11.7277 28.4563 11.6438 28.5603 11.5698C28.5744 11.5599 28.5885 11.55 28.6043 11.5415V11.5399C28.6043 11.5399 28.606 11.5398 28.606 11.5374C28.7724 11.2836 28.7765 10.9435 28.5885 10.6816V10.6817Z" fill="#43C951"/>
<path fill-rule="evenodd" clip-rule="evenodd" d="M20.9163 23.2736C20.9061 23.2903 20.892 23.3018 20.8778 23.312C20.8198 23.3535 20.7423 23.356 20.6816 23.312C20.606 23.2577 20.5902 23.1521 20.6442 23.0781C20.7041 22.9915 20.7564 22.8994 20.7982 22.8037C20.8338 22.7181 20.932 22.678 21.0185 22.7139C21.1024 22.7497 21.1416 22.8494 21.1067 22.9333C21.0558 23.0531 20.9919 23.1679 20.9163 23.2736ZM18.6998 21.1238C18.0744 21.5719 17.9297 22.4453 18.378 23.0715C18.432 23.1481 18.4162 23.2521 18.3398 23.3061C18.2642 23.36 18.1602 23.3435 18.106 23.2679C17.5506 22.4918 17.7286 21.4074 18.5044 20.8494C18.58 20.7961 18.6856 20.8136 18.7398 20.8892C18.7938 20.9658 18.7764 21.0698 18.6998 21.1238ZM21.0683 21.1438C20.4537 20.2881 19.2561 20.0891 18.4004 20.7037C17.5423 21.3176 17.3443 22.5161 17.958 23.3719C18.5718 24.2292 19.7701 24.428 20.6277 23.8134C21.4841 23.1979 21.6822 22.0019 21.0683 21.1438Z" fill="#43C951"/>
<path fill-rule="evenodd" clip-rule="evenodd" d="M31.4641 13.3097C31.4624 13.3538 31.4599 13.3979 31.4542 13.442C31.4467 13.5094 31.4341 13.5759 31.4183 13.6417V13.6433C31.4125 13.67 31.4059 13.6941 31.3983 13.7181C31.3842 13.7697 31.366 13.822 31.346 13.872C31.3361 13.8961 31.326 13.9218 31.3144 13.9461C31.3019 13.9352 31.2887 13.9237 31.2762 13.9119C31.2604 13.8977 31.242 13.8819 31.2262 13.8655C31.248 13.8138 31.2677 13.7615 31.2819 13.7099C31.292 13.6816 31.3003 13.6542 31.3062 13.6259V13.6235C31.3186 13.582 31.3259 13.5352 31.3319 13.4921C31.3443 13.4221 31.3519 13.3513 31.3519 13.2799C31.3544 13.2516 31.3544 13.2234 31.3544 13.196C31.3519 13.1236 31.2922 13.0677 31.2205 13.0694C31.208 13.0694 31.1981 13.0719 31.1866 13.0761C31.1324 13.0919 31.0925 13.1433 31.0942 13.2015C31.0967 13.2557 31.0942 13.3097 31.0884 13.3637C31.08 13.462 31.0601 13.5601 31.0285 13.6541C30.9821 13.5999 30.9403 13.5459 30.8979 13.4877C30.5046 12.9356 30.3484 12.2859 30.4106 11.6621C30.4862 11.6914 30.5587 11.7279 30.6285 11.7696C30.71 11.8177 30.7899 11.8736 30.8646 11.9375C30.9686 12.0256 31.0643 12.1296 31.1466 12.2461C31.3762 12.5679 31.4809 12.9422 31.4643 13.3097H31.4641Z" fill="#43C951"/>
<path fill-rule="evenodd" clip-rule="evenodd" d="M33.5699 14.3674C33.6097 14.4233 33.6455 14.4799 33.678 14.5398C32.9635 14.7037 32.2075 14.5655 31.5939 14.1595C31.6297 14.0914 31.6604 14.0216 31.6863 13.9499C31.7144 13.8694 31.7403 13.7897 31.7577 13.7081C32.4081 13.5393 33.1215 13.7696 33.5458 14.3359C33.5541 14.346 33.5623 14.3559 33.5699 14.3674Z" fill="#43C951"/>
<path fill-rule="evenodd" clip-rule="evenodd" d="M34.9081 13.148C34.8364 13.1996 34.74 13.2062 34.6601 13.1579C34.5545 13.0921 34.5205 12.9542 34.5837 12.8477C34.7341 12.6058 34.8223 12.3278 34.8398 12.0436C34.8498 11.9196 34.9562 11.8258 35.0802 11.834C35.2042 11.8423 35.2963 11.9504 35.2881 12.0735C35.2641 12.4302 35.1542 12.7779 34.968 13.0816C34.9522 13.1098 34.9321 13.1322 34.9081 13.148ZM35.0759 10.4942C34.286 9.39382 32.7483 9.14016 31.648 9.92781C31.1325 10.2979 30.8022 10.8302 30.6801 11.404C30.7565 11.4438 30.8279 11.4855 30.9003 11.5336C30.9986 10.9842 31.3019 10.4716 31.7885 10.1242C31.8899 10.0518 32.0306 10.0758 32.1021 10.1758C32.1744 10.2778 32.1504 10.4176 32.0498 10.49C31.5764 10.8302 31.322 11.3582 31.3121 11.9005C31.3545 11.9462 31.3918 11.9936 31.4276 12.0436C31.7103 12.4377 31.8319 12.896 31.8076 13.3441C32.5662 13.202 33.3746 13.498 33.8517 14.1659C33.8685 14.19 33.8859 14.214 33.9001 14.2383C34.1122 14.1659 34.3185 14.0603 34.5097 13.9222C35.6125 13.1339 35.8645 11.5962 35.0759 10.4942Z" fill="#43C951"/>
<path fill-rule="evenodd" clip-rule="evenodd" d="M31.3061 13.6256C31.3003 13.6539 31.2919 13.6815 31.282 13.7097C31.3044 13.6956 31.3278 13.6838 31.3518 13.6713C31.336 13.6555 31.3219 13.643 31.3061 13.6256ZM31.3061 13.6256C31.3003 13.6539 31.2919 13.6815 31.282 13.7097C31.3044 13.6956 31.3278 13.6838 31.3518 13.6713C31.336 13.6555 31.3219 13.643 31.3061 13.6256ZM31.3061 13.6256C31.3003 13.6539 31.2919 13.6815 31.282 13.7097C31.3044 13.6956 31.3278 13.6838 31.3518 13.6713C31.336 13.6555 31.3219 13.643 31.3061 13.6256ZM31.3061 13.6256C31.3003 13.6539 31.2919 13.6815 31.282 13.7097C31.3044 13.6956 31.3278 13.6838 31.3518 13.6713C31.336 13.6555 31.3219 13.643 31.3061 13.6256ZM31.3061 13.6256C31.3003 13.6539 31.2919 13.6815 31.282 13.7097C31.3044 13.6956 31.3278 13.6838 31.3518 13.6713C31.336 13.6555 31.3219 13.643 31.3061 13.6256ZM31.3061 13.6256C31.3003 13.6539 31.2919 13.6815 31.282 13.7097C31.3044 13.6956 31.3278 13.6838 31.3518 13.6713C31.336 13.6555 31.3219 13.643 31.3061 13.6256ZM31.3061 13.6256C31.3003 13.6539 31.2919 13.6815 31.282 13.7097C31.3044 13.6956 31.3278 13.6838 31.3518 13.6713C31.336 13.6555 31.3219 13.643 31.3061 13.6256ZM31.3061 13.6256C31.3003 13.6539 31.2919 13.6815 31.282 13.7097C31.3044 13.6956 31.3278 13.6838 31.3518 13.6713C31.336 13.6555 31.3219 13.643 31.3061 13.6256ZM31.3061 13.6256C31.3003 13.6539 31.2919 13.6815 31.282 13.7097C31.3044 13.6956 31.3278 13.6838 31.3518 13.6713C31.336 13.6555 31.3219 13.643 31.3061 13.6256ZM31.3061 13.6256C31.3003 13.6539 31.2919 13.6815 31.282 13.7097C31.3044 13.6956 31.3278 13.6838 31.3518 13.6713C31.336 13.6555 31.3219 13.643 31.3061 13.6256ZM31.3061 13.6256C31.3003 13.6539 31.2919 13.6815 31.282 13.7097C31.3044 13.6956 31.3278 13.6838 31.3518 13.6713C31.336 13.6555 31.3219 13.643 31.3061 13.6256ZM31.3061 13.6256C31.3003 13.6539 31.2919 13.6815 31.282 13.7097C31.3044 13.6956 31.3278 13.6838 31.3518 13.6713C31.336 13.6555 31.3219 13.643 31.3061 13.6256ZM31.3061 13.6256C31.3003 13.6539 31.2919 13.6815 31.282 13.7097C31.3044 13.6956 31.3278 13.6838 31.3518 13.6713C31.336 13.6555 31.3219 13.643 31.3061 13.6256ZM31.3061 13.6256C31.3003 13.6539 31.2919 13.6815 31.282 13.7097C31.3044 13.6956 31.3278 13.6838 31.3518 13.6713C31.336 13.6555 31.3219 13.643 31.3061 13.6256ZM31.3061 13.6256C31.3003 13.6539 31.2919 13.6815 31.282 13.7097C31.3044 13.6956 31.3278 13.6838 31.3518 13.6713C31.336 13.6555 31.3219 13.643 31.3061 13.6256ZM31.3061 13.6256C31.3003 13.6539 31.2919 13.6815 31.282 13.7097C31.3044 13.6956 31.3278 13.6838 31.3518 13.6713C31.336 13.6555 31.3219 13.643 31.3061 13.6256ZM31.3061 13.6256C31.3003 13.6539 31.2919 13.6815 31.282 13.7097C31.3044 13.6956 31.3278 13.6838 31.3518 13.6713C31.336 13.6555 31.3219 13.643 31.3061 13.6256ZM31.3061 13.6256C31.3003 13.6539 31.2919 13.6815 31.282 13.7097C31.3044 13.6956 31.3278 13.6838 31.3518 13.6713C31.336 13.6555 31.3219 13.643 31.3061 13.6256ZM31.3061 13.6256C31.3003 13.6539 31.2919 13.6815 31.282 13.7097C31.3044 13.6956 31.3278 13.6838 31.3518 13.6713C31.336 13.6555 31.3219 13.643 31.3061 13.6256ZM31.3061 13.6256C31.3003 13.6539 31.2919 13.6815 31.282 13.7097C31.3044 13.6956 31.3278 13.6838 31.3518 13.6713C31.336 13.6555 31.3219 13.643 31.3061 13.6256ZM31.3061 13.6256C31.3003 13.6539 31.2919 13.6815 31.282 13.7097C31.3044 13.6956 31.3278 13.6838 31.3518 13.6713C31.336 13.6555 31.3219 13.643 31.3061 13.6256ZM31.3061 13.6256C31.3003 13.6539 31.2919 13.6815 31.282 13.7097C31.3044 13.6956 31.3278 13.6838 31.3518 13.6713C31.336 13.6555 31.3219 13.643 31.3061 13.6256ZM31.3061 13.6256C31.3003 13.6539 31.2919 13.6815 31.282 13.7097C31.3044 13.6956 31.3278 13.6838 31.3518 13.6713C31.336 13.6555 31.3219 13.643 31.3061 13.6256ZM31.3061 13.6256C31.3003 13.6539 31.2919 13.6815 31.282 13.7097C31.3044 13.6956 31.3278 13.6838 31.3518 13.6713C31.336 13.6555 31.3219 13.643 31.3061 13.6256ZM31.3518 13.6713C31.336 13.6555 31.3219 13.643 31.3061 13.6256C31.3003 13.6539 31.2919 13.6815 31.282 13.7097C31.2679 13.762 31.2479 13.8137 31.2262 13.866C31.2104 13.9035 31.1939 13.9417 31.1739 13.9799C31.1739 13.9799 31.1722 13.9798 31.1722 13.9815C31.1564 14.0115 31.1397 14.0414 31.1222 14.0713C31.1397 14.0897 31.158 14.1055 31.1764 14.1197C31.1863 14.1296 31.1962 14.1379 31.2064 14.1454C31.2238 14.1197 31.2403 14.0921 31.2561 14.0614C31.2778 14.0239 31.2962 13.9858 31.3143 13.9457C31.3261 13.9216 31.336 13.8959 31.3459 13.8717C31.3659 13.8219 31.3843 13.7696 31.3985 13.718C31.3817 13.7038 31.366 13.688 31.3518 13.6713ZM31.0883 13.3637C31.0858 13.362 31.0841 13.3579 31.0816 13.3554C30.7382 12.878 30.5927 12.3174 30.6285 11.7694C30.5585 11.7279 30.4863 11.6913 30.4107 11.6621C30.34 11.6321 30.2683 11.6081 30.1943 11.5897C30.112 12.2832 30.2784 13.0077 30.7167 13.6173C30.7598 13.6798 30.8065 13.7378 30.8546 13.7937C30.8779 13.8236 30.9046 13.8535 30.9319 13.8818C30.9704 13.8118 31.0003 13.7397 31.0243 13.6657C31.0268 13.664 31.0301 13.6615 31.0342 13.6598C31.0301 13.6582 31.0284 13.6557 31.0284 13.654C31.06 13.5602 31.0798 13.4619 31.0883 13.3639V13.3637ZM33.6778 14.5395C33.6456 14.4797 33.6105 14.423 33.5699 14.3674C33.5624 14.3559 33.5541 14.3458 33.5456 14.3359C32.9021 14.4615 32.23 14.3233 31.6861 13.9499C31.6604 14.0214 31.6305 14.0921 31.5939 14.1595C31.5623 14.2277 31.5265 14.2918 31.484 14.3533C32.1576 14.7958 32.9919 14.9396 33.7743 14.7475C33.7486 14.6777 33.7161 14.6079 33.6778 14.5395ZM31.3061 13.6256C31.3003 13.6539 31.2919 13.6815 31.282 13.7097C31.3044 13.6956 31.3278 13.6838 31.3518 13.6713C31.336 13.6555 31.3219 13.643 31.3061 13.6256ZM31.3061 13.6256C31.3003 13.6539 31.2919 13.6815 31.282 13.7097C31.3044 13.6956 31.3278 13.6838 31.3518 13.6713C31.336 13.6555 31.3219 13.643 31.3061 13.6256ZM31.3061 13.6256C31.3003 13.6539 31.2919 13.6815 31.282 13.7097C31.3044 13.6956 31.3278 13.6838 31.3518 13.6713C31.336 13.6555 31.3219 13.643 31.3061 13.6256ZM31.3061 13.6256C31.3003 13.6539 31.2919 13.6815 31.282 13.7097C31.3044 13.6956 31.3278 13.6838 31.3518 13.6713C31.336 13.6555 31.3219 13.643 31.3061 13.6256ZM31.3061 13.6256C31.3003 13.6539 31.2919 13.6815 31.282 13.7097C31.3044 13.6956 31.3278 13.6838 31.3518 13.6713C31.336 13.6555 31.3219 13.643 31.3061 13.6256ZM31.3061 13.6256C31.3003 13.6539 31.2919 13.6815 31.282 13.7097C31.3044 13.6956 31.3278 13.6838 31.3518 13.6713C31.336 13.6555 31.3219 13.643 31.3061 13.6256ZM31.3061 13.6256C31.3003 13.6539 31.2919 13.6815 31.282 13.7097C31.3044 13.6956 31.3278 13.6838 31.3518 13.6713C31.336 13.6555 31.3219 13.643 31.3061 13.6256ZM31.3061 13.6256C31.3003 13.6539 31.2919 13.6815 31.282 13.7097C31.3044 13.6956 31.3278 13.6838 31.3518 13.6713C31.336 13.6555 31.3219 13.643 31.3061 13.6256ZM31.3061 13.6256C31.3003 13.6539 31.2919 13.6815 31.282 13.7097C31.3044 13.6956 31.3278 13.6838 31.3518 13.6713C31.336 13.6555 31.3219 13.643 31.3061 13.6256ZM31.3061 13.6256C31.3003 13.6539 31.2919 13.6815 31.282 13.7097C31.3044 13.6956 31.3278 13.6838 31.3518 13.6713C31.336 13.6555 31.3219 13.643 31.3061 13.6256ZM31.3061 13.6256C31.3003 13.6539 31.2919 13.6815 31.282 13.7097C31.3044 13.6956 31.3278 13.6838 31.3518 13.6713C31.336 13.6555 31.3219 13.643 31.3061 13.6256ZM31.3061 13.6256C31.3003 13.6539 31.2919 13.6815 31.282 13.7097C31.3044 13.6956 31.3278 13.6838 31.3518 13.6713C31.336 13.6555 31.3219 13.643 31.3061 13.6256ZM31.3061 13.6256C31.3003 13.6539 31.2919 13.6815 31.282 13.7097C31.3044 13.6956 31.3278 13.6838 31.3518 13.6713C31.336 13.6555 31.3219 13.643 31.3061 13.6256ZM31.3061 13.6256C31.3003 13.6539 31.2919 13.6815 31.282 13.7097C31.3044 13.6956 31.3278 13.6838 31.3518 13.6713C31.336 13.6555 31.3219 13.643 31.3061 13.6256ZM31.3061 13.6256C31.3003 13.6539 31.2919 13.6815 31.282 13.7097C31.3044 13.6956 31.3278 13.6838 31.3518 13.6713C31.336 13.6555 31.3219 13.643 31.3061 13.6256ZM31.3061 13.6256C31.3003 13.6539 31.2919 13.6815 31.282 13.7097C31.3044 13.6956 31.3278 13.6838 31.3518 13.6713C31.336 13.6555 31.3219 13.643 31.3061 13.6256ZM31.3061 13.6256C31.3003 13.6539 31.2919 13.6815 31.282 13.7097C31.3044 13.6956 31.3278 13.6838 31.3518 13.6713C31.336 13.6555 31.3219 13.643 31.3061 13.6256ZM31.3061 13.6256C31.3003 13.6539 31.2919 13.6815 31.282 13.7097C31.3044 13.6956 31.3278 13.6838 31.3518 13.6713C31.336 13.6555 31.3219 13.643 31.3061 13.6256ZM31.3061 13.6256C31.3003 13.6539 31.2919 13.6815 31.282 13.7097C31.3044 13.6956 31.3278 13.6838 31.3518 13.6713C31.336 13.6555 31.3219 13.643 31.3061 13.6256ZM31.3061 13.6256C31.3003 13.6539 31.2919 13.6815 31.282 13.7097C31.3044 13.6956 31.3278 13.6838 31.3518 13.6713C31.336 13.6555 31.3219 13.643 31.3061 13.6256ZM31.3061 13.6256C31.3003 13.6539 31.2919 13.6815 31.282 13.7097C31.3044 13.6956 31.3278 13.6838 31.3518 13.6713C31.336 13.6555 31.3219 13.643 31.3061 13.6256ZM31.3061 13.6256C31.3003 13.6539 31.2919 13.6815 31.282 13.7097C31.3044 13.6956 31.3278 13.6838 31.3518 13.6713C31.336 13.6555 31.3219 13.643 31.3061 13.6256ZM31.3061 13.6256C31.3003 13.6539 31.2919 13.6815 31.282 13.7097C31.3044 13.6956 31.3278 13.6838 31.3518 13.6713C31.336 13.6555 31.3219 13.643 31.3061 13.6256ZM31.3061 13.6256C31.3003 13.6539 31.2919 13.6815 31.282 13.7097C31.3044 13.6956 31.3278 13.6838 31.3518 13.6713C31.336 13.6555 31.3219 13.643 31.3061 13.6256Z" fill="#43C951"/>
<path fill-rule="evenodd" clip-rule="evenodd" d="M31.464 13.3096C31.4242 13.3096 31.3858 13.3013 31.3518 13.2797C31.3543 13.2514 31.3543 13.2231 31.3543 13.1958C31.3518 13.1234 31.2921 13.0675 31.2205 13.0692C31.208 13.0692 31.1981 13.0717 31.1865 13.0759C30.9701 12.7216 30.8662 12.3274 30.8645 11.9373C30.9685 12.0254 31.0642 12.1294 31.1464 12.2459C31.376 12.5676 31.4807 12.942 31.4642 13.3095L31.464 13.3096Z" fill="#43C951"/>
<path fill-rule="evenodd" clip-rule="evenodd" d="M30.5942 14.7296C30.5244 14.7711 30.4504 14.8053 30.3763 14.8335C30.4662 14.5233 30.6342 14.2374 30.8778 14.0052C30.8778 14.0493 30.9019 14.0934 30.942 14.1177C30.9577 14.1276 30.9742 14.1318 30.9926 14.1335C31.0242 14.1401 31.0584 14.1318 31.0841 14.1118C31.0982 14.1019 31.1098 14.0893 31.1199 14.0752C31.1199 14.0735 31.1224 14.0735 31.1224 14.071C31.1399 14.0421 31.1566 14.0121 31.1724 13.9822C31.1724 13.9797 31.1741 13.9797 31.1741 13.9797C31.1941 13.9415 31.2106 13.9041 31.2264 13.8658C31.2481 13.8133 31.2681 13.7619 31.2822 13.7093C31.3046 13.6955 31.328 13.6836 31.352 13.6721C31.3737 13.6619 31.3961 13.652 31.4185 13.6438C31.4118 13.6695 31.406 13.6935 31.3987 13.7178C31.3845 13.7701 31.3662 13.8218 31.3461 13.8715C31.3362 13.8958 31.3263 13.9215 31.3145 13.9455C31.2964 13.9856 31.278 14.0239 31.2563 14.062C31.2405 14.092 31.2241 14.1203 31.2066 14.1462C31.0967 14.3258 30.9503 14.4861 30.77 14.6177C30.7666 14.6218 30.7598 14.626 30.7542 14.6301C30.7026 14.6674 30.6484 14.7016 30.5943 14.7298L30.5942 14.7296Z" fill="#43C951"/>
<path fill-rule="evenodd" clip-rule="evenodd" d="M33.5082 16.2338C33.4683 16.2637 33.4117 16.268 33.366 16.2396C33.3035 16.2012 33.2861 16.1215 33.3219 16.0616C33.4582 15.8396 33.5256 15.5834 33.5181 15.324C33.5156 15.2516 33.5723 15.1917 33.6447 15.1917C33.7161 15.1876 33.776 15.2457 33.7786 15.3155C33.786 15.6274 33.7062 15.9317 33.5439 16.1955C33.534 16.2113 33.5223 16.2238 33.5082 16.2337V16.2338ZM33.7743 14.7477C33.7486 14.678 33.7161 14.6072 33.6778 14.5398C33.6463 14.4799 33.6105 14.4233 33.5697 14.3677C33.5622 14.3559 33.5538 14.345 33.5456 14.3361C33.1222 13.7696 32.4079 13.5393 31.7585 13.7073C31.7401 13.7897 31.7144 13.8696 31.6862 13.9493C31.6602 14.0216 31.6303 14.0914 31.5937 14.1598C31.5621 14.2279 31.5263 14.292 31.4841 14.3535C31.3476 14.5655 31.1696 14.756 30.9541 14.9099C30.9426 14.9174 30.9301 14.9274 30.916 14.9356C30.7846 15.3298 30.836 15.7798 31.0965 16.1414C31.1354 16.1996 31.1239 16.2795 31.0657 16.321C31.0084 16.3634 30.9259 16.3493 30.8844 16.2911C30.63 15.936 30.5426 15.5094 30.6057 15.1093C30.5659 15.1294 30.526 15.1452 30.4859 15.1593C30.4379 15.5693 30.5359 15.9976 30.7936 16.3578C31.3426 17.1237 32.4122 17.3 33.1781 16.752C33.8243 16.2878 34.0497 15.4554 33.7743 14.7477Z" fill="#43C951"/>
<path fill-rule="evenodd" clip-rule="evenodd" d="M31.3518 13.6716C31.3278 13.684 31.3038 13.6956 31.2821 13.7097C31.2679 13.7614 31.2479 13.8137 31.2264 13.8653C31.2106 13.9035 31.1939 13.9417 31.1739 13.9801C31.178 13.9776 31.1823 13.9734 31.1863 13.9716C31.2156 13.9492 31.2462 13.9301 31.2762 13.9117C31.3004 13.8959 31.3219 13.8837 31.3462 13.8719C31.366 13.8219 31.3843 13.7696 31.3985 13.7182C31.3818 13.7041 31.366 13.6883 31.3518 13.6716ZM31.3518 13.6716C31.3278 13.684 31.3038 13.6956 31.2821 13.7097C31.2679 13.7614 31.2479 13.8137 31.2264 13.8653C31.2106 13.9035 31.1939 13.9417 31.1739 13.9801C31.178 13.9776 31.1823 13.9734 31.1863 13.9716C31.2156 13.9492 31.2462 13.9301 31.2762 13.9117C31.3004 13.8959 31.3219 13.8837 31.3462 13.8719C31.366 13.8219 31.3843 13.7696 31.3985 13.7182C31.3818 13.7041 31.366 13.6883 31.3518 13.6716ZM31.3518 13.6716C31.3278 13.684 31.3038 13.6956 31.2821 13.7097C31.2679 13.7614 31.2479 13.8137 31.2264 13.8653C31.2106 13.9035 31.1939 13.9417 31.1739 13.9801C31.178 13.9776 31.1823 13.9734 31.1863 13.9716C31.2156 13.9492 31.2462 13.9301 31.2762 13.9117C31.3004 13.8959 31.3219 13.8837 31.3462 13.8719C31.366 13.8219 31.3843 13.7696 31.3985 13.7182C31.3818 13.7041 31.366 13.6883 31.3518 13.6716ZM31.3518 13.6716C31.3278 13.684 31.3038 13.6956 31.2821 13.7097C31.2679 13.7614 31.2479 13.8137 31.2264 13.8653C31.2106 13.9035 31.1939 13.9417 31.1739 13.9801C31.178 13.9776 31.1823 13.9734 31.1863 13.9716C31.2156 13.9492 31.2462 13.9301 31.2762 13.9117C31.3004 13.8959 31.3219 13.8837 31.3462 13.8719C31.366 13.8219 31.3843 13.7696 31.3985 13.7182C31.3818 13.7041 31.366 13.6883 31.3518 13.6716ZM31.3518 13.6716C31.3278 13.684 31.3038 13.6956 31.2821 13.7097C31.2679 13.7614 31.2479 13.8137 31.2264 13.8653C31.2106 13.9035 31.1939 13.9417 31.1739 13.9801C31.178 13.9776 31.1823 13.9734 31.1863 13.9716C31.2156 13.9492 31.2462 13.9301 31.2762 13.9117C31.3004 13.8959 31.3219 13.8837 31.3462 13.8719C31.366 13.8219 31.3843 13.7696 31.3985 13.7182C31.3818 13.7041 31.366 13.6883 31.3518 13.6716ZM31.3518 13.6716C31.3278 13.684 31.3038 13.6956 31.2821 13.7097C31.2679 13.7614 31.2479 13.8137 31.2264 13.8653C31.2106 13.9035 31.1939 13.9417 31.1739 13.9801C31.178 13.9776 31.1823 13.9734 31.1863 13.9716C31.2156 13.9492 31.2462 13.9301 31.2762 13.9117C31.3004 13.8959 31.3219 13.8837 31.3462 13.8719C31.366 13.8219 31.3843 13.7696 31.3985 13.7182C31.3818 13.7041 31.366 13.6883 31.3518 13.6716ZM31.3518 13.6716C31.3278 13.684 31.3038 13.6956 31.2821 13.7097C31.2679 13.7614 31.2479 13.8137 31.2264 13.8653C31.2106 13.9035 31.1939 13.9417 31.1739 13.9801C31.178 13.9776 31.1823 13.9734 31.1863 13.9716C31.2156 13.9492 31.2462 13.9301 31.2762 13.9117C31.3004 13.8959 31.3219 13.8837 31.3462 13.8719C31.366 13.8219 31.3843 13.7696 31.3985 13.7182C31.3818 13.7041 31.366 13.6883 31.3518 13.6716ZM31.3518 13.6716C31.3278 13.684 31.3038 13.6956 31.2821 13.7097C31.2679 13.7614 31.2479 13.8137 31.2264 13.8653C31.2106 13.9035 31.1939 13.9417 31.1739 13.9801C31.178 13.9776 31.1823 13.9734 31.1863 13.9716C31.2156 13.9492 31.2462 13.9301 31.2762 13.9117C31.3004 13.8959 31.3219 13.8837 31.3462 13.8719C31.366 13.8219 31.3843 13.7696 31.3985 13.7182C31.3818 13.7041 31.366 13.6883 31.3518 13.6716ZM31.3518 13.6716C31.3278 13.684 31.3038 13.6956 31.2821 13.7097C31.2679 13.7614 31.2479 13.8137 31.2264 13.8653C31.2106 13.9035 31.1939 13.9417 31.1739 13.9801C31.178 13.9776 31.1823 13.9734 31.1863 13.9716C31.2156 13.9492 31.2462 13.9301 31.2762 13.9117C31.3004 13.8959 31.3219 13.8837 31.3462 13.8719C31.366 13.8219 31.3843 13.7696 31.3985 13.7182C31.3818 13.7041 31.366 13.6883 31.3518 13.6716ZM31.3518 13.6716C31.3278 13.684 31.3038 13.6956 31.2821 13.7097C31.2679 13.7614 31.2479 13.8137 31.2264 13.8653C31.2106 13.9035 31.1939 13.9417 31.1739 13.9801C31.178 13.9776 31.1823 13.9734 31.1863 13.9716C31.2156 13.9492 31.2462 13.9301 31.2762 13.9117C31.3004 13.8959 31.3219 13.8837 31.3462 13.8719C31.366 13.8219 31.3843 13.7696 31.3985 13.7182C31.3818 13.7041 31.366 13.6883 31.3518 13.6716ZM31.3518 13.6716C31.3278 13.684 31.3038 13.6956 31.2821 13.7097C31.2679 13.7614 31.2479 13.8137 31.2264 13.8653C31.2106 13.9035 31.1939 13.9417 31.1739 13.9801C31.178 13.9776 31.1823 13.9734 31.1863 13.9716C31.2156 13.9492 31.2462 13.9301 31.2762 13.9117C31.3004 13.8959 31.3219 13.8837 31.3462 13.8719C31.366 13.8219 31.3843 13.7696 31.3985 13.7182C31.3818 13.7041 31.366 13.6883 31.3518 13.6716ZM31.3518 13.6716C31.3278 13.684 31.3038 13.6956 31.2821 13.7097C31.2679 13.7614 31.2479 13.8137 31.2264 13.8653C31.2106 13.9035 31.1939 13.9417 31.1739 13.9801C31.178 13.9776 31.1823 13.9734 31.1863 13.9716C31.2156 13.9492 31.2462 13.9301 31.2762 13.9117C31.3004 13.8959 31.3219 13.8837 31.3462 13.8719C31.366 13.8219 31.3843 13.7696 31.3985 13.7182C31.3818 13.7041 31.366 13.6883 31.3518 13.6716ZM31.3518 13.6716C31.3278 13.684 31.3038 13.6956 31.2821 13.7097C31.2679 13.7614 31.2479 13.8137 31.2264 13.8653C31.2106 13.9035 31.1939 13.9417 31.1739 13.9801C31.178 13.9776 31.1823 13.9734 31.1863 13.9716C31.2156 13.9492 31.2462 13.9301 31.2762 13.9117C31.3004 13.8959 31.3219 13.8837 31.3462 13.8719C31.366 13.8219 31.3843 13.7696 31.3985 13.7182C31.3818 13.7041 31.366 13.6883 31.3518 13.6716ZM31.3518 13.6716C31.3278 13.684 31.3038 13.6956 31.2821 13.7097C31.2679 13.7614 31.2479 13.8137 31.2264 13.8653C31.2106 13.9035 31.1939 13.9417 31.1739 13.9801C31.178 13.9776 31.1823 13.9734 31.1863 13.9716C31.2156 13.9492 31.2462 13.9301 31.2762 13.9117C31.3004 13.8959 31.3219 13.8837 31.3462 13.8719C31.366 13.8219 31.3843 13.7696 31.3985 13.7182C31.3818 13.7041 31.366 13.6883 31.3518 13.6716ZM31.3518 13.6716C31.3278 13.684 31.3038 13.6956 31.2821 13.7097C31.2679 13.7614 31.2479 13.8137 31.2264 13.8653C31.2106 13.9035 31.1939 13.9417 31.1739 13.9801C31.178 13.9776 31.1823 13.9734 31.1863 13.9716C31.2156 13.9492 31.2462 13.9301 31.2762 13.9117C31.3004 13.8959 31.3219 13.8837 31.3462 13.8719C31.366 13.8219 31.3843 13.7696 31.3985 13.7182C31.3818 13.7041 31.366 13.6883 31.3518 13.6716ZM31.3518 13.6716C31.3278 13.684 31.3038 13.6956 31.2821 13.7097C31.2679 13.7614 31.2479 13.8137 31.2264 13.8653C31.2106 13.9035 31.1939 13.9417 31.1739 13.9801C31.178 13.9776 31.1823 13.9734 31.1863 13.9716C31.2156 13.9492 31.2462 13.9301 31.2762 13.9117C31.3004 13.8959 31.3219 13.8837 31.3462 13.8719C31.366 13.8219 31.3843 13.7696 31.3985 13.7182C31.3818 13.7041 31.366 13.6883 31.3518 13.6716ZM31.3518 13.6716C31.3278 13.684 31.3038 13.6956 31.2821 13.7097C31.2679 13.7614 31.2479 13.8137 31.2264 13.8653C31.2106 13.9035 31.1939 13.9417 31.1739 13.9801C31.178 13.9776 31.1823 13.9734 31.1863 13.9716C31.2156 13.9492 31.2462 13.9301 31.2762 13.9117C31.3004 13.8959 31.3219 13.8837 31.3462 13.8719C31.366 13.8219 31.3843 13.7696 31.3985 13.7182C31.3818 13.7041 31.366 13.6883 31.3518 13.6716ZM31.3518 13.6716C31.3278 13.684 31.3038 13.6956 31.2821 13.7097C31.2679 13.7614 31.2479 13.8137 31.2264 13.8653C31.2106 13.9035 31.1939 13.9417 31.1739 13.9801C31.178 13.9776 31.1823 13.9734 31.1863 13.9716C31.2156 13.9492 31.2462 13.9301 31.2762 13.9117C31.3004 13.8959 31.3219 13.8837 31.3462 13.8719C31.366 13.8219 31.3843 13.7696 31.3985 13.7182C31.3818 13.7041 31.366 13.6883 31.3518 13.6716ZM31.3518 13.6716C31.3278 13.684 31.3038 13.6956 31.2821 13.7097C31.2679 13.7614 31.2479 13.8137 31.2264 13.8653C31.2106 13.9035 31.1939 13.9417 31.1739 13.9801C31.178 13.9776 31.1823 13.9734 31.1863 13.9716C31.2156 13.9492 31.2462 13.9301 31.2762 13.9117C31.3004 13.8959 31.3219 13.8837 31.3462 13.8719C31.366 13.8219 31.3843 13.7696 31.3985 13.7182C31.3818 13.7041 31.366 13.6883 31.3518 13.6716ZM31.3518 13.6716C31.3278 13.684 31.3038 13.6956 31.2821 13.7097C31.2679 13.7614 31.2479 13.8137 31.2264 13.8653C31.2106 13.9035 31.1939 13.9417 31.1739 13.9801C31.178 13.9776 31.1823 13.9734 31.1863 13.9716C31.2156 13.9492 31.2462 13.9301 31.2762 13.9117C31.3004 13.8959 31.3219 13.8837 31.3462 13.8719C31.366 13.8219 31.3843 13.7696 31.3985 13.7182C31.3818 13.7041 31.366 13.6883 31.3518 13.6716ZM31.3518 13.6716C31.3278 13.684 31.3038 13.6956 31.2821 13.7097C31.2679 13.7614 31.2479 13.8137 31.2264 13.8653C31.2106 13.9035 31.1939 13.9417 31.1739 13.9801C31.178 13.9776 31.1823 13.9734 31.1863 13.9716C31.2156 13.9492 31.2462 13.9301 31.2762 13.9117C31.3004 13.8959 31.3219 13.8837 31.3462 13.8719C31.366 13.8219 31.3843 13.7696 31.3985 13.7182C31.3818 13.7041 31.366 13.6883 31.3518 13.6716ZM31.3518 13.6716C31.3278 13.684 31.3038 13.6956 31.2821 13.7097C31.2679 13.7614 31.2479 13.8137 31.2264 13.8653C31.2106 13.9035 31.1939 13.9417 31.1739 13.9801C31.178 13.9776 31.1823 13.9734 31.1863 13.9716C31.2156 13.9492 31.2462 13.9301 31.2762 13.9117C31.3004 13.8959 31.3219 13.8837 31.3462 13.8719C31.366 13.8219 31.3843 13.7696 31.3985 13.7182C31.3818 13.7041 31.366 13.6883 31.3518 13.6716ZM31.3518 13.6716C31.3278 13.684 31.3038 13.6956 31.2821 13.7097C31.2679 13.7614 31.2479 13.8137 31.2264 13.8653C31.2106 13.9035 31.1939 13.9417 31.1739 13.9801C31.178 13.9776 31.1823 13.9734 31.1863 13.9716C31.2156 13.9492 31.2462 13.9301 31.2762 13.9117C31.3004 13.8959 31.3219 13.8837 31.3462 13.8719C31.366 13.8219 31.3843 13.7696 31.3985 13.7182C31.3818 13.7041 31.366 13.6883 31.3518 13.6716ZM31.3518 13.6716C31.3278 13.684 31.3038 13.6956 31.2821 13.7097C31.2679 13.7614 31.2479 13.8137 31.2264 13.8653C31.2106 13.9035 31.1939 13.9417 31.1739 13.9801C31.178 13.9776 31.1823 13.9734 31.1863 13.9716C31.2156 13.9492 31.2462 13.9301 31.2762 13.9117C31.3004 13.8959 31.3219 13.8837 31.3462 13.8719C31.366 13.8219 31.3843 13.7696 31.3985 13.7182C31.3818 13.7041 31.366 13.6883 31.3518 13.6716ZM30.878 14.0058C30.878 13.9834 30.8846 13.9601 30.8978 13.9394C30.9103 13.9193 30.9195 13.9018 30.932 13.8818C30.9702 13.8114 31.0002 13.7397 31.0242 13.6657C31.01 13.6731 30.9985 13.684 30.986 13.6916C30.9403 13.7231 30.8962 13.7597 30.8537 13.7939C30.5062 14.0874 30.2774 14.4773 30.1819 14.8957C30.2483 14.8799 30.3124 14.8599 30.3763 14.8333C30.4503 14.8059 30.5237 14.7717 30.5944 14.7293C30.6816 14.5099 30.8138 14.3061 30.9919 14.1338C30.9734 14.1313 30.9576 14.1271 30.9419 14.118C30.9021 14.094 30.878 14.0499 30.878 14.0058ZM31.332 13.4919C31.3262 13.535 31.3179 13.5817 31.3061 13.6232V13.6257C31.3003 13.654 31.292 13.6814 31.2821 13.7097C31.2679 13.7613 31.2479 13.8136 31.2264 13.8652C31.2106 13.9034 31.1939 13.9416 31.1739 13.98C31.178 13.9775 31.1823 13.9734 31.1863 13.9715C31.2156 13.9492 31.2462 13.93 31.2762 13.9117C31.3004 13.8959 31.3219 13.8836 31.3462 13.8718C31.366 13.8218 31.3843 13.7695 31.3985 13.7181C31.406 13.6938 31.4117 13.6698 31.4185 13.6431V13.6415C31.4343 13.5757 31.4459 13.5091 31.4541 13.4418C31.4117 13.4552 31.3719 13.4734 31.332 13.4918V13.4919ZM31.3518 13.6716C31.3278 13.684 31.3038 13.6956 31.2821 13.7097C31.2679 13.7614 31.2479 13.8137 31.2264 13.8653C31.2106 13.9035 31.1939 13.9417 31.1739 13.9801C31.178 13.9776 31.1823 13.9734 31.1863 13.9716C31.2156 13.9492 31.2462 13.9301 31.2762 13.9117C31.3004 13.8959 31.3219 13.8837 31.3462 13.8719C31.366 13.8219 31.3843 13.7696 31.3985 13.7182C31.3818 13.7041 31.366 13.6883 31.3518 13.6716ZM31.3518 13.6716C31.3278 13.684 31.3038 13.6956 31.2821 13.7097C31.2679 13.7614 31.2479 13.8137 31.2264 13.8653C31.2106 13.9035 31.1939 13.9417 31.1739 13.9801C31.178 13.9776 31.1823 13.9734 31.1863 13.9716C31.2156 13.9492 31.2462 13.9301 31.2762 13.9117C31.3004 13.8959 31.3219 13.8837 31.3462 13.8719C31.366 13.8219 31.3843 13.7696 31.3985 13.7182C31.3818 13.7041 31.366 13.6883 31.3518 13.6716ZM31.3518 13.6716C31.3278 13.684 31.3038 13.6956 31.2821 13.7097C31.2679 13.7614 31.2479 13.8137 31.2264 13.8653C31.2106 13.9035 31.1939 13.9417 31.1739 13.9801C31.178 13.9776 31.1823 13.9734 31.1863 13.9716C31.2156 13.9492 31.2462 13.9301 31.2762 13.9117C31.3004 13.8959 31.3219 13.8837 31.3462 13.8719C31.366 13.8219 31.3843 13.7696 31.3985 13.7182C31.3818 13.7041 31.366 13.6883 31.3518 13.6716ZM31.3518 13.6716C31.3278 13.684 31.3038 13.6956 31.2821 13.7097C31.2679 13.7614 31.2479 13.8137 31.2264 13.8653C31.2106 13.9035 31.1939 13.9417 31.1739 13.9801C31.178 13.9776 31.1823 13.9734 31.1863 13.9716C31.2156 13.9492 31.2462 13.9301 31.2762 13.9117C31.3004 13.8959 31.3219 13.8837 31.3462 13.8719C31.366 13.8219 31.3843 13.7696 31.3985 13.7182C31.3818 13.7041 31.366 13.6883 31.3518 13.6716ZM31.3518 13.6716C31.3278 13.684 31.3038 13.6956 31.2821 13.7097C31.2679 13.7614 31.2479 13.8137 31.2264 13.8653C31.2106 13.9035 31.1939 13.9417 31.1739 13.9801C31.178 13.9776 31.1823 13.9734 31.1863 13.9716C31.2156 13.9492 31.2462 13.9301 31.2762 13.9117C31.3004 13.8959 31.3219 13.8837 31.3462 13.8719C31.366 13.8219 31.3843 13.7696 31.3985 13.7182C31.3818 13.7041 31.366 13.6883 31.3518 13.6716ZM31.3518 13.6716C31.3278 13.684 31.3038 13.6956 31.2821 13.7097C31.2679 13.7614 31.2479 13.8137 31.2264 13.8653C31.2106 13.9035 31.1939 13.9417 31.1739 13.9801C31.178 13.9776 31.1823 13.9734 31.1863 13.9716C31.2156 13.9492 31.2462 13.9301 31.2762 13.9117C31.3004 13.8959 31.3219 13.8837 31.3462 13.8719C31.366 13.8219 31.3843 13.7696 31.3985 13.7182C31.3818 13.7041 31.366 13.6883 31.3518 13.6716ZM31.3518 13.6716C31.3278 13.684 31.3038 13.6956 31.2821 13.7097C31.2679 13.7614 31.2479 13.8137 31.2264 13.8653C31.2106 13.9035 31.1939 13.9417 31.1739 13.9801C31.178 13.9776 31.1823 13.9734 31.1863 13.9716C31.2156 13.9492 31.2462 13.9301 31.2762 13.9117C31.3004 13.8959 31.3219 13.8837 31.3462 13.8719C31.366 13.8219 31.3843 13.7696 31.3985 13.7182C31.3818 13.7041 31.366 13.6883 31.3518 13.6716ZM31.3518 13.6716C31.3278 13.684 31.3038 13.6956 31.2821 13.7097C31.2679 13.7614 31.2479 13.8137 31.2264 13.8653C31.2106 13.9035 31.1939 13.9417 31.1739 13.9801C31.178 13.9776 31.1823 13.9734 31.1863 13.9716C31.2156 13.9492 31.2462 13.9301 31.2762 13.9117C31.3004 13.8959 31.3219 13.8837 31.3462 13.8719C31.366 13.8219 31.3843 13.7696 31.3985 13.7182C31.3818 13.7041 31.366 13.6883 31.3518 13.6716ZM31.3518 13.6716C31.3278 13.684 31.3038 13.6956 31.2821 13.7097C31.2679 13.7614 31.2479 13.8137 31.2264 13.8653C31.2106 13.9035 31.1939 13.9417 31.1739 13.9801C31.178 13.9776 31.1823 13.9734 31.1863 13.9716C31.2156 13.9492 31.2462 13.9301 31.2762 13.9117C31.3004 13.8959 31.3219 13.8837 31.3462 13.8719C31.366 13.8219 31.3843 13.7696 31.3985 13.7182C31.3818 13.7041 31.366 13.6883 31.3518 13.6716ZM31.3518 13.6716C31.3278 13.684 31.3038 13.6956 31.2821 13.7097C31.2679 13.7614 31.2479 13.8137 31.2264 13.8653C31.2106 13.9035 31.1939 13.9417 31.1739 13.9801C31.178 13.9776 31.1823 13.9734 31.1863 13.9716C31.2156 13.9492 31.2462 13.9301 31.2762 13.9117C31.3004 13.8959 31.3219 13.8837 31.3462 13.8719C31.366 13.8219 31.3843 13.7696 31.3985 13.7182C31.3818 13.7041 31.366 13.6883 31.3518 13.6716ZM31.3518 13.6716C31.3278 13.684 31.3038 13.6956 31.2821 13.7097C31.2679 13.7614 31.2479 13.8137 31.2264 13.8653C31.2106 13.9035 31.1939 13.9417 31.1739 13.9801C31.178 13.9776 31.1823 13.9734 31.1863 13.9716C31.2156 13.9492 31.2462 13.9301 31.2762 13.9117C31.3004 13.8959 31.3219 13.8837 31.3462 13.8719C31.366 13.8219 31.3843 13.7696 31.3985 13.7182C31.3818 13.7041 31.366 13.6883 31.3518 13.6716ZM31.3518 13.6716C31.3278 13.684 31.3038 13.6956 31.2821 13.7097C31.2679 13.7614 31.2479 13.8137 31.2264 13.8653C31.2106 13.9035 31.1939 13.9417 31.1739 13.9801C31.178 13.9776 31.1823 13.9734 31.1863 13.9716C31.2156 13.9492 31.2462 13.9301 31.2762 13.9117C31.3004 13.8959 31.3219 13.8837 31.3462 13.8719C31.366 13.8219 31.3843 13.7696 31.3985 13.7182C31.3818 13.7041 31.366 13.6883 31.3518 13.6716ZM31.3518 13.6716C31.3278 13.684 31.3038 13.6956 31.2821 13.7097C31.2679 13.7614 31.2479 13.8137 31.2264 13.8653C31.2106 13.9035 31.1939 13.9417 31.1739 13.9801C31.178 13.9776 31.1823 13.9734 31.1863 13.9716C31.2156 13.9492 31.2462 13.9301 31.2762 13.9117C31.3004 13.8959 31.3219 13.8837 31.3462 13.8719C31.366 13.8219 31.3843 13.7696 31.3985 13.7182C31.3818 13.7041 31.366 13.6883 31.3518 13.6716ZM31.3518 13.6716C31.3278 13.684 31.3038 13.6956 31.2821 13.7097C31.2679 13.7614 31.2479 13.8137 31.2264 13.8653C31.2106 13.9035 31.1939 13.9417 31.1739 13.9801C31.178 13.9776 31.1823 13.9734 31.1863 13.9716C31.2156 13.9492 31.2462 13.9301 31.2762 13.9117C31.3004 13.8959 31.3219 13.8837 31.3462 13.8719C31.366 13.8219 31.3843 13.7696 31.3985 13.7182C31.3818 13.7041 31.366 13.6883 31.3518 13.6716ZM31.3518 13.6716C31.3278 13.684 31.3038 13.6956 31.2821 13.7097C31.2679 13.7614 31.2479 13.8137 31.2264 13.8653C31.2106 13.9035 31.1939 13.9417 31.1739 13.9801C31.178 13.9776 31.1823 13.9734 31.1863 13.9716C31.2156 13.9492 31.2462 13.9301 31.2762 13.9117C31.3004 13.8959 31.3219 13.8837 31.3462 13.8719C31.366 13.8219 31.3843 13.7696 31.3985 13.7182C31.3818 13.7041 31.366 13.6883 31.3518 13.6716ZM31.3518 13.6716C31.3278 13.684 31.3038 13.6956 31.2821 13.7097C31.2679 13.7614 31.2479 13.8137 31.2264 13.8653C31.2106 13.9035 31.1939 13.9417 31.1739 13.9801C31.178 13.9776 31.1823 13.9734 31.1863 13.9716C31.2156 13.9492 31.2462 13.9301 31.2762 13.9117C31.3004 13.8959 31.3219 13.8837 31.3462 13.8719C31.366 13.8219 31.3843 13.7696 31.3985 13.7182C31.3818 13.7041 31.366 13.6883 31.3518 13.6716ZM31.3518 13.6716C31.3278 13.684 31.3038 13.6956 31.2821 13.7097C31.2679 13.7614 31.2479 13.8137 31.2264 13.8653C31.2106 13.9035 31.1939 13.9417 31.1739 13.9801C31.178 13.9776 31.1823 13.9734 31.1863 13.9716C31.2156 13.9492 31.2462 13.9301 31.2762 13.9117C31.3004 13.8959 31.3219 13.8837 31.3462 13.8719C31.366 13.8219 31.3843 13.7696 31.3985 13.7182C31.3818 13.7041 31.366 13.6883 31.3518 13.6716ZM31.3518 13.6716C31.3278 13.684 31.3038 13.6956 31.2821 13.7097C31.2679 13.7614 31.2479 13.8137 31.2264 13.8653C31.2106 13.9035 31.1939 13.9417 31.1739 13.9801C31.178 13.9776 31.1823 13.9734 31.1863 13.9716C31.2156 13.9492 31.2462 13.9301 31.2762 13.9117C31.3004 13.8959 31.3219 13.8837 31.3462 13.8719C31.366 13.8219 31.3843 13.7696 31.3985 13.7182C31.3818 13.7041 31.366 13.6883 31.3518 13.6716ZM31.3518 13.6716C31.3278 13.684 31.3038 13.6956 31.2821 13.7097C31.2679 13.7614 31.2479 13.8137 31.2264 13.8653C31.2106 13.9035 31.1939 13.9417 31.1739 13.9801C31.178 13.9776 31.1823 13.9734 31.1863 13.9716C31.2156 13.9492 31.2462 13.9301 31.2762 13.9117C31.3004 13.8959 31.3219 13.8837 31.3462 13.8719C31.366 13.8219 31.3843 13.7696 31.3985 13.7182C31.3818 13.7041 31.366 13.6883 31.3518 13.6716ZM31.3518 13.6716C31.3278 13.684 31.3038 13.6956 31.2821 13.7097C31.2679 13.7614 31.2479 13.8137 31.2264 13.8653C31.2106 13.9035 31.1939 13.9417 31.1739 13.9801C31.178 13.9776 31.1823 13.9734 31.1863 13.9716C31.2156 13.9492 31.2462 13.9301 31.2762 13.9117C31.3004 13.8959 31.3219 13.8837 31.3462 13.8719C31.366 13.8219 31.3843 13.7696 31.3985 13.7182C31.3818 13.7041 31.366 13.6883 31.3518 13.6716ZM31.3518 13.6716C31.3278 13.684 31.3038 13.6956 31.2821 13.7097C31.2679 13.7614 31.2479 13.8137 31.2264 13.8653C31.2106 13.9035 31.1939 13.9417 31.1739 13.9801C31.178 13.9776 31.1823 13.9734 31.1863 13.9716C31.2156 13.9492 31.2462 13.9301 31.2762 13.9117C31.3004 13.8959 31.3219 13.8837 31.3462 13.8719C31.366 13.8219 31.3843 13.7696 31.3985 13.7182C31.3818 13.7041 31.366 13.6883 31.3518 13.6716ZM31.3518 13.6716C31.3278 13.684 31.3038 13.6956 31.2821 13.7097C31.2679 13.7614 31.2479 13.8137 31.2264 13.8653C31.2106 13.9035 31.1939 13.9417 31.1739 13.9801C31.178 13.9776 31.1823 13.9734 31.1863 13.9716C31.2156 13.9492 31.2462 13.9301 31.2762 13.9117C31.3004 13.8959 31.3219 13.8837 31.3462 13.8719C31.366 13.8219 31.3843 13.7696 31.3985 13.7182C31.3818 13.7041 31.366 13.6883 31.3518 13.6716ZM31.3518 13.6716C31.3278 13.684 31.3038 13.6956 31.2821 13.7097C31.2679 13.7614 31.2479 13.8137 31.2264 13.8653C31.2106 13.9035 31.1939 13.9417 31.1739 13.9801C31.178 13.9776 31.1823 13.9734 31.1863 13.9716C31.2156 13.9492 31.2462 13.9301 31.2762 13.9117C31.3004 13.8959 31.3219 13.8837 31.3462 13.8719C31.366 13.8219 31.3843 13.7696 31.3985 13.7182C31.3818 13.7041 31.366 13.6883 31.3518 13.6716ZM31.3518 13.6716C31.3278 13.684 31.3038 13.6956 31.2821 13.7097C31.2679 13.7614 31.2479 13.8137 31.2264 13.8653C31.2106 13.9035 31.1939 13.9417 31.1739 13.9801C31.178 13.9776 31.1823 13.9734 31.1863 13.9716C31.2156 13.9492 31.2462 13.9301 31.2762 13.9117C31.3004 13.8959 31.3219 13.8837 31.3462 13.8719C31.366 13.8219 31.3843 13.7696 31.3985 13.7182C31.3818 13.7041 31.366 13.6883 31.3518 13.6716Z" fill="#43C951"/>
<path fill-rule="evenodd" clip-rule="evenodd" d="M31.2561 14.0615C31.2403 14.0915 31.2236 14.1197 31.2061 14.1454C31.0965 14.3251 30.9501 14.4856 30.7705 14.6171C30.8676 14.429 31.0041 14.2595 31.1762 14.1197C31.2021 14.1016 31.2262 14.0816 31.2519 14.0632C31.2544 14.0632 31.2544 14.0615 31.256 14.0615H31.2561Z" fill="#43C951"/>
<path fill-rule="evenodd" clip-rule="evenodd" d="M31.3321 13.4919C31.3263 13.536 31.318 13.5817 31.3065 13.6241V13.6258C31.2998 13.6541 31.2923 13.6824 31.2822 13.7097C31.268 13.762 31.2482 13.8137 31.2265 13.866C31.2107 13.9044 31.194 13.9417 31.1742 13.9801C31.1742 13.9801 31.1726 13.9801 31.1726 13.9817C31.1568 14.0117 31.14 14.0424 31.1226 14.0716C31.1226 14.0741 31.1201 14.0741 31.1201 14.0757C31.1102 14.0899 31.0986 14.1017 31.0845 14.1126C31.0578 14.1324 31.0246 14.1398 30.9921 14.134C30.9739 14.1324 30.9581 14.1282 30.9423 14.1182C30.9023 14.0941 30.8781 14.05 30.8781 14.0059C30.8781 13.9843 30.884 13.9602 30.8982 13.9402C30.9105 13.9204 30.9197 13.902 30.9322 13.882C30.9704 13.8122 31.0003 13.7398 31.0246 13.6658C31.0263 13.6641 31.0304 13.6625 31.0345 13.66C31.0304 13.6583 31.0278 13.6558 31.0278 13.6542C31.0602 13.5601 31.0802 13.4621 31.0885 13.364C31.0943 13.3098 31.096 13.2557 31.0943 13.2018C31.0918 13.1443 31.1325 13.0919 31.1867 13.0761C31.1983 13.0719 31.2082 13.0703 31.22 13.0703C31.2923 13.0678 31.3522 13.1245 31.3539 13.1959C31.3539 13.2242 31.3539 13.2515 31.3522 13.2798C31.3522 13.3522 31.3447 13.4222 31.3321 13.492V13.4919ZM28.9778 12.1538C28.3781 12.5822 28.2402 13.4205 28.6701 14.0199C28.7126 14.0782 28.7001 14.1597 28.6402 14.2006C28.582 14.2421 28.5021 14.2295 28.4597 14.1696C27.9483 13.4561 28.112 12.4556 28.8281 11.9417C28.8863 11.9018 28.9662 11.9143 29.0085 11.9716C29.0502 12.0298 29.036 12.1121 28.9778 12.1538ZM31.146 12.246C31.0644 12.1295 30.9686 12.0256 30.8647 11.9374C30.7899 11.8742 30.71 11.8177 30.6278 11.7696C30.558 11.7278 30.4863 11.6913 30.4106 11.6623C30.3399 11.6324 30.2685 11.6081 30.1945 11.59C29.718 11.4643 29.1923 11.5416 28.7623 11.8518C27.9964 12.4 27.82 13.4702 28.3682 14.2362C28.7899 14.824 29.52 15.0662 30.182 14.8957C30.2484 14.8799 30.3116 14.8599 30.3767 14.8342C30.4498 14.8059 30.5238 14.7717 30.5945 14.7302C30.6485 14.702 30.7027 14.6678 30.7541 14.6303C30.7599 14.6261 30.7659 14.6219 30.7699 14.618C30.9505 14.4858 31.096 14.326 31.2065 14.1463C31.224 14.1196 31.2407 14.0924 31.2565 14.0624C31.2782 14.0242 31.2963 13.9857 31.3147 13.9459C31.3262 13.9219 31.3364 13.8959 31.3463 13.8719C31.3663 13.8219 31.3838 13.7696 31.3986 13.7179C31.4061 13.6939 31.4121 13.6699 31.4186 13.6439V13.6414C31.4344 13.5757 31.446 13.5092 31.4545 13.4418C31.4603 13.3977 31.462 13.3536 31.4644 13.3095C31.4802 12.942 31.3762 12.5679 31.146 12.2459V12.246Z" fill="#43C951"/>
<path fill-rule="evenodd" clip-rule="evenodd" d="M31.0339 13.6598C31.0298 13.6614 31.0265 13.6639 31.0239 13.6655C31.0264 13.6614 31.028 13.6582 31.028 13.6539C31.028 13.6556 31.0296 13.658 31.0337 13.6596L31.0339 13.6598Z" fill="#43C951"/>
<path fill-rule="evenodd" clip-rule="evenodd" d="M16.7001 24.4059C16.6758 24.4217 16.6442 24.4274 16.616 24.4142C16.5719 24.3934 16.5521 24.3434 16.5719 24.3003C16.6044 24.2263 16.6244 24.1463 16.6317 24.0641C16.6359 24.0158 16.6784 23.9818 16.7242 23.9858C16.7725 23.9883 16.8081 24.0299 16.8041 24.0773C16.7966 24.1796 16.7699 24.2777 16.7284 24.3701C16.7226 24.3843 16.7126 24.3957 16.7001 24.4059ZM15.4884 23.4163C15.1641 23.6473 15.0884 24.1016 15.322 24.4257C15.3486 24.4658 15.3404 24.5198 15.302 24.5481C15.2621 24.5738 15.2082 24.5655 15.1822 24.5273C14.892 24.1256 14.986 23.5634 15.3878 23.2755C15.426 23.2473 15.4799 23.2581 15.5082 23.2956C15.5365 23.3337 15.5257 23.388 15.4884 23.4163ZM16.7939 23.3722C16.4439 22.884 15.7644 22.7718 15.2788 23.1219C14.7906 23.472 14.6784 24.1497 15.0258 24.6379C15.376 25.1261 16.0563 25.2374 16.5419 24.8882C17.0302 24.5382 17.1424 23.8595 16.7939 23.3722Z" fill="#43C951"/>
<path fill-rule="evenodd" clip-rule="evenodd" d="M6.46389 66.7597H6.39413C6.39413 66.7597 6.48138 65.978 5.53015 65.8191C6.48138 65.6635 6.39413 64.8811 6.39413 64.8811H6.46389C6.46389 64.8811 6.37409 65.6635 7.32815 65.8191C6.37409 65.978 6.46389 66.7597 6.46389 66.7597Z" fill="#43C951"/>
<path fill-rule="evenodd" clip-rule="evenodd" d="M12.9962 64.5813L8.448 66.5151L12.316 64.3352L12.9962 64.5813Z" fill="#43C951"/>
<path fill-rule="evenodd" clip-rule="evenodd" d="M16.114 68.2777L12.7925 72.1497L15.9861 67.4578L16.114 68.2777Z" fill="#43C951"/>
<path fill-rule="evenodd" clip-rule="evenodd" d="M16.3463 70.9513H16.2782C16.2782 70.9513 16.3663 70.1705 15.4142 70.0143C16.3663 69.8561 16.2782 69.0736 16.2782 69.0736H16.3463C16.3463 69.0736 16.2581 69.8561 17.2105 70.0143C16.2581 70.1705 16.3463 70.9513 16.3463 70.9513Z" fill="#43C951"/>
<path fill-rule="evenodd" clip-rule="evenodd" d="M16.8723 72.976V72.9934H6.94006V72.976C8.41207 72.6816 9.90967 72.5236 11.4317 72.4851L11.8699 72.4768C12.3124 72.481 12.6443 72.5219 13.1157 72.5376L13.2803 72.5451C14.4265 72.6234 15.58 72.7557 16.7483 72.956C16.79 72.961 16.8299 72.9678 16.8723 72.976V72.976Z" fill="#43C951"/>
<path fill-rule="evenodd" clip-rule="evenodd" d="M18.1241 63.1498C18.0485 63.1597 17.9702 63.1696 17.8903 63.1696C17.9659 63.1514 18.0442 63.1498 18.1241 63.1498Z" fill="#43C951"/>
<path fill-rule="evenodd" clip-rule="evenodd" d="M20.3119 73.9661C20.2622 73.9661 20.2098 73.9619 20.1598 73.9576L19.7564 79.2377C19.7564 80.1576 19.0122 80.9035 18.0924 80.9035H5.59601C4.67638 80.9035 3.93024 80.1576 3.93024 79.2377L3.52782 73.9576C3.47626 73.9618 3.42626 73.9661 3.37387 73.9661C1.93613 73.9661 0.770171 72.8514 0.770171 71.4759C0.770171 70.1961 1.78221 69.1417 3.08464 69.0011L3.08213 68.9861H3.40813C3.76249 68.9861 4.10264 69.0376 4.42449 69.1333V65.4117C4.42449 63.9454 5.61192 62.7563 7.07818 62.7563H10.2159C10.1587 63.0683 9.9382 63.5555 9.12394 63.6878C10.3465 63.8898 10.2317 64.8919 10.2317 64.8919H10.3198C10.3198 64.8919 10.206 63.8898 11.4286 63.6878C10.6143 63.5555 10.3939 63.0683 10.3356 62.7563H17.1775C17.2 62.7563 17.2243 62.7563 17.2459 62.7571L19.0946 60.91C18.9781 60.7912 18.9781 60.604 19.0963 60.4876C19.2118 60.3695 19.3998 60.3695 19.5178 60.4859L20.2064 59.7997L20.6822 60.2755L18.0543 62.9051C19.0905 63.266 19.8323 64.2533 19.8323 65.4117V69.0136C19.9788 68.9952 20.1284 68.9861 20.2797 68.9861H20.6041V69.0011C21.9047 69.1417 22.9184 70.1961 22.9184 71.4759C22.9184 72.8514 21.7517 73.9661 20.3121 73.9661H20.3119ZM5.52368 56.786H5.63187C5.63187 56.786 5.49207 58.0234 6.99984 58.2721C5.49207 58.5199 5.63187 59.7575 5.63187 59.7575H5.52368C5.52368 59.7575 5.66438 58.5199 4.15653 58.2721C5.66438 58.0234 5.52368 56.786 5.52368 56.786ZM10.0378 58.2165H10.1477C10.1477 58.2165 10.0062 59.4539 11.5141 59.7016C10.0062 59.9494 10.1477 61.1878 10.1477 61.1878H10.0378C10.0378 61.1878 10.1776 59.9494 8.66984 59.7016C10.1776 59.4539 10.0378 58.2165 10.0378 58.2165ZM16.8317 55.674H17.0178C17.0178 55.674 16.7758 57.7898 19.3564 58.2122C16.7758 58.6356 17.0178 60.7512 17.0178 60.7512H16.8317C16.8317 60.7512 17.0718 58.6356 14.4938 58.2122C17.0718 57.7898 16.8317 55.674 16.8317 55.674ZM25.0524 68.9994C23.5877 68.9994 22.4003 67.8118 22.4003 66.3481V47.4H18.2562C16.958 47.4 16.1979 46.0754 16.6503 44.9999H0V85.7992H40.8004V68.9994H25.0524Z" fill="#43C951"/>
<path fill-rule="evenodd" clip-rule="evenodd" d="M72.378 60.4353C73.5907 60.2174 74.6875 60.5251 75.6621 61.193C77.0659 62.151 77.6881 63.5473 77.7604 65.3378C76.7241 64.8521 75.9641 64.1559 75.1324 63.5447C75.4244 64.3639 76.1895 64.8097 76.7001 65.4733C74.8396 65.8095 72.1319 62.7041 72.378 60.4353ZM70.4819 64.6251C70.1799 64.8778 69.8341 64.9271 69.4666 64.7797C69.1321 64.6451 68.9135 64.3115 68.9317 63.9174C68.9416 63.7279 68.9741 63.519 69.0597 63.3535C69.2942 62.9018 69.562 62.4669 69.8582 61.9556C70.17 62.5369 70.4704 63.0551 70.7281 63.5957C70.8919 63.9398 70.7697 64.3813 70.4819 64.6251ZM68.248 67.6174C67.2817 68.1829 66.1224 67.5334 66.1299 66.4132C66.1316 66.1352 66.198 65.8352 66.3195 65.589C66.702 64.8272 67.1262 64.0853 67.5163 63.3651C67.9255 64.1329 68.3579 64.937 68.782 65.7479C68.8378 65.8517 68.8603 65.9773 68.8843 66.0954C69.0057 66.7432 68.7662 67.3147 68.248 67.6174ZM65.1462 62.813C65.1304 62.6408 65.1404 62.4412 65.2117 62.2882C65.4022 61.8717 65.6301 61.4732 65.8878 60.9851C66.2796 61.597 66.7403 62.0612 66.6796 62.7715C66.6421 63.2222 66.3619 63.5032 65.9337 63.5115C65.5078 63.519 65.1877 63.2512 65.1462 62.813ZM78.8001 67.3413V44.9993H68.3496C68.8021 46.0754 68.0418 47.3993 66.7445 47.3993H62.2003V66.3474C62.2003 67.8112 61.012 68.9995 59.5482 68.9995H45.2V78.5991H78.8001V68.0473C78.2878 67.9957 77.8344 67.9493 77.3804 67.9027C77.0643 68.3859 76.7899 68.834 76.4898 69.263C74.9702 71.4338 72.8603 72.7077 70.3056 73.2791C68.8544 73.6052 67.3824 73.6875 65.898 73.5013C65.3024 73.4298 64.702 73.3673 64.1056 73.2791C63.8437 73.2409 63.59 73.1495 63.2657 73.0636C63.764 71.0521 64.6721 69.3588 66.204 68.0148C66.4842 68.1112 66.698 68.1796 66.9076 68.2553C67.9638 68.6369 69.1761 67.975 69.3643 66.8614C69.4439 66.3832 69.6844 66.177 70.1102 66.0997C71.5114 65.8394 72.9218 65.7569 74.3381 65.9691C74.8738 66.0497 75.4077 66.1454 75.9424 66.2451C76.0963 66.2751 76.2418 66.3432 76.4 66.4672C74.1635 67.0436 71.9598 67.6539 70.0661 69.0462C72.8454 67.8237 75.7337 67.1633 78.8001 67.3413Z" fill="#43C951"/>
<path fill-rule="evenodd" clip-rule="evenodd" d="M75.3898 26.4977L67.8195 19.6134L60.5775 13.0261L60.8604 12.7175L68.0955 19.2975L75.6718 26.1891L75.3898 26.4977ZM74.2922 27.7054L66.7426 20.8376L59.4799 14.2335L60.3439 13.2814L67.5899 19.8736L75.1562 26.754L74.2922 27.7054ZM65.9941 23.1155C65.2937 23.5156 60.2041 30.5056 60.2041 30.5056C60.1758 30.5378 60.1435 30.5635 60.1086 30.5862C59.8357 30.958 59.3957 31.1998 58.9002 31.1998C58.0718 31.1998 57.4 30.528 57.4 29.6996C57.4 29.1333 57.7142 28.6401 58.18 28.3856C58.1825 28.3839 58.1842 28.3814 58.1859 28.3814C59.1922 27.4872 64.5339 22.7236 64.834 22.06C64.834 22.06 64.272 19.2431 64.5521 19.0595L65.3762 19.8096C65.3762 19.8096 65.2706 21.1717 65.7723 21.9393C65.8045 21.9892 65.8321 22.0432 65.8677 22.0873C66.6504 22.6397 68.1838 22.3637 68.1838 22.3637L69.008 23.1111C68.8527 23.4073 65.9943 23.1153 65.9943 23.1153L65.9941 23.1155ZM52.7476 21.1877H52.638C52.638 21.1877 52.7785 19.9493 51.2698 19.7016C52.7785 19.4538 52.638 18.2154 52.638 18.2154H52.7476C52.7476 18.2154 52.6062 19.4538 54.114 19.7016C52.6062 19.9493 52.7476 21.1877 52.7476 21.1877ZM62.032 4.27372H62.2185C62.2185 4.27372 61.9764 6.3895 64.5561 6.81198C61.9764 7.23536 62.2185 9.35188 62.2185 9.35188H62.032C62.032 9.35188 62.2724 7.23536 59.6934 6.81198C62.2724 6.3895 62.032 4.27372 62.032 4.27372ZM70.0399 9.53576H70.228C70.228 9.53576 69.9859 11.6581 72.5723 12.0822C69.9859 12.508 70.228 14.6294 70.228 14.6294H70.0399C70.0399 14.6294 70.282 12.508 67.6964 12.0822C70.282 11.6581 70.0399 9.53576 70.0399 9.53576ZM45.1997 0V20.6238L64.4904 40.7994H86V0H45.1997Z" fill="#43C951"/>
<path fill-rule="evenodd" clip-rule="evenodd" d="M20.442 40.8698L29.8403 31.0397L22.2526 39.1317L21.9423 39.4618L20.9343 40.5339C20.7964 40.6817 20.6257 40.7958 20.442 40.8698Z" fill="#43C951"/>
<path fill-rule="evenodd" clip-rule="evenodd" d="M35.364 37.9995H41.8082V44.4456H35.364V37.9995Z" fill="#43C951"/>
<path fill-rule="evenodd" clip-rule="evenodd" d="M6.46389 66.7597H6.39413C6.39413 66.7597 6.48138 65.978 5.53015 65.8191C6.48138 65.6635 6.39413 64.8811 6.39413 64.8811H6.46389C6.46389 64.8811 6.37409 65.6635 7.32815 65.8191C6.37409 65.978 6.46389 66.7597 6.46389 66.7597Z" fill="#43C951"/>
<path fill-rule="evenodd" clip-rule="evenodd" d="M10.3202 64.8919H10.232C10.232 64.8919 10.3459 63.8898 9.12427 63.6877C9.93828 63.5564 10.158 63.0682 10.2162 62.7563H10.336C10.3942 63.0682 10.6144 63.5564 11.4287 63.6877C10.2061 63.8898 10.3202 64.8919 10.3202 64.8919Z" fill="#43C951"/>
<path fill-rule="evenodd" clip-rule="evenodd" d="M12.9962 64.5813L8.448 66.5151L12.316 64.3352L12.9962 64.5813Z" fill="#43C951"/>
<path fill-rule="evenodd" clip-rule="evenodd" d="M16.114 68.2777L12.7925 72.1497L15.9861 67.4578L16.114 68.2777Z" fill="#43C951"/>
<path fill-rule="evenodd" clip-rule="evenodd" d="M16.3463 70.9513H16.2782C16.2782 70.9513 16.3663 70.1705 15.4142 70.0143C16.3663 69.8561 16.2782 69.0736 16.2782 69.0736H16.3463C16.3463 69.0736 16.2581 69.8561 17.2105 70.0143C16.2581 70.1705 16.3463 70.9513 16.3463 70.9513Z" fill="#43C951"/>
<path fill-rule="evenodd" clip-rule="evenodd" d="M16.8723 72.976V72.9934H6.94006V72.976C8.41207 72.6816 9.90967 72.5236 11.4317 72.4851L11.8699 72.4768C12.3124 72.481 12.6443 72.5219 13.1157 72.5376L13.2803 72.5451C14.4265 72.6234 15.58 72.7557 16.7483 72.956C16.79 72.961 16.8299 72.9678 16.8723 72.976V72.976Z" fill="#43C951"/>
<path fill-rule="evenodd" clip-rule="evenodd" d="M18.1241 63.1498C18.0485 63.1597 17.9702 63.1696 17.8903 63.1696C17.9659 63.1514 18.0442 63.1498 18.1241 63.1498Z" fill="#43C951"/>
<path fill-rule="evenodd" clip-rule="evenodd" d="M16.8723 72.976V72.9934H6.94006V72.976C8.41207 72.6816 9.90967 72.5236 11.4317 72.4851L11.8699 72.4768C12.3124 72.481 12.6443 72.5219 13.1157 72.5376L13.2803 72.5451C14.4265 72.6234 15.58 72.7557 16.7483 72.956C16.79 72.961 16.8299 72.9678 16.8723 72.976V72.976Z" fill="#43C951"/>
<path fill-rule="evenodd" clip-rule="evenodd" d="M6.02035 72.5177V79.9841H5.59603C5.18445 79.9841 4.85014 79.6491 4.85014 79.2372V79.1974L4.36456 72.9868L3.42795 73.0434C3.40973 73.0434 3.39235 73.0459 3.37389 73.0459C2.44578 73.0459 1.68982 72.3415 1.68982 71.4759C1.68982 70.6774 2.33026 70.0072 3.18011 69.9174L3.28833 69.9056H3.40807C3.76809 69.9056 4.11248 69.9797 4.42443 70.1111C5.36002 70.5077 6.02035 71.4375 6.02035 72.5178V72.5177Z" fill="#43C951"/>
<path fill-rule="evenodd" clip-rule="evenodd" d="M16.8722 72.9757V72.9932H16.7482V72.9557C16.7899 72.9607 16.8298 72.9675 16.8722 72.9757Z" fill="#43C951"/>
<path fill-rule="evenodd" clip-rule="evenodd" d="M21.9982 71.476C21.9982 72.3417 21.2422 73.0461 20.3124 73.0461C20.294 73.0461 20.2766 73.0436 20.2584 73.0436L19.8324 73.0176L19.3244 72.987L19.2704 73.6829L18.8379 79.1976V79.2374C18.8379 79.6492 18.5019 79.9835 18.092 79.9835H17.6678V72.5178C17.6678 71.2298 18.6043 70.1576 19.8324 69.9457C19.9781 69.9198 20.1278 69.9056 20.2798 69.9056H20.4163L20.5062 69.9174C21.3577 70.0072 21.9982 70.6774 21.9982 71.4759V71.476Z" fill="#43C951"/>
<path fill-rule="evenodd" clip-rule="evenodd" d="M18.1241 63.1498C18.0485 63.1597 17.9702 63.1696 17.8903 63.1696C17.9659 63.1514 18.0442 63.1498 18.1241 63.1498Z" fill="#43C951"/>
<path fill-rule="evenodd" clip-rule="evenodd" d="M14.5822 62.7561H14.3903L14.4857 62.6604L14.5822 62.7561Z" fill="#43C951"/>
<path fill-rule="evenodd" clip-rule="evenodd" d="M17.8219 65.9952L16.3924 67.4257L13.0566 64.0893L14.3904 62.7552H14.5819L15.9157 64.0893L16.1545 63.8498L16.6319 64.3271L16.3924 64.5651L17.8219 65.9952Z" fill="#43C951"/>
<path fill-rule="evenodd" clip-rule="evenodd" d="M20.6819 60.2755L18.0538 62.9052L16.8704 64.0893L16.3923 63.612L17.2464 62.7572L19.0942 60.9099C18.9779 60.7911 18.9779 60.6039 19.0958 60.4875C19.2115 60.3694 19.3995 60.3694 19.5185 60.4858L20.2062 59.7998L20.6819 60.2755Z" fill="#43C951"/>
<path fill-rule="evenodd" clip-rule="evenodd" d="M16.114 68.2777L12.7925 72.1497L15.9861 67.4578L16.114 68.2777Z" fill="#43C951"/>
<path fill-rule="evenodd" clip-rule="evenodd" d="M12.9962 64.5813L8.448 66.5151L12.316 64.3352L12.9962 64.5813Z" fill="#43C951"/>
<path fill-rule="evenodd" clip-rule="evenodd" d="M6.46389 66.7597H6.39413C6.39413 66.7597 6.48138 65.978 5.53015 65.8191C6.48138 65.6635 6.39413 64.8811 6.39413 64.8811H6.46389C6.46389 64.8811 6.37409 65.6635 7.32815 65.8191C6.37409 65.978 6.46389 66.7597 6.46389 66.7597Z" fill="#43C951"/>
<path fill-rule="evenodd" clip-rule="evenodd" d="M10.3202 64.8915H10.232C10.232 64.8915 10.3459 63.8894 9.12427 63.6873C9.93828 63.556 10.158 63.0679 10.2162 62.756C10.2445 62.5971 10.232 62.4849 10.232 62.4849H10.3202C10.3202 62.4849 10.3077 62.5971 10.336 62.756C10.3942 63.0679 10.6144 63.556 11.4287 63.6873C10.2061 63.8894 10.3202 64.8915 10.3202 64.8915Z" fill="#43C951"/>
<path fill-rule="evenodd" clip-rule="evenodd" d="M16.3463 70.9513H16.2782C16.2782 70.9513 16.3663 70.1705 15.4142 70.0143C16.3663 69.8561 16.2782 69.0736 16.2782 69.0736H16.3463C16.3463 69.0736 16.2581 69.8561 17.2105 70.0143C16.2581 70.1705 16.3463 70.9513 16.3463 70.9513Z" fill="#43C951"/>
<path fill-rule="evenodd" clip-rule="evenodd" d="M40.3999 13.5117V19.2284C40.3999 19.5837 40.2637 19.9253 40.02 20.1858L29.8398 31.0402L22.252 39.132L21.9417 39.4623L20.9339 40.5342C20.7958 40.6815 20.626 40.7963 20.4415 40.8694C20.276 40.9392 20.0956 40.976 19.9142 40.976H7.58606V36.876H18.6201L24.8118 30.2318V17.5959H29.5297V25.1722L40.3999 13.5117Z" fill="#43C951"/>
<path fill-rule="evenodd" clip-rule="evenodd" d="M41.8082 44.4456H35.364V37.9995H41.8082V44.4456Z" fill="#43C951"/>
<path fill-rule="evenodd" clip-rule="evenodd" d="M49.4761 44.4456H43.0317V37.9995H49.4761V44.4456Z" fill="#43C951"/>
<path fill-rule="evenodd" clip-rule="evenodd" d="M41.8082 52.0012H35.364V45.556H41.8082V52.0012Z" fill="#43C951"/>
<path fill-rule="evenodd" clip-rule="evenodd" d="M49.4761 52.0012H43.0317V45.556H49.4761V52.0012Z" fill="#43C951"/>
</svg>
