<svg width="104" height="104" viewBox="0 0 104 104" fill="none" xmlns="http://www.w3.org/2000/svg">
<path fill-rule="evenodd" clip-rule="evenodd" d="M16.8199 37.5324C16.8099 37.5446 16.7961 37.5565 16.7839 37.5664C16.721 37.6095 16.6371 37.6126 16.5739 37.5614C16.4979 37.5013 16.486 37.3902 16.543 37.3162C16.8049 36.9815 16.9659 36.5804 17.007 36.1574C17.017 36.0582 17.104 35.9885 17.1969 35.9984C17.2959 36.0084 17.3659 36.0942 17.356 36.1903C17.3081 36.6813 17.123 37.1453 16.8199 37.5322V37.5324ZM13.496 34.1326C12.498 34.8486 12.27 36.2407 12.9841 37.2396C13.0391 37.3164 13.0229 37.4275 12.943 37.4825C12.8639 37.5395 12.7559 37.5205 12.7001 37.4414C11.8729 36.2866 12.1371 34.6757 13.2919 33.8485C13.371 33.7904 13.4821 33.8097 13.5371 33.8896C13.595 33.9664 13.576 34.0764 13.496 34.1326ZM17.2599 34.1756C16.2859 32.8144 14.3861 32.5015 13.028 33.4755C11.666 34.4495 11.3539 36.3495 12.3279 37.7085C13.301 39.0697 15.2011 39.3826 16.56 38.4075C17.922 37.4335 18.2341 35.5334 17.2599 34.1756Z" fill="#FCFCFC"/>
<path fill-rule="evenodd" clip-rule="evenodd" d="M22.5799 38.408C22.5238 38.4489 22.4478 38.4509 22.3849 38.41C22.3078 38.3579 22.2868 38.2519 22.3387 38.175C22.4668 37.9868 22.5488 37.7708 22.5799 37.5469C22.5918 37.4531 22.6789 37.3879 22.7699 37.4C22.8637 37.412 22.9289 37.499 22.9158 37.5931C22.8779 37.8669 22.7767 38.1359 22.6208 38.365C22.6108 38.382 22.5967 38.3959 22.5799 38.408ZM20.2487 36.14C19.5857 36.616 19.4318 37.5449 19.9077 38.2079C19.9627 38.285 19.9437 38.391 19.8697 38.4469C19.7918 38.499 19.6869 38.4829 19.6308 38.4061C19.0468 37.59 19.2348 36.4499 20.0517 35.8659C20.1268 35.8109 20.2328 35.8268 20.2878 35.9051C20.3428 35.9819 20.3267 36.087 20.2487 36.14ZM22.7407 36.1789C22.0969 35.2789 20.8437 35.0731 19.9437 35.7168C19.0468 36.362 18.8399 37.6149 19.4817 38.5141C20.1268 39.4109 21.3797 39.617 22.2789 38.975C23.1789 38.3309 23.3858 37.0749 22.7407 36.1789Z" fill="#FCFCFC"/>
<path fill-rule="evenodd" clip-rule="evenodd" d="M26.1774 34.5168C26.1674 34.5287 26.1575 34.5406 26.1465 34.5477C26.1026 34.5786 26.0456 34.5817 25.9965 34.5507C25.9396 34.5096 25.9254 34.4306 25.9656 34.3707C26.0974 34.1777 26.1794 33.9495 26.1984 33.7106C26.2064 33.6417 26.2684 33.5887 26.3384 33.5958C26.4084 33.6008 26.4614 33.6627 26.4566 33.7327C26.4325 34.0147 26.3364 34.2857 26.1774 34.5167V34.5168ZM24.0446 32.4898C23.4334 32.9269 23.2914 33.7838 23.7294 34.3938C23.7725 34.4516 23.7586 34.5319 23.7005 34.5747C23.6424 34.6158 23.5636 34.6007 23.5196 34.5426C23.0006 33.8167 23.1664 32.8019 23.8955 32.2809C23.9525 32.2398 24.0316 32.2517 24.0735 32.3086C24.1166 32.3668 24.1016 32.4487 24.0446 32.4898ZM26.4325 32.4577C25.8024 31.5799 24.5755 31.3789 23.6985 32.0056C22.8206 32.6366 22.6176 33.8629 23.2486 34.7408C23.8754 35.6187 25.1025 35.8208 25.9804 35.1898C26.8586 34.5628 27.0595 33.3356 26.4325 32.4577Z" fill="#FCFCFC"/>
<path fill-rule="evenodd" clip-rule="evenodd" d="M30.9968 16.6055C30.9098 16.6673 30.7947 16.6755 30.6989 16.6174C30.5708 16.5383 30.5297 16.3725 30.6099 16.2443C30.7349 16.0402 30.8157 15.8163 30.8568 15.5762C30.8809 15.4294 31.0207 15.3313 31.1669 15.3554C31.3138 15.3784 31.4127 15.5184 31.3889 15.6652C31.3379 15.9733 31.2299 16.2645 31.0688 16.5264C31.0499 16.5604 31.0258 16.5865 30.9968 16.6055ZM27.9349 13.7584C27.1029 14.3565 26.9107 15.5212 27.5068 16.3574C27.5967 16.4785 27.5669 16.6463 27.4467 16.7325C27.3248 16.8195 27.1559 16.7923 27.0697 16.6704C26.2979 15.5955 26.5448 14.0894 27.6228 13.3204C27.7427 13.2314 27.9119 13.2603 27.9978 13.3802C28.0837 13.5032 28.0579 13.6713 27.9349 13.7584ZM31.2109 13.7053C30.3449 12.4984 28.6588 12.2194 27.4518 13.0823C26.2468 13.9483 25.9679 15.6335 26.8339 16.8413C27.6968 18.0455 29.3828 18.3253 30.5898 17.4613C31.7948 16.5964 32.0737 14.9104 31.2109 13.7053Z" fill="#FCFCFC"/>
<path fill-rule="evenodd" clip-rule="evenodd" d="M13.0153 31.3112C13.0103 31.3182 13.0034 31.3254 12.9963 31.3302C12.9702 31.3503 12.9334 31.3503 12.9073 31.3322C12.8713 31.3061 12.8614 31.2579 12.8852 31.2219C12.9504 31.1261 12.9963 31.0181 13.0173 30.9022C13.0273 30.8611 13.0683 30.8322 13.1114 30.8421C13.1553 30.8491 13.1814 30.89 13.1743 30.9339C13.1454 31.07 13.0952 31.195 13.0153 31.3109V31.3112ZM11.6663 30.0342C11.2793 30.3115 11.1903 30.8523 11.4664 31.2392C11.4934 31.2752 11.4863 31.3234 11.4503 31.3503C11.4134 31.3764 11.3652 31.3662 11.3394 31.3302C11.0103 30.8733 11.1152 30.2332 11.5753 29.9044C11.6113 29.8803 11.6592 29.8874 11.6853 29.9234C11.7094 29.9574 11.7023 30.0073 11.6663 30.0342ZM13.1692 30.0195C12.7752 29.4693 12.0053 29.3414 11.4542 29.7363C10.9043 30.1323 10.7762 30.9005 11.1702 31.4504C11.5654 32.0015 12.3344 32.1285 12.8852 31.7344C13.4362 31.3404 13.5632 30.5703 13.1692 30.0195Z" fill="#FCFCFC"/>
<path fill-rule="evenodd" clip-rule="evenodd" d="M22.4186 15.3113C22.3877 15.3334 22.3438 15.3402 22.3058 15.3232C22.2477 15.2974 22.2216 15.2293 22.2477 15.1724C22.2917 15.0731 22.3177 14.9671 22.3268 14.8591C22.3318 14.7962 22.3877 14.7491 22.4498 14.7531C22.5128 14.7581 22.5607 14.8132 22.5556 14.8761C22.5437 15.0114 22.5096 15.1412 22.4546 15.2662C22.4476 15.2852 22.4328 15.2994 22.4186 15.3113ZM20.8128 14.0002C20.3817 14.3092 20.2827 14.9102 20.5906 15.3402C20.6266 15.3912 20.6147 15.4632 20.5648 15.4992C20.5138 15.5352 20.4418 15.5233 20.4058 15.4723C20.0228 14.9382 20.1458 14.1953 20.6776 13.8131C20.7306 13.7771 20.7998 13.7893 20.8386 13.8392C20.8746 13.8934 20.8627 13.9622 20.8128 14.0002ZM22.5417 13.9401C22.0768 13.2933 21.1776 13.1473 20.5328 13.6082C19.8856 14.0734 19.7368 14.9722 20.2017 15.6194C20.6626 16.2662 21.5626 16.4134 22.2097 15.9513C22.8557 15.4873 23.0046 14.5873 22.5417 13.9401Z" fill="#FCFCFC"/>
<path fill-rule="evenodd" clip-rule="evenodd" d="M34.3199 13.6808C34.3159 13.6958 34.308 13.7049 34.2961 13.7119C34.2771 13.727 34.251 13.729 34.2261 13.7199C34.1901 13.7017 34.1739 13.6598 34.1901 13.6229C34.217 13.5609 34.234 13.494 34.2411 13.4259C34.2431 13.3848 34.2771 13.3559 34.3179 13.3588C34.359 13.3608 34.3871 13.3967 34.382 13.4378C34.378 13.5217 34.3559 13.6039 34.3199 13.6808ZM33.281 12.8828C33.0069 13.077 32.9451 13.4568 33.139 13.729C33.1631 13.763 33.156 13.8078 33.1251 13.8299C33.0911 13.854 33.046 13.8469 33.0219 13.8129C32.781 13.477 32.8581 13.005 33.1971 12.7649C33.228 12.7408 33.2739 12.7479 33.296 12.7819C33.3201 12.8128 33.313 12.8587 33.281 12.8828ZM34.376 12.844C34.0821 12.4349 33.512 12.342 33.103 12.6348C32.6951 12.9287 32.601 13.4979 32.8941 13.907C33.1489 14.2607 33.609 14.3778 33.9959 14.2128L33.9979 14.2098C34.1011 14.1018 34.217 14.0009 34.342 13.9119C34.359 13.9 34.376 13.8881 34.395 13.8779V13.8759C34.395 13.8759 34.397 13.8759 34.397 13.8729C34.5971 13.5678 34.602 13.1588 34.376 12.8439V12.844Z" fill="#FCFCFC"/>
<path fill-rule="evenodd" clip-rule="evenodd" d="M25.1507 27.9851C25.1385 28.0052 25.1215 28.0191 25.1045 28.0313C25.0347 28.0812 24.9415 28.0843 24.8686 28.0313C24.7776 27.9661 24.7586 27.8391 24.8236 27.7501C24.8956 27.646 24.9585 27.5352 25.0087 27.4201C25.0515 27.3172 25.1697 27.269 25.2737 27.3121C25.3746 27.3552 25.4217 27.4751 25.3797 27.576C25.3185 27.72 25.2417 27.8581 25.1507 27.9851ZM22.4855 25.4001C21.7335 25.939 21.5595 26.9892 22.0986 27.7421C22.1635 27.8343 22.1445 27.9593 22.0527 28.0242C21.9617 28.0891 21.8367 28.0692 21.7715 27.9783C21.1037 27.0451 21.3177 25.7412 22.2506 25.0702C22.3415 25.0061 22.4685 25.0271 22.5337 25.1181C22.5986 25.2102 22.5777 25.3352 22.4855 25.4001ZM25.3335 25.4242C24.5945 24.3953 23.1545 24.156 22.1255 24.895C21.0937 25.6332 20.8556 27.0743 21.5935 28.1033C22.3316 29.1342 23.7725 29.3732 24.8037 28.6342C25.8335 27.8941 26.0717 26.456 25.3335 25.4242Z" fill="#FCFCFC"/>
<path fill-rule="evenodd" clip-rule="evenodd" d="M37.8338 16.0041C37.8318 16.0572 37.8287 16.1102 37.8218 16.1632C37.8128 16.2442 37.7977 16.3242 37.7787 16.4033V16.4053C37.7717 16.4374 37.7637 16.4663 37.7546 16.4952C37.7376 16.5573 37.7158 16.6202 37.6917 16.6803C37.6798 16.7092 37.6676 16.7401 37.6537 16.7693C37.6387 16.7563 37.6228 16.7423 37.6078 16.7281C37.5888 16.7111 37.5667 16.6922 37.5477 16.6724C37.5738 16.6103 37.5976 16.5474 37.6146 16.4853C37.6268 16.4513 37.6367 16.4184 37.6438 16.3844V16.3814C37.6588 16.3315 37.6676 16.2752 37.6747 16.2234C37.6897 16.1392 37.6988 16.0542 37.6988 15.9683C37.7018 15.9343 37.7018 15.9003 37.7018 15.8674C37.6988 15.7804 37.627 15.7131 37.5408 15.7151C37.5258 15.7151 37.5139 15.7182 37.5 15.7232C37.4348 15.7422 37.3869 15.804 37.3889 15.874C37.3919 15.9392 37.3889 16.0041 37.3819 16.0691C37.3719 16.1873 37.3479 16.3052 37.3099 16.4183C37.2541 16.3531 37.2039 16.2882 37.1529 16.2182C36.68 15.5543 36.4921 14.773 36.5669 14.0229C36.6579 14.0581 36.745 14.1021 36.8289 14.1523C36.9269 14.2101 37.023 14.2772 37.1129 14.354C37.2379 14.46 37.353 14.5851 37.4519 14.7252C37.728 15.1121 37.8539 15.5622 37.834 16.0041H37.8338Z" fill="#FCFCFC"/>
<path fill-rule="evenodd" clip-rule="evenodd" d="M40.3659 17.2759C40.4138 17.3431 40.4569 17.4112 40.496 17.4832C39.6368 17.6802 38.7278 17.5141 37.9899 17.0259C38.033 16.944 38.0699 16.8601 38.101 16.7739C38.1348 16.677 38.166 16.5812 38.1869 16.4831C38.969 16.2801 39.8268 16.5571 40.337 17.238C40.347 17.2502 40.3568 17.2621 40.3659 17.2759Z" fill="#FCFCFC"/>
<path fill-rule="evenodd" clip-rule="evenodd" d="M41.9749 15.8095C41.8887 15.8716 41.7728 15.8795 41.6767 15.8214C41.5497 15.7423 41.5088 15.5765 41.5848 15.4484C41.7657 15.1575 41.8717 14.8233 41.8927 14.4815C41.9048 14.3324 42.0327 14.2196 42.1818 14.2295C42.3309 14.2395 42.4417 14.3695 42.4318 14.5175C42.4029 14.9464 42.2708 15.3645 42.0469 15.7296C42.0279 15.7636 42.0038 15.7905 41.9749 15.8095ZM42.1767 12.6185C41.2268 11.2953 39.3778 10.9903 38.0548 11.9374C37.4349 12.3824 37.0378 13.0225 36.8909 13.7124C36.9828 13.7603 37.0687 13.8105 37.1557 13.8683C37.2739 13.2076 37.6387 12.5913 38.2238 12.1735C38.3457 12.0865 38.5149 12.1154 38.6008 12.2356C38.6878 12.3583 38.6589 12.5264 38.5379 12.6134C37.9687 13.0225 37.6628 13.6574 37.6509 14.3094C37.7019 14.3644 37.7467 14.4214 37.7898 14.4815C38.1297 14.9554 38.2759 15.5065 38.2467 16.0453C39.1589 15.8744 40.1309 16.2304 40.7047 17.0335C40.7248 17.0624 40.7458 17.0913 40.7628 17.1205C41.0179 17.0335 41.2659 16.9065 41.4958 16.7404C42.8219 15.7925 43.1249 13.9435 42.1767 12.6185Z" fill="#FCFCFC"/>
<path fill-rule="evenodd" clip-rule="evenodd" d="M37.6438 16.384C37.6368 16.418 37.6268 16.4512 37.6149 16.4852C37.6418 16.4682 37.6699 16.454 37.6988 16.439C37.6798 16.42 37.6628 16.405 37.6438 16.384ZM37.6438 16.384C37.6368 16.418 37.6268 16.4512 37.6149 16.4852C37.6418 16.4682 37.6699 16.454 37.6988 16.439C37.6798 16.42 37.6628 16.405 37.6438 16.384ZM37.6438 16.384C37.6368 16.418 37.6268 16.4512 37.6149 16.4852C37.6418 16.4682 37.6699 16.454 37.6988 16.439C37.6798 16.42 37.6628 16.405 37.6438 16.384ZM37.6438 16.384C37.6368 16.418 37.6268 16.4512 37.6149 16.4852C37.6418 16.4682 37.6699 16.454 37.6988 16.439C37.6798 16.42 37.6628 16.405 37.6438 16.384ZM37.6438 16.384C37.6368 16.418 37.6268 16.4512 37.6149 16.4852C37.6418 16.4682 37.6699 16.454 37.6988 16.439C37.6798 16.42 37.6628 16.405 37.6438 16.384ZM37.6438 16.384C37.6368 16.418 37.6268 16.4512 37.6149 16.4852C37.6418 16.4682 37.6699 16.454 37.6988 16.439C37.6798 16.42 37.6628 16.405 37.6438 16.384ZM37.6438 16.384C37.6368 16.418 37.6268 16.4512 37.6149 16.4852C37.6418 16.4682 37.6699 16.454 37.6988 16.439C37.6798 16.42 37.6628 16.405 37.6438 16.384ZM37.6438 16.384C37.6368 16.418 37.6268 16.4512 37.6149 16.4852C37.6418 16.4682 37.6699 16.454 37.6988 16.439C37.6798 16.42 37.6628 16.405 37.6438 16.384ZM37.6438 16.384C37.6368 16.418 37.6268 16.4512 37.6149 16.4852C37.6418 16.4682 37.6699 16.454 37.6988 16.439C37.6798 16.42 37.6628 16.405 37.6438 16.384ZM37.6438 16.384C37.6368 16.418 37.6268 16.4512 37.6149 16.4852C37.6418 16.4682 37.6699 16.454 37.6988 16.439C37.6798 16.42 37.6628 16.405 37.6438 16.384ZM37.6438 16.384C37.6368 16.418 37.6268 16.4512 37.6149 16.4852C37.6418 16.4682 37.6699 16.454 37.6988 16.439C37.6798 16.42 37.6628 16.405 37.6438 16.384ZM37.6438 16.384C37.6368 16.418 37.6268 16.4512 37.6149 16.4852C37.6418 16.4682 37.6699 16.454 37.6988 16.439C37.6798 16.42 37.6628 16.405 37.6438 16.384ZM37.6438 16.384C37.6368 16.418 37.6268 16.4512 37.6149 16.4852C37.6418 16.4682 37.6699 16.454 37.6988 16.439C37.6798 16.42 37.6628 16.405 37.6438 16.384ZM37.6438 16.384C37.6368 16.418 37.6268 16.4512 37.6149 16.4852C37.6418 16.4682 37.6699 16.454 37.6988 16.439C37.6798 16.42 37.6628 16.405 37.6438 16.384ZM37.6438 16.384C37.6368 16.418 37.6268 16.4512 37.6149 16.4852C37.6418 16.4682 37.6699 16.454 37.6988 16.439C37.6798 16.42 37.6628 16.405 37.6438 16.384ZM37.6438 16.384C37.6368 16.418 37.6268 16.4512 37.6149 16.4852C37.6418 16.4682 37.6699 16.454 37.6988 16.439C37.6798 16.42 37.6628 16.405 37.6438 16.384ZM37.6438 16.384C37.6368 16.418 37.6268 16.4512 37.6149 16.4852C37.6418 16.4682 37.6699 16.454 37.6988 16.439C37.6798 16.42 37.6628 16.405 37.6438 16.384ZM37.6438 16.384C37.6368 16.418 37.6268 16.4512 37.6149 16.4852C37.6418 16.4682 37.6699 16.454 37.6988 16.439C37.6798 16.42 37.6628 16.405 37.6438 16.384ZM37.6438 16.384C37.6368 16.418 37.6268 16.4512 37.6149 16.4852C37.6418 16.4682 37.6699 16.454 37.6988 16.439C37.6798 16.42 37.6628 16.405 37.6438 16.384ZM37.6438 16.384C37.6368 16.418 37.6268 16.4512 37.6149 16.4852C37.6418 16.4682 37.6699 16.454 37.6988 16.439C37.6798 16.42 37.6628 16.405 37.6438 16.384ZM37.6438 16.384C37.6368 16.418 37.6268 16.4512 37.6149 16.4852C37.6418 16.4682 37.6699 16.454 37.6988 16.439C37.6798 16.42 37.6628 16.405 37.6438 16.384ZM37.6438 16.384C37.6368 16.418 37.6268 16.4512 37.6149 16.4852C37.6418 16.4682 37.6699 16.454 37.6988 16.439C37.6798 16.42 37.6628 16.405 37.6438 16.384ZM37.6438 16.384C37.6368 16.418 37.6268 16.4512 37.6149 16.4852C37.6418 16.4682 37.6699 16.454 37.6988 16.439C37.6798 16.42 37.6628 16.405 37.6438 16.384ZM37.6438 16.384C37.6368 16.418 37.6268 16.4512 37.6149 16.4852C37.6418 16.4682 37.6699 16.454 37.6988 16.439C37.6798 16.42 37.6628 16.405 37.6438 16.384ZM37.6988 16.439C37.6798 16.42 37.6628 16.405 37.6438 16.384C37.6368 16.418 37.6268 16.4512 37.6149 16.4852C37.5979 16.5481 37.5738 16.6102 37.5477 16.6731C37.5287 16.7182 37.5089 16.7641 37.4848 16.81C37.4848 16.81 37.4828 16.81 37.4828 16.812C37.4638 16.848 37.4437 16.884 37.4227 16.92C37.4437 16.9421 37.4658 16.9611 37.4879 16.9781C37.4998 16.99 37.5117 17 37.5239 17.009C37.5449 16.9781 37.5647 16.945 37.5837 16.9081C37.6098 16.863 37.6319 16.8171 37.6537 16.7689C37.6679 16.74 37.6798 16.7091 37.6917 16.6799C37.7158 16.6201 37.7379 16.5572 37.7549 16.4951C37.7348 16.4781 37.7158 16.4591 37.6988 16.439ZM37.3819 16.0691C37.3789 16.0671 37.3769 16.0621 37.3739 16.0591C36.9609 15.4851 36.786 14.811 36.829 14.152C36.7449 14.1021 36.6581 14.0582 36.5671 14.023C36.4821 13.987 36.3959 13.9581 36.3069 13.936C36.208 14.7699 36.4081 15.641 36.9351 16.3741C36.9869 16.4492 37.0431 16.5189 37.1009 16.5861C37.129 16.6221 37.161 16.6581 37.1939 16.6921C37.2401 16.6079 37.2761 16.5212 37.305 16.4322C37.308 16.4302 37.312 16.4272 37.3169 16.4252C37.3119 16.4232 37.3099 16.4202 37.3099 16.4182C37.3479 16.3054 37.3717 16.1872 37.3819 16.0693V16.0691ZM40.4957 17.483C40.4569 17.411 40.4147 17.3429 40.3659 17.276C40.3569 17.2622 40.3469 17.25 40.3367 17.2381C39.5629 17.3892 38.7547 17.223 38.1008 16.774C38.0699 16.8599 38.0339 16.945 37.9899 17.026C37.9519 17.108 37.9088 17.1851 37.8578 17.259C38.6677 17.7911 39.6709 17.964 40.6117 17.733C40.5808 17.6491 40.5417 17.5652 40.4957 17.483ZM37.6438 16.384C37.6368 16.418 37.6268 16.4512 37.6149 16.4852C37.6418 16.4682 37.6699 16.454 37.6988 16.439C37.6798 16.42 37.6628 16.405 37.6438 16.384ZM37.6438 16.384C37.6368 16.418 37.6268 16.4512 37.6149 16.4852C37.6418 16.4682 37.6699 16.454 37.6988 16.439C37.6798 16.42 37.6628 16.405 37.6438 16.384ZM37.6438 16.384C37.6368 16.418 37.6268 16.4512 37.6149 16.4852C37.6418 16.4682 37.6699 16.454 37.6988 16.439C37.6798 16.42 37.6628 16.405 37.6438 16.384ZM37.6438 16.384C37.6368 16.418 37.6268 16.4512 37.6149 16.4852C37.6418 16.4682 37.6699 16.454 37.6988 16.439C37.6798 16.42 37.6628 16.405 37.6438 16.384ZM37.6438 16.384C37.6368 16.418 37.6268 16.4512 37.6149 16.4852C37.6418 16.4682 37.6699 16.454 37.6988 16.439C37.6798 16.42 37.6628 16.405 37.6438 16.384ZM37.6438 16.384C37.6368 16.418 37.6268 16.4512 37.6149 16.4852C37.6418 16.4682 37.6699 16.454 37.6988 16.439C37.6798 16.42 37.6628 16.405 37.6438 16.384ZM37.6438 16.384C37.6368 16.418 37.6268 16.4512 37.6149 16.4852C37.6418 16.4682 37.6699 16.454 37.6988 16.439C37.6798 16.42 37.6628 16.405 37.6438 16.384ZM37.6438 16.384C37.6368 16.418 37.6268 16.4512 37.6149 16.4852C37.6418 16.4682 37.6699 16.454 37.6988 16.439C37.6798 16.42 37.6628 16.405 37.6438 16.384ZM37.6438 16.384C37.6368 16.418 37.6268 16.4512 37.6149 16.4852C37.6418 16.4682 37.6699 16.454 37.6988 16.439C37.6798 16.42 37.6628 16.405 37.6438 16.384ZM37.6438 16.384C37.6368 16.418 37.6268 16.4512 37.6149 16.4852C37.6418 16.4682 37.6699 16.454 37.6988 16.439C37.6798 16.42 37.6628 16.405 37.6438 16.384ZM37.6438 16.384C37.6368 16.418 37.6268 16.4512 37.6149 16.4852C37.6418 16.4682 37.6699 16.454 37.6988 16.439C37.6798 16.42 37.6628 16.405 37.6438 16.384ZM37.6438 16.384C37.6368 16.418 37.6268 16.4512 37.6149 16.4852C37.6418 16.4682 37.6699 16.454 37.6988 16.439C37.6798 16.42 37.6628 16.405 37.6438 16.384ZM37.6438 16.384C37.6368 16.418 37.6268 16.4512 37.6149 16.4852C37.6418 16.4682 37.6699 16.454 37.6988 16.439C37.6798 16.42 37.6628 16.405 37.6438 16.384ZM37.6438 16.384C37.6368 16.418 37.6268 16.4512 37.6149 16.4852C37.6418 16.4682 37.6699 16.454 37.6988 16.439C37.6798 16.42 37.6628 16.405 37.6438 16.384ZM37.6438 16.384C37.6368 16.418 37.6268 16.4512 37.6149 16.4852C37.6418 16.4682 37.6699 16.454 37.6988 16.439C37.6798 16.42 37.6628 16.405 37.6438 16.384ZM37.6438 16.384C37.6368 16.418 37.6268 16.4512 37.6149 16.4852C37.6418 16.4682 37.6699 16.454 37.6988 16.439C37.6798 16.42 37.6628 16.405 37.6438 16.384ZM37.6438 16.384C37.6368 16.418 37.6268 16.4512 37.6149 16.4852C37.6418 16.4682 37.6699 16.454 37.6988 16.439C37.6798 16.42 37.6628 16.405 37.6438 16.384ZM37.6438 16.384C37.6368 16.418 37.6268 16.4512 37.6149 16.4852C37.6418 16.4682 37.6699 16.454 37.6988 16.439C37.6798 16.42 37.6628 16.405 37.6438 16.384ZM37.6438 16.384C37.6368 16.418 37.6268 16.4512 37.6149 16.4852C37.6418 16.4682 37.6699 16.454 37.6988 16.439C37.6798 16.42 37.6628 16.405 37.6438 16.384ZM37.6438 16.384C37.6368 16.418 37.6268 16.4512 37.6149 16.4852C37.6418 16.4682 37.6699 16.454 37.6988 16.439C37.6798 16.42 37.6628 16.405 37.6438 16.384ZM37.6438 16.384C37.6368 16.418 37.6268 16.4512 37.6149 16.4852C37.6418 16.4682 37.6699 16.454 37.6988 16.439C37.6798 16.42 37.6628 16.405 37.6438 16.384ZM37.6438 16.384C37.6368 16.418 37.6268 16.4512 37.6149 16.4852C37.6418 16.4682 37.6699 16.454 37.6988 16.439C37.6798 16.42 37.6628 16.405 37.6438 16.384ZM37.6438 16.384C37.6368 16.418 37.6268 16.4512 37.6149 16.4852C37.6418 16.4682 37.6699 16.454 37.6988 16.439C37.6798 16.42 37.6628 16.405 37.6438 16.384ZM37.6438 16.384C37.6368 16.418 37.6268 16.4512 37.6149 16.4852C37.6418 16.4682 37.6699 16.454 37.6988 16.439C37.6798 16.42 37.6628 16.405 37.6438 16.384Z" fill="#FCFCFC"/>
<path fill-rule="evenodd" clip-rule="evenodd" d="M37.8337 16.0042C37.7858 16.0042 37.7396 15.9942 37.6988 15.9682C37.7018 15.9342 37.7018 15.9002 37.7018 15.8673C37.6988 15.7803 37.627 15.7131 37.5408 15.7151C37.5258 15.7151 37.5139 15.7181 37.5 15.7231C37.2398 15.2971 37.1148 14.8231 37.1128 14.354C37.2378 14.46 37.3529 14.585 37.4518 14.7251C37.7279 15.112 37.8538 15.5621 37.8339 16.004L37.8337 16.0042Z" fill="#FCFCFC"/>
<path fill-rule="evenodd" clip-rule="evenodd" d="M36.7877 17.7116C36.7038 17.7615 36.6148 17.8026 36.5258 17.8366C36.6338 17.4636 36.8359 17.1198 37.1288 16.8405C37.1288 16.8936 37.1577 16.9466 37.2059 16.9758C37.2248 16.9877 37.2447 16.9928 37.2668 16.9948C37.3048 17.0028 37.3459 16.9928 37.3768 16.9687C37.3938 16.9568 37.4077 16.9417 37.4199 16.9247C37.4199 16.9227 37.4229 16.9227 37.4229 16.9197C37.4439 16.8849 37.464 16.8489 37.483 16.8129C37.483 16.8099 37.485 16.8099 37.485 16.8099C37.5091 16.764 37.5289 16.719 37.5479 16.673C37.574 16.6098 37.5981 16.548 37.6151 16.4848C37.642 16.4681 37.6701 16.4539 37.699 16.44C37.7251 16.4278 37.752 16.4159 37.7789 16.406C37.7709 16.4369 37.7639 16.4658 37.7551 16.495C37.7381 16.5579 37.716 16.62 37.6919 16.6798C37.68 16.709 37.6681 16.7399 37.6539 16.7688C37.6321 16.817 37.61 16.863 37.5839 16.9089C37.5649 16.9449 37.5451 16.9789 37.5241 17.0101C37.392 17.2261 37.216 17.4188 36.9991 17.577C36.9951 17.582 36.9869 17.587 36.9801 17.592C36.9181 17.6368 36.8529 17.6779 36.7879 17.7119L36.7877 17.7116Z" fill="#FCFCFC"/>
<path fill-rule="evenodd" clip-rule="evenodd" d="M40.2917 19.5203C40.2437 19.5563 40.1757 19.5614 40.1207 19.5273C40.0456 19.4811 40.0246 19.3853 40.0677 19.3133C40.2316 19.0463 40.3126 18.7382 40.3036 18.4263C40.3006 18.3393 40.3688 18.2673 40.4558 18.2673C40.5417 18.2623 40.6137 18.3322 40.6168 18.4161C40.6258 18.7912 40.5298 19.1571 40.3347 19.4743C40.3228 19.4933 40.3087 19.5083 40.2917 19.5202V19.5203ZM40.6117 17.7334C40.5808 17.6495 40.5417 17.5644 40.4957 17.4834C40.4578 17.4114 40.4147 17.3433 40.3656 17.2764C40.3566 17.2623 40.3466 17.2492 40.3367 17.2384C39.8276 16.5573 38.9687 16.2803 38.1878 16.4824C38.1657 16.5814 38.1348 16.6775 38.1008 16.7733C38.0696 16.8603 38.0336 16.9442 37.9896 17.0264C37.9517 17.1083 37.9086 17.1854 37.8578 17.2594C37.6937 17.5143 37.4797 17.7433 37.2206 17.9284C37.2067 17.9374 37.1917 17.9494 37.1747 17.9593C37.0168 18.4333 37.0786 18.9744 37.3918 19.4092C37.4386 19.4792 37.4247 19.5753 37.3547 19.6252C37.2858 19.6762 37.1866 19.6592 37.1367 19.5892C36.8308 19.1623 36.7257 18.6493 36.8016 18.1682C36.7537 18.1923 36.7058 18.2113 36.6576 18.2283C36.5998 18.7213 36.7177 19.2363 37.0276 19.6694C37.6877 20.5904 38.9738 20.8024 39.8948 20.1434C40.6718 19.5853 40.9428 18.5843 40.6117 17.7334Z" fill="#FCFCFC"/>
<path fill-rule="evenodd" clip-rule="evenodd" d="M37.6988 16.4394C37.6699 16.4544 37.641 16.4683 37.6149 16.4853C37.5979 16.5474 37.5738 16.6103 37.548 16.6724C37.529 16.7183 37.5089 16.7642 37.4848 16.8104C37.4898 16.8074 37.495 16.8024 37.4998 16.8002C37.535 16.7733 37.5718 16.7503 37.6078 16.7282C37.637 16.7092 37.6628 16.6945 37.692 16.6803C37.7158 16.6202 37.7379 16.5573 37.7549 16.4955C37.7348 16.4785 37.7158 16.4595 37.6988 16.4394ZM37.6988 16.4394C37.6699 16.4544 37.641 16.4683 37.6149 16.4853C37.5979 16.5474 37.5738 16.6103 37.548 16.6724C37.529 16.7183 37.5089 16.7642 37.4848 16.8104C37.4898 16.8074 37.495 16.8024 37.4998 16.8002C37.535 16.7733 37.5718 16.7503 37.6078 16.7282C37.637 16.7092 37.6628 16.6945 37.692 16.6803C37.7158 16.6202 37.7379 16.5573 37.7549 16.4955C37.7348 16.4785 37.7158 16.4595 37.6988 16.4394ZM37.6988 16.4394C37.6699 16.4544 37.641 16.4683 37.6149 16.4853C37.5979 16.5474 37.5738 16.6103 37.548 16.6724C37.529 16.7183 37.5089 16.7642 37.4848 16.8104C37.4898 16.8074 37.495 16.8024 37.4998 16.8002C37.535 16.7733 37.5718 16.7503 37.6078 16.7282C37.637 16.7092 37.6628 16.6945 37.692 16.6803C37.7158 16.6202 37.7379 16.5573 37.7549 16.4955C37.7348 16.4785 37.7158 16.4595 37.6988 16.4394ZM37.6988 16.4394C37.6699 16.4544 37.641 16.4683 37.6149 16.4853C37.5979 16.5474 37.5738 16.6103 37.548 16.6724C37.529 16.7183 37.5089 16.7642 37.4848 16.8104C37.4898 16.8074 37.495 16.8024 37.4998 16.8002C37.535 16.7733 37.5718 16.7503 37.6078 16.7282C37.637 16.7092 37.6628 16.6945 37.692 16.6803C37.7158 16.6202 37.7379 16.5573 37.7549 16.4955C37.7348 16.4785 37.7158 16.4595 37.6988 16.4394ZM37.6988 16.4394C37.6699 16.4544 37.641 16.4683 37.6149 16.4853C37.5979 16.5474 37.5738 16.6103 37.548 16.6724C37.529 16.7183 37.5089 16.7642 37.4848 16.8104C37.4898 16.8074 37.495 16.8024 37.4998 16.8002C37.535 16.7733 37.5718 16.7503 37.6078 16.7282C37.637 16.7092 37.6628 16.6945 37.692 16.6803C37.7158 16.6202 37.7379 16.5573 37.7549 16.4955C37.7348 16.4785 37.7158 16.4595 37.6988 16.4394ZM37.6988 16.4394C37.6699 16.4544 37.641 16.4683 37.6149 16.4853C37.5979 16.5474 37.5738 16.6103 37.548 16.6724C37.529 16.7183 37.5089 16.7642 37.4848 16.8104C37.4898 16.8074 37.495 16.8024 37.4998 16.8002C37.535 16.7733 37.5718 16.7503 37.6078 16.7282C37.637 16.7092 37.6628 16.6945 37.692 16.6803C37.7158 16.6202 37.7379 16.5573 37.7549 16.4955C37.7348 16.4785 37.7158 16.4595 37.6988 16.4394ZM37.6988 16.4394C37.6699 16.4544 37.641 16.4683 37.6149 16.4853C37.5979 16.5474 37.5738 16.6103 37.548 16.6724C37.529 16.7183 37.5089 16.7642 37.4848 16.8104C37.4898 16.8074 37.495 16.8024 37.4998 16.8002C37.535 16.7733 37.5718 16.7503 37.6078 16.7282C37.637 16.7092 37.6628 16.6945 37.692 16.6803C37.7158 16.6202 37.7379 16.5573 37.7549 16.4955C37.7348 16.4785 37.7158 16.4595 37.6988 16.4394ZM37.6988 16.4394C37.6699 16.4544 37.641 16.4683 37.6149 16.4853C37.5979 16.5474 37.5738 16.6103 37.548 16.6724C37.529 16.7183 37.5089 16.7642 37.4848 16.8104C37.4898 16.8074 37.495 16.8024 37.4998 16.8002C37.535 16.7733 37.5718 16.7503 37.6078 16.7282C37.637 16.7092 37.6628 16.6945 37.692 16.6803C37.7158 16.6202 37.7379 16.5573 37.7549 16.4955C37.7348 16.4785 37.7158 16.4595 37.6988 16.4394ZM37.6988 16.4394C37.6699 16.4544 37.641 16.4683 37.6149 16.4853C37.5979 16.5474 37.5738 16.6103 37.548 16.6724C37.529 16.7183 37.5089 16.7642 37.4848 16.8104C37.4898 16.8074 37.495 16.8024 37.4998 16.8002C37.535 16.7733 37.5718 16.7503 37.6078 16.7282C37.637 16.7092 37.6628 16.6945 37.692 16.6803C37.7158 16.6202 37.7379 16.5573 37.7549 16.4955C37.7348 16.4785 37.7158 16.4595 37.6988 16.4394ZM37.6988 16.4394C37.6699 16.4544 37.641 16.4683 37.6149 16.4853C37.5979 16.5474 37.5738 16.6103 37.548 16.6724C37.529 16.7183 37.5089 16.7642 37.4848 16.8104C37.4898 16.8074 37.495 16.8024 37.4998 16.8002C37.535 16.7733 37.5718 16.7503 37.6078 16.7282C37.637 16.7092 37.6628 16.6945 37.692 16.6803C37.7158 16.6202 37.7379 16.5573 37.7549 16.4955C37.7348 16.4785 37.7158 16.4595 37.6988 16.4394ZM37.6988 16.4394C37.6699 16.4544 37.641 16.4683 37.6149 16.4853C37.5979 16.5474 37.5738 16.6103 37.548 16.6724C37.529 16.7183 37.5089 16.7642 37.4848 16.8104C37.4898 16.8074 37.495 16.8024 37.4998 16.8002C37.535 16.7733 37.5718 16.7503 37.6078 16.7282C37.637 16.7092 37.6628 16.6945 37.692 16.6803C37.7158 16.6202 37.7379 16.5573 37.7549 16.4955C37.7348 16.4785 37.7158 16.4595 37.6988 16.4394ZM37.6988 16.4394C37.6699 16.4544 37.641 16.4683 37.6149 16.4853C37.5979 16.5474 37.5738 16.6103 37.548 16.6724C37.529 16.7183 37.5089 16.7642 37.4848 16.8104C37.4898 16.8074 37.495 16.8024 37.4998 16.8002C37.535 16.7733 37.5718 16.7503 37.6078 16.7282C37.637 16.7092 37.6628 16.6945 37.692 16.6803C37.7158 16.6202 37.7379 16.5573 37.7549 16.4955C37.7348 16.4785 37.7158 16.4595 37.6988 16.4394ZM37.6988 16.4394C37.6699 16.4544 37.641 16.4683 37.6149 16.4853C37.5979 16.5474 37.5738 16.6103 37.548 16.6724C37.529 16.7183 37.5089 16.7642 37.4848 16.8104C37.4898 16.8074 37.495 16.8024 37.4998 16.8002C37.535 16.7733 37.5718 16.7503 37.6078 16.7282C37.637 16.7092 37.6628 16.6945 37.692 16.6803C37.7158 16.6202 37.7379 16.5573 37.7549 16.4955C37.7348 16.4785 37.7158 16.4595 37.6988 16.4394ZM37.6988 16.4394C37.6699 16.4544 37.641 16.4683 37.6149 16.4853C37.5979 16.5474 37.5738 16.6103 37.548 16.6724C37.529 16.7183 37.5089 16.7642 37.4848 16.8104C37.4898 16.8074 37.495 16.8024 37.4998 16.8002C37.535 16.7733 37.5718 16.7503 37.6078 16.7282C37.637 16.7092 37.6628 16.6945 37.692 16.6803C37.7158 16.6202 37.7379 16.5573 37.7549 16.4955C37.7348 16.4785 37.7158 16.4595 37.6988 16.4394ZM37.6988 16.4394C37.6699 16.4544 37.641 16.4683 37.6149 16.4853C37.5979 16.5474 37.5738 16.6103 37.548 16.6724C37.529 16.7183 37.5089 16.7642 37.4848 16.8104C37.4898 16.8074 37.495 16.8024 37.4998 16.8002C37.535 16.7733 37.5718 16.7503 37.6078 16.7282C37.637 16.7092 37.6628 16.6945 37.692 16.6803C37.7158 16.6202 37.7379 16.5573 37.7549 16.4955C37.7348 16.4785 37.7158 16.4595 37.6988 16.4394ZM37.6988 16.4394C37.6699 16.4544 37.641 16.4683 37.6149 16.4853C37.5979 16.5474 37.5738 16.6103 37.548 16.6724C37.529 16.7183 37.5089 16.7642 37.4848 16.8104C37.4898 16.8074 37.495 16.8024 37.4998 16.8002C37.535 16.7733 37.5718 16.7503 37.6078 16.7282C37.637 16.7092 37.6628 16.6945 37.692 16.6803C37.7158 16.6202 37.7379 16.5573 37.7549 16.4955C37.7348 16.4785 37.7158 16.4595 37.6988 16.4394ZM37.6988 16.4394C37.6699 16.4544 37.641 16.4683 37.6149 16.4853C37.5979 16.5474 37.5738 16.6103 37.548 16.6724C37.529 16.7183 37.5089 16.7642 37.4848 16.8104C37.4898 16.8074 37.495 16.8024 37.4998 16.8002C37.535 16.7733 37.5718 16.7503 37.6078 16.7282C37.637 16.7092 37.6628 16.6945 37.692 16.6803C37.7158 16.6202 37.7379 16.5573 37.7549 16.4955C37.7348 16.4785 37.7158 16.4595 37.6988 16.4394ZM37.6988 16.4394C37.6699 16.4544 37.641 16.4683 37.6149 16.4853C37.5979 16.5474 37.5738 16.6103 37.548 16.6724C37.529 16.7183 37.5089 16.7642 37.4848 16.8104C37.4898 16.8074 37.495 16.8024 37.4998 16.8002C37.535 16.7733 37.5718 16.7503 37.6078 16.7282C37.637 16.7092 37.6628 16.6945 37.692 16.6803C37.7158 16.6202 37.7379 16.5573 37.7549 16.4955C37.7348 16.4785 37.7158 16.4595 37.6988 16.4394ZM37.6988 16.4394C37.6699 16.4544 37.641 16.4683 37.6149 16.4853C37.5979 16.5474 37.5738 16.6103 37.548 16.6724C37.529 16.7183 37.5089 16.7642 37.4848 16.8104C37.4898 16.8074 37.495 16.8024 37.4998 16.8002C37.535 16.7733 37.5718 16.7503 37.6078 16.7282C37.637 16.7092 37.6628 16.6945 37.692 16.6803C37.7158 16.6202 37.7379 16.5573 37.7549 16.4955C37.7348 16.4785 37.7158 16.4595 37.6988 16.4394ZM37.6988 16.4394C37.6699 16.4544 37.641 16.4683 37.6149 16.4853C37.5979 16.5474 37.5738 16.6103 37.548 16.6724C37.529 16.7183 37.5089 16.7642 37.4848 16.8104C37.4898 16.8074 37.495 16.8024 37.4998 16.8002C37.535 16.7733 37.5718 16.7503 37.6078 16.7282C37.637 16.7092 37.6628 16.6945 37.692 16.6803C37.7158 16.6202 37.7379 16.5573 37.7549 16.4955C37.7348 16.4785 37.7158 16.4595 37.6988 16.4394ZM37.6988 16.4394C37.6699 16.4544 37.641 16.4683 37.6149 16.4853C37.5979 16.5474 37.5738 16.6103 37.548 16.6724C37.529 16.7183 37.5089 16.7642 37.4848 16.8104C37.4898 16.8074 37.495 16.8024 37.4998 16.8002C37.535 16.7733 37.5718 16.7503 37.6078 16.7282C37.637 16.7092 37.6628 16.6945 37.692 16.6803C37.7158 16.6202 37.7379 16.5573 37.7549 16.4955C37.7348 16.4785 37.7158 16.4595 37.6988 16.4394ZM37.6988 16.4394C37.6699 16.4544 37.641 16.4683 37.6149 16.4853C37.5979 16.5474 37.5738 16.6103 37.548 16.6724C37.529 16.7183 37.5089 16.7642 37.4848 16.8104C37.4898 16.8074 37.495 16.8024 37.4998 16.8002C37.535 16.7733 37.5718 16.7503 37.6078 16.7282C37.637 16.7092 37.6628 16.6945 37.692 16.6803C37.7158 16.6202 37.7379 16.5573 37.7549 16.4955C37.7348 16.4785 37.7158 16.4595 37.6988 16.4394ZM37.6988 16.4394C37.6699 16.4544 37.641 16.4683 37.6149 16.4853C37.5979 16.5474 37.5738 16.6103 37.548 16.6724C37.529 16.7183 37.5089 16.7642 37.4848 16.8104C37.4898 16.8074 37.495 16.8024 37.4998 16.8002C37.535 16.7733 37.5718 16.7503 37.6078 16.7282C37.637 16.7092 37.6628 16.6945 37.692 16.6803C37.7158 16.6202 37.7379 16.5573 37.7549 16.4955C37.7348 16.4785 37.7158 16.4595 37.6988 16.4394ZM37.6988 16.4394C37.6699 16.4544 37.641 16.4683 37.6149 16.4853C37.5979 16.5474 37.5738 16.6103 37.548 16.6724C37.529 16.7183 37.5089 16.7642 37.4848 16.8104C37.4898 16.8074 37.495 16.8024 37.4998 16.8002C37.535 16.7733 37.5718 16.7503 37.6078 16.7282C37.637 16.7092 37.6628 16.6945 37.692 16.6803C37.7158 16.6202 37.7379 16.5573 37.7549 16.4955C37.7348 16.4785 37.7158 16.4595 37.6988 16.4394ZM37.129 16.8413C37.129 16.8144 37.137 16.7863 37.1528 16.7614C37.1679 16.7373 37.1789 16.7163 37.194 16.6922C37.2399 16.6075 37.2759 16.5213 37.3048 16.4323C37.2878 16.4413 37.2739 16.4544 37.2589 16.4635C37.2039 16.5014 37.1509 16.5454 37.0998 16.5865C36.682 16.9394 36.4068 17.4082 36.292 17.9114C36.3719 17.8924 36.449 17.8683 36.5258 17.8363C36.6148 17.8034 36.703 17.7623 36.788 17.7113C36.8929 17.4474 37.0519 17.2024 37.266 16.9952C37.2438 16.9922 37.2248 16.9872 37.2059 16.9762C37.158 16.9473 37.129 16.8943 37.129 16.8413ZM37.675 16.2234C37.668 16.2752 37.658 16.3314 37.6438 16.3813V16.3843C37.6368 16.4183 37.6268 16.4512 37.6149 16.4852C37.5979 16.5473 37.5738 16.6102 37.548 16.6723C37.529 16.7182 37.5089 16.7641 37.4848 16.8103C37.4898 16.8073 37.495 16.8023 37.4998 16.8001C37.535 16.7732 37.5718 16.7502 37.6078 16.7281C37.637 16.7091 37.6628 16.6944 37.692 16.6802C37.7158 16.6201 37.7379 16.5572 37.7549 16.4954C37.7639 16.4662 37.7708 16.4373 37.779 16.4052V16.4032C37.798 16.3241 37.8119 16.2441 37.8218 16.1631C37.7708 16.1792 37.7229 16.2011 37.675 16.2232V16.2234ZM37.6988 16.4394C37.6699 16.4544 37.641 16.4683 37.6149 16.4853C37.5979 16.5474 37.5738 16.6103 37.548 16.6724C37.529 16.7183 37.5089 16.7642 37.4848 16.8104C37.4898 16.8074 37.495 16.8024 37.4998 16.8002C37.535 16.7733 37.5718 16.7503 37.6078 16.7282C37.637 16.7092 37.6628 16.6945 37.692 16.6803C37.7158 16.6202 37.7379 16.5573 37.7549 16.4955C37.7348 16.4785 37.7158 16.4595 37.6988 16.4394ZM37.6988 16.4394C37.6699 16.4544 37.641 16.4683 37.6149 16.4853C37.5979 16.5474 37.5738 16.6103 37.548 16.6724C37.529 16.7183 37.5089 16.7642 37.4848 16.8104C37.4898 16.8074 37.495 16.8024 37.4998 16.8002C37.535 16.7733 37.5718 16.7503 37.6078 16.7282C37.637 16.7092 37.6628 16.6945 37.692 16.6803C37.7158 16.6202 37.7379 16.5573 37.7549 16.4955C37.7348 16.4785 37.7158 16.4595 37.6988 16.4394ZM37.6988 16.4394C37.6699 16.4544 37.641 16.4683 37.6149 16.4853C37.5979 16.5474 37.5738 16.6103 37.548 16.6724C37.529 16.7183 37.5089 16.7642 37.4848 16.8104C37.4898 16.8074 37.495 16.8024 37.4998 16.8002C37.535 16.7733 37.5718 16.7503 37.6078 16.7282C37.637 16.7092 37.6628 16.6945 37.692 16.6803C37.7158 16.6202 37.7379 16.5573 37.7549 16.4955C37.7348 16.4785 37.7158 16.4595 37.6988 16.4394ZM37.6988 16.4394C37.6699 16.4544 37.641 16.4683 37.6149 16.4853C37.5979 16.5474 37.5738 16.6103 37.548 16.6724C37.529 16.7183 37.5089 16.7642 37.4848 16.8104C37.4898 16.8074 37.495 16.8024 37.4998 16.8002C37.535 16.7733 37.5718 16.7503 37.6078 16.7282C37.637 16.7092 37.6628 16.6945 37.692 16.6803C37.7158 16.6202 37.7379 16.5573 37.7549 16.4955C37.7348 16.4785 37.7158 16.4595 37.6988 16.4394ZM37.6988 16.4394C37.6699 16.4544 37.641 16.4683 37.6149 16.4853C37.5979 16.5474 37.5738 16.6103 37.548 16.6724C37.529 16.7183 37.5089 16.7642 37.4848 16.8104C37.4898 16.8074 37.495 16.8024 37.4998 16.8002C37.535 16.7733 37.5718 16.7503 37.6078 16.7282C37.637 16.7092 37.6628 16.6945 37.692 16.6803C37.7158 16.6202 37.7379 16.5573 37.7549 16.4955C37.7348 16.4785 37.7158 16.4595 37.6988 16.4394ZM37.6988 16.4394C37.6699 16.4544 37.641 16.4683 37.6149 16.4853C37.5979 16.5474 37.5738 16.6103 37.548 16.6724C37.529 16.7183 37.5089 16.7642 37.4848 16.8104C37.4898 16.8074 37.495 16.8024 37.4998 16.8002C37.535 16.7733 37.5718 16.7503 37.6078 16.7282C37.637 16.7092 37.6628 16.6945 37.692 16.6803C37.7158 16.6202 37.7379 16.5573 37.7549 16.4955C37.7348 16.4785 37.7158 16.4595 37.6988 16.4394ZM37.6988 16.4394C37.6699 16.4544 37.641 16.4683 37.6149 16.4853C37.5979 16.5474 37.5738 16.6103 37.548 16.6724C37.529 16.7183 37.5089 16.7642 37.4848 16.8104C37.4898 16.8074 37.495 16.8024 37.4998 16.8002C37.535 16.7733 37.5718 16.7503 37.6078 16.7282C37.637 16.7092 37.6628 16.6945 37.692 16.6803C37.7158 16.6202 37.7379 16.5573 37.7549 16.4955C37.7348 16.4785 37.7158 16.4595 37.6988 16.4394ZM37.6988 16.4394C37.6699 16.4544 37.641 16.4683 37.6149 16.4853C37.5979 16.5474 37.5738 16.6103 37.548 16.6724C37.529 16.7183 37.5089 16.7642 37.4848 16.8104C37.4898 16.8074 37.495 16.8024 37.4998 16.8002C37.535 16.7733 37.5718 16.7503 37.6078 16.7282C37.637 16.7092 37.6628 16.6945 37.692 16.6803C37.7158 16.6202 37.7379 16.5573 37.7549 16.4955C37.7348 16.4785 37.7158 16.4595 37.6988 16.4394ZM37.6988 16.4394C37.6699 16.4544 37.641 16.4683 37.6149 16.4853C37.5979 16.5474 37.5738 16.6103 37.548 16.6724C37.529 16.7183 37.5089 16.7642 37.4848 16.8104C37.4898 16.8074 37.495 16.8024 37.4998 16.8002C37.535 16.7733 37.5718 16.7503 37.6078 16.7282C37.637 16.7092 37.6628 16.6945 37.692 16.6803C37.7158 16.6202 37.7379 16.5573 37.7549 16.4955C37.7348 16.4785 37.7158 16.4595 37.6988 16.4394ZM37.6988 16.4394C37.6699 16.4544 37.641 16.4683 37.6149 16.4853C37.5979 16.5474 37.5738 16.6103 37.548 16.6724C37.529 16.7183 37.5089 16.7642 37.4848 16.8104C37.4898 16.8074 37.495 16.8024 37.4998 16.8002C37.535 16.7733 37.5718 16.7503 37.6078 16.7282C37.637 16.7092 37.6628 16.6945 37.692 16.6803C37.7158 16.6202 37.7379 16.5573 37.7549 16.4955C37.7348 16.4785 37.7158 16.4595 37.6988 16.4394ZM37.6988 16.4394C37.6699 16.4544 37.641 16.4683 37.6149 16.4853C37.5979 16.5474 37.5738 16.6103 37.548 16.6724C37.529 16.7183 37.5089 16.7642 37.4848 16.8104C37.4898 16.8074 37.495 16.8024 37.4998 16.8002C37.535 16.7733 37.5718 16.7503 37.6078 16.7282C37.637 16.7092 37.6628 16.6945 37.692 16.6803C37.7158 16.6202 37.7379 16.5573 37.7549 16.4955C37.7348 16.4785 37.7158 16.4595 37.6988 16.4394ZM37.6988 16.4394C37.6699 16.4544 37.641 16.4683 37.6149 16.4853C37.5979 16.5474 37.5738 16.6103 37.548 16.6724C37.529 16.7183 37.5089 16.7642 37.4848 16.8104C37.4898 16.8074 37.495 16.8024 37.4998 16.8002C37.535 16.7733 37.5718 16.7503 37.6078 16.7282C37.637 16.7092 37.6628 16.6945 37.692 16.6803C37.7158 16.6202 37.7379 16.5573 37.7549 16.4955C37.7348 16.4785 37.7158 16.4595 37.6988 16.4394ZM37.6988 16.4394C37.6699 16.4544 37.641 16.4683 37.6149 16.4853C37.5979 16.5474 37.5738 16.6103 37.548 16.6724C37.529 16.7183 37.5089 16.7642 37.4848 16.8104C37.4898 16.8074 37.495 16.8024 37.4998 16.8002C37.535 16.7733 37.5718 16.7503 37.6078 16.7282C37.637 16.7092 37.6628 16.6945 37.692 16.6803C37.7158 16.6202 37.7379 16.5573 37.7549 16.4955C37.7348 16.4785 37.7158 16.4595 37.6988 16.4394ZM37.6988 16.4394C37.6699 16.4544 37.641 16.4683 37.6149 16.4853C37.5979 16.5474 37.5738 16.6103 37.548 16.6724C37.529 16.7183 37.5089 16.7642 37.4848 16.8104C37.4898 16.8074 37.495 16.8024 37.4998 16.8002C37.535 16.7733 37.5718 16.7503 37.6078 16.7282C37.637 16.7092 37.6628 16.6945 37.692 16.6803C37.7158 16.6202 37.7379 16.5573 37.7549 16.4955C37.7348 16.4785 37.7158 16.4595 37.6988 16.4394ZM37.6988 16.4394C37.6699 16.4544 37.641 16.4683 37.6149 16.4853C37.5979 16.5474 37.5738 16.6103 37.548 16.6724C37.529 16.7183 37.5089 16.7642 37.4848 16.8104C37.4898 16.8074 37.495 16.8024 37.4998 16.8002C37.535 16.7733 37.5718 16.7503 37.6078 16.7282C37.637 16.7092 37.6628 16.6945 37.692 16.6803C37.7158 16.6202 37.7379 16.5573 37.7549 16.4955C37.7348 16.4785 37.7158 16.4595 37.6988 16.4394ZM37.6988 16.4394C37.6699 16.4544 37.641 16.4683 37.6149 16.4853C37.5979 16.5474 37.5738 16.6103 37.548 16.6724C37.529 16.7183 37.5089 16.7642 37.4848 16.8104C37.4898 16.8074 37.495 16.8024 37.4998 16.8002C37.535 16.7733 37.5718 16.7503 37.6078 16.7282C37.637 16.7092 37.6628 16.6945 37.692 16.6803C37.7158 16.6202 37.7379 16.5573 37.7549 16.4955C37.7348 16.4785 37.7158 16.4595 37.6988 16.4394ZM37.6988 16.4394C37.6699 16.4544 37.641 16.4683 37.6149 16.4853C37.5979 16.5474 37.5738 16.6103 37.548 16.6724C37.529 16.7183 37.5089 16.7642 37.4848 16.8104C37.4898 16.8074 37.495 16.8024 37.4998 16.8002C37.535 16.7733 37.5718 16.7503 37.6078 16.7282C37.637 16.7092 37.6628 16.6945 37.692 16.6803C37.7158 16.6202 37.7379 16.5573 37.7549 16.4955C37.7348 16.4785 37.7158 16.4595 37.6988 16.4394ZM37.6988 16.4394C37.6699 16.4544 37.641 16.4683 37.6149 16.4853C37.5979 16.5474 37.5738 16.6103 37.548 16.6724C37.529 16.7183 37.5089 16.7642 37.4848 16.8104C37.4898 16.8074 37.495 16.8024 37.4998 16.8002C37.535 16.7733 37.5718 16.7503 37.6078 16.7282C37.637 16.7092 37.6628 16.6945 37.692 16.6803C37.7158 16.6202 37.7379 16.5573 37.7549 16.4955C37.7348 16.4785 37.7158 16.4595 37.6988 16.4394ZM37.6988 16.4394C37.6699 16.4544 37.641 16.4683 37.6149 16.4853C37.5979 16.5474 37.5738 16.6103 37.548 16.6724C37.529 16.7183 37.5089 16.7642 37.4848 16.8104C37.4898 16.8074 37.495 16.8024 37.4998 16.8002C37.535 16.7733 37.5718 16.7503 37.6078 16.7282C37.637 16.7092 37.6628 16.6945 37.692 16.6803C37.7158 16.6202 37.7379 16.5573 37.7549 16.4955C37.7348 16.4785 37.7158 16.4595 37.6988 16.4394ZM37.6988 16.4394C37.6699 16.4544 37.641 16.4683 37.6149 16.4853C37.5979 16.5474 37.5738 16.6103 37.548 16.6724C37.529 16.7183 37.5089 16.7642 37.4848 16.8104C37.4898 16.8074 37.495 16.8024 37.4998 16.8002C37.535 16.7733 37.5718 16.7503 37.6078 16.7282C37.637 16.7092 37.6628 16.6945 37.692 16.6803C37.7158 16.6202 37.7379 16.5573 37.7549 16.4955C37.7348 16.4785 37.7158 16.4595 37.6988 16.4394ZM37.6988 16.4394C37.6699 16.4544 37.641 16.4683 37.6149 16.4853C37.5979 16.5474 37.5738 16.6103 37.548 16.6724C37.529 16.7183 37.5089 16.7642 37.4848 16.8104C37.4898 16.8074 37.495 16.8024 37.4998 16.8002C37.535 16.7733 37.5718 16.7503 37.6078 16.7282C37.637 16.7092 37.6628 16.6945 37.692 16.6803C37.7158 16.6202 37.7379 16.5573 37.7549 16.4955C37.7348 16.4785 37.7158 16.4595 37.6988 16.4394ZM37.6988 16.4394C37.6699 16.4544 37.641 16.4683 37.6149 16.4853C37.5979 16.5474 37.5738 16.6103 37.548 16.6724C37.529 16.7183 37.5089 16.7642 37.4848 16.8104C37.4898 16.8074 37.495 16.8024 37.4998 16.8002C37.535 16.7733 37.5718 16.7503 37.6078 16.7282C37.637 16.7092 37.6628 16.6945 37.692 16.6803C37.7158 16.6202 37.7379 16.5573 37.7549 16.4955C37.7348 16.4785 37.7158 16.4595 37.6988 16.4394ZM37.6988 16.4394C37.6699 16.4544 37.641 16.4683 37.6149 16.4853C37.5979 16.5474 37.5738 16.6103 37.548 16.6724C37.529 16.7183 37.5089 16.7642 37.4848 16.8104C37.4898 16.8074 37.495 16.8024 37.4998 16.8002C37.535 16.7733 37.5718 16.7503 37.6078 16.7282C37.637 16.7092 37.6628 16.6945 37.692 16.6803C37.7158 16.6202 37.7379 16.5573 37.7549 16.4955C37.7348 16.4785 37.7158 16.4595 37.6988 16.4394ZM37.6988 16.4394C37.6699 16.4544 37.641 16.4683 37.6149 16.4853C37.5979 16.5474 37.5738 16.6103 37.548 16.6724C37.529 16.7183 37.5089 16.7642 37.4848 16.8104C37.4898 16.8074 37.495 16.8024 37.4998 16.8002C37.535 16.7733 37.5718 16.7503 37.6078 16.7282C37.637 16.7092 37.6628 16.6945 37.692 16.6803C37.7158 16.6202 37.7379 16.5573 37.7549 16.4955C37.7348 16.4785 37.7158 16.4595 37.6988 16.4394Z" fill="#FCFCFC"/>
<path fill-rule="evenodd" clip-rule="evenodd" d="M37.5837 16.9084C37.5647 16.9444 37.5446 16.9785 37.5236 17.0094C37.3918 17.2254 37.2158 17.4184 36.9998 17.5766C37.1166 17.3504 37.2807 17.1466 37.4876 16.9785C37.5188 16.9567 37.5477 16.9325 37.5786 16.9104C37.5816 16.9104 37.5816 16.9084 37.5836 16.9084H37.5837Z" fill="#FCFCFC"/>
<path fill-rule="evenodd" clip-rule="evenodd" d="M37.675 16.2231C37.668 16.2761 37.658 16.3311 37.6441 16.3821V16.3841C37.6361 16.4181 37.6271 16.4521 37.6149 16.485C37.5979 16.5479 37.5741 16.61 37.548 16.6729C37.529 16.7191 37.5089 16.7639 37.4851 16.8101C37.4851 16.8101 37.4831 16.8101 37.4831 16.8121C37.4641 16.8481 37.444 16.885 37.423 16.9201C37.423 16.9231 37.42 16.9231 37.42 16.9251C37.4081 16.9421 37.3942 16.9563 37.3772 16.9694C37.3451 16.9932 37.3052 17.0022 37.2661 16.9952C37.2442 16.9932 37.2252 16.9882 37.2062 16.9762C37.1581 16.9472 37.1291 16.8942 37.1291 16.8412C37.1291 16.8152 37.1361 16.7862 37.1532 16.7621C37.168 16.7383 37.179 16.7162 37.1941 16.6921C37.24 16.6082 37.276 16.5212 37.3052 16.4322C37.3072 16.4302 37.3122 16.4282 37.3171 16.4252C37.3121 16.4232 37.3091 16.4202 37.3091 16.4182C37.348 16.3051 37.3721 16.1872 37.382 16.0693C37.389 16.0041 37.391 15.9391 37.389 15.8742C37.386 15.8051 37.4349 15.7421 37.5001 15.7231C37.514 15.7181 37.5259 15.7161 37.5401 15.7161C37.6271 15.7131 37.6991 15.7813 37.7011 15.8671C37.7011 15.9012 37.7011 15.934 37.6991 15.9681C37.6991 16.0551 37.6901 16.1393 37.675 16.2232V16.2231ZM34.844 14.6141C34.1229 15.1292 33.9571 16.1372 34.4741 16.858C34.5251 16.9281 34.5101 17.0261 34.4381 17.0752C34.3681 17.1251 34.272 17.11 34.221 17.038C33.6061 16.18 33.8029 14.977 34.664 14.359C34.734 14.3111 34.8301 14.3261 34.8809 14.395C34.9311 14.465 34.914 14.564 34.844 14.6141ZM37.4511 14.725C37.353 14.5849 37.2379 14.4599 37.1129 14.3539C37.023 14.2779 36.9269 14.2099 36.828 14.1521C36.7441 14.1019 36.6579 14.058 36.5669 14.0231C36.4819 13.9871 36.396 13.9579 36.307 13.9361C35.7341 13.785 35.102 13.878 34.5849 14.251C33.664 14.9101 33.4519 16.197 34.111 17.118C34.6181 17.8249 35.496 18.1161 36.292 17.9111C36.3719 17.8921 36.4479 17.868 36.5261 17.8371C36.614 17.8031 36.703 17.762 36.788 17.7121C36.8529 17.6781 36.9181 17.637 36.9799 17.5919C36.9869 17.5869 36.9941 17.5819 36.9989 17.5772C37.2161 17.4182 37.391 17.226 37.5239 17.01C37.5449 16.9779 37.565 16.9451 37.584 16.9091C37.6101 16.8631 37.6319 16.8169 37.654 16.769C37.6679 16.7401 37.6801 16.7089 37.692 16.68C37.7161 16.6199 37.7371 16.557 37.7549 16.4949C37.7639 16.466 37.7711 16.4371 37.779 16.4059V16.4029C37.798 16.3238 37.8119 16.2439 37.8221 16.1628C37.8291 16.1098 37.8311 16.0568 37.834 16.0038C37.853 15.5618 37.728 15.112 37.4511 14.7248V14.725Z" fill="#FCFCFC"/>
<path fill-rule="evenodd" clip-rule="evenodd" d="M37.3167 16.4252C37.3117 16.4272 37.3077 16.4302 37.3045 16.4322C37.3075 16.4272 37.3095 16.4232 37.3095 16.418C37.3095 16.42 37.3115 16.423 37.3165 16.425L37.3167 16.4252Z" fill="#FCFCFC"/>
<path fill-rule="evenodd" clip-rule="evenodd" d="M20.0809 29.3466C20.0517 29.3656 20.0137 29.3724 19.9797 29.3566C19.9267 29.3316 19.9029 29.2715 19.9267 29.2196C19.9658 29.1306 19.9899 29.0345 19.9987 28.9356C20.0037 28.8775 20.0548 28.8367 20.1098 28.8415C20.1679 28.8445 20.2107 28.8945 20.2059 28.9515C20.1969 29.0745 20.1648 29.1924 20.1149 29.3036C20.1079 29.3206 20.0959 29.3344 20.0809 29.3466ZM18.6239 28.1567C18.2339 28.4344 18.1429 28.9807 18.4238 29.3704C18.4558 29.4186 18.4459 29.4836 18.3997 29.5176C18.3518 29.5485 18.2869 29.5385 18.2557 29.4926C17.9067 29.0096 18.0198 28.3335 18.5029 27.9874C18.5488 27.9534 18.6137 27.9664 18.6477 28.0115C18.6817 28.0574 18.6687 28.1226 18.6239 28.1567ZM20.1937 28.1036C19.7728 27.5166 18.9558 27.3817 18.3719 27.8026C17.7848 28.2236 17.6499 29.0385 18.0677 29.6256C18.4887 30.2126 19.3068 30.3464 19.8907 29.9266C20.4778 29.5057 20.6127 28.6896 20.1937 28.1036Z" fill="#FCFCFC"/>
<path fill-rule="evenodd" clip-rule="evenodd" d="M7.77255 80.2745H7.68866C7.68866 80.2745 7.79358 79.3346 6.64978 79.1435C7.79358 78.9564 7.68866 78.0156 7.68866 78.0156H7.77255C7.77255 78.0156 7.66457 78.9564 8.81177 79.1435C7.66457 79.3346 7.77255 80.2745 7.77255 80.2745Z" fill="#FCFCFC"/>
<path fill-rule="evenodd" clip-rule="evenodd" d="M15.6271 77.6555L10.1582 79.9808L14.8093 77.3596L15.6271 77.6555Z" fill="#FCFCFC"/>
<path fill-rule="evenodd" clip-rule="evenodd" d="M19.3762 82.0999L15.3822 86.7558L19.2223 81.114L19.3762 82.0999Z" fill="#FCFCFC"/>
<path fill-rule="evenodd" clip-rule="evenodd" d="M19.6554 85.3147H19.5735C19.5735 85.3147 19.6795 84.3759 18.5346 84.188C19.6795 83.9978 19.5735 83.0569 19.5735 83.0569H19.6554C19.6554 83.0569 19.5494 83.9978 20.6946 84.188C19.5494 84.3759 19.6554 85.3147 19.6554 85.3147Z" fill="#FCFCFC"/>
<path fill-rule="evenodd" clip-rule="evenodd" d="M20.2878 87.7494V87.7704H8.34491V87.7494C10.1149 87.3954 11.9157 87.2054 13.7458 87.1592L14.2727 87.1492C14.8048 87.1542 15.2039 87.2034 15.7708 87.2223L15.9687 87.2313C17.3469 87.3254 18.7339 87.4845 20.1387 87.7254C20.1889 87.7314 20.2368 87.7396 20.2878 87.7495V87.7494Z" fill="#FCFCFC"/>
<path fill-rule="evenodd" clip-rule="evenodd" d="M21.7933 75.9338C21.7023 75.9457 21.6082 75.9576 21.5121 75.9576C21.6031 75.9358 21.6972 75.9338 21.7933 75.9338Z" fill="#FCFCFC"/>
<path fill-rule="evenodd" clip-rule="evenodd" d="M24.4239 88.9398C24.3641 88.9398 24.3011 88.9348 24.241 88.9296L23.756 95.2786C23.756 96.3847 22.8611 97.2816 21.7551 97.2816H6.72888C5.62308 97.2816 4.72589 96.3847 4.72589 95.2786L4.242 88.9296C4.18 88.9346 4.11988 88.9398 4.05688 88.9398C2.32808 88.9398 0.926086 87.5995 0.926086 85.9455C0.926086 84.4066 2.14301 83.1387 3.70911 82.9697L3.70609 82.9516H4.09808C4.52418 82.9516 4.93319 83.0136 5.32019 83.1287V78.6537C5.32019 76.8905 6.74801 75.4607 8.51111 75.4607H12.284C12.2152 75.8358 11.9501 76.4217 10.971 76.5807C12.4411 76.8236 12.303 78.0286 12.303 78.0286H12.409C12.409 78.0286 12.2721 76.8236 13.7422 76.5807C12.7631 76.4217 12.4981 75.8358 12.428 75.4607H20.655C20.682 75.4607 20.7112 75.4607 20.7372 75.4616L22.9602 73.2406C22.8201 73.0978 22.8201 72.8727 22.9622 72.7327C23.1011 72.5907 23.3271 72.5907 23.4691 72.7307L24.2971 71.9055L24.8691 72.4776L21.7093 75.6396C22.9552 76.0736 23.8472 77.2607 23.8472 78.6537V82.9847C24.0233 82.9626 24.2033 82.9516 24.3852 82.9516H24.7753V82.9697C26.3392 83.1387 27.5581 84.4066 27.5581 85.9455C27.5581 87.5995 26.1552 88.9398 24.4241 88.9398H24.4239ZM6.64191 68.2817H6.772C6.772 68.2817 6.6039 69.7696 8.4169 70.0687C6.6039 70.3666 6.772 71.8548 6.772 71.8548H6.64191C6.64191 71.8548 6.81109 70.3666 4.99799 70.0687C6.81109 69.7696 6.64191 68.2817 6.64191 68.2817ZM12.0699 70.0018H12.202C12.202 70.0018 12.0319 71.4897 13.845 71.7876C12.0319 72.0855 12.202 73.5746 12.202 73.5746H12.0699C12.0699 73.5746 12.238 72.0855 10.425 71.7876C12.238 71.4897 12.0699 70.0018 12.0699 70.0018ZM20.2391 66.9446H20.463C20.463 66.9446 20.1719 69.4887 23.275 69.9967C20.1719 70.5058 20.463 73.0496 20.463 73.0496H20.2391C20.2391 73.0496 20.5279 70.5058 17.428 69.9967C20.5279 69.4887 20.2391 66.9446 20.2391 66.9446ZM30.1241 82.9677C28.3629 82.9677 26.9351 81.5396 26.9351 79.7796V56.9956H21.9521C20.391 56.9956 19.4771 55.4028 20.0211 54.1096H0V103.169H49.0601V82.9677H30.1241Z" fill="#FCFCFC"/>
<path fill-rule="evenodd" clip-rule="evenodd" d="M87.0304 72.67C88.4886 72.4081 89.8075 72.778 90.9794 73.5811C92.6674 74.7331 93.4155 76.412 93.5025 78.565C92.2564 77.981 91.3425 77.1439 90.3424 76.4089C90.6936 77.394 91.6135 77.93 92.2275 78.7279C89.9904 79.1322 86.7345 75.3981 87.0304 72.67ZM84.7505 77.708C84.3874 78.0119 83.9716 78.0712 83.5296 77.894C83.1274 77.7321 82.8646 77.331 82.8865 76.8571C82.8984 76.6292 82.9375 76.378 83.0404 76.179C83.3224 75.6359 83.6444 75.1129 84.0005 74.4981C84.3755 75.1971 84.7366 75.8202 85.0465 76.4702C85.2435 76.884 85.0966 77.4149 84.7505 77.708ZM82.0644 81.3061C80.9025 81.9861 79.5084 81.2051 79.5175 79.8581C79.5195 79.5239 79.5994 79.1631 79.7454 78.8671C80.2054 77.951 80.7154 77.0589 81.1845 76.1929C81.6766 77.1162 82.1965 78.0831 82.7065 79.0582C82.7736 79.1829 82.8006 79.334 82.8295 79.476C82.9755 80.255 82.6875 80.9421 82.0644 81.3061ZM78.3346 75.5291C78.3156 75.3221 78.3276 75.082 78.4134 74.8981C78.6424 74.3972 78.9165 73.9181 79.2264 73.3311C79.6975 74.0669 80.2514 74.6251 80.1785 75.4792C80.1334 76.0211 79.7964 76.359 79.2816 76.369C78.7694 76.378 78.3845 76.056 78.3346 75.5291ZM94.7526 80.9741V54.1091H82.1866C82.7306 55.4031 81.8164 56.995 80.2565 56.995H74.7924V79.779C74.7924 81.5391 73.3635 82.968 71.6034 82.968H54.3504V94.511H94.7526V81.8231C94.1366 81.761 93.5915 81.7052 93.0455 81.6491C92.6654 82.2302 92.3355 82.769 91.9746 83.2849C90.1474 85.8951 87.6104 87.4269 84.5385 88.114C82.7935 88.5061 81.0235 88.605 79.2386 88.3811C78.5225 88.2952 77.8005 88.22 77.0834 88.114C76.7684 88.0681 76.4634 87.9581 76.0734 87.8549C76.6726 85.4361 77.7645 83.4 79.6065 81.784C79.9435 81.8999 80.2006 81.9821 80.4526 82.0731C81.7226 82.532 83.1804 81.7361 83.4066 80.397C83.5024 79.8221 83.7916 79.5741 84.3035 79.4811C85.9884 79.1682 87.6844 79.069 89.3874 79.3241C90.0315 79.421 90.6735 79.5361 91.3164 79.656C91.5015 79.692 91.6764 79.7739 91.8666 79.923C89.1774 80.6161 86.5276 81.35 84.2505 83.0241C87.5925 81.5541 91.0655 80.7601 94.7526 80.9741Z" fill="#FCFCFC"/>
<path fill-rule="evenodd" clip-rule="evenodd" d="M90.652 31.862L81.5491 23.584L72.841 15.6631L73.1812 15.2921L81.881 23.2041L90.991 31.4909L90.652 31.862ZM89.3322 33.3142L80.2542 25.056L71.5212 17.115L72.5601 15.9701L81.273 23.8969L90.3711 32.1701L89.3322 33.3142ZM79.3542 27.7951C78.512 28.2762 72.392 36.6812 72.392 36.6812C72.358 36.72 72.3192 36.7509 72.2772 36.7781C71.949 37.2252 71.42 37.516 70.8242 37.516C69.8281 37.516 69.0202 36.7081 69.0202 35.712C69.0202 35.0311 69.3981 34.4381 69.9582 34.132C69.9612 34.13 69.9632 34.127 69.9652 34.127C71.1753 33.0518 77.5983 27.3238 77.9592 26.5259C77.9592 26.5259 77.2834 23.1387 77.6202 22.9179L78.6112 23.8199C78.6112 23.8199 78.4842 25.4578 79.0874 26.3807C79.1262 26.4408 79.1594 26.5057 79.2022 26.5587C80.1433 27.2229 81.9872 26.891 81.9872 26.891L82.9782 27.7898C82.7914 28.1459 79.3542 27.7951 79.3542 27.7951ZM63.426 25.477H63.2942C63.2942 25.477 63.4632 23.9879 61.649 23.69C63.4632 23.3921 63.2942 21.903 63.2942 21.903H63.426C63.426 21.903 63.256 23.3921 65.069 23.69C63.256 23.9879 63.426 25.477 63.426 25.477ZM74.59 5.1389H74.8142C74.8142 5.1389 74.5231 7.68301 77.6251 8.19101C74.5231 8.70011 74.8142 11.2451 74.8142 11.2451H74.59C74.59 11.2451 74.8791 8.70011 71.778 8.19101C74.8791 7.68301 74.59 5.1389 74.59 5.1389ZM84.219 11.4662H84.4452C84.4452 11.4662 84.1541 14.0182 87.264 14.5281C84.1541 15.0401 84.4452 17.591 84.4452 17.591H84.219C84.219 17.591 84.5101 15.0401 81.4011 14.5281C84.5101 14.0182 84.219 11.4662 84.219 11.4662ZM54.3501 0V24.7989L77.546 49.0589H103.41V0H54.3501Z" fill="#FCFCFC"/>
<path fill-rule="evenodd" clip-rule="evenodd" d="M24.5803 49.1434L35.8812 37.3232L26.7574 47.0534L26.3843 47.4503L25.1722 48.7395C25.0064 48.9172 24.8012 49.0544 24.5803 49.1434Z" fill="#FCFCFC"/>
<path fill-rule="evenodd" clip-rule="evenodd" d="M42.5231 45.6924H50.2719V53.4435H42.5231V45.6924Z" fill="#FCFCFC"/>
<path fill-rule="evenodd" clip-rule="evenodd" d="M7.77255 80.2745H7.68866C7.68866 80.2745 7.79358 79.3346 6.64978 79.1435C7.79358 78.9564 7.68866 78.0156 7.68866 78.0156H7.77255C7.77255 78.0156 7.66457 78.9564 8.81177 79.1435C7.66457 79.3346 7.77255 80.2745 7.77255 80.2745Z" fill="#FCFCFC"/>
<path fill-rule="evenodd" clip-rule="evenodd" d="M12.4095 78.0286H12.3035C12.3035 78.0286 12.4404 76.8236 10.9715 76.5806C11.9503 76.4227 12.2145 75.8357 12.2845 75.4607H12.4285C12.4985 75.8357 12.7633 76.4227 13.7424 76.5806C12.2723 76.8236 12.4095 78.0286 12.4095 78.0286Z" fill="#FCFCFC"/>
<path fill-rule="evenodd" clip-rule="evenodd" d="M15.6271 77.6555L10.1582 79.9808L14.8093 77.3596L15.6271 77.6555Z" fill="#FCFCFC"/>
<path fill-rule="evenodd" clip-rule="evenodd" d="M19.3762 82.0999L15.3822 86.7558L19.2223 81.114L19.3762 82.0999Z" fill="#FCFCFC"/>
<path fill-rule="evenodd" clip-rule="evenodd" d="M19.6554 85.3147H19.5735C19.5735 85.3147 19.6795 84.3759 18.5346 84.188C19.6795 83.9978 19.5735 83.0569 19.5735 83.0569H19.6554C19.6554 83.0569 19.5494 83.9978 20.6946 84.188C19.5494 84.3759 19.6554 85.3147 19.6554 85.3147Z" fill="#FCFCFC"/>
<path fill-rule="evenodd" clip-rule="evenodd" d="M20.2878 87.7494V87.7704H8.34491V87.7494C10.1149 87.3954 11.9157 87.2054 13.7458 87.1592L14.2727 87.1492C14.8048 87.1542 15.2039 87.2034 15.7708 87.2223L15.9687 87.2313C17.3469 87.3254 18.7339 87.4845 20.1387 87.7254C20.1889 87.7314 20.2368 87.7396 20.2878 87.7495V87.7494Z" fill="#FCFCFC"/>
<path fill-rule="evenodd" clip-rule="evenodd" d="M21.7933 75.9338C21.7023 75.9457 21.6082 75.9576 21.5121 75.9576C21.6031 75.9358 21.6972 75.9338 21.7933 75.9338Z" fill="#FCFCFC"/>
<path fill-rule="evenodd" clip-rule="evenodd" d="M20.2878 87.7494V87.7704H8.34491V87.7494C10.1149 87.3954 11.9157 87.2054 13.7458 87.1592L14.2727 87.1492C14.8048 87.1542 15.2039 87.2034 15.7708 87.2223L15.9687 87.2313C17.3469 87.3254 18.7339 87.4845 20.1387 87.7254C20.1889 87.7314 20.2368 87.7396 20.2878 87.7495V87.7494Z" fill="#FCFCFC"/>
<path fill-rule="evenodd" clip-rule="evenodd" d="M7.23907 87.1984V96.1763H6.72885C6.23395 96.1763 5.83197 95.7735 5.83197 95.2783V95.2304L5.24808 87.7625L4.12186 87.8306C4.09996 87.8306 4.07905 87.8336 4.05685 87.8336C2.94085 87.8336 2.03186 86.9866 2.03186 85.9457C2.03186 84.9856 2.80195 84.1797 3.82385 84.0717L3.95398 84.0576H4.09796C4.53086 84.0576 4.94497 84.1466 5.32007 84.3047C6.44507 84.7815 7.23907 85.8995 7.23907 87.1986V87.1984Z" fill="#FCFCFC"/>
<path fill-rule="evenodd" clip-rule="evenodd" d="M20.2878 87.7492V87.7702H20.1387V87.7251C20.1889 87.7311 20.2368 87.7393 20.2878 87.7492Z" fill="#FCFCFC"/>
<path fill-rule="evenodd" clip-rule="evenodd" d="M26.4515 85.9457C26.4515 86.9866 25.5424 87.8336 24.4244 87.8336C24.4023 87.8336 24.3814 87.8306 24.3595 87.8306L23.8473 87.7994L23.2364 87.7625L23.1715 88.5993L22.6514 95.2304V95.2783C22.6514 95.7735 22.2474 96.1755 21.7545 96.1755H21.2445V87.1984C21.2445 85.6496 22.3705 84.3604 23.8473 84.1056C24.0225 84.0744 24.2025 84.0574 24.3853 84.0574H24.5494L24.6574 84.0715C25.6813 84.1795 26.4515 84.9854 26.4515 85.9455V85.9457Z" fill="#FCFCFC"/>
<path fill-rule="evenodd" clip-rule="evenodd" d="M21.7933 75.9336C21.7023 75.9455 21.6082 75.9574 21.5121 75.9574C21.6031 75.9356 21.6972 75.9336 21.7933 75.9336Z" fill="#FCFCFC"/>
<path fill-rule="evenodd" clip-rule="evenodd" d="M17.5343 75.4603H17.3035L17.4183 75.3452L17.5343 75.4603Z" fill="#FCFCFC"/>
<path fill-rule="evenodd" clip-rule="evenodd" d="M21.4299 79.3556L19.711 81.0757L15.7 77.0638L17.3038 75.4597H17.534L19.1378 77.0638L19.425 76.7758L19.999 77.3498L19.711 77.6359L21.4299 79.3556Z" fill="#FCFCFC"/>
<path fill-rule="evenodd" clip-rule="evenodd" d="M24.8689 72.478L21.7088 75.6401L20.2859 77.0639L19.711 76.4899L20.738 75.4621L22.9598 73.2408C22.82 73.098 22.82 72.8729 22.9618 72.7329C23.1009 72.5909 23.3269 72.5909 23.47 72.7309L24.2969 71.906L24.8689 72.478Z" fill="#FCFCFC"/>
<path fill-rule="evenodd" clip-rule="evenodd" d="M19.3762 82.0999L15.3822 86.7558L19.2223 81.114L19.3762 82.0999Z" fill="#FCFCFC"/>
<path fill-rule="evenodd" clip-rule="evenodd" d="M15.6271 77.6555L10.1582 79.9808L14.8093 77.3596L15.6271 77.6555Z" fill="#FCFCFC"/>
<path fill-rule="evenodd" clip-rule="evenodd" d="M7.77255 80.2745H7.68866C7.68866 80.2745 7.79358 79.3346 6.64978 79.1435C7.79358 78.9564 7.68866 78.0156 7.68866 78.0156H7.77255C7.77255 78.0156 7.66457 78.9564 8.81177 79.1435C7.66457 79.3346 7.77255 80.2745 7.77255 80.2745Z" fill="#FCFCFC"/>
<path fill-rule="evenodd" clip-rule="evenodd" d="M12.4095 78.0284H12.3035C12.3035 78.0284 12.4404 76.8234 10.9715 76.5804C11.9503 76.4225 12.2145 75.8355 12.2845 75.4605C12.3185 75.2694 12.3035 75.1345 12.3035 75.1345H12.4095C12.4095 75.1345 12.3945 75.2694 12.4285 75.4605C12.4985 75.8355 12.7633 76.4225 13.7424 76.5804C12.2723 76.8234 12.4095 78.0284 12.4095 78.0284Z" fill="#FCFCFC"/>
<path fill-rule="evenodd" clip-rule="evenodd" d="M19.6554 85.3147H19.5735C19.5735 85.3147 19.6795 84.3759 18.5346 84.188C19.6795 83.9978 19.5735 83.0569 19.5735 83.0569H19.6554C19.6554 83.0569 19.5494 83.9978 20.6946 84.188C19.5494 84.3759 19.6554 85.3147 19.6554 85.3147Z" fill="#FCFCFC"/>
<path fill-rule="evenodd" clip-rule="evenodd" d="M48.5787 16.2468V23.1208C48.5787 23.548 48.4149 23.9587 48.1218 24.272L35.8807 37.3238L26.7568 47.0537L26.3837 47.4509L25.1719 48.7398C25.0058 48.9169 24.8017 49.055 24.5798 49.1429C24.3808 49.2268 24.1639 49.271 23.9457 49.271H9.12189V44.341H22.3897L29.8349 36.3518V21.1578H35.5079V30.2678L48.5787 16.2468Z" fill="#FCFCFC"/>
<path fill-rule="evenodd" clip-rule="evenodd" d="M50.2719 53.4435H42.5231V45.6924H50.2719V53.4435Z" fill="#FCFCFC"/>
<path fill-rule="evenodd" clip-rule="evenodd" d="M59.4921 53.4435H51.7431V45.6924H59.4921V53.4435Z" fill="#FCFCFC"/>
<path fill-rule="evenodd" clip-rule="evenodd" d="M50.2719 62.5282H42.5231V54.7783H50.2719V62.5282Z" fill="#FCFCFC"/>
<path fill-rule="evenodd" clip-rule="evenodd" d="M59.4921 62.5282H51.7431V54.7783H59.4921V62.5282Z" fill="#FCFCFC"/>
</svg>
