<svg width="222" height="46" viewBox="0 0 222 46" fill="none" xmlns="http://www.w3.org/2000/svg">
<path d="M24.0586 32.8418H26.4609L27.4521 35.791L28.4287 32.8418H30.6797L28.3311 38.3691C28.139 38.8151 27.9714 39.1488 27.8281 39.3701C27.6849 39.5882 27.4717 39.7689 27.1885 39.9121C26.9085 40.0521 26.5228 40.1221 26.0312 40.1221C25.7708 40.1221 25.3232 40.0846 24.6885 40.0098V38.5303C25.0628 38.5693 25.3363 38.5889 25.5088 38.5889C26.0199 38.5889 26.3307 38.3984 26.4414 38.0176L24.0586 32.8418ZM34.368 35.6006H35.5496C36.6336 35.6006 37.4376 35.7926 37.9617 36.1768C38.4858 36.5576 38.7479 37.1517 38.7479 37.959C38.7479 38.6198 38.507 39.126 38.0252 39.4775C37.5467 39.8258 36.8582 40 35.9598 40H32.1609V32.8418H38.1863V34.292H34.368V35.6006ZM34.368 38.4619H35.5008C36.1941 38.4619 36.5408 38.2113 36.5408 37.71C36.5408 37.2705 36.1941 37.0508 35.5008 37.0508H34.368V38.4619ZM40.3561 36.4258C40.3561 35.2572 40.6816 34.3473 41.3326 33.6963C41.9837 33.0452 42.8902 32.7197 44.0523 32.7197C45.2437 32.7197 46.1617 33.0404 46.8062 33.6816C47.4508 34.3197 47.773 35.2148 47.773 36.3672C47.773 37.2038 47.6314 37.8906 47.3482 38.4277C47.0683 38.9616 46.6614 39.3783 46.1275 39.6777C45.5969 39.974 44.9345 40.1221 44.1402 40.1221C43.3329 40.1221 42.664 39.9935 42.1334 39.7363C41.6061 39.4792 41.178 39.0723 40.8492 38.5156C40.5204 37.959 40.3561 37.2624 40.3561 36.4258ZM42.568 36.4355C42.568 37.1582 42.7014 37.6774 42.9684 37.9932C43.2385 38.3089 43.6048 38.4668 44.067 38.4668C44.5423 38.4668 44.9101 38.3122 45.1705 38.0029C45.4309 37.6937 45.5611 37.1387 45.5611 36.3379C45.5611 35.6641 45.4244 35.1725 45.151 34.8633C44.8808 34.5508 44.513 34.3945 44.0475 34.3945C43.6015 34.3945 43.2434 34.5524 42.9732 34.8682C42.7031 35.1839 42.568 35.7064 42.568 36.4355ZM49.6547 32.8418H53.3314C54.1322 32.8418 54.7312 33.0322 55.1283 33.4131C55.5287 33.7939 55.7289 34.3359 55.7289 35.0391C55.7289 35.7617 55.5108 36.3265 55.0746 36.7334C54.6417 37.1403 53.9792 37.3438 53.0873 37.3438H51.8764V40H49.6547V32.8418ZM51.8764 35.8936H52.4184C52.8448 35.8936 53.1443 35.8203 53.3168 35.6738C53.4893 35.5241 53.5756 35.3337 53.5756 35.1025C53.5756 34.8779 53.5007 34.6875 53.351 34.5312C53.2012 34.375 52.9197 34.2969 52.5063 34.2969H51.8764V35.8936ZM64.0998 40H61.6096L60.7502 38.1494C60.5451 37.7132 60.3856 37.4414 60.2717 37.334C60.1577 37.2233 59.9999 37.168 59.798 37.168V40H57.591V32.8418H59.798V35.5908C59.9901 35.5811 60.1398 35.5127 60.2473 35.3857C60.3547 35.2588 60.5223 34.8942 60.7502 34.292C60.9162 33.846 61.0839 33.527 61.2531 33.335C61.4224 33.1396 61.6975 32.9997 62.0783 32.915C62.4592 32.8304 63.0565 32.7881 63.8703 32.7881V34.3018H63.758C63.3804 34.3018 63.1005 34.3734 62.9182 34.5166C62.7359 34.6598 62.5861 34.8926 62.4689 35.2148C62.3518 35.5339 62.2248 35.7731 62.0881 35.9326C61.9546 36.0889 61.7707 36.2142 61.5363 36.3086C61.8553 36.4128 62.1337 36.5934 62.3713 36.8506C62.6089 37.1045 62.8612 37.5016 63.1281 38.042L64.0998 40ZM70 38.8184H67.4805L67.1338 40H64.873L67.5635 32.8418H69.9756L72.666 40H70.3516L70 38.8184ZM69.5361 37.2705L68.7451 34.6973L67.959 37.2705H69.5361ZM77.6061 36.6211H80.4967V38.1592H77.6061V36.6211ZM86.1984 32.8418H88.4104V35.3467H90.8273V32.8418H93.049V40H90.8273V37.1045H88.4104V40H86.1984V32.8418ZM95.2139 32.8418H101.142V34.3701H97.4307V35.5078H100.873V36.9678H97.4307V38.3789H101.249V40H95.2139V32.8418ZM107.19 32.8418H111.331C112.021 32.8418 112.55 33.0127 112.918 33.3545C113.289 33.6963 113.474 34.1195 113.474 34.624C113.474 35.0472 113.342 35.4102 113.079 35.7129C112.903 35.9147 112.646 36.0742 112.307 36.1914C112.822 36.3151 113.199 36.5283 113.44 36.8311C113.684 37.1305 113.806 37.5081 113.806 37.9639C113.806 38.335 113.72 38.6686 113.547 38.9648C113.375 39.2611 113.139 39.4954 112.839 39.668C112.654 39.7754 112.374 39.8535 112 39.9023C111.502 39.9674 111.171 40 111.008 40H107.19V32.8418ZM109.421 35.6494H110.383C110.728 35.6494 110.968 35.5908 111.101 35.4736C111.238 35.3532 111.306 35.1807 111.306 34.9561C111.306 34.7477 111.238 34.585 111.101 34.4678C110.968 34.3506 110.733 34.292 110.398 34.292H109.421V35.6494ZM109.421 38.4619H110.549C110.93 38.4619 111.199 38.3952 111.355 38.2617C111.511 38.125 111.589 37.9427 111.589 37.7148C111.589 37.5033 111.511 37.334 111.355 37.207C111.202 37.0768 110.932 37.0117 110.545 37.0117H109.421V38.4619ZM120.073 38.8184H117.553L117.206 40H114.946L117.636 32.8418H120.048L122.739 40H120.424L120.073 38.8184ZM119.609 37.2705L118.818 34.6973L118.032 37.2705H119.609ZM133.79 40H124.161V32.8418H126.368V38.2422H127.858V32.8418H130.07V38.2422H131.578V32.8418H133.79V40ZM140.359 38.8184H137.84L137.493 40H135.232L137.923 32.8418H140.335L143.025 40H140.711L140.359 38.8184ZM139.896 37.2705L139.104 34.6973L138.318 37.2705H139.896ZM152.965 36.1084C153.825 36.3395 154.254 36.8799 154.254 37.7295C154.254 38.4294 153.984 39.0039 153.444 39.4531C152.907 39.8991 152.147 40.1221 151.164 40.1221C149.484 40.1221 148.441 39.4173 148.034 38.0078L150.124 37.8516C150.241 38.3496 150.574 38.5986 151.125 38.5986C151.431 38.5986 151.662 38.5221 151.818 38.3691C151.977 38.2161 152.057 38.0029 152.057 37.7295C152.057 37.4658 151.958 37.2526 151.759 37.0898C151.561 36.9238 151.289 36.8408 150.944 36.8408H150.343V35.5615H150.817C151.1 35.5615 151.322 35.4883 151.481 35.3418C151.644 35.1921 151.725 34.9854 151.725 34.7217C151.725 34.3343 151.483 34.1406 150.998 34.1406C150.496 34.1406 150.205 34.3636 150.124 34.8096L148.146 34.5801C148.468 33.3398 149.432 32.7197 151.037 32.7197C151.925 32.7197 152.622 32.8923 153.127 33.2373C153.631 33.5824 153.883 34.0462 153.883 34.6289C153.883 35.332 153.577 35.8252 152.965 36.1084ZM160.467 38.8184H157.948L157.601 40H155.34L158.031 32.8418H160.443L163.133 40H160.819L160.467 38.8184ZM160.003 37.2705L159.212 34.6973L158.426 37.2705H160.003ZM166.763 35.6006H167.945C169.029 35.6006 169.833 35.7926 170.357 36.1768C170.881 36.5576 171.143 37.1517 171.143 37.959C171.143 38.6198 170.902 39.126 170.42 39.4775C169.942 39.8258 169.253 40 168.355 40H164.556V32.8418H170.581V34.292H166.763V35.6006ZM166.763 38.4619H167.896C168.589 38.4619 168.936 38.2113 168.936 37.71C168.936 37.2705 168.589 37.0508 167.896 37.0508H166.763V38.4619ZM172.751 36.4258C172.751 35.2572 173.076 34.3473 173.728 33.6963C174.379 33.0452 175.285 32.7197 176.447 32.7197C177.639 32.7197 178.557 33.0404 179.201 33.6816C179.846 34.3197 180.168 35.2148 180.168 36.3672C180.168 37.2038 180.026 37.8906 179.743 38.4277C179.463 38.9616 179.056 39.3783 178.522 39.6777C177.992 39.974 177.329 40.1221 176.535 40.1221C175.728 40.1221 175.059 39.9935 174.528 39.7363C174.001 39.4792 173.573 39.0723 173.244 38.5156C172.915 37.959 172.751 37.2624 172.751 36.4258ZM174.963 36.4355C174.963 37.1582 175.096 37.6774 175.363 37.9932C175.633 38.3089 176 38.4668 176.462 38.4668C176.937 38.4668 177.305 38.3122 177.565 38.0029C177.826 37.6937 177.956 37.1387 177.956 36.3379C177.956 35.6641 177.819 35.1725 177.546 34.8633C177.276 34.5508 176.908 34.3945 176.442 34.3945C175.996 34.3945 175.638 34.5524 175.368 34.8682C175.098 35.1839 174.963 35.7064 174.963 36.4355ZM181.556 32.8418H188.28V34.6094H186.024V40H183.812V34.6094H181.556V32.8418ZM194.39 38.8184H191.871L191.524 40H189.263L191.954 32.8418H194.366L197.056 40H194.742L194.39 38.8184ZM193.926 37.2705L193.135 34.6973L192.349 37.2705H193.926Z" fill="#FCFCFC"/>
<path d="M1.41602 7.68359H7.23633L9.48242 16.3945L11.7188 7.68359H17.5195V22H13.9062V11.082L11.1035 22H7.83203L5.03906 11.082V22H1.41602V7.68359ZM20.9996 16.8438C20.9996 15.2617 21.5335 13.9596 22.6012 12.9375C23.6689 11.9089 25.1109 11.3945 26.9273 11.3945C29.0042 11.3945 30.5732 11.9967 31.6344 13.2012C32.4872 14.1712 32.9137 15.3659 32.9137 16.7852C32.9137 18.3802 32.3831 19.6888 31.3219 20.7109C30.2672 21.7266 28.8056 22.2344 26.9371 22.2344C25.2704 22.2344 23.9228 21.8112 22.8941 20.9648C21.6311 19.9167 20.9996 18.543 20.9996 16.8438ZM24.984 16.834C24.984 17.7585 25.1695 18.4421 25.5406 18.8848C25.9182 19.3275 26.3902 19.5488 26.9566 19.5488C27.5296 19.5488 27.9983 19.3307 28.3629 18.8945C28.734 18.4583 28.9195 17.7585 28.9195 16.7949C28.9195 15.8965 28.734 15.2292 28.3629 14.793C27.9918 14.3503 27.5328 14.1289 26.9859 14.1289C26.4065 14.1289 25.928 14.3535 25.5504 14.8027C25.1728 15.2454 24.984 15.9225 24.984 16.834ZM35.5246 19.1289L39.4699 18.7578C39.6327 19.2266 39.8605 19.5618 40.1535 19.7637C40.4465 19.9655 40.8371 20.0664 41.3254 20.0664C41.8592 20.0664 42.2727 19.9525 42.5656 19.7246C42.7935 19.5553 42.9074 19.3438 42.9074 19.0898C42.9074 18.8034 42.7577 18.582 42.4582 18.4258C42.2434 18.3151 41.6737 18.1784 40.7492 18.0156C39.369 17.7747 38.4087 17.5534 37.8684 17.3516C37.3345 17.1432 36.882 16.7949 36.5109 16.3066C36.1464 15.8184 35.9641 15.2617 35.9641 14.6367C35.9641 13.9531 36.1626 13.3639 36.5598 12.8691C36.9569 12.3743 37.5038 12.0065 38.2004 11.7656C38.897 11.5182 39.8312 11.3945 41.0031 11.3945C42.2401 11.3945 43.1516 11.4889 43.7375 11.6777C44.3299 11.8665 44.8215 12.1595 45.2121 12.5566C45.6092 12.9538 45.938 13.4909 46.1984 14.168L42.4289 14.5391C42.3312 14.207 42.1685 13.9629 41.9406 13.8066C41.6281 13.5983 41.2505 13.4941 40.8078 13.4941C40.3586 13.4941 40.0298 13.5755 39.8215 13.7383C39.6197 13.8945 39.5187 14.0866 39.5187 14.3145C39.5187 14.5684 39.649 14.7604 39.9094 14.8906C40.1698 15.0208 40.7362 15.138 41.6086 15.2422C42.9302 15.3919 43.9133 15.6003 44.5578 15.8672C45.2023 16.1341 45.6939 16.515 46.0324 17.0098C46.3775 17.5046 46.55 18.0482 46.55 18.6406C46.55 19.2396 46.3677 19.8223 46.0031 20.3887C45.6451 20.9551 45.0754 21.4076 44.2941 21.7461C43.5194 22.0781 42.4615 22.2441 41.1203 22.2441C39.2258 22.2441 37.8749 21.974 37.0676 21.4336C36.2668 20.8932 35.7525 20.125 35.5246 19.1289ZM59.6492 16.1504L63.5262 17.3223C63.2658 18.4095 62.8556 19.3177 62.2957 20.0469C61.7358 20.776 61.0392 21.3262 60.2059 21.6973C59.379 22.0684 58.3243 22.2539 57.0418 22.2539C55.4858 22.2539 54.213 22.0293 53.2234 21.5801C52.2404 21.1243 51.3908 20.3268 50.6746 19.1875C49.9585 18.0482 49.6004 16.5898 49.6004 14.8125C49.6004 12.4427 50.2286 10.623 51.4852 9.35352C52.7482 8.07747 54.532 7.43945 56.8367 7.43945C58.6401 7.43945 60.0561 7.80404 61.0848 8.5332C62.1199 9.26237 62.8882 10.3822 63.3895 11.8926L59.4832 12.7617C59.3465 12.3255 59.2033 12.0065 59.0535 11.8047C58.8061 11.4661 58.5034 11.2057 58.1453 11.0234C57.7872 10.8411 57.3868 10.75 56.9441 10.75C55.9415 10.75 55.1733 11.1536 54.6395 11.9609C54.2358 12.5599 54.034 13.5007 54.034 14.7832C54.034 16.3717 54.2749 17.4622 54.7566 18.0547C55.2384 18.6406 55.9155 18.9336 56.7879 18.9336C57.6342 18.9336 58.2723 18.696 58.702 18.2207C59.1382 17.7454 59.4539 17.0553 59.6492 16.1504ZM66.9574 7.68359H70.9418V22H66.9574V7.68359ZM86.3945 17.8008H78.4258C78.4974 18.4388 78.6699 18.9141 78.9434 19.2266C79.3275 19.6758 79.8288 19.9004 80.4473 19.9004C80.8379 19.9004 81.209 19.8027 81.5605 19.6074C81.7754 19.4837 82.0065 19.2656 82.2539 18.9531L86.1699 19.3145C85.571 20.3561 84.8483 21.1048 84.002 21.5605C83.1556 22.0098 81.9414 22.2344 80.3594 22.2344C78.9857 22.2344 77.9049 22.0423 77.1172 21.6582C76.3294 21.2676 75.6751 20.6523 75.1543 19.8125C74.64 18.9661 74.3828 17.9733 74.3828 16.834C74.3828 15.2129 74.9004 13.901 75.9355 12.8984C76.9772 11.8958 78.4128 11.3945 80.2422 11.3945C81.7266 11.3945 82.8984 11.6191 83.7578 12.0684C84.6172 12.5176 85.2715 13.1686 85.7207 14.0215C86.1699 14.8743 86.3945 15.9844 86.3945 17.3516V17.8008ZM82.3516 15.8965C82.2734 15.1283 82.0651 14.5781 81.7266 14.2461C81.3945 13.9141 80.9551 13.748 80.4082 13.748C79.7767 13.748 79.2721 13.9987 78.8945 14.5C78.6536 14.8125 78.5007 15.278 78.4355 15.8965H82.3516ZM93.2438 14.9883L89.4449 14.5879C89.5882 13.9238 89.7932 13.403 90.0602 13.0254C90.3336 12.6413 90.7242 12.3092 91.232 12.0293C91.5966 11.8275 92.0979 11.6712 92.7359 11.5605C93.374 11.4499 94.0641 11.3945 94.8063 11.3945C95.9977 11.3945 96.9547 11.4629 97.6773 11.5996C98.4 11.7298 99.0022 12.0065 99.484 12.4297C99.8225 12.7227 100.089 13.1393 100.285 13.6797C100.48 14.2135 100.578 14.7246 100.578 15.2129V19.793C100.578 20.2812 100.607 20.6654 100.666 20.9453C100.731 21.2188 100.867 21.5703 101.076 22H97.3453C97.1956 21.7331 97.0979 21.5312 97.0523 21.3945C97.0068 21.2513 96.9612 21.0299 96.9156 20.7305C96.3948 21.2318 95.8772 21.5898 95.3629 21.8047C94.6598 22.0911 93.8427 22.2344 92.9117 22.2344C91.6747 22.2344 90.734 21.9479 90.0895 21.375C89.4514 20.8021 89.1324 20.0957 89.1324 19.2559C89.1324 18.4681 89.3635 17.8203 89.8258 17.3125C90.288 16.8047 91.1409 16.4271 92.3844 16.1797C93.8753 15.8802 94.8421 15.6719 95.2848 15.5547C95.7275 15.431 96.1962 15.2715 96.691 15.0762C96.691 14.5879 96.5901 14.2461 96.3883 14.0508C96.1865 13.8555 95.8316 13.7578 95.3238 13.7578C94.6728 13.7578 94.1845 13.862 93.859 14.0703C93.6051 14.2331 93.4 14.5391 93.2438 14.9883ZM96.691 17.0781C96.1441 17.2734 95.5745 17.446 94.982 17.5957C94.1747 17.8105 93.6637 18.0221 93.4488 18.2305C93.2275 18.4453 93.1168 18.6895 93.1168 18.9629C93.1168 19.2754 93.2242 19.5326 93.4391 19.7344C93.6604 19.9297 93.9827 20.0273 94.4059 20.0273C94.8486 20.0273 95.2587 19.9199 95.6363 19.7051C96.0204 19.4902 96.2906 19.2298 96.4469 18.9238C96.6096 18.6113 96.691 18.2077 96.691 17.7129V17.0781ZM104.361 11.6289H108.062V13.3184C108.615 12.6283 109.175 12.1367 109.741 11.8438C110.308 11.5443 110.998 11.3945 111.812 11.3945C112.912 11.3945 113.771 11.7233 114.39 12.3809C115.015 13.0319 115.327 14.041 115.327 15.4082V22H111.333V16.2969C111.333 15.6458 111.213 15.1868 110.972 14.9199C110.731 14.6465 110.392 14.5098 109.956 14.5098C109.474 14.5098 109.084 14.6921 108.784 15.0566C108.485 15.4212 108.335 16.0755 108.335 17.0195V22H104.361V11.6289ZM118.593 17.2637L122.802 17C122.893 17.6836 123.078 18.2044 123.358 18.5625C123.814 19.1419 124.465 19.4316 125.311 19.4316C125.943 19.4316 126.428 19.2852 126.766 18.9922C127.111 18.6927 127.284 18.3477 127.284 17.957C127.284 17.5859 127.121 17.2539 126.796 16.9609C126.47 16.668 125.715 16.3913 124.53 16.1309C122.59 15.6947 121.207 15.1152 120.38 14.3926C119.546 13.6699 119.13 12.7487 119.13 11.6289C119.13 10.8932 119.341 10.1999 119.764 9.54883C120.194 8.89128 120.835 8.37695 121.688 8.00586C122.548 7.62826 123.723 7.43945 125.214 7.43945C127.043 7.43945 128.436 7.78125 129.393 8.46484C130.357 9.14193 130.93 10.2227 131.112 11.707L126.942 11.9512C126.832 11.3066 126.597 10.8379 126.239 10.5449C125.887 10.252 125.399 10.1055 124.774 10.1055C124.26 10.1055 123.873 10.2161 123.612 10.4375C123.352 10.6523 123.221 10.916 123.221 11.2285C123.221 11.4564 123.329 11.6615 123.544 11.8438C123.752 12.0326 124.247 12.2083 125.028 12.3711C126.962 12.7878 128.345 13.2109 129.179 13.6406C130.018 14.0638 130.627 14.5911 131.005 15.2227C131.389 15.8542 131.581 16.5605 131.581 17.3418C131.581 18.2598 131.327 19.1061 130.819 19.8809C130.311 20.6556 129.602 21.2448 128.69 21.6484C127.779 22.0456 126.63 22.2441 125.243 22.2441C122.808 22.2441 121.122 21.7754 120.184 20.8379C119.247 19.9004 118.716 18.709 118.593 17.2637ZM146.467 17.8008H138.498C138.57 18.4388 138.743 18.9141 139.016 19.2266C139.4 19.6758 139.901 19.9004 140.52 19.9004C140.911 19.9004 141.282 19.8027 141.633 19.6074C141.848 19.4837 142.079 19.2656 142.327 18.9531L146.243 19.3145C145.644 20.3561 144.921 21.1048 144.075 21.5605C143.228 22.0098 142.014 22.2344 140.432 22.2344C139.058 22.2344 137.978 22.0423 137.19 21.6582C136.402 21.2676 135.748 20.6523 135.227 19.8125C134.713 18.9661 134.455 17.9733 134.455 16.834C134.455 15.2129 134.973 13.901 136.008 12.8984C137.05 11.8958 138.485 11.3945 140.315 11.3945C141.799 11.3945 142.971 11.6191 143.83 12.0684C144.69 12.5176 145.344 13.1686 145.793 14.0215C146.243 14.8743 146.467 15.9844 146.467 17.3516V17.8008ZM142.424 15.8965C142.346 15.1283 142.138 14.5781 141.799 14.2461C141.467 13.9141 141.028 13.748 140.481 13.748C139.849 13.748 139.345 13.9987 138.967 14.5C138.726 14.8125 138.573 15.278 138.508 15.8965H142.424ZM149.732 11.6289H153.453V13.3281C153.811 12.5924 154.179 12.0879 154.557 11.8145C154.941 11.5345 155.413 11.3945 155.973 11.3945C156.559 11.3945 157.2 11.5768 157.896 11.9414L156.666 14.7734C156.197 14.5781 155.826 14.4805 155.553 14.4805C155.032 14.4805 154.628 14.6953 154.342 15.125C153.932 15.7305 153.727 16.8633 153.727 18.5234V22H149.732V11.6289ZM159.97 11.6289H164.111L166.123 18.2012L168.203 11.6289H172.216L167.812 22H164.287L159.97 11.6289ZM174.925 7.68359H178.9V10.3887H174.925V7.68359ZM174.925 11.6289H178.9V22H174.925V11.6289ZM190.573 17.9473L194.352 18.377C194.144 19.1647 193.802 19.8483 193.327 20.4277C192.852 21.0007 192.243 21.4466 191.501 21.7656C190.765 22.0846 189.828 22.2441 188.688 22.2441C187.588 22.2441 186.67 22.1432 185.934 21.9414C185.205 21.7331 184.577 21.401 184.05 20.9453C183.522 20.4831 183.109 19.9427 182.809 19.3242C182.51 18.7057 182.36 17.8854 182.36 16.8633C182.36 15.7956 182.542 14.9069 182.907 14.1973C183.174 13.6764 183.539 13.2109 184.001 12.8008C184.463 12.3841 184.938 12.0749 185.427 11.873C186.201 11.554 187.194 11.3945 188.405 11.3945C190.098 11.3945 191.387 11.6973 192.272 12.3027C193.164 12.9082 193.789 13.7936 194.147 14.959L190.407 15.457C190.29 15.0143 190.075 14.6823 189.762 14.4609C189.457 14.2331 189.043 14.1191 188.522 14.1191C187.865 14.1191 187.331 14.3568 186.921 14.832C186.517 15.3008 186.315 16.0137 186.315 16.9707C186.315 17.8236 186.517 18.4714 186.921 18.9141C187.324 19.3568 187.839 19.5781 188.464 19.5781C188.985 19.5781 189.421 19.4447 189.772 19.1777C190.13 18.9108 190.397 18.5007 190.573 17.9473ZM209.092 17.8008H201.123C201.195 18.4388 201.368 18.9141 201.641 19.2266C202.025 19.6758 202.526 19.9004 203.145 19.9004C203.536 19.9004 203.907 19.8027 204.258 19.6074C204.473 19.4837 204.704 19.2656 204.952 18.9531L208.868 19.3145C208.269 20.3561 207.546 21.1048 206.7 21.5605C205.853 22.0098 204.639 22.2344 203.057 22.2344C201.683 22.2344 200.603 22.0423 199.815 21.6582C199.027 21.2676 198.373 20.6523 197.852 19.8125C197.338 18.9661 197.08 17.9733 197.08 16.834C197.08 15.2129 197.598 13.901 198.633 12.8984C199.675 11.8958 201.11 11.3945 202.94 11.3945C204.424 11.3945 205.596 11.6191 206.455 12.0684C207.315 12.5176 207.969 13.1686 208.418 14.0215C208.868 14.8743 209.092 15.9844 209.092 17.3516V17.8008ZM205.049 15.8965C204.971 15.1283 204.763 14.5781 204.424 14.2461C204.092 13.9141 203.653 13.748 203.106 13.748C202.474 13.748 201.97 13.9987 201.592 14.5C201.351 14.8125 201.198 15.278 201.133 15.8965H205.049Z" fill="#FCFCFC"/>
<path d="M221.609 10.668C221.609 11.6689 221.357 12.6016 220.854 13.4658C220.356 14.3301 219.675 15.0112 218.811 15.5093C217.947 16.0073 217.014 16.2563 216.013 16.2563C215.017 16.2563 214.087 16.0073 213.223 15.5093C212.358 15.0112 211.675 14.3301 211.172 13.4658C210.674 12.6016 210.425 11.6689 210.425 10.668C210.425 9.67188 210.674 8.7417 211.172 7.87744C211.675 7.0083 212.358 6.32471 213.223 5.82666C214.087 5.32861 215.017 5.07959 216.013 5.07959C217.014 5.07959 217.947 5.32861 218.811 5.82666C219.675 6.32471 220.356 7.0083 220.854 7.87744C221.357 8.7417 221.609 9.67188 221.609 10.668ZM220.525 10.668C220.525 9.42285 220.083 8.36084 219.199 7.48193C218.32 6.59814 217.258 6.15625 216.013 6.15625C214.768 6.15625 213.704 6.59814 212.82 7.48193C211.941 8.36084 211.501 9.42285 211.501 10.668C211.501 11.9131 211.941 12.9775 212.82 13.8613C213.704 14.7402 214.768 15.1797 216.013 15.1797C217.258 15.1797 218.32 14.7402 219.199 13.8613C220.083 12.9775 220.525 11.9131 220.525 10.668ZM217.317 11.3564L218.826 11.7153C218.64 12.3062 218.384 12.7603 218.057 13.0776C217.544 13.5708 216.875 13.8174 216.05 13.8174C215.151 13.8174 214.419 13.5293 213.853 12.9531C213.286 12.3721 213.003 11.6055 213.003 10.6533C213.003 9.75 213.293 9.00537 213.875 8.41943C214.456 7.82861 215.183 7.5332 216.057 7.5332C216.765 7.5332 217.361 7.72119 217.844 8.09717C218.328 8.47314 218.633 8.95898 218.76 9.55469L217.317 9.77441C217.229 9.37891 217.068 9.08594 216.833 8.89551C216.604 8.7002 216.323 8.60254 215.991 8.60254C215.61 8.60254 215.291 8.76611 215.032 9.09326C214.773 9.41553 214.644 9.92334 214.644 10.6167C214.644 11.3149 214.731 11.813 214.907 12.1108C215.166 12.5405 215.532 12.7554 216.006 12.7554C216.304 12.7554 216.57 12.6455 216.804 12.4258C217.043 12.2061 217.214 11.8496 217.317 11.3564Z" fill="#FCFCFC"/>
</svg>
