<svg width="60" height="60" viewBox="0 0 60 60" fill="none" xmlns="http://www.w3.org/2000/svg">
<path d="M55 8V3C55 2.44775 54.5522 2 54 2H44C43.4478 2 43 2.44775 43 3V8H41C40.6912 7.99975 40.3996 8.14225 40.21 8.386L33.21 17.386C33.0737 17.5616 32.9997 17.7776 33 18V22H27V18C27 17.7693 26.9201 17.5456 26.774 17.367L18 6.643V1C18 0.44775 17.5522 0 17 0H10C9.44775 0 9 0.44775 9 1V6.643L0.226 17.367C0.079875 17.5456 0 17.7693 0 18V55C0.00325 57.76 2.24 59.9967 5 60H55C57.76 59.9967 59.9967 57.76 60 55V13C59.9967 10.24 57.76 8.00325 55 8ZM45 4H53V8H45V4ZM27 24H29H31H33H35H37V30H23V24H25H27ZM11 2H16V6H11V2ZM2 18.357L10.474 8H16.526L25 18.357V22H22C21.4478 22 21 22.4478 21 23V24H2V18.357ZM19 58H5C3.34312 58 2 56.6569 2 55V53H19V58ZM19 31V51H2V49V47V26H21V30H20C19.4478 30 19 30.4478 19 31ZM39 58H21V32H39V58ZM58 55C58 56.6569 56.6569 58 55 58H41V53H58V55ZM58 51H41V49V47V31C41 30.4478 40.5522 30 40 30H39V23C39 22.4478 38.5522 22 38 22H35V19H58V51ZM58 17H36.045L41.489 10H55C56.6569 10 58 11.3431 58 13V17Z" fill="#43C951"/>
<path d="M30 37C26.134 37 23 40.134 23 44C23 47.866 26.134 51 30 51C33.866 51 37 47.866 37 44C36.9956 40.1359 33.8641 37.0044 30 37ZM30 49C28.0114 48.9979 26.213 47.8176 25.42 45.994L26.957 44.457C27.8096 43.6059 29.1904 43.6059 30.043 44.457C31.3061 45.7123 33.2265 46.0279 34.825 45.243C34.2593 47.4475 32.276 48.9917 30 49ZM34.543 43.043C33.6794 43.8671 32.3206 43.8671 31.457 43.043C29.823 41.4122 27.177 41.4122 25.543 43.043L25.043 43.543C25.2735 40.9754 27.4221 39.0062 30 39C32.2773 39.0081 34.2613 40.5539 34.826 42.76L34.543 43.043Z" fill="#43C951"/>
<path d="M54 22H47C46.4477 22 46 22.4477 46 23V30C46 30.5522 46.4477 31 47 31H54C54.5522 31 55 30.5522 55 30V23C55 22.4477 54.5522 22 54 22ZM53 29H48V24H53V29Z" fill="#43C951"/>
</svg>
