<svg width="60" height="60" viewBox="0 0 60 60" fill="none" xmlns="http://www.w3.org/2000/svg">
<g clip-path="url(#clip0)">
<path d="M16.5233 49.4728C16.5233 48.2868 16.1718 47.1275 15.5129 46.1413C14.8541 45.1552 13.9177 44.3866 12.822 43.9326C11.7263 43.4787 10.5207 43.3599 9.35749 43.5912C8.1943 43.8225 7.12583 44.3936 6.28719 45.2322C5.44855 46.0707 4.87742 47.1392 4.64601 48.3023C4.41461 49.4655 4.53333 50.6712 4.98716 51.7669C5.44098 52.8626 6.20954 53.7991 7.19563 54.458C8.18171 55.1169 9.34105 55.4686 10.527 55.4686C12.1167 55.4668 13.6408 54.8346 14.7649 53.7106C15.889 52.5865 16.5214 51.0625 16.5233 49.4728ZM6.17186 49.4728C6.17176 48.6113 6.42714 47.7692 6.90568 47.0528C7.38423 46.3365 8.06445 45.7781 8.86033 45.4484C9.65621 45.1186 10.532 45.0323 11.3769 45.2003C12.2219 45.3683 12.998 45.7831 13.6072 46.3923C14.2164 47.0014 14.6313 47.7775 14.7994 48.6224C14.9675 49.4673 14.8812 50.3431 14.5516 51.139C14.2219 51.935 13.6637 52.6152 12.9474 53.0939C12.2311 53.5725 11.389 53.8279 10.5275 53.8279C9.37268 53.827 8.26546 53.3678 7.44885 52.5513C6.63224 51.7348 6.17297 50.6276 6.17186 49.4728Z" fill="#43C951"/>
<path d="M59.1797 14.4744C59.3972 14.4744 59.6059 14.388 59.7597 14.2342C59.9136 14.0803 60 13.8717 60 13.6541V10.5271C60 10.3095 59.9136 10.1009 59.7597 9.94703C59.6059 9.79319 59.3972 9.70677 59.1797 9.70677H21.0197C20.8081 6.99415 19.5543 4.46886 17.5213 2.66055C15.4883 0.852241 12.8341 -0.0985771 10.1153 0.00752577C7.39653 0.113629 4.82446 1.26841 2.93858 3.22965C1.0527 5.1909 -0.000459348 7.80623 1.50297e-07 10.5271V49.4727C0.00310192 52.2637 1.11321 54.9396 3.08677 56.9131C5.06033 58.8867 7.73616 59.9968 10.5272 59.9999H59.1797C59.3972 59.9999 59.6059 59.9135 59.7597 59.7596C59.9136 59.6058 60 59.3971 60 59.1796V56.053C60 55.8355 59.9136 55.6268 59.7597 55.473C59.6059 55.3191 59.3972 55.2327 59.1797 55.2327H50.6175V52.4122H59.1797C59.3972 52.4122 59.6059 52.3258 59.7597 52.172C59.9136 52.0181 60 51.8095 60 51.5919V48.4649C60 48.2473 59.9136 48.0387 59.7597 47.8848C59.6059 47.731 59.3972 47.6446 59.1797 47.6446H50.6175V44.8246H59.1797C59.3972 44.8246 59.6059 44.7382 59.7597 44.5843C59.9136 44.4305 60 44.2218 60 44.0043V40.8777C60 40.6601 59.9136 40.4515 59.7597 40.2977C59.6059 40.1438 59.3972 40.0574 59.1797 40.0574H50.6175V37.2369H59.1797C59.3972 37.2369 59.6059 37.1505 59.7597 36.9967C59.9136 36.8428 60 36.6342 60 36.4166V33.29C60 33.0725 59.9136 32.8638 59.7597 32.71C59.6059 32.5562 59.3972 32.4697 59.1797 32.4697H50.6175V29.6493H59.1797C59.2875 29.6493 59.3942 29.628 59.4938 29.5867C59.5934 29.5455 59.6839 29.4849 59.7601 29.4087C59.8363 29.3324 59.8967 29.2419 59.9378 29.1422C59.979 29.0426 60.0001 28.9358 60 28.828V25.7015C60 25.4839 59.9136 25.2752 59.7597 25.1214C59.6059 24.9676 59.3972 24.8811 59.1797 24.8811H50.6175V22.0616H59.1797C59.3972 22.0616 59.6059 21.9752 59.7597 21.8213C59.9136 21.6675 60 21.4589 60 21.2413V18.1147C60 17.8972 59.9136 17.6885 59.7597 17.5347C59.6059 17.3808 59.3972 17.2944 59.1797 17.2944H50.6175V14.4744H59.1797ZM58.3594 12.8338H50.6175V11.3474H58.3594V12.8338ZM44.2894 16.0349V53.6718H36.9647C37.1937 53.1274 37.5489 52.6454 38.0011 52.2655C38.7347 51.5333 39.6483 50.6216 39.6483 48.8779C39.6483 47.1341 38.7352 46.2229 38.0011 45.4907C37.3247 44.8157 36.8358 44.3277 36.8358 43.2641C36.8358 42.2005 37.3247 41.7144 38.0011 41.0399C38.7347 40.3077 39.6483 39.3993 39.6483 37.6541C39.6483 35.909 38.7352 34.9996 38.0006 34.2669C37.3247 33.5924 36.8358 33.1049 36.8358 32.0422C36.8358 30.9796 37.3247 30.4925 38.0011 29.818C38.7347 29.0858 39.6483 28.1774 39.6483 26.4322C39.6483 24.6871 38.7347 23.7786 38.0006 23.0469C37.3247 22.3729 36.8358 21.8854 36.8358 20.8241C36.8358 19.7629 37.3247 19.2744 38.0006 18.5999C38.784 17.9347 39.3325 17.035 39.5648 16.034L44.2894 16.0349ZM36.8438 17.4374C36.1097 18.1696 35.1961 19.078 35.1961 20.8236C35.1961 22.5693 36.1092 23.4768 36.8438 24.2085C37.5197 24.8825 38.0086 25.3705 38.0086 26.4318C38.0086 27.493 37.5187 27.9843 36.8438 28.6569C36.1097 29.3891 35.1961 30.2975 35.1961 32.0432C35.1961 33.7888 36.1092 34.6972 36.8433 35.4299C37.5197 36.1044 38.0086 36.5919 38.0086 37.655C38.0086 38.7182 37.5197 39.2019 36.8438 39.8788C36.1097 40.611 35.1961 41.5194 35.1961 43.265C35.1961 45.0107 36.1092 45.9205 36.8433 46.6527C37.5197 47.3277 38.0086 47.8157 38.0086 48.8788C38.0086 49.9419 37.5197 50.4299 36.8433 51.1054C36.0552 51.7684 35.5028 52.6688 35.2687 53.6718H28.8136C29.0441 53.1268 29.4013 52.6447 29.8556 52.2655C30.5892 51.5333 31.5028 50.6216 31.5028 48.8779C31.5028 47.1341 30.5897 46.2229 29.8561 45.4907C29.1797 44.8157 28.6908 44.3277 28.6908 43.2641C28.6908 42.2005 29.1792 41.7144 29.8561 41.0399C30.5897 40.3077 31.5033 39.3993 31.5033 37.6541C31.5033 35.909 30.5902 34.9996 29.8561 34.2669C29.1797 33.5924 28.6908 33.1049 28.6908 32.0422C28.6908 30.9796 29.1792 30.4925 29.8561 29.818C30.5897 29.0858 31.5033 28.1774 31.5033 26.4322C31.5033 24.6871 30.5902 23.7791 29.8561 23.0469C29.1797 22.3729 28.6912 21.8854 28.6912 20.8241C28.6912 19.7629 29.1797 19.2744 29.8566 18.5999C30.6443 17.9369 31.1962 17.0367 31.4297 16.034H37.8839C37.6538 16.5779 37.2972 17.059 36.8438 17.4374ZM28.6983 17.4374C27.9647 18.1696 27.0511 19.078 27.0511 20.8236C27.0511 22.5693 27.9642 23.4763 28.6983 24.2085C29.3747 24.8825 29.8631 25.3705 29.8631 26.4318C29.8631 27.493 29.3747 27.9786 28.6983 28.6555C27.9642 29.3877 27.0511 30.2961 27.0511 32.0418C27.0511 33.7874 27.9642 34.6958 28.6983 35.4285C29.3747 36.103 29.8636 36.5905 29.8636 37.6536C29.8636 38.7168 29.3752 39.2005 28.6987 39.8774C27.9647 40.6096 27.0516 41.518 27.0516 43.2636C27.0516 45.0093 27.9647 45.9191 28.6987 46.6513C29.3752 47.3263 29.8641 47.8143 29.8641 48.8774C29.8641 49.9405 29.3752 50.429 28.6987 51.104C27.9155 51.7698 27.3673 52.6699 27.135 53.6713H20.1783C20.4838 52.9721 20.7118 52.2415 20.858 51.4925L20.8617 51.4705C20.9231 51.1513 20.9714 50.8279 21.0023 50.4993C21.0023 50.4838 21.0023 50.4679 21.0061 50.4524C21.0361 50.1294 21.053 49.8032 21.053 49.4727V16.0349H29.7328C29.5035 16.5778 29.1484 17.0585 28.6969 17.4374H28.6983ZM1.64063 10.5271C1.64063 8.17015 2.57691 5.90976 4.24351 4.24316C5.91011 2.57657 8.1705 1.64028 10.5274 1.64028C12.8843 1.64028 15.1447 2.57657 16.8113 4.24316C18.4779 5.90976 19.4142 8.17015 19.4142 10.5271V43.8397C18.4661 42.3404 17.1541 41.1054 15.6003 40.2495C14.0465 39.3936 12.3014 38.9448 10.5274 38.9448C8.75349 38.9448 7.00839 39.3936 5.45457 40.2495C3.90075 41.1054 2.58873 42.3404 1.64063 43.8397V10.5271ZM1.64063 49.4727C1.64063 47.1158 2.57691 44.8554 4.24351 43.1888C5.91011 41.5222 8.1705 40.5859 10.5274 40.5859C12.8843 40.5859 15.1447 41.5222 16.8113 43.1888C18.4779 44.8554 19.4142 47.1158 19.4142 49.4727C19.3822 51.8197 18.4356 54.0615 16.7758 55.7212C15.1161 57.3809 12.8742 58.3274 10.5272 58.3593C8.17116 58.3565 5.91242 57.4194 4.24645 55.7534C2.58049 54.0875 1.64335 51.8287 1.64063 49.4727ZM19.2816 55.3124H45.1097C45.3272 55.3124 45.5359 55.226 45.6897 55.0721C45.8436 54.9183 45.93 54.7096 45.93 54.4921V15.2146C45.93 14.997 45.8436 14.7884 45.6897 14.6345C45.5359 14.4807 45.3272 14.3943 45.1097 14.3943H21.0548V11.3474H48.9773V58.3593H16.1602C17.4004 57.5708 18.4634 56.5333 19.2816 55.3124ZM58.3594 56.8733V58.3593H50.6175V56.8733H58.3594ZM58.3594 49.2857V50.7721H50.6175V49.2857H58.3594ZM58.3594 41.698V43.184H50.6175V41.698H58.3594ZM58.3594 34.1104V35.5968H50.6175V34.1104H58.3594ZM58.3594 26.5227V28.0086H50.6175V26.5227H58.3594ZM58.3594 18.935V20.421H50.6175V18.9374L58.3594 18.935Z" fill="#43C951"/>
</g>
<defs>
<clipPath id="clip0">
<rect width="60" height="60" fill="white"/>
</clipPath>
</defs>
</svg>
