<svg width="60" height="60" viewBox="0 0 60 60" fill="none" xmlns="http://www.w3.org/2000/svg">
<path d="M58.75 12.5H46.6533C46.7064 11.3598 46.6539 10.2135 46.3745 9.09422C45.3857 5.1416 42.4902 2.0141 38.623 0.722578L38.2787 0.607852C37.0703 0.205078 35.8082 0 34.3287 0C30.4225 0 26.7725 1.92141 24.5654 5.13188L3.18586 35.7893C2.8602 36.206 2.55891 36.641 2.27801 37.0914L2.12402 37.312L2.13785 37.3216C0.789844 39.5711 0 42.192 0 45C0 53.2714 6.72855 60 15 60H28.75H31.2499C31.9409 60 32.5 59.4409 32.5 58.75C32.5 58.059 31.9409 57.4999 31.2499 57.4999H30.9791L34.0348 52.5H36.2501C36.941 52.5 37.5001 51.9409 37.5001 51.25C37.5001 50.559 36.941 49.9999 36.2501 49.9999H35.5625L38.618 45H41.25C41.9409 45 42.5 44.4409 42.5 43.75C42.5 43.059 41.9409 42.4999 41.25 42.4999H40.1459L43.2013 37.5H45C45.6909 37.5 46.25 36.9409 46.25 36.25C46.25 35.559 45.6909 34.9999 45 34.9999H44.7292L47.7847 30H50C50.691 30 51.2501 29.4409 51.2501 28.75C51.2501 28.059 50.691 27.4999 50 27.4999H49.3125L52.368 22.5H53.75C54.441 22.5 55.0001 21.9409 55.0001 21.25C55.0001 20.6051 54.5066 20.0938 53.8799 20.0261L56.9513 15H58.75C59.4409 15 60 14.4409 60 13.75C60 13.0591 59.4409 12.5 58.75 12.5ZM26.6211 6.55523C28.3668 4.01613 31.2476 2.50008 34.5288 2.50008C35.5396 2.50008 36.5332 2.66121 37.4878 2.98102L37.8321 3.09574C40.8839 4.11387 43.1691 6.58207 43.9479 9.69973C44.5582 12.1388 44.148 14.7656 42.8249 16.897L27.395 41.4615C26.8571 35.0618 21.5364 30 15 30C13.074 30 11.238 30.3778 9.54504 31.0419L26.6211 6.55523ZM28.0493 57.5H15C8.10785 57.5 2.49996 51.8921 2.49996 45C2.49996 42.5306 3.24246 40.2407 4.48348 38.2999L4.91906 37.6754C7.19402 34.5543 10.8511 32.5001 14.9999 32.5001C20.5151 32.5001 24.9998 36.985 24.9998 42.5C24.9998 48.0151 20.5152 52.5 15 52.5C10.8642 52.5 7.5 49.1358 7.5 45C7.5 40.8642 10.8642 37.5 15 37.5C15.3369 37.5 15.6641 37.5342 15.9814 37.5976L14.3066 40.0488C11.8774 40.3857 9.99996 42.478 9.99996 45C9.99996 47.7564 12.2436 50 15 50C19.1358 50 22.5 46.6358 22.5 42.5C22.5 38.3643 19.1358 35 15 35C9.48481 35 5.00004 39.4849 5.00004 45C5.00004 50.5151 9.48492 55 15 55C19.8521 55 24.0211 52.1919 26.0916 48.1416L26.1352 48.1689L44.9462 18.2201C45.5655 17.2208 45.9708 16.1239 46.2682 14.9999H54.0209L28.0493 57.5ZM16.0328 41.9556L18.2521 38.7036C19.3214 39.6216 20.0002 40.9839 20.0002 42.5C20.0002 45.2564 17.7565 47.5001 15.0001 47.5001C13.6207 47.5001 12.5002 46.3794 12.5002 45.0001C12.5002 43.6207 13.6208 42.5002 15.0001 42.5002C15.4126 42.5 15.7984 42.295 16.0328 41.9556Z" fill="#43C951"/>
</svg>
