<svg width="60" height="60" viewBox="0 0 60 60" fill="none" xmlns="http://www.w3.org/2000/svg">
<path d="M51.4576 20.1356V8.81356C51.4576 2.30508 46.9152 0 42.644 0H17.2881C13.0169 0 8.47451 2.30508 8.47451 8.81356V20.1356C5.35587 20.9492 3.05078 23.7288 3.05078 27.1186V45.2881C3.05078 50.6441 6.644 52.7458 10.1694 52.9492V57.5593C10.1694 58.9153 11.2542 60 12.6101 60H15.1186C16.4745 60 17.5593 58.9153 17.5593 57.5593V52.9492H42.4406V57.5593C42.4406 58.9153 43.5254 60 44.8813 60H47.3898C48.7457 60 49.8304 58.9153 49.8304 57.5593V52.9492C55.0508 52.678 56.9491 48.8814 56.9491 45.2881V27.0508C56.8135 23.7288 54.5084 20.8814 51.4576 20.1356ZM10.9152 8.81356C10.9152 3.25424 14.9152 2.37288 17.2881 2.37288H42.644C45.0169 2.37288 49.0169 3.18644 49.0169 8.74576V19.8644C45.3559 20.2034 42.4406 23.2542 42.4406 27.0508V28.7458H17.4915V27.0508C17.4915 23.2542 14.5762 20.2034 10.9152 19.8644V8.81356ZM42.3728 31.1864V39.5932H17.4915V31.1864H42.3728ZM15.1186 57.5593H12.6101V52.9492H15.1186V57.5593ZM47.322 57.5593H44.8135V52.9492H47.322V57.5593ZM54.5084 45.2881H54.4406C54.4406 47.661 53.5593 50.5763 49.1525 50.5763H47.322H44.8135H15.1186H12.6101H10.7796C8.40671 50.5763 5.49146 49.6949 5.49146 45.2881V27.0508C5.49146 24.4068 7.66095 22.2373 10.305 22.2373C12.9491 22.2373 15.1186 24.4068 15.1186 27.0508V40.8136C15.1186 41.4915 15.661 42.0339 16.3389 42.0339H43.6609C44.3389 42.0339 44.8813 41.4915 44.8813 40.8136V27.0508C44.8813 24.4068 47.0508 22.2373 49.6948 22.2373C52.3389 22.2373 54.5084 24.4068 54.5084 27.0508V45.2881Z" fill="#43C951"/>
</svg>
