<svg width="60" height="60" viewBox="0 0 60 60" fill="none" xmlns="http://www.w3.org/2000/svg">
<path d="M48.375 21.3258H44.875C44.5765 21.3282 44.2805 21.3809 44 21.4817V14.3961C43.8803 8.54912 39.0042 3.90017 33.0975 4.00163H26.5C20.7642 3.93905 16.0632 8.49152 16 14.1696C15.9991 14.2451 15.9991 14.3206 16 14.3961V21.4817C15.7195 21.3809 15.4235 21.3282 15.125 21.3258H11.625C10.1752 21.3258 9 22.4893 9 23.9245C9 25.3597 10.1752 26.5231 11.625 26.5231H12.5V31.8503C12.5048 33.2117 13.6185 34.3142 14.9938 34.319H16.1225C16.5204 35.8447 17.9083 36.9125 19.5 36.9176H25.625V39.5162C25.625 39.9946 26.0168 40.3824 26.5 40.3824H27.375V42.9811C27.376 43.0627 27.3165 43.1328 27.235 43.1456L19.99 44.341C18.1978 44.6369 16.7768 45.9988 16.42 47.7625L16.07 49.495C14.3742 50.4136 13.7518 52.519 14.6797 54.1977C15.6077 55.8764 17.7345 56.4926 19.4302 55.574C20.5603 54.9618 21.2594 53.7847 21.25 52.5094C21.2488 52.2854 21.2254 52.0619 21.18 51.8424L21.9062 48.9579L27.3313 48.2823V50.2312C26.0527 51.6664 26.1915 53.8559 27.6412 55.1216C29.091 56.3874 31.3027 56.25 32.5812 54.8148C33.748 53.5052 33.748 51.5408 32.5812 50.2312V48.2909L38.0063 48.9666L38.75 51.8511C38.7286 52.07 38.7286 52.2904 38.75 52.5094C38.7408 54.4229 40.3003 55.9816 42.2333 55.9907C44.1662 55.9998 45.7407 54.456 45.7499 52.5424C45.756 51.2702 45.0573 50.097 43.93 49.4863L43.58 47.7539C43.2232 45.9902 41.8022 44.6283 40.01 44.3324L32.765 43.137C32.6868 43.1246 32.6282 43.0595 32.625 42.9811V40.3824H33.5C33.9832 40.3824 34.375 39.9946 34.375 39.5162V36.9176H40.5C42.0917 36.9125 43.4796 35.8447 43.8775 34.319H45.0063C46.3815 34.3142 47.4952 33.2117 47.5 31.8503V26.5231H48.375C49.8248 26.5231 51 25.3597 51 23.9245C51 22.4893 49.8247 21.3258 48.375 21.3258ZM16 32.5866H14.9938C14.583 32.5866 14.25 32.257 14.25 31.8503V26.5231H15.125C15.4235 26.5207 15.7195 26.468 16 26.3672V32.5866ZM15.125 24.7907H11.625C11.1418 24.7907 10.75 24.4028 10.75 23.9245C10.75 23.4461 11.1418 23.0582 11.625 23.0582H15.125C15.6082 23.0582 16 23.4461 16 23.9245C16 24.4028 15.6082 24.7907 15.125 24.7907ZM17.75 54.2418C16.7835 54.2418 16 53.4662 16 52.5094C16 51.5525 16.7835 50.777 17.75 50.777C18.7165 50.777 19.5 51.5525 19.5 52.5094C19.5 53.4662 18.7164 54.2418 17.75 54.2418ZM30 54.2418C29.0335 54.2418 28.25 53.4662 28.25 52.5094C28.25 51.5525 29.0335 50.777 30 50.777C30.9665 50.777 31.75 51.5525 31.75 52.5094C31.75 53.4662 30.9664 54.2418 30 54.2418ZM44 52.5094C44 53.4662 43.2165 54.2418 42.25 54.2418C41.2835 54.2418 40.5 53.4662 40.5 52.5094C40.5 51.5525 41.2835 50.777 42.25 50.777C43.2165 50.777 44 51.5525 44 52.5094ZM39.7213 46.0388C40.7973 46.2157 41.6507 47.033 41.865 48.0917L42.0575 49.0445C41.3315 49.0882 40.6373 49.3545 40.0713 49.8068L39.625 47.9704C39.537 47.6222 39.2412 47.3639 38.8813 47.3208L31.8813 46.4546C31.6343 46.4247 31.386 46.5003 31.1988 46.6625C31.0001 46.8218 30.8819 47.0592 30.875 47.3121V49.1658C30.3031 49.004 29.6969 49.004 29.125 49.1658V47.3121C29.1247 47.0633 29.0163 46.8267 28.8275 46.6625C28.6402 46.5003 28.392 46.4247 28.145 46.4546L21.145 47.3208C20.785 47.3639 20.4893 47.6222 20.4013 47.9704L19.9288 49.8241C19.3649 49.3657 18.6705 49.093 17.9425 49.0445L18.135 48.0744C18.3494 47.0157 19.2027 46.1984 20.2787 46.0215L27.5238 44.8261C28.4399 44.6786 29.1157 43.8998 29.125 42.9811V40.3824H30.875V42.9811C30.8758 43.9064 31.5537 44.6949 32.4762 44.8434L39.7213 46.0388ZM32.625 38.65H27.375V36.9176H32.625V38.65ZM39.87 35.1852H33.5H20.13C18.9264 35.2035 17.9015 34.3231 17.75 33.1409C17.9039 32.3074 18.6442 31.7065 19.5 31.7203H40.5C41.3558 31.7065 42.0961 32.3074 42.25 33.1409C42.0985 34.3231 41.0735 35.2035 39.87 35.1852ZM42.25 30.473C41.7215 30.1581 41.1169 29.9905 40.5 29.9879H19.5C18.8831 29.9905 18.2785 30.1581 17.75 30.473V14.3961C17.6965 9.66512 21.5274 5.787 26.3064 5.73405C26.3709 5.73329 26.4355 5.73329 26.5 5.73405H33.0975C38.0379 5.63238 42.1306 9.50585 42.25 14.3961V30.473ZM45.75 31.8503C45.75 32.2568 45.4171 32.5866 45.0063 32.5866H44V26.3672C44.2805 26.468 44.5765 26.5207 44.875 26.5231H45.75V31.8503ZM48.375 24.7907H44.875C44.3918 24.7907 44 24.4028 44 23.9245C44 23.4461 44.3918 23.0582 44.875 23.0582H48.375C48.8582 23.0582 49.25 23.4461 49.25 23.9245C49.25 24.4028 48.8582 24.7907 48.375 24.7907Z" fill="#43C951"/>
</svg>
