<svg width="50" height="50" viewBox="0 0 50 50" fill="none" xmlns="http://www.w3.org/2000/svg">
<g clip-path="url(#clip0)">
<path d="M37.3779 17.7154C37.0768 17.5364 36.7696 17.3522 36.4562 17.1529L36.4576 14.5833H36.4583C37.0341 14.5833 37.5 14.1174 37.5 13.5416V7.2916C37.5 3.27148 34.2285 0 30.2083 0H18.75C17.6005 0 16.6667 0.934863 16.6667 2.0833H14.5834C13.4339 2.0833 12.5001 3.01816 12.5001 4.1666V6.25C12.5001 7.39844 13.434 8.3333 14.5834 8.3333H16.6667C16.6667 9.48174 17.6006 10.4166 18.75 10.4166H19.9286L16.8416 15.0472C16.6279 15.3666 16.6076 15.7775 16.7907 16.1163C16.9718 16.4551 17.3237 16.6666 17.7083 16.6666H19.7916C20.0175 16.6666 20.2372 16.5934 20.4162 16.4581L27.0833 11.4578V13.5417C27.0833 14.1175 27.5492 14.5834 28.125 14.5834V17.1591L28.0151 17.2354C24.1618 19.8608 20.8333 22.1294 20.8333 38.5417V45.8334C20.8333 48.1313 22.703 50 25 50H39.5833C41.8803 50 43.75 48.1313 43.75 45.8333V38.5416C43.75 22.3439 41.3289 20.0755 37.3779 17.7154ZM16.6667 6.25H14.5834V4.1667H16.6667V6.25ZM19.8649 14.268L22.4325 10.4166H25.0006L19.8649 14.268ZM18.75 8.3333V2.0833H30.2083C33.081 2.0833 35.4166 4.41992 35.4166 7.2916V12.5H29.1666V9.375C29.1666 8.79922 28.7007 8.3333 28.1249 8.3333H18.75ZM29.187 18.9565L29.7587 18.5649C30.0415 18.3706 30.2083 18.0502 30.2083 17.7084V14.5834H34.375L34.3729 17.7094C34.3729 18.0521 34.5397 18.3716 34.8226 18.5669C35.3292 18.9179 35.8256 19.2159 36.3098 19.5048C38.7579 20.9668 40.7833 22.1888 41.4401 31.25H23.1955C23.9809 22.5056 26.3408 20.896 29.187 18.9565ZM41.6667 45.8333C41.6667 46.9817 40.7328 47.9166 39.5834 47.9166H25C23.8505 47.9166 22.9167 46.9817 22.9167 45.8333V43.75H41.6667V45.8333V45.8333ZM41.6667 41.6667H22.9167V38.5417C22.9167 36.5973 22.9623 34.8733 23.0475 33.3334H41.562C41.6302 34.8716 41.6668 36.5952 41.6668 38.5417V41.6667H41.6667Z" fill="#43C951" stroke="#43C951" stroke-width="0.3"/>
<path d="M10.4167 5.20826C10.4167 4.63248 9.95078 4.16656 9.375 4.16656H7.2917C6.71592 4.16666 6.25 4.63258 6.25 5.20826C6.25 5.78405 6.71592 6.24996 7.2917 6.24996H9.375C9.95078 6.24996 10.4167 5.78405 10.4167 5.20826Z" fill="#43C951" stroke="#43C951" stroke-width="0.3"/>
<path d="M7.86748 1.97345L9.94883 3.01515C10.0974 3.08937 10.2581 3.12501 10.4147 3.12501C10.7952 3.12501 11.1635 2.91447 11.3466 2.54923C11.6029 2.03556 11.3954 1.4089 10.8807 1.15148L8.79922 0.109877C8.29258 -0.143443 7.65986 0.0600728 7.40146 0.575795C7.14521 1.08947 7.35273 1.71613 7.86748 1.97345Z" fill="#43C951" stroke="#43C951" stroke-width="0.3"/>
<path d="M9.95079 7.40158L7.86749 8.44318C7.35275 8.7005 7.14522 9.32618 7.40157 9.84093C7.58468 10.2062 7.95294 10.4167 8.33341 10.4167C8.49005 10.4167 8.64874 10.3811 8.79933 10.3068L10.8826 9.26515C11.3974 9.00782 11.6049 8.38214 11.3485 7.8674C11.0901 7.35275 10.4676 7.14728 9.95079 7.40158Z" fill="#43C951" stroke="#43C951" stroke-width="0.3"/>
</g>
<defs>
<clipPath id="clip0">
<path d="M0 0H50V50H0V0Z" fill="white"/>
</clipPath>
</defs>
</svg>
