<svg width="60" height="60" viewBox="0 0 60 60" fill="none" xmlns="http://www.w3.org/2000/svg">
<path d="M47.9484 31.2216C49.0856 33.1097 49.6875 35.2809 49.6875 37.5C49.6875 44.22 44.22 49.6875 37.5 49.6875C30.78 49.6875 25.3125 44.22 25.3125 37.5C25.3125 30.78 30.78 25.3125 37.5 25.3125C39.6844 25.3125 41.8266 25.8975 43.6959 27.0028L44.6503 25.3884C42.4922 24.1125 40.02 23.4375 37.5 23.4375C29.7459 23.4375 23.4375 29.7459 23.4375 37.5C23.4375 45.2541 29.7459 51.5625 37.5 51.5625C45.2541 51.5625 51.5625 45.2541 51.5625 37.5C51.5625 34.9397 50.8678 32.4347 49.5534 30.2541L47.9484 31.2216Z" fill="#43C951"/>
<path d="M58.1252 24.375C58.6436 24.375 59.0627 23.955 59.0627 23.4375C59.0627 22.92 58.6436 22.5 58.1252 22.5C55.5405 22.5 53.4377 20.3972 53.4377 17.8125C53.4377 17.295 53.0186 16.875 52.5002 16.875C51.9817 16.875 51.5627 17.295 51.5627 17.8125C51.5627 18.8062 51.2467 19.7259 50.7171 20.4853C47.1939 17.7478 42.888 16.1719 38.4274 15.9778C38.433 15.8437 38.4199 15.7078 38.3664 15.5794C38.2221 15.2288 37.8789 15 37.5002 15H33.9255C35.4686 14.205 36.9002 13.1756 38.163 11.9128C38.4311 11.6447 38.5117 11.2416 38.3664 10.8909C38.2221 10.5412 37.8789 10.3125 37.5002 10.3125H33.9255C35.4686 9.5175 36.9002 8.48812 38.163 7.22531C38.4311 6.95719 38.5117 6.55406 38.3664 6.20344C38.2221 5.85375 37.8789 5.625 37.5002 5.625H33.9255C35.4686 4.83 36.9002 3.80062 38.163 2.53781C38.4311 2.26969 38.5117 1.86656 38.3664 1.51594C38.2221 1.16625 37.8789 0.9375 37.5002 0.9375H1.87518C1.49643 0.9375 1.1533 1.16625 1.00893 1.51594C0.863615 1.86656 0.94424 2.26969 1.21236 2.53781C2.47518 3.80062 3.90674 4.83 5.44987 5.625H1.87518C1.49643 5.625 1.1533 5.85375 1.00893 6.20344C0.863615 6.55406 0.94424 6.95719 1.21236 7.22531C2.47518 8.48812 3.90674 9.5175 5.44987 10.3125H1.87518C1.49643 10.3125 1.1533 10.5412 1.00893 10.8909C0.863615 11.2416 0.94424 11.6447 1.21236 11.9128C2.47518 13.1756 3.90674 14.205 5.44987 15H1.87518C1.49643 15 1.1533 15.2288 1.00893 15.5784C0.863615 15.9291 0.94424 16.3322 1.21236 16.6003C2.47518 17.8631 3.90674 18.8925 5.44987 19.6875H1.87518C1.49643 19.6875 1.1533 19.9163 1.00893 20.2659C0.863615 20.6166 0.94424 21.0197 1.21236 21.2878C2.47518 22.5506 3.90674 23.58 5.44987 24.375H1.87518C1.49643 24.375 1.1533 24.6038 1.00893 24.9534C0.863615 25.3041 0.94424 25.7072 1.21236 25.9753C2.47518 27.2381 3.90674 28.2675 5.44987 29.0625H1.87518C1.49643 29.0625 1.1533 29.2913 1.00893 29.6409C0.863615 29.9916 0.94424 30.3947 1.21236 30.6628C2.47518 31.9256 3.90674 32.955 5.44987 33.75H1.87518C1.49643 33.75 1.1533 33.9788 1.00893 34.3284C0.863615 34.6791 0.94424 35.0822 1.21236 35.3503C2.47518 36.6131 3.90674 37.6425 5.44987 38.4375H1.87518C1.49643 38.4375 1.1533 38.6663 1.00893 39.0159C0.863615 39.3666 0.94424 39.7697 1.21236 40.0378C2.47518 41.3006 3.90674 42.33 5.44987 43.125H1.87518C1.49643 43.125 1.1533 43.3538 1.00893 43.7034C0.863615 44.0541 0.94424 44.4572 1.21236 44.7253C4.41111 47.925 8.66643 49.6875 13.1917 49.6875H19.7242C23.6158 55.3444 30.1305 59.0625 37.5002 59.0625C49.3905 59.0625 59.0627 49.3894 59.0627 37.5C59.0627 33.1153 57.753 28.9388 55.2958 25.35C56.0842 24.7472 57.0583 24.375 58.1252 24.375ZM52.5002 21.1903C53.0542 22.11 53.8286 22.8834 54.7474 23.4375C53.8286 23.9916 53.0533 24.7659 52.5002 25.6847C51.9461 24.765 51.1717 23.9916 50.253 23.4375C51.1717 22.8834 51.9461 22.1091 52.5002 21.1903ZM4.41955 2.8125H34.9558C32.4152 4.63969 29.3749 5.625 26.1836 5.625H13.1917C10.0005 5.625 6.96018 4.63969 4.41955 2.8125ZM4.41955 7.5H13.1917H26.1827H34.9549C32.4142 9.32719 29.3739 10.3125 26.1827 10.3125H13.1917C10.0005 10.3125 6.96018 9.32719 4.41955 7.5ZM4.41955 12.1875H13.1917H26.1827H34.9549C32.4142 14.0147 29.3739 15 26.1827 15H13.1917C10.0005 15 6.96018 14.0147 4.41955 12.1875ZM4.41955 16.875H13.1917H26.1827H31.2124C29.1096 17.5172 27.1417 18.4725 25.3642 19.6875H13.1917C10.0005 19.6875 6.96018 18.7022 4.41955 16.875ZM4.41955 21.5625H13.1917H22.9914C22.0492 22.4203 21.1867 23.3634 20.4086 24.375H13.1917C10.0005 24.375 6.96018 23.3897 4.41955 21.5625ZM4.41955 26.25H13.1917H19.113C18.5627 27.1462 18.0752 28.0856 17.658 29.0625H13.1917C10.0005 29.0625 6.96018 28.0772 4.41955 26.25ZM4.41955 30.9375H13.1917H16.9614C16.6689 31.8497 16.4392 32.7891 16.2705 33.75H13.1917C10.0005 33.75 6.96018 32.7647 4.41955 30.9375ZM4.41955 35.625H13.1917H16.0239C15.9705 36.2438 15.9377 36.8681 15.9377 37.5C15.9377 37.8141 15.948 38.1263 15.9611 38.4375H13.1917C10.0005 38.4375 6.96018 37.4522 4.41955 35.625ZM4.41955 40.3125H13.1917H16.1271C16.2527 41.2706 16.4392 42.21 16.6867 43.125H13.1917C10.0005 43.125 6.96018 42.1397 4.41955 40.3125ZM13.1917 47.8125C10.0005 47.8125 6.96018 46.8272 4.41955 45H13.1917H17.2849C17.6467 45.9722 18.0761 46.9116 18.5683 47.8125H13.1917ZM37.5002 57.1875C26.6449 57.1875 17.8127 48.3563 17.8127 37.5C17.8127 26.6437 26.6449 17.8125 37.5002 17.8125C41.7733 17.8125 45.9349 19.2281 49.3314 21.7866C48.6152 22.2309 47.7789 22.5 46.8752 22.5C46.3567 22.5 45.9377 22.92 45.9377 23.4375C45.9377 23.955 46.3567 24.375 46.8752 24.375C49.4599 24.375 51.5627 26.4778 51.5627 29.0625C51.5627 29.58 51.9817 30 52.5002 30C53.0186 30 53.4377 29.58 53.4377 29.0625C53.4377 28.2469 53.6655 27.4913 54.0339 26.8219C56.0955 30.0028 57.1877 33.6656 57.1877 37.5C57.1877 48.3563 48.3555 57.1875 37.5002 57.1875Z" fill="#43C951"/>
</svg>
