<svg width="60" height="60" viewBox="0 0 60 60" fill="none" xmlns="http://www.w3.org/2000/svg">
<g clip-path="url(#clip0)">
<path d="M34.4906 11.555L34.2615 11.8169L34.5828 11.9505C38.408 13.5404 42.0455 17.1093 45.1125 22.4222C48.7656 28.7507 51.033 36.7596 51.0331 43.3097C51.0331 46.5859 50.46 49.3859 49.3416 51.6403C48.2743 53.792 46.6772 55.527 44.5911 56.799C41.2607 58.8297 36.7754 59.75 30.0001 59.75C23.2246 59.75 18.7394 58.8297 15.409 56.799C13.3229 55.5268 11.7259 53.792 10.6585 51.6403C9.54017 49.3859 8.96704 46.5859 8.96704 43.3097C8.96704 36.7595 11.2344 28.7509 14.8875 22.4223C17.9545 17.1094 21.5921 13.5405 25.4172 11.9506L25.7385 11.8171L25.5094 11.5552C24.6772 10.6038 23.8552 9.37307 23.039 7.85012C21.5537 5.07874 20.6413 2.34558 20.6044 2.2345L19.9466 0.25H40.0533L39.3955 2.23438C39.3955 2.2344 39.3955 2.23441 39.3955 2.23442C39.3585 2.34615 38.446 5.07885 36.961 7.85001L37.1765 7.96552L36.961 7.85001C36.1448 9.37307 35.3229 10.6036 34.4906 11.555ZM24.5986 3.26906H24.2214L24.3683 3.61642C24.7285 4.46834 25.1861 5.46863 25.7199 6.46084C26.6021 8.10087 27.4266 9.22614 28.1435 9.9452C28.8494 10.6533 29.4887 11.005 30 11.005C30.5113 11.005 31.1505 10.6533 31.8564 9.9452C32.5733 9.22614 33.3979 8.10087 34.2801 6.46084C34.8138 5.46863 35.2714 4.46847 35.6316 3.61641L35.7785 3.26906H35.4014H24.5986ZM26.9495 15.0782L27.2701 14.4675L26.6327 14.731C23.3822 16.0745 20.1858 19.2825 17.502 23.9317C14.1012 29.8233 11.986 37.2433 11.986 43.3097C11.986 48.6331 13.555 52.1325 16.9807 54.2213C19.808 55.9454 23.961 56.7309 30 56.7309C36.0389 56.7309 40.1919 55.9454 43.0193 54.2213C46.4448 52.1325 48.014 48.6331 48.0137 43.3097C48.0137 37.2432 45.8986 29.8233 42.4977 23.9317C39.8138 19.2825 36.6175 16.0745 33.367 14.731L32.7297 14.4675L33.0502 15.0782L36.2507 21.1763L33.5774 22.5793L31.9806 19.537L31.5093 19.6531V23.5912H28.4902V21.7472V19.6531L28.0188 19.537L26.4221 22.5793L23.7489 21.1763L26.9495 15.0782Z" fill="#43C951" stroke="#FCFCFC" stroke-width="0.5"/>
<path d="M15.6147 42.8453C15.6147 40.1721 16.2275 37.0757 17.3476 34.1032L20.1636 35.192C19.1779 37.8146 18.6338 40.522 18.6338 42.8454C18.6338 44.5608 18.9382 45.9929 19.5591 47.0898L17.0032 48.7007C16.0867 47.1436 15.6147 45.1793 15.6147 42.8453Z" fill="#43C951" stroke="#FCFCFC" stroke-width="0.5"/>
</g>
<defs>
<clipPath id="clip0">
<path d="M0 0H60V60H0V0Z" fill="white"/>
</clipPath>
</defs>
</svg>
