<svg width="50" height="50" viewBox="0 0 50 50" fill="none" xmlns="http://www.w3.org/2000/svg">
<g clip-path="url(#clip0)">
<path d="M45.8333 41.6667H43.7502L43.757 8.33438C43.758 6.10859 42.8913 4.01514 41.3177 2.44141C39.744 0.866699 37.6506 0 35.4248 0C30.8299 0 27.0925 3.7374 27.0925 8.33232V15.6158C27.0925 18.8643 25.4318 21.7291 22.9167 23.4142V20.6414C24.1266 20.2101 25 19.0646 25 17.7083C25 15.9851 23.5982 14.5833 21.875 14.5833H20.7279C20.2439 12.2089 18.14 10.4166 15.625 10.4166H9.375C6.85996 10.4166 4.75605 12.2089 4.27207 14.5833H3.125C1.40176 14.5833 0 15.9851 0 17.7083C0 19.0646 0.873438 20.21 2.0833 20.6414V41.8585C0.873438 42.2899 0 43.4354 0 44.7917C0 46.1613 0.891406 47.315 2.11992 47.7361C2.11416 47.7987 2.0833 47.8527 2.0833 47.9167C2.0833 49.0651 3.01816 50 4.1666 50C5.31514 50 6.25 49.0651 6.25 47.9167H18.75C18.75 49.0651 19.6849 50 20.8333 50C21.9817 50 22.9166 49.0651 22.9166 47.9167C22.9166 47.8527 22.8857 47.7987 22.88 47.7361C24.1086 47.3149 25 46.1612 25 44.7917C25 43.4354 24.1266 42.29 22.9167 41.8586V30.339C28.9803 28.1866 33.3425 22.4079 33.3425 15.6159V8.3333C33.3425 7.18486 34.2773 6.25 35.4258 6.25C35.9822 6.25 36.5051 6.4667 36.8987 6.86035C37.2914 7.254 37.5081 7.77686 37.5081 8.3333L37.5002 41.6666H35.4166C33.1187 41.6666 31.2499 43.5353 31.2499 45.8333V46.875C31.2499 47.4508 31.7158 47.9167 32.2916 47.9167H33.3333V48.9584C33.3333 49.5342 33.7992 50.0001 34.375 50.0001H46.875C47.4508 50.0001 47.9167 49.5342 47.9167 48.9584V47.9167H48.9584C49.5342 47.9167 50.0001 47.4508 50.0001 46.875V45.8333C50 43.5354 48.1313 41.6667 45.8333 41.6667ZM9.375 12.5H15.625C16.9812 12.5 18.1267 13.3734 18.5581 14.5833H6.44189C6.87334 13.3734 8.01875 12.5 9.375 12.5ZM3.125 16.6667H21.875C22.4497 16.6667 22.9167 17.1336 22.9167 17.7084C22.9167 18.2831 22.4498 18.7501 21.875 18.7501H3.125C2.55029 18.7501 2.0833 18.2832 2.0833 17.7084C2.0833 17.1336 2.55029 16.6667 3.125 16.6667ZM17.7083 31.25C18.7783 31.25 19.8231 31.1408 20.8333 30.9351V41.6667H4.1667V20.8333H20.8334V24.4246C19.851 24.7744 18.8095 25 17.7084 25C15.9852 25 14.5834 26.4018 14.5834 28.125C14.5834 29.8482 15.9852 31.25 17.7083 31.25ZM21.875 45.8333H3.125C2.55029 45.8333 2.0833 45.3664 2.0833 44.7916C2.0833 44.2168 2.55029 43.75 3.125 43.75H21.875C22.4497 43.75 22.9167 44.2169 22.9167 44.7917C22.9167 45.3665 22.4497 45.8333 21.875 45.8333ZM35.4258 4.1667C33.1278 4.1667 31.2591 6.03535 31.2591 8.3334V15.6159C31.2591 23.0876 25.18 29.1667 17.7083 29.1667C17.1336 29.1667 16.6666 28.6998 16.6666 28.125C16.6666 27.5502 17.1335 27.0833 17.7083 27.0833C24.0315 27.0833 29.1758 21.9391 29.1758 15.6158V8.33232C29.1758 4.88691 31.9793 2.0833 35.4248 2.0833C37.0941 2.0833 38.6638 2.7333 39.8438 3.91436C41.0248 5.09434 41.6738 6.66504 41.6738 8.33428L41.667 41.6666H39.5837L39.5916 8.33428C39.5926 7.22139 39.1593 6.17461 38.3719 5.3873C37.5845 4.6 36.5387 4.1667 35.4258 4.1667ZM33.3333 45.8333C33.3333 44.6849 34.2682 43.75 35.4166 43.75H45.8333C46.9817 43.75 47.9166 44.6849 47.9166 45.8333H33.3333V45.8333Z" fill="#43C951"/>
<path d="M9.375 22.9167H7.2917C6.71592 22.9167 6.25 23.3826 6.25 23.9584C6.25 24.5341 6.71592 25 7.2917 25H9.375C9.95078 25 10.4167 24.5341 10.4167 23.9583C10.4167 23.3826 9.95078 22.9167 9.375 22.9167Z" fill="#43C951"/>
<path d="M9.375 27.0833H7.2917C6.71592 27.0833 6.25 27.5492 6.25 28.125C6.25 28.7008 6.71592 29.1667 7.2917 29.1667H9.375C9.95078 29.1667 10.4167 28.7008 10.4167 28.125C10.4167 27.5492 9.95078 27.0833 9.375 27.0833Z" fill="#43C951"/>
</g>
<defs>
<clipPath id="clip0">
<path d="M0 0H50V50H0V0Z" fill="white"/>
</clipPath>
</defs>
</svg>
