<svg width="125" height="153" viewBox="0 0 125 153" fill="none" xmlns="http://www.w3.org/2000/svg">
<path fill-rule="evenodd" clip-rule="evenodd" d="M11.9966 141.207H9.4343V135.415H9.37803L7.12703 141.088H5.55475L3.30375 135.415H3.24748V141.207H0.684814V131.21H4.07968L6.31617 137.042H6.37244L8.60342 131.21H11.9966V141.207Z" fill="#FCFCFC"/>
<path fill-rule="evenodd" clip-rule="evenodd" d="M17.9962 138.836C18.2083 138.476 18.3148 137.969 18.3148 137.313C18.3148 136.671 18.2059 136.168 17.989 135.804C17.7759 135.443 17.4864 135.264 17.1164 135.264C16.7475 135.264 16.4552 135.443 16.2434 135.804C16.0265 136.168 15.919 136.671 15.919 137.313C15.919 137.969 16.0241 138.476 16.2372 138.836C16.4444 139.189 16.738 139.364 17.1164 139.364C17.4912 139.364 17.7833 139.189 17.9962 138.836ZM14.1298 140.341C13.4007 139.62 13.0366 138.609 13.0366 137.306C13.0366 136.036 13.4069 135.036 14.1445 134.307C14.8749 133.586 15.865 133.226 17.1164 133.226C18.377 133.226 19.3697 133.584 20.0955 134.3C20.8292 135.03 21.1959 136.031 21.1959 137.306C21.1959 138.613 20.834 139.625 20.1097 140.341C19.3936 141.047 18.395 141.402 17.1164 141.402C15.8422 141.402 14.8471 141.047 14.1298 140.341Z" fill="#FCFCFC"/>
<path fill-rule="evenodd" clip-rule="evenodd" d="M22.9276 133.925C23.5694 133.46 24.4543 133.226 25.5811 133.226C26.7076 133.226 27.5902 133.463 28.2272 133.94C28.869 134.42 29.1899 135.083 29.1899 135.927H26.6133C26.6085 135.669 26.5115 135.466 26.3221 135.318C26.133 135.166 25.8792 135.091 25.5608 135.091C25.2923 135.091 25.0792 135.141 24.9223 135.243C24.7608 135.344 24.6807 135.477 24.6807 135.645C24.6807 135.897 24.9369 136.073 25.4494 136.171L27.1879 136.516C27.9592 136.668 28.5253 136.917 28.8857 137.258C29.2401 137.604 29.4187 138.073 29.4187 138.665C29.4187 139.499 29.0727 140.168 28.3793 140.667C27.6957 141.155 26.7831 141.401 25.6433 141.401C24.4567 141.401 23.5239 141.155 22.8451 140.667C22.1887 140.19 21.8357 139.533 21.7854 138.691H24.5273C24.5595 138.955 24.6783 139.16 24.8816 139.308C25.0842 139.461 25.35 139.538 25.6779 139.538C26.296 139.538 26.6059 139.359 26.6059 139.004C26.6059 138.763 26.357 138.594 25.8575 138.497L24.3619 138.2C22.7589 137.882 21.9578 137.092 21.9578 135.831C21.9578 135.023 22.281 134.388 22.9276 133.925Z" fill="#FCFCFC"/>
<path fill-rule="evenodd" clip-rule="evenodd" d="M31.441 140.029C30.5538 139.115 30.1108 137.84 30.1108 136.207C30.1108 134.57 30.5561 133.296 31.4482 132.381C32.3211 131.485 33.5281 131.038 35.0704 131.038C36.4006 131.038 37.5048 131.428 38.3822 132.209C39.2636 132.999 39.708 134.008 39.7113 135.236H36.8999C36.8677 134.667 36.6796 134.21 36.3385 133.865C36.0066 133.518 35.5829 133.345 35.0704 133.345C34.4656 133.345 33.988 133.596 33.637 134.101C33.2814 134.613 33.1029 135.312 33.1029 136.199C33.1029 137.1 33.2814 137.804 33.637 138.311C33.983 138.819 34.4632 139.073 35.0776 139.073C35.5853 139.073 36.0066 138.903 36.3385 138.561C36.6759 138.214 36.8678 137.753 36.9131 137.175H39.7259C39.7211 138.417 39.2803 139.429 38.4026 140.21C37.5347 140.99 36.4247 141.381 35.0704 141.381C33.5281 141.381 32.3188 140.93 31.441 140.029Z" fill="#FCFCFC"/>
<path fill-rule="evenodd" clip-rule="evenodd" d="M40.7312 130.691H43.5714V141.207H40.7312V130.691Z" fill="#FCFCFC"/>
<path fill-rule="evenodd" clip-rule="evenodd" d="M47.679 135.519C47.4492 135.741 47.3185 136.024 47.291 136.372H49.7708C49.7481 136.011 49.6235 135.723 49.3971 135.505C49.171 135.294 48.8822 135.188 48.5316 135.188C48.1938 135.188 47.9102 135.297 47.679 135.519ZM52.3894 138.691C52.2697 139.528 51.8688 140.188 51.1848 140.673C50.4966 141.158 49.6235 141.401 48.5662 141.401C47.2958 141.401 46.3006 141.042 45.5801 140.327C44.8639 139.611 44.5071 138.621 44.5071 137.355C44.5071 136.085 44.8639 135.078 45.5801 134.335C46.2911 133.596 47.2564 133.226 48.4763 133.226C49.6761 133.226 50.6353 133.582 51.3502 134.293C52.0664 135.004 52.4244 135.955 52.4244 137.146V137.916H47.2503V138.096C47.2503 138.492 47.3772 138.817 47.6311 139.066C47.885 139.32 48.2105 139.447 48.6069 139.447C49.2535 139.447 49.6704 139.195 49.8547 138.691H52.3894Z" fill="#FCFCFC"/>
<path fill-rule="evenodd" clip-rule="evenodd" d="M57.5909 139.148C57.8448 138.969 57.9717 138.735 57.9717 138.449V137.936L56.7179 138.027C56.1263 138.068 55.8317 138.302 55.8317 138.726C55.8317 138.939 55.9122 139.108 56.0737 139.231C56.2306 139.352 56.4437 139.412 56.7118 139.412C57.0533 139.412 57.3465 139.323 57.5909 139.148ZM53.8081 140.66C53.2922 140.202 53.0322 139.629 53.0322 138.94C53.0322 137.454 54.1064 136.646 56.2546 136.516L57.9717 136.412V136.019C57.9717 135.759 57.8818 135.556 57.7023 135.408C57.5261 135.265 57.2949 135.192 57.0088 135.192C56.7179 135.192 56.4759 135.265 56.2821 135.408C56.0965 135.547 55.9936 135.72 55.9696 135.928H53.4348C53.4718 135.101 53.8203 134.445 54.4812 133.96C55.1457 133.47 56.0391 133.226 57.1623 133.226C58.2327 133.226 59.0982 133.47 59.7594 133.96C60.4142 134.45 60.7425 135.089 60.7425 135.88V141.207H57.9717V140.153H57.9164C57.7178 140.522 57.4039 140.812 56.9742 141.019C56.573 141.217 56.1335 141.317 55.6582 141.317C54.9289 141.317 54.3125 141.098 53.8081 140.66Z" fill="#FCFCFC"/>
<path fill-rule="evenodd" clip-rule="evenodd" d="M61.8516 133.42H64.6223V134.943H64.6773C65.0832 133.826 65.9035 133.268 67.137 133.268C68.0096 133.268 68.6899 133.527 69.1807 134.044C69.6695 134.561 69.9148 135.287 69.9148 136.218V141.207H67.0746V136.848C67.0746 136.447 66.9704 136.133 66.7633 135.907C66.5501 135.676 66.2593 135.561 65.8904 135.561C65.5394 135.561 65.2499 135.681 65.0234 135.921C64.8018 136.166 64.6919 136.475 64.6919 136.848V141.207H61.8516V133.42Z" fill="#FCFCFC"/>
<path fill-rule="evenodd" clip-rule="evenodd" d="M73.6277 138.263C73.6697 138.539 73.8432 138.768 74.1476 138.948C74.4432 139.119 74.7915 139.205 75.1941 139.205C75.6274 139.205 75.9734 139.126 76.232 138.969C76.4873 138.812 76.6142 138.611 76.6142 138.367C76.6142 138.136 76.5076 137.957 76.2955 137.834C76.0921 137.713 75.7185 137.604 75.1736 137.507L73.8506 137.272C72.9356 137.116 72.2329 136.78 71.7442 136.268C71.2595 135.764 71.0162 135.119 71.0162 134.335C71.0162 133.338 71.4041 132.534 72.18 131.924C72.938 131.334 73.9213 131.038 75.1316 131.038C76.4476 131.038 77.4726 131.321 78.2067 131.89C78.9225 132.449 79.2853 133.217 79.2939 134.197H76.6142C76.6046 133.892 76.4631 133.648 76.1913 133.47C75.9279 133.295 75.5939 133.205 75.1869 133.205C74.8038 133.205 74.4996 133.279 74.2719 133.428C74.0458 133.575 73.9331 133.774 73.9331 134.023C73.9331 134.259 74.0421 134.445 74.2589 134.585C74.466 134.723 74.8108 134.833 75.2911 134.917L76.662 135.152C77.6317 135.323 78.3503 135.644 78.816 136.115C79.2783 136.582 79.5094 137.221 79.5094 138.034C79.5094 139.054 79.1144 139.867 78.3252 140.473C77.53 141.078 76.4679 141.381 75.1377 141.381C73.7896 141.381 72.7417 141.11 71.9934 140.57C71.2354 140.025 70.856 139.255 70.8499 138.263H73.6277Z" fill="#FCFCFC"/>
<path fill-rule="evenodd" clip-rule="evenodd" d="M83.4432 135.519C83.2123 135.741 83.083 136.024 83.0552 136.372H85.5352C85.5123 136.011 85.388 135.723 85.1615 135.505C84.9352 135.294 84.6466 135.188 84.2947 135.188C83.958 135.188 83.6743 135.297 83.4432 135.519ZM88.1539 138.691C88.0327 139.528 87.6319 140.188 86.9479 140.673C86.2606 141.158 85.3879 141.401 84.3293 141.401C83.0602 141.401 82.0651 141.042 81.3441 140.327C80.6283 139.611 80.2712 138.621 80.2712 137.355C80.2712 136.085 80.6283 135.078 81.3441 134.335C82.0556 133.596 83.0205 133.226 84.2407 133.226C85.4406 133.226 86.3984 133.582 87.1146 134.293C87.8304 135.004 88.1885 135.955 88.1885 137.146V137.916H83.0134V138.096C83.0134 138.492 83.1403 138.817 83.3942 139.066C83.6491 139.32 83.9736 139.447 84.3714 139.447C85.0179 139.447 85.4334 139.195 85.6177 138.691H88.1539Z" fill="#FCFCFC"/>
<path fill-rule="evenodd" clip-rule="evenodd" d="M89.0896 133.421H91.8603V134.944H91.9156C92.2018 133.854 92.8086 133.31 93.7379 133.31C93.9871 133.31 94.2107 133.347 94.4096 133.421V135.811C94.1595 135.704 93.8805 135.652 93.5713 135.652C92.477 135.652 91.9298 136.201 91.9298 137.3V141.208H89.0896V133.421Z" fill="#FCFCFC"/>
<path fill-rule="evenodd" clip-rule="evenodd" d="M100.352 141.207H97.0274L94.4851 133.42H97.5471L98.7038 138.899H98.7587L99.888 133.42H102.86L100.352 141.207Z" fill="#FCFCFC"/>
<path fill-rule="evenodd" clip-rule="evenodd" d="M103.338 133.42H106.178V141.207H103.338V133.42ZM103.754 132.582C103.477 132.323 103.338 132 103.338 131.612C103.338 131.224 103.477 130.901 103.754 130.642C104.026 130.389 104.361 130.262 104.758 130.262C105.156 130.262 105.49 130.389 105.763 130.642C106.039 130.901 106.178 131.224 106.178 131.612C106.178 132 106.039 132.323 105.763 132.582C105.49 132.836 105.156 132.963 104.758 132.963C104.361 132.963 104.026 132.836 103.754 132.582Z" fill="#FCFCFC"/>
<path fill-rule="evenodd" clip-rule="evenodd" d="M112.309 136.621C112.276 136.228 112.159 135.917 111.956 135.686C111.747 135.459 111.485 135.347 111.165 135.347C110.774 135.347 110.473 135.514 110.265 135.851C110.058 136.19 109.954 136.673 109.954 137.306C109.954 138.623 110.358 139.281 111.165 139.281C111.498 139.281 111.764 139.172 111.963 138.955C112.165 138.742 112.281 138.442 112.309 138.054H114.893C114.875 139.098 114.53 139.918 113.861 140.513C113.191 141.105 112.281 141.401 111.132 141.401C109.87 141.401 108.88 141.038 108.16 140.312C107.439 139.588 107.079 138.586 107.079 137.306C107.079 136.041 107.441 135.044 108.166 134.313C108.887 133.589 109.87 133.226 111.117 133.226C112.244 133.226 113.15 133.531 113.833 134.141C114.52 134.754 114.875 135.581 114.893 136.621H112.309Z" fill="#FCFCFC"/>
<path fill-rule="evenodd" clip-rule="evenodd" d="M118.723 135.519C118.492 135.741 118.362 136.024 118.335 136.372H120.815C120.792 136.011 120.667 135.723 120.441 135.505C120.215 135.294 119.926 135.188 119.575 135.188C119.238 135.188 118.954 135.297 118.723 135.519ZM123.433 138.691C123.314 139.528 122.911 140.188 122.229 140.673C121.54 141.158 120.667 141.401 119.61 141.401C118.34 141.401 117.345 141.042 116.624 140.327C115.908 139.611 115.551 138.621 115.551 137.355C115.551 136.085 115.908 135.078 116.624 134.335C117.335 133.596 118.3 133.226 119.52 133.226C120.72 133.226 121.678 133.582 122.394 134.293C123.11 135.004 123.468 135.955 123.468 137.146V137.916H118.294V138.096C118.294 138.492 118.421 138.817 118.675 139.066C118.929 139.32 119.253 139.447 119.651 139.447C120.297 139.447 120.714 139.195 120.899 138.691H123.433Z" fill="#FCFCFC"/>
<path fill-rule="evenodd" clip-rule="evenodd" d="M0 146.233H1.89896L2.86705 149.357L3.76463 146.233H5.53664L3.67554 151.248C3.46432 151.82 3.2471 152.206 3.02546 152.405C2.7133 152.688 2.23819 152.83 1.59866 152.83C1.33942 152.83 0.939595 152.794 0.396696 152.723L0.256376 151.468C0.514295 151.551 0.803935 151.592 1.12208 151.592C1.3333 151.592 1.50525 151.544 1.63637 151.447C1.76748 151.349 1.87922 151.175 1.96974 150.925L0 146.233ZM7.62108 146.373C7.83673 146.212 8.13236 146.131 8.5093 146.131C9.38998 146.131 10.0611 146.363 10.5227 146.827C10.9827 147.29 11.2134 147.869 11.2134 148.562C11.2134 149.248 10.9841 149.832 10.5273 150.313C10.0688 150.795 9.39621 151.035 8.5093 151.035C7.62562 151.035 6.95892 150.794 6.5081 150.308C6.05692 149.824 5.83241 149.034 5.83241 147.939C5.83241 146.925 6.02699 146.106 6.4159 145.482C6.80362 144.858 7.36302 144.533 8.09451 144.509L8.63741 144.491C9.12319 144.471 9.39167 144.408 9.44136 144.301H10.8696C10.8696 145.159 10.387 145.605 9.4247 145.64C8.77332 145.664 8.33138 145.728 8.09908 145.833C7.86535 145.937 7.70705 146.117 7.62108 146.373ZM8.5184 149.803C8.80649 149.803 9.02826 149.697 9.18356 149.485C9.33875 149.272 9.41571 148.969 9.41571 148.574C9.41571 148.183 9.33584 147.881 9.17742 147.673C9.01745 147.464 8.80494 147.36 8.53648 147.36C8.23941 147.36 8.0131 147.473 7.86079 147.702C7.70705 147.93 7.63003 148.227 7.63003 148.592C7.63003 148.972 7.70538 149.269 7.85769 149.482C8.01023 149.696 8.23018 149.803 8.5184 149.803ZM11.8636 148.592C11.8636 147.877 12.1047 147.286 12.5875 146.823C13.0716 146.358 13.7231 146.126 14.5451 146.126C15.4847 146.126 16.195 146.399 16.6747 146.943C17.0607 147.382 17.2536 147.924 17.2536 148.566C17.2536 149.287 17.0139 149.878 16.5359 150.34C16.0577 150.8 15.3956 151.031 14.5496 151.031C13.7956 151.031 13.1862 150.839 12.7201 150.456C12.1484 149.982 11.8636 149.361 11.8636 148.592ZM13.6659 148.587C13.6659 149.006 13.7502 149.315 13.9208 149.515C14.0896 149.715 14.3023 149.816 14.5586 149.816C14.818 149.816 15.0307 149.717 15.1965 149.519C15.364 149.322 15.4469 149.006 15.4469 148.569C15.4469 148.163 15.3626 147.86 15.1951 147.661C15.0275 147.464 14.8194 147.364 14.5722 147.364C14.3098 147.364 14.0925 147.465 13.9221 147.666C13.7519 147.868 13.6659 148.175 13.6659 148.587ZM18.1283 152.711V146.233H19.8116V146.927C20.0453 146.634 20.258 146.436 20.4526 146.334C20.7151 146.195 21.0047 146.126 21.3228 146.126C21.9502 146.126 22.4359 146.367 22.7797 146.847C23.1222 147.326 23.2941 147.92 23.2941 148.628C23.2941 149.408 23.107 150.003 22.733 150.415C22.3591 150.825 21.8853 151.03 21.3154 151.03C21.0377 151.03 20.7844 150.984 20.5567 150.89C20.329 150.795 20.1238 150.655 19.9444 150.469V152.711H18.1283ZM19.9322 148.592C19.9322 148.963 20.0092 149.239 20.1661 149.418C20.3214 149.598 20.5191 149.688 20.7573 149.688C20.9669 149.688 21.1417 149.602 21.2836 149.429C21.4254 149.257 21.4963 148.964 21.4963 148.552C21.4963 148.172 21.4224 147.893 21.2745 147.715C21.1282 147.536 20.9474 147.447 20.7363 147.447C20.5053 147.447 20.3138 147.537 20.1615 147.717C20.0078 147.896 19.9322 148.189 19.9322 148.592ZM29.3781 150.925H27.3511L26.6602 149.631C26.5518 149.424 26.4446 149.294 26.3405 149.242C26.2365 149.189 26.1067 149.162 25.9545 149.162V150.925H24.1551V146.237H25.9545V147.929C26.1008 147.915 26.2108 147.866 26.2819 147.783C26.3512 147.7 26.4536 147.519 26.5878 147.24C26.722 146.96 26.8427 146.755 26.9484 146.625C27.0539 146.495 27.1896 146.399 27.354 146.334C27.5201 146.269 27.7265 146.228 27.9738 146.21C28.2214 146.192 28.5891 146.183 29.0778 146.183V147.46H28.998C28.7566 147.46 28.5727 147.47 28.4459 147.489C28.3192 147.509 28.2183 147.549 28.1413 147.611C28.0643 147.673 27.9769 147.8 27.876 147.991C27.7764 148.183 27.6935 148.316 27.6269 148.391C27.5607 148.466 27.4625 148.516 27.3328 148.543C27.5832 148.568 27.7763 148.62 27.912 148.705C28.0462 148.788 28.2513 149.059 28.5259 149.515L29.3781 150.925ZM31.6056 147.752L29.8877 147.57C29.9526 147.27 30.0461 147.034 30.1683 146.862C30.2904 146.69 30.4655 146.54 30.6962 146.414C30.8606 146.322 31.0883 146.251 31.3763 146.201C31.6645 146.151 31.9767 146.126 32.3128 146.126C32.8514 146.126 33.2857 146.156 33.6114 146.216C33.9387 146.276 34.2118 146.403 34.4288 146.595C34.5828 146.728 34.7035 146.915 34.7924 147.157C34.8798 147.402 34.9235 147.633 34.9235 147.854V149.926C34.9235 150.147 34.9387 150.32 34.9657 150.445C34.9945 150.57 35.0548 150.73 35.1499 150.925H33.4622C33.3943 150.804 33.3506 150.712 33.3294 150.649C33.3083 150.586 33.2888 150.486 33.2676 150.35C33.0324 150.578 32.797 150.739 32.5649 150.836C32.2466 150.965 31.877 151.03 31.4564 151.03C30.8966 151.03 30.4715 150.901 30.1804 150.641C29.8908 150.383 29.7461 150.064 29.7461 149.684C29.7461 149.326 29.8501 149.033 30.0597 148.804C30.2692 148.574 30.6539 148.403 31.2165 148.292C31.892 148.156 32.3294 148.061 32.5302 148.006C32.7293 147.952 32.9419 147.88 33.165 147.792C33.165 147.57 33.1198 147.417 33.0293 147.328C32.9373 147.24 32.7775 147.195 32.5467 147.195C32.2525 147.195 32.0325 147.243 31.8845 147.337C31.77 147.411 31.6764 147.549 31.6056 147.752ZM33.165 148.697C32.9177 148.786 32.6599 148.865 32.3929 148.933C32.0279 149.029 31.7957 149.125 31.6991 149.219C31.598 149.317 31.5484 149.427 31.5484 149.551C31.5484 149.693 31.598 149.807 31.6961 149.898C31.7957 149.987 31.9403 150.032 32.132 150.032C32.3325 150.032 32.518 149.984 32.6915 149.887C32.8635 149.789 32.9856 149.67 33.0578 149.531C33.1302 149.391 33.165 149.209 33.165 148.985V148.697ZM38.676 147.868H41.2911V149.258H38.676V147.868ZM50.3538 150.925H48.5515V149.153H46.9166V150.925H45.1129V146.237H46.9166V147.841H48.5515V146.237H50.3538V150.925ZM56.7109 149.025H53.1063C53.1379 149.314 53.2163 149.528 53.34 149.67C53.5135 149.874 53.7413 149.975 54.0203 149.975C54.1968 149.975 54.3657 149.931 54.5239 149.842C54.6219 149.786 54.726 149.688 54.8377 149.546L56.6097 149.709C56.3384 150.181 56.0125 150.519 55.6295 150.724C55.2463 150.928 54.6975 151.03 53.981 151.03C53.3598 151.03 52.8711 150.943 52.5136 150.768C52.1577 150.593 51.8621 150.314 51.6283 149.933C51.3946 149.551 51.2768 149.103 51.2768 148.587C51.2768 147.854 51.5122 147.26 51.9811 146.807C52.4518 146.353 53.1003 146.126 53.9283 146.126C54.5994 146.126 55.1301 146.228 55.5178 146.432C55.907 146.634 56.2042 146.93 56.4062 147.314C56.6097 147.7 56.7109 148.202 56.7109 148.821V149.025ZM54.8829 148.163C54.8467 147.815 54.7532 147.566 54.6025 147.417C54.45 147.266 54.2509 147.191 54.0036 147.191C53.7171 147.191 53.4894 147.305 53.3175 147.531C53.2089 147.673 53.1396 147.883 53.1108 148.163H54.8829ZM64.0949 148.429C64.4508 148.464 64.7344 148.581 64.9454 148.782C65.1566 148.982 65.2607 149.251 65.2607 149.586C65.2607 150.034 65.1143 150.368 64.8203 150.592C64.5246 150.813 63.9968 150.925 63.2337 150.925H60.555V146.237H63.4494C63.9742 146.237 64.3738 146.337 64.6499 146.537C64.9246 146.738 65.0632 147.017 65.0632 147.376C65.0632 147.629 64.9727 147.85 64.7931 148.037C64.6137 148.224 64.38 148.349 64.0949 148.411V148.429ZM62.3545 148.021H62.8099C63.1099 148.021 63.2594 147.884 63.2594 147.611C63.2594 147.39 63.1009 147.28 62.7828 147.28H62.3545V148.021ZM62.3545 149.821H62.9458C63.0935 149.821 63.2125 149.786 63.3045 149.718C63.395 149.65 63.4404 149.552 63.4404 149.423C63.4404 149.139 63.276 148.999 62.9458 148.999H62.3545V149.821ZM67.7613 147.752L66.0434 147.57C66.1083 147.27 66.2019 147.034 66.3241 146.862C66.4461 146.69 66.6213 146.54 66.8519 146.414C67.0163 146.322 67.2442 146.251 67.5321 146.201C67.8202 146.151 68.1324 146.126 68.4686 146.126C69.0072 146.126 69.4415 146.156 69.7672 146.216C70.0946 146.276 70.3676 146.403 70.5847 146.595C70.7387 146.728 70.8593 146.915 70.9482 147.157C71.0356 147.402 71.0793 147.633 71.0793 147.854V149.926C71.0793 150.147 71.0945 150.32 71.1216 150.445C71.1503 150.57 71.2106 150.73 71.3057 150.925H69.618C69.55 150.804 69.5063 150.712 69.4852 150.649C69.464 150.586 69.4445 150.486 69.4234 150.35C69.1882 150.578 68.9527 150.739 68.7207 150.836C68.4023 150.965 68.0329 151.03 67.6121 151.03C67.0525 151.03 66.6271 150.901 66.3362 150.641C66.0465 150.383 65.9019 150.064 65.9019 149.684C65.9019 149.326 66.0059 149.033 66.2155 148.804C66.425 148.574 66.8096 148.403 67.3722 148.292C68.0478 148.156 68.4853 148.061 68.6859 148.006C68.8851 147.952 69.0977 147.88 69.3208 147.792C69.3208 147.57 69.2757 147.417 69.1851 147.328C69.0932 147.24 68.9333 147.195 68.7023 147.195C68.4083 147.195 68.1883 147.243 68.0403 147.337C67.9257 147.411 67.8322 147.549 67.7613 147.752ZM69.3208 148.697C69.0734 148.786 68.8158 148.865 68.5486 148.933C68.1838 149.029 67.9515 149.125 67.8549 149.219C67.7538 149.317 67.7041 149.427 67.7041 149.551C67.7041 149.693 67.7538 149.807 67.8518 149.898C67.9515 149.987 68.0961 150.032 68.2878 150.032C68.4884 150.032 68.6738 149.984 68.8472 149.887C69.0193 149.789 69.1414 149.67 69.2136 149.531C69.2861 149.391 69.3208 149.209 69.3208 148.985V148.697ZM79.5418 150.925H72.1319V146.237H73.9299V149.613H74.9372V146.237H76.7365V149.613H77.7396V146.237H79.5418V150.925ZM82.3863 147.752L80.6684 147.57C80.7332 147.27 80.8268 147.034 80.949 146.862C81.0711 146.69 81.2461 146.54 81.4769 146.414C81.6413 146.322 81.869 146.251 82.157 146.201C82.4452 146.151 82.7574 146.126 83.0935 146.126C83.6321 146.126 84.0664 146.156 84.3921 146.216C84.7194 146.276 84.9924 146.403 85.2095 146.595C85.3635 146.728 85.4842 146.915 85.5731 147.157C85.6605 147.402 85.7042 147.633 85.7042 147.854V149.926C85.7042 150.147 85.7194 150.32 85.7464 150.445C85.7752 150.57 85.8355 150.73 85.9306 150.925H84.2429C84.175 150.804 84.1313 150.712 84.1101 150.649C84.0889 150.586 84.0695 150.486 84.0483 150.35C83.8131 150.578 83.5777 150.739 83.3456 150.836C83.0273 150.965 82.6577 151.03 82.2371 151.03C81.6773 151.03 81.2522 150.901 80.9611 150.641C80.6715 150.383 80.5268 150.064 80.5268 149.684C80.5268 149.326 80.6308 149.033 80.8404 148.804C81.0499 148.574 81.4345 148.403 81.9972 148.292C82.6727 148.156 83.1101 148.061 83.3109 148.006C83.5099 147.952 83.7226 147.88 83.9457 147.792C83.9457 147.57 83.9005 147.417 83.81 147.328C83.718 147.24 83.5582 147.195 83.3273 147.195C83.0331 147.195 82.8132 147.243 82.6652 147.337C82.5507 147.411 82.4571 147.549 82.3863 147.752ZM83.9457 148.697C83.6984 148.786 83.4406 148.865 83.1736 148.933C82.8086 149.029 82.5763 149.125 82.4798 149.219C82.3786 149.317 82.329 149.427 82.329 149.551C82.329 149.693 82.3787 149.807 82.4768 149.898C82.5763 149.987 82.721 150.032 82.9127 150.032C83.1132 150.032 83.2987 149.984 83.4722 149.887C83.6442 149.789 83.7663 149.67 83.8385 149.531C83.9109 149.391 83.9457 149.209 83.9457 148.985V148.697ZM94.1441 148.5C94.4244 148.587 94.6464 148.724 94.8122 148.913C94.9766 149.1 95.0595 149.306 95.0595 149.533C95.0595 150.021 94.8244 150.394 94.3568 150.65C93.8875 150.907 93.2045 151.035 92.3055 151.035C91.5515 151.035 90.9588 150.896 90.5274 150.617C90.0962 150.34 89.7854 149.92 89.5939 149.361L91.3026 149.171C91.3629 149.335 91.4836 149.482 91.6677 149.61C91.8516 149.738 92.0614 149.803 92.298 149.803C92.9015 149.803 93.2029 149.652 93.2029 149.352C93.2029 149.249 93.1456 149.165 93.0312 149.102C92.9164 149.04 92.7656 149.008 92.58 149.008H91.7988V148.083H92.5983C92.7533 148.083 92.8969 148.052 93.0264 147.987C93.156 147.922 93.221 147.839 93.221 147.739C93.221 147.626 93.1456 147.536 92.9933 147.465C92.8411 147.394 92.6299 147.36 92.36 147.36C92.0944 147.36 91.8697 147.414 91.6872 147.525C91.5047 147.635 91.3886 147.767 91.3389 147.92L89.6813 147.694C89.8444 147.162 90.1399 146.768 90.5697 146.513C90.9994 146.258 91.5938 146.13 92.3507 146.13C93.1367 146.13 93.7533 146.258 94.1997 146.515C94.6464 146.771 94.8695 147.096 94.8695 147.488C94.8695 147.958 94.6281 148.296 94.1441 148.5ZM97.5766 147.752L95.8587 147.57C95.9236 147.27 96.0172 147.034 96.1392 146.862C96.2614 146.69 96.4364 146.54 96.6672 146.414C96.8316 146.322 97.0594 146.251 97.3473 146.201C97.6355 146.151 97.9476 146.126 98.2839 146.126C98.8224 146.126 99.2566 146.156 99.5824 146.216C99.9098 146.276 100.183 146.403 100.4 146.595C100.554 146.728 100.674 146.915 100.763 147.157C100.851 147.402 100.895 147.633 100.895 147.854V149.926C100.895 150.147 100.91 150.32 100.937 150.445C100.966 150.57 101.026 150.73 101.121 150.925H99.4332C99.3652 150.804 99.3215 150.712 99.3003 150.649C99.2793 150.586 99.2598 150.486 99.2387 150.35C99.0034 150.578 98.768 150.739 98.5359 150.836C98.2175 150.965 97.8482 151.03 97.4274 151.03C96.8677 151.03 96.4424 150.901 96.1514 150.641C95.8618 150.383 95.7171 150.064 95.7171 149.684C95.7171 149.326 95.8212 149.033 96.0307 148.804C96.2403 148.574 96.6249 148.403 97.1874 148.292C97.8631 148.156 98.3005 148.061 98.5012 148.006C98.7003 147.952 98.9129 147.88 99.1359 147.792C99.1359 147.57 99.0909 147.417 99.0004 147.328C98.9084 147.24 98.7485 147.195 98.5176 147.195C98.2235 147.195 98.0034 147.243 97.8554 147.337C97.741 147.411 97.6473 147.549 97.5766 147.752ZM99.1359 148.697C98.8887 148.786 98.6309 148.865 98.3639 148.933C97.999 149.029 97.7666 149.125 97.6702 149.219C97.569 149.317 97.5193 149.427 97.5193 149.551C97.5193 149.693 97.569 149.807 97.6671 149.898C97.7666 149.987 97.9114 150.032 98.1031 150.032C98.3035 150.032 98.4891 149.984 98.6625 149.887C98.8346 149.789 98.9567 149.67 99.0289 149.531C99.1013 149.391 99.1359 149.209 99.1359 148.985V148.697ZM103.546 146.373C103.762 146.212 104.057 146.13 104.434 146.13C105.315 146.13 105.986 146.362 106.448 146.827C106.908 147.29 107.138 147.869 107.138 148.561C107.138 149.248 106.909 149.831 106.452 150.313C105.994 150.795 105.321 151.035 104.434 151.035C103.55 151.035 102.884 150.794 102.433 150.308C101.982 149.824 101.757 149.033 101.757 147.939C101.757 146.925 101.952 146.106 102.341 145.482C102.729 144.857 103.288 144.533 104.02 144.509L104.562 144.491C105.048 144.471 105.317 144.408 105.366 144.301H106.795C106.795 145.159 106.312 145.605 105.35 145.64C104.698 145.664 104.256 145.728 104.024 145.833C103.79 145.937 103.632 146.117 103.546 146.373ZM104.443 149.803C104.731 149.803 104.953 149.697 105.109 149.484C105.264 149.272 105.341 148.969 105.341 148.574C105.341 148.183 105.261 147.881 105.102 147.673C104.942 147.464 104.73 147.36 104.461 147.36C104.164 147.36 103.938 147.473 103.786 147.702C103.632 147.929 103.555 148.227 103.555 148.592C103.555 148.972 103.63 149.269 103.783 149.482C103.935 149.696 104.155 149.803 104.443 149.803ZM107.789 148.592C107.789 147.877 108.03 147.285 108.513 146.823C108.997 146.358 109.648 146.126 110.47 146.126C111.41 146.126 112.12 146.399 112.6 146.943C112.986 147.382 113.179 147.924 113.179 148.566C113.179 149.287 112.939 149.878 112.461 150.34C111.983 150.8 111.321 151.03 110.475 151.03C109.721 151.03 109.111 150.839 108.645 150.456C108.073 149.982 107.789 149.361 107.789 148.592ZM109.591 148.587C109.591 149.006 109.675 149.315 109.846 149.514C110.015 149.715 110.227 149.816 110.484 149.816C110.743 149.816 110.956 149.717 111.122 149.519C111.289 149.321 111.372 149.006 111.372 148.569C111.372 148.163 111.288 147.86 111.12 147.661C110.953 147.463 110.744 147.364 110.497 147.364C110.235 147.364 110.018 147.465 109.847 147.665C109.677 147.867 109.591 148.175 109.591 148.587ZM117.999 147.549H116.696V150.925H114.894V147.549H113.591V146.237H117.999V147.549ZM120.279 147.751L118.561 147.57C118.626 147.27 118.72 147.033 118.842 146.862C118.964 146.69 119.139 146.54 119.37 146.413C119.534 146.322 119.762 146.251 120.05 146.201C120.338 146.151 120.65 146.126 120.986 146.126C121.525 146.126 121.959 146.156 122.285 146.216C122.612 146.276 122.885 146.403 123.102 146.594C123.256 146.727 123.377 146.914 123.466 147.157C123.553 147.401 123.597 147.632 123.597 147.854V149.926C123.597 150.146 123.612 150.32 123.639 150.445C123.668 150.57 123.728 150.73 123.823 150.925H122.136C122.068 150.804 122.024 150.712 122.003 150.649C121.982 150.585 121.962 150.486 121.941 150.35C121.706 150.578 121.471 150.739 121.238 150.836C120.92 150.965 120.551 151.03 120.13 151.03C119.57 151.03 119.145 150.9 118.854 150.641C118.564 150.383 118.42 150.063 118.42 149.683C118.42 149.326 118.524 149.033 118.733 148.804C118.943 148.573 119.327 148.403 119.89 148.291C120.566 148.155 121.003 148.061 121.204 148.006C121.403 147.952 121.615 147.88 121.839 147.792C121.839 147.57 121.793 147.417 121.703 147.327C121.611 147.24 121.451 147.195 121.22 147.195C120.926 147.195 120.706 147.243 120.558 147.337C120.444 147.41 120.35 147.549 120.279 147.751ZM121.839 148.697C121.591 148.786 121.334 148.864 121.066 148.932C120.702 149.029 120.469 149.125 120.373 149.219C120.272 149.317 120.222 149.427 120.222 149.551C120.222 149.692 120.272 149.807 120.37 149.898C120.469 149.986 120.614 150.032 120.806 150.032C121.006 150.032 121.192 149.984 121.365 149.887C121.537 149.789 121.659 149.67 121.731 149.531C121.804 149.391 121.839 149.208 121.839 148.985V148.697Z" fill="#FCFCFC"/>
<path fill-rule="evenodd" clip-rule="evenodd" d="M22.175 44.2998C22.1632 44.3142 22.1469 44.3283 22.1325 44.34C22.0583 44.3908 21.9592 44.3945 21.8846 44.3341C21.7949 44.2632 21.7809 44.132 21.8482 44.0447C22.1573 43.6496 22.3473 43.1762 22.3958 42.6769C22.4076 42.5598 22.5103 42.4776 22.62 42.4893C22.7368 42.5011 22.8194 42.6023 22.8078 42.7158C22.7512 43.2953 22.5327 43.843 22.175 44.2996V44.2998ZM18.2518 40.2871C17.0739 41.1322 16.8047 42.7753 17.6476 43.9543C17.7125 44.0449 17.6934 44.176 17.5991 44.241C17.5057 44.3082 17.3783 44.2858 17.3124 44.1924C16.3361 42.8294 16.6479 40.9281 18.0109 39.9517C18.1043 39.8831 18.2354 39.9059 18.3003 40.0002C18.3687 40.0909 18.3462 40.2207 18.2518 40.2871ZM22.6943 40.3378C21.5447 38.7312 19.3024 38.3619 17.6994 39.5115C16.0918 40.6611 15.7234 42.9037 16.8731 44.5077C18.0216 46.1143 20.2643 46.4837 21.8682 45.3328C23.4758 44.1831 23.8442 41.9404 22.6943 40.3378Z" fill="#FCFCFC"/>
<path fill-rule="evenodd" clip-rule="evenodd" d="M28.9729 45.3326C28.9067 45.3809 28.817 45.3832 28.7427 45.3349C28.6517 45.2735 28.6269 45.1484 28.6882 45.0576C28.8394 44.8355 28.9362 44.5805 28.9729 44.3162C28.9869 44.2055 29.0897 44.1286 29.1972 44.1429C29.3079 44.157 29.3848 44.2597 29.3694 44.3708C29.3246 44.6939 29.2052 45.0114 29.0212 45.2819C29.0094 45.3019 28.9927 45.3183 28.9729 45.3326ZM26.2214 42.6557C25.4388 43.2175 25.2572 44.3139 25.8189 45.0964C25.8838 45.1874 25.8614 45.3126 25.774 45.3785C25.6821 45.44 25.5583 45.421 25.4921 45.3304C24.8028 44.3671 25.0247 43.0215 25.9889 42.3322C26.0775 42.2672 26.2026 42.286 26.2675 42.3784C26.3325 42.4691 26.3134 42.5931 26.2214 42.6557ZM29.1627 42.7016C28.4028 41.6393 26.9236 41.3964 25.8614 42.1562C24.8028 42.9177 24.5586 44.3965 25.3161 45.4578C26.0775 46.5163 27.5563 46.7596 28.6176 46.0018C29.6799 45.2416 29.9241 43.7591 29.1627 42.7016Z" fill="#FCFCFC"/>
<path fill-rule="evenodd" clip-rule="evenodd" d="M33.2189 40.7404C33.2071 40.7545 33.1954 40.7685 33.1824 40.7769C33.1306 40.8134 33.0633 40.817 33.0053 40.7804C32.9382 40.7319 32.9214 40.6387 32.9689 40.568C33.1245 40.3402 33.2212 40.0708 33.2437 39.7889C33.2531 39.7075 33.3263 39.645 33.4089 39.6534C33.4915 39.6593 33.5541 39.7323 33.5484 39.8149C33.52 40.1478 33.4065 40.4676 33.2189 40.7403V40.7404ZM30.7015 38.3479C29.9801 38.8638 29.8125 39.8753 30.3295 40.5952C30.3804 40.6635 30.364 40.7582 30.2954 40.8088C30.2268 40.8573 30.1338 40.8395 30.0819 40.7709C29.4693 39.9141 29.665 38.7163 30.5255 38.1014C30.5928 38.0529 30.6862 38.0669 30.7356 38.1341C30.7865 38.2028 30.7688 38.2994 30.7015 38.3479ZM33.52 38.3101C32.7763 37.274 31.3281 37.0367 30.293 37.7764C29.2568 38.5212 29.0172 39.9686 29.762 41.0048C30.5018 42.041 31.9502 42.2795 32.9864 41.5348C34.0229 40.7947 34.26 39.3462 33.52 38.3101Z" fill="#FCFCFC"/>
<path fill-rule="evenodd" clip-rule="evenodd" d="M38.9073 19.5992C38.8046 19.6722 38.6688 19.6818 38.5557 19.6132C38.4045 19.5199 38.356 19.3242 38.4506 19.1729C38.5982 18.932 38.6935 18.6677 38.7421 18.3843C38.7705 18.211 38.9355 18.0953 39.1081 18.1237C39.2815 18.1509 39.3982 18.3161 39.3701 18.4894C39.3099 18.853 39.1824 19.1967 38.9923 19.5058C38.97 19.546 38.9415 19.5768 38.9073 19.5992ZM35.2934 16.2388C34.3113 16.9447 34.0845 18.3194 34.7881 19.3064C34.8942 19.4493 34.859 19.6474 34.7171 19.7491C34.5732 19.8518 34.3739 19.8197 34.2721 19.6758C33.3612 18.4071 33.6526 16.6294 34.925 15.7218C35.0665 15.6167 35.2662 15.6508 35.3676 15.7924C35.469 15.9375 35.4385 16.136 35.2934 16.2388ZM39.16 16.1761C38.1379 14.7516 36.1477 14.4223 34.7231 15.4408C33.3009 16.4629 32.9717 18.4519 33.9938 19.8775C35.0123 21.2988 37.0023 21.6291 38.4269 20.6093C39.8492 19.5885 40.1784 17.5985 39.16 16.1761Z" fill="#FCFCFC"/>
<path fill-rule="evenodd" clip-rule="evenodd" d="M17.6835 36.9568C17.6776 36.9651 17.6695 36.9736 17.6611 36.9793C17.6303 37.003 17.5869 37.003 17.5561 36.9816C17.5136 36.9508 17.5019 36.8939 17.53 36.8514C17.607 36.7384 17.6611 36.6109 17.6859 36.4741C17.6977 36.4256 17.7461 36.3915 17.797 36.4032C17.8488 36.4114 17.8796 36.4597 17.8712 36.5115C17.8371 36.6721 17.7779 36.8197 17.6835 36.9565V36.9568ZM16.0913 35.4496C15.6345 35.7769 15.5295 36.4152 15.8554 36.8718C15.8873 36.9143 15.8789 36.9712 15.8364 37.003C15.7928 37.0338 15.7359 37.0217 15.7055 36.9793C15.317 36.44 15.4409 35.6845 15.9839 35.2964C16.0264 35.2679 16.083 35.2763 16.1138 35.3188C16.1422 35.3589 16.1338 35.4178 16.0913 35.4496ZM17.8652 35.4322C17.4002 34.7828 16.4914 34.6319 15.841 35.098C15.1919 35.5654 15.0407 36.4721 15.5058 37.1211C15.9722 37.7716 16.8799 37.9215 17.53 37.4563C18.1803 36.9913 18.3302 36.0823 17.8652 35.4322Z" fill="#FCFCFC"/>
<path fill-rule="evenodd" clip-rule="evenodd" d="M28.7824 18.0724C28.7459 18.0984 28.6941 18.1065 28.6492 18.0864C28.5807 18.056 28.5499 17.9756 28.5807 17.9084C28.6326 17.7912 28.6633 17.6661 28.674 17.5386C28.6799 17.4644 28.7459 17.4088 28.8192 17.4135C28.8936 17.4194 28.9501 17.4845 28.9441 17.5587C28.93 17.7184 28.8898 17.8716 28.8249 18.0191C28.8166 18.0415 28.7992 18.0583 28.7824 18.0724ZM26.8871 16.5249C26.3782 16.8896 26.2614 17.5989 26.6248 18.1065C26.6673 18.1667 26.6532 18.2516 26.5943 18.2941C26.5341 18.3366 26.4492 18.3226 26.4067 18.2624C25.9546 17.632 26.0998 16.7551 26.7275 16.304C26.79 16.2615 26.8717 16.2759 26.9175 16.3348C26.96 16.3988 26.946 16.48 26.8871 16.5249ZM28.9277 16.4539C28.3789 15.6905 27.3176 15.5182 26.5566 16.0622C25.7927 16.6113 25.617 17.6721 26.1658 18.436C26.7098 19.1994 27.772 19.3732 28.5358 18.8278C29.2983 18.2801 29.474 17.2178 28.9277 16.4539Z" fill="#FCFCFC"/>
<path fill-rule="evenodd" clip-rule="evenodd" d="M42.83 16.147C42.8253 16.1647 42.816 16.1755 42.8019 16.1837C42.7795 16.2016 42.7487 16.2039 42.7193 16.1932C42.6769 16.1717 42.6577 16.1222 42.6768 16.0787C42.7086 16.0055 42.7286 15.9265 42.737 15.8462C42.7394 15.7977 42.7795 15.7636 42.8277 15.767C42.8762 15.7693 42.9094 15.8117 42.9033 15.8602C42.8986 15.9592 42.8725 16.0563 42.83 16.147ZM41.6038 15.2052C41.2803 15.4344 41.2074 15.8826 41.4362 16.2039C41.4647 16.244 41.4563 16.2969 41.4198 16.323C41.3797 16.3515 41.3264 16.3431 41.298 16.303C41.0137 15.9065 41.1047 15.3494 41.5048 15.066C41.5413 15.0375 41.5954 15.0459 41.6215 15.0861C41.65 15.1225 41.6416 15.1767 41.6038 15.2052ZM42.8963 15.1594C42.5494 14.6765 41.8765 14.5668 41.3937 14.9124C40.9123 15.2593 40.8012 15.9312 41.1472 16.414C41.4479 16.8315 41.991 16.9697 42.4476 16.775L42.45 16.7714C42.5718 16.6439 42.7086 16.5248 42.8561 16.4198C42.8762 16.4058 42.8963 16.3917 42.9187 16.3797V16.3773C42.9187 16.3773 42.9211 16.3773 42.9211 16.3738C43.1572 16.0137 43.163 15.5309 42.8963 15.1592V15.1594Z" fill="#FCFCFC"/>
<path fill-rule="evenodd" clip-rule="evenodd" d="M32.0072 33.0306C31.9928 33.0543 31.9727 33.0707 31.9527 33.0851C31.8703 33.144 31.7603 33.1477 31.6742 33.0851C31.5668 33.0082 31.5444 32.8583 31.6211 32.7532C31.7061 32.6304 31.7804 32.4996 31.8396 32.3637C31.8901 32.2423 32.0296 32.1854 32.1524 32.2363C32.2715 32.2871 32.3271 32.4286 32.2775 32.5477C32.2053 32.7177 32.1146 32.8807 32.0072 33.0306ZM28.8615 29.9795C27.9739 30.6156 27.7685 31.8551 28.4048 32.7438C28.4814 32.8526 28.459 33.0001 28.3506 33.0767C28.2432 33.1533 28.0957 33.1299 28.0187 33.0226C27.2305 31.9211 27.4831 30.3821 28.5842 29.5901C28.6915 29.5145 28.8414 29.5393 28.9183 29.6467C28.9949 29.7554 28.9703 29.9029 28.8615 29.9795ZM32.223 30.0079C31.3507 28.7935 29.6511 28.5111 28.4365 29.3833C27.2187 30.2546 26.9377 31.9556 27.8086 33.1701C28.6798 34.3869 30.3805 34.669 31.5977 33.7967C32.8131 32.9232 33.0943 31.2258 32.223 30.0079Z" fill="#FCFCFC"/>
<path fill-rule="evenodd" clip-rule="evenodd" d="M46.9767 18.8896C46.9743 18.9523 46.9707 19.0148 46.9626 19.0774C46.952 19.173 46.9341 19.2674 46.9117 19.3608V19.3631C46.9034 19.401 46.894 19.4351 46.8833 19.4692C46.8632 19.5425 46.8375 19.6168 46.809 19.6877C46.795 19.7218 46.7806 19.7583 46.7642 19.7927C46.7465 19.7774 46.7277 19.761 46.71 19.7442C46.6876 19.7242 46.6615 19.7018 46.6391 19.6784C46.6699 19.6051 46.698 19.5308 46.718 19.4575C46.7324 19.4174 46.7441 19.3786 46.7525 19.3384V19.3349C46.7702 19.276 46.7806 19.2097 46.789 19.1485C46.8067 19.0491 46.8174 18.9487 46.8174 18.8473C46.8209 18.8072 46.8209 18.7671 46.8209 18.7282C46.8174 18.6255 46.7327 18.5462 46.6309 18.5486C46.6132 18.5486 46.5992 18.5521 46.5828 18.558C46.5058 18.5805 46.4493 18.6534 46.4516 18.736C46.4552 18.813 46.4516 18.8896 46.4434 18.9663C46.4316 19.1058 46.4033 19.245 46.3584 19.3785C46.2925 19.3015 46.2333 19.2249 46.1731 19.1423C45.6149 18.3587 45.3931 17.4366 45.4814 16.5513C45.5888 16.5928 45.6916 16.6446 45.7907 16.7039C45.9063 16.7721 46.0197 16.8514 46.1259 16.9421C46.2734 17.0672 46.4093 17.2147 46.526 17.3801C46.8519 17.8367 47.0005 18.368 46.977 18.8896H46.9767Z" fill="#FCFCFC"/>
<path fill-rule="evenodd" clip-rule="evenodd" d="M49.9655 20.3905C50.0221 20.4699 50.0729 20.5502 50.1191 20.6352C49.105 20.8677 48.0321 20.6717 47.1611 20.0955C47.212 19.9988 47.2555 19.8998 47.2922 19.798C47.3321 19.6837 47.369 19.5706 47.3936 19.4548C48.3168 19.2152 49.3292 19.5421 49.9314 20.3458C49.9432 20.3602 49.9548 20.3743 49.9655 20.3905Z" fill="#FCFCFC"/>
<path fill-rule="evenodd" clip-rule="evenodd" d="M51.8649 18.6602C51.7632 18.7334 51.6264 18.7428 51.513 18.6742C51.3631 18.5808 51.3148 18.3851 51.4045 18.2339C51.618 17.8906 51.7431 17.4961 51.7679 17.0927C51.7822 16.9167 51.9331 16.7836 52.1091 16.7953C52.2851 16.8071 52.4159 16.9605 52.4042 17.1352C52.3701 17.6414 52.2142 18.1349 51.9499 18.5659C51.9275 18.606 51.899 18.6377 51.8649 18.6602ZM52.1031 14.8938C50.9819 13.332 48.7996 12.972 47.238 14.0899C46.5064 14.6151 46.0376 15.3706 45.8643 16.1849C45.9727 16.2415 46.0741 16.3007 46.1768 16.3689C46.3163 15.5891 46.7469 14.8617 47.4375 14.3686C47.5813 14.2659 47.7811 14.3 47.8825 14.4419C47.9851 14.5867 47.951 14.7851 47.8082 14.8878C47.1364 15.3706 46.7753 16.12 46.7613 16.8896C46.8215 16.9545 46.8744 17.0218 46.9252 17.0927C47.3264 17.6521 47.499 18.3025 47.4645 18.9385C48.5412 18.7367 49.6884 19.1569 50.3657 20.1048C50.3894 20.139 50.4142 20.1731 50.4343 20.2075C50.7354 20.1048 51.0281 19.9549 51.2994 19.7589C52.8646 18.6401 53.2223 16.4577 52.1031 14.8938Z" fill="#FCFCFC"/>
<path fill-rule="evenodd" clip-rule="evenodd" d="M46.7525 19.3386C46.7443 19.3787 46.7325 19.4179 46.7184 19.458C46.7502 19.438 46.7833 19.4212 46.8174 19.4035C46.795 19.3811 46.775 19.3634 46.7525 19.3386ZM46.7525 19.3386C46.7443 19.3787 46.7325 19.4179 46.7184 19.458C46.7502 19.438 46.7833 19.4212 46.8174 19.4035C46.795 19.3811 46.775 19.3634 46.7525 19.3386ZM46.7525 19.3386C46.7443 19.3787 46.7325 19.4179 46.7184 19.458C46.7502 19.438 46.7833 19.4212 46.8174 19.4035C46.795 19.3811 46.775 19.3634 46.7525 19.3386ZM46.7525 19.3386C46.7443 19.3787 46.7325 19.4179 46.7184 19.458C46.7502 19.438 46.7833 19.4212 46.8174 19.4035C46.795 19.3811 46.775 19.3634 46.7525 19.3386ZM46.7525 19.3386C46.7443 19.3787 46.7325 19.4179 46.7184 19.458C46.7502 19.438 46.7833 19.4212 46.8174 19.4035C46.795 19.3811 46.775 19.3634 46.7525 19.3386ZM46.7525 19.3386C46.7443 19.3787 46.7325 19.4179 46.7184 19.458C46.7502 19.438 46.7833 19.4212 46.8174 19.4035C46.795 19.3811 46.775 19.3634 46.7525 19.3386ZM46.7525 19.3386C46.7443 19.3787 46.7325 19.4179 46.7184 19.458C46.7502 19.438 46.7833 19.4212 46.8174 19.4035C46.795 19.3811 46.775 19.3634 46.7525 19.3386ZM46.7525 19.3386C46.7443 19.3787 46.7325 19.4179 46.7184 19.458C46.7502 19.438 46.7833 19.4212 46.8174 19.4035C46.795 19.3811 46.775 19.3634 46.7525 19.3386ZM46.7525 19.3386C46.7443 19.3787 46.7325 19.4179 46.7184 19.458C46.7502 19.438 46.7833 19.4212 46.8174 19.4035C46.795 19.3811 46.775 19.3634 46.7525 19.3386ZM46.7525 19.3386C46.7443 19.3787 46.7325 19.4179 46.7184 19.458C46.7502 19.438 46.7833 19.4212 46.8174 19.4035C46.795 19.3811 46.775 19.3634 46.7525 19.3386ZM46.7525 19.3386C46.7443 19.3787 46.7325 19.4179 46.7184 19.458C46.7502 19.438 46.7833 19.4212 46.8174 19.4035C46.795 19.3811 46.775 19.3634 46.7525 19.3386ZM46.7525 19.3386C46.7443 19.3787 46.7325 19.4179 46.7184 19.458C46.7502 19.438 46.7833 19.4212 46.8174 19.4035C46.795 19.3811 46.775 19.3634 46.7525 19.3386ZM46.7525 19.3386C46.7443 19.3787 46.7325 19.4179 46.7184 19.458C46.7502 19.438 46.7833 19.4212 46.8174 19.4035C46.795 19.3811 46.775 19.3634 46.7525 19.3386ZM46.7525 19.3386C46.7443 19.3787 46.7325 19.4179 46.7184 19.458C46.7502 19.438 46.7833 19.4212 46.8174 19.4035C46.795 19.3811 46.775 19.3634 46.7525 19.3386ZM46.7525 19.3386C46.7443 19.3787 46.7325 19.4179 46.7184 19.458C46.7502 19.438 46.7833 19.4212 46.8174 19.4035C46.795 19.3811 46.775 19.3634 46.7525 19.3386ZM46.7525 19.3386C46.7443 19.3787 46.7325 19.4179 46.7184 19.458C46.7502 19.438 46.7833 19.4212 46.8174 19.4035C46.795 19.3811 46.775 19.3634 46.7525 19.3386ZM46.7525 19.3386C46.7443 19.3787 46.7325 19.4179 46.7184 19.458C46.7502 19.438 46.7833 19.4212 46.8174 19.4035C46.795 19.3811 46.775 19.3634 46.7525 19.3386ZM46.7525 19.3386C46.7443 19.3787 46.7325 19.4179 46.7184 19.458C46.7502 19.438 46.7833 19.4212 46.8174 19.4035C46.795 19.3811 46.775 19.3634 46.7525 19.3386ZM46.7525 19.3386C46.7443 19.3787 46.7325 19.4179 46.7184 19.458C46.7502 19.438 46.7833 19.4212 46.8174 19.4035C46.795 19.3811 46.775 19.3634 46.7525 19.3386ZM46.7525 19.3386C46.7443 19.3787 46.7325 19.4179 46.7184 19.458C46.7502 19.438 46.7833 19.4212 46.8174 19.4035C46.795 19.3811 46.775 19.3634 46.7525 19.3386ZM46.7525 19.3386C46.7443 19.3787 46.7325 19.4179 46.7184 19.458C46.7502 19.438 46.7833 19.4212 46.8174 19.4035C46.795 19.3811 46.775 19.3634 46.7525 19.3386ZM46.7525 19.3386C46.7443 19.3787 46.7325 19.4179 46.7184 19.458C46.7502 19.438 46.7833 19.4212 46.8174 19.4035C46.795 19.3811 46.775 19.3634 46.7525 19.3386ZM46.7525 19.3386C46.7443 19.3787 46.7325 19.4179 46.7184 19.458C46.7502 19.438 46.7833 19.4212 46.8174 19.4035C46.795 19.3811 46.775 19.3634 46.7525 19.3386ZM46.7525 19.3386C46.7443 19.3787 46.7325 19.4179 46.7184 19.458C46.7502 19.438 46.7833 19.4212 46.8174 19.4035C46.795 19.3811 46.775 19.3634 46.7525 19.3386ZM46.8174 19.4035C46.795 19.3811 46.775 19.3634 46.7525 19.3386C46.7443 19.3787 46.7325 19.4179 46.7184 19.458C46.6984 19.5323 46.6699 19.6056 46.6391 19.6798C46.6167 19.733 46.5933 19.7872 46.5649 19.8414C46.5649 19.8414 46.5625 19.8414 46.5625 19.8438C46.5401 19.8863 46.5163 19.9287 46.4916 19.9712C46.5163 19.9973 46.5424 20.0198 46.5685 20.0398C46.5825 20.0539 46.5966 20.0657 46.611 20.0763C46.6358 20.0398 46.6592 20.0007 46.6816 19.9572C46.7124 19.904 46.7385 19.8498 46.7642 19.7929C46.781 19.7588 46.795 19.7223 46.809 19.6878C46.8375 19.6173 46.8636 19.543 46.8836 19.4697C46.8599 19.4497 46.8375 19.4272 46.8174 19.4035ZM46.4434 18.9669C46.4399 18.9646 46.4375 18.9587 46.434 18.9551C45.9465 18.2776 45.7401 17.482 45.7908 16.7042C45.6916 16.6453 45.5891 16.5934 45.4817 16.5519C45.3814 16.5094 45.2796 16.4753 45.1746 16.4492C45.0578 17.4335 45.294 18.4616 45.916 19.3269C45.9772 19.4156 46.0435 19.4978 46.1117 19.5771C46.1449 19.6196 46.1827 19.6621 46.2215 19.7023C46.2761 19.6029 46.3185 19.5005 46.3526 19.3955C46.3562 19.3931 46.3609 19.3896 46.3667 19.3872C46.3608 19.3849 46.3584 19.3813 46.3584 19.379C46.4033 19.2458 46.4314 19.1063 46.4434 18.9672V18.9669ZM50.1186 20.6358C50.0728 20.5508 50.023 20.4704 49.9654 20.3914C49.9548 20.3751 49.943 20.3607 49.931 20.3467C49.0176 20.525 48.0637 20.3289 47.2919 19.7989C47.2555 19.9003 47.213 20.0007 47.161 20.0964C47.1162 20.1931 47.0653 20.2841 47.0051 20.3714C47.961 20.9994 49.1451 21.2035 50.2555 20.9308C50.2191 20.8318 50.1729 20.7328 50.1186 20.6358ZM46.7525 19.3386C46.7443 19.3787 46.7325 19.4179 46.7184 19.458C46.7502 19.438 46.7833 19.4212 46.8174 19.4035C46.795 19.3811 46.775 19.3634 46.7525 19.3386ZM46.7525 19.3386C46.7443 19.3787 46.7325 19.4179 46.7184 19.458C46.7502 19.438 46.7833 19.4212 46.8174 19.4035C46.795 19.3811 46.775 19.3634 46.7525 19.3386ZM46.7525 19.3386C46.7443 19.3787 46.7325 19.4179 46.7184 19.458C46.7502 19.438 46.7833 19.4212 46.8174 19.4035C46.795 19.3811 46.775 19.3634 46.7525 19.3386ZM46.7525 19.3386C46.7443 19.3787 46.7325 19.4179 46.7184 19.458C46.7502 19.438 46.7833 19.4212 46.8174 19.4035C46.795 19.3811 46.775 19.3634 46.7525 19.3386ZM46.7525 19.3386C46.7443 19.3787 46.7325 19.4179 46.7184 19.458C46.7502 19.438 46.7833 19.4212 46.8174 19.4035C46.795 19.3811 46.775 19.3634 46.7525 19.3386ZM46.7525 19.3386C46.7443 19.3787 46.7325 19.4179 46.7184 19.458C46.7502 19.438 46.7833 19.4212 46.8174 19.4035C46.795 19.3811 46.775 19.3634 46.7525 19.3386ZM46.7525 19.3386C46.7443 19.3787 46.7325 19.4179 46.7184 19.458C46.7502 19.438 46.7833 19.4212 46.8174 19.4035C46.795 19.3811 46.775 19.3634 46.7525 19.3386ZM46.7525 19.3386C46.7443 19.3787 46.7325 19.4179 46.7184 19.458C46.7502 19.438 46.7833 19.4212 46.8174 19.4035C46.795 19.3811 46.775 19.3634 46.7525 19.3386ZM46.7525 19.3386C46.7443 19.3787 46.7325 19.4179 46.7184 19.458C46.7502 19.438 46.7833 19.4212 46.8174 19.4035C46.795 19.3811 46.775 19.3634 46.7525 19.3386ZM46.7525 19.3386C46.7443 19.3787 46.7325 19.4179 46.7184 19.458C46.7502 19.438 46.7833 19.4212 46.8174 19.4035C46.795 19.3811 46.775 19.3634 46.7525 19.3386ZM46.7525 19.3386C46.7443 19.3787 46.7325 19.4179 46.7184 19.458C46.7502 19.438 46.7833 19.4212 46.8174 19.4035C46.795 19.3811 46.775 19.3634 46.7525 19.3386ZM46.7525 19.3386C46.7443 19.3787 46.7325 19.4179 46.7184 19.458C46.7502 19.438 46.7833 19.4212 46.8174 19.4035C46.795 19.3811 46.775 19.3634 46.7525 19.3386ZM46.7525 19.3386C46.7443 19.3787 46.7325 19.4179 46.7184 19.458C46.7502 19.438 46.7833 19.4212 46.8174 19.4035C46.795 19.3811 46.775 19.3634 46.7525 19.3386ZM46.7525 19.3386C46.7443 19.3787 46.7325 19.4179 46.7184 19.458C46.7502 19.438 46.7833 19.4212 46.8174 19.4035C46.795 19.3811 46.775 19.3634 46.7525 19.3386ZM46.7525 19.3386C46.7443 19.3787 46.7325 19.4179 46.7184 19.458C46.7502 19.438 46.7833 19.4212 46.8174 19.4035C46.795 19.3811 46.775 19.3634 46.7525 19.3386ZM46.7525 19.3386C46.7443 19.3787 46.7325 19.4179 46.7184 19.458C46.7502 19.438 46.7833 19.4212 46.8174 19.4035C46.795 19.3811 46.775 19.3634 46.7525 19.3386ZM46.7525 19.3386C46.7443 19.3787 46.7325 19.4179 46.7184 19.458C46.7502 19.438 46.7833 19.4212 46.8174 19.4035C46.795 19.3811 46.775 19.3634 46.7525 19.3386ZM46.7525 19.3386C46.7443 19.3787 46.7325 19.4179 46.7184 19.458C46.7502 19.438 46.7833 19.4212 46.8174 19.4035C46.795 19.3811 46.775 19.3634 46.7525 19.3386ZM46.7525 19.3386C46.7443 19.3787 46.7325 19.4179 46.7184 19.458C46.7502 19.438 46.7833 19.4212 46.8174 19.4035C46.795 19.3811 46.775 19.3634 46.7525 19.3386ZM46.7525 19.3386C46.7443 19.3787 46.7325 19.4179 46.7184 19.458C46.7502 19.438 46.7833 19.4212 46.8174 19.4035C46.795 19.3811 46.775 19.3634 46.7525 19.3386ZM46.7525 19.3386C46.7443 19.3787 46.7325 19.4179 46.7184 19.458C46.7502 19.438 46.7833 19.4212 46.8174 19.4035C46.795 19.3811 46.775 19.3634 46.7525 19.3386ZM46.7525 19.3386C46.7443 19.3787 46.7325 19.4179 46.7184 19.458C46.7502 19.438 46.7833 19.4212 46.8174 19.4035C46.795 19.3811 46.775 19.3634 46.7525 19.3386ZM46.7525 19.3386C46.7443 19.3787 46.7325 19.4179 46.7184 19.458C46.7502 19.438 46.7833 19.4212 46.8174 19.4035C46.795 19.3811 46.775 19.3634 46.7525 19.3386ZM46.7525 19.3386C46.7443 19.3787 46.7325 19.4179 46.7184 19.458C46.7502 19.438 46.7833 19.4212 46.8174 19.4035C46.795 19.3811 46.775 19.3634 46.7525 19.3386Z" fill="#FCFCFC"/>
<path fill-rule="evenodd" clip-rule="evenodd" d="M46.9766 18.8901C46.9201 18.8901 46.8655 18.8783 46.8174 18.8476C46.8209 18.8075 46.8209 18.7674 46.8209 18.7285C46.8174 18.6259 46.7327 18.5465 46.6309 18.5489C46.6132 18.5489 46.5992 18.5524 46.5828 18.5583C46.2756 18.0555 46.1281 17.4961 46.1257 16.9424C46.2733 17.0675 46.4091 17.215 46.5258 17.3804C46.8517 17.8371 47.0003 18.3683 46.9768 18.8899L46.9766 18.8901Z" fill="#FCFCFC"/>
<path fill-rule="evenodd" clip-rule="evenodd" d="M45.7427 20.9058C45.6437 20.9647 45.5386 21.0132 45.4336 21.0533C45.5611 20.613 45.7996 20.2073 46.1453 19.8776C46.1453 19.9403 46.1794 20.0028 46.2363 20.0373C46.2586 20.0513 46.2821 20.0574 46.3082 20.0597C46.353 20.0692 46.4016 20.0573 46.438 20.0289C46.4581 20.0149 46.4745 19.997 46.4889 19.977C46.4889 19.9746 46.4924 19.9746 46.4924 19.9711C46.5172 19.93 46.541 19.8875 46.5634 19.845C46.5634 19.8415 46.5657 19.8415 46.5657 19.8415C46.5942 19.7873 46.6176 19.7342 46.64 19.6799C46.6708 19.6053 46.6992 19.5324 46.7193 19.4578C46.751 19.4381 46.7842 19.4213 46.8183 19.4049C46.8492 19.3905 46.8809 19.3764 46.9126 19.3647C46.9032 19.4012 46.8949 19.4353 46.8846 19.4698C46.8645 19.544 46.8384 19.6173 46.81 19.6879C46.7959 19.7224 46.7819 19.7589 46.7651 19.793C46.7394 19.8499 46.7133 19.9041 46.6825 19.9583C46.6601 20.0008 46.6367 20.041 46.6119 20.0778C46.456 20.3327 46.2482 20.5602 45.9922 20.7469C45.9875 20.7528 45.9778 20.7587 45.9698 20.7646C45.8966 20.8175 45.8197 20.866 45.743 20.9061L45.7427 20.9058Z" fill="#FCFCFC"/>
<path fill-rule="evenodd" clip-rule="evenodd" d="M49.8783 23.0399C49.8217 23.0824 49.7414 23.0884 49.6765 23.0482C49.5879 22.9936 49.5631 22.8806 49.614 22.7956C49.8074 22.4804 49.903 22.1168 49.8924 21.7487C49.8889 21.646 49.9694 21.561 50.0721 21.561C50.1735 21.5551 50.2584 21.6376 50.2621 21.7366C50.2727 22.1793 50.1594 22.6112 49.9291 22.9856C49.9151 23.008 49.8984 23.0257 49.8783 23.0398V23.0399ZM50.2561 20.9308C50.2196 20.8318 50.1734 20.7313 50.1191 20.6357C50.0744 20.5508 50.0235 20.4704 49.9656 20.3914C49.955 20.3748 49.9432 20.3593 49.9315 20.3466C49.3306 19.5427 48.3168 19.2157 47.3951 19.4542C47.369 19.5711 47.3326 19.6845 47.2924 19.7976C47.2556 19.9003 47.2131 19.9993 47.1612 20.0963C47.1164 20.193 47.0656 20.284 47.0056 20.3714C46.8119 20.6722 46.5593 20.9425 46.2535 21.161C46.2371 21.1716 46.2194 21.1858 46.1993 21.1974C46.013 21.7569 46.0859 22.3956 46.4556 22.9088C46.5108 22.9914 46.4944 23.1048 46.4118 23.1637C46.3305 23.2239 46.2134 23.2038 46.1545 23.1212C45.7934 22.6173 45.6694 22.0119 45.759 21.444C45.7025 21.4725 45.6459 21.4949 45.589 21.5149C45.5208 22.0968 45.6599 22.7047 46.0257 23.2159C46.8048 24.3029 48.3228 24.5532 49.4099 23.7753C50.327 23.1166 50.6469 21.9351 50.2561 20.9308Z" fill="#FCFCFC"/>
<path fill-rule="evenodd" clip-rule="evenodd" d="M46.8177 19.4033C46.7836 19.421 46.7495 19.4374 46.7187 19.4574C46.6986 19.5307 46.6702 19.605 46.6397 19.6783C46.6173 19.7325 46.5935 19.7866 46.5651 19.8412C46.571 19.8376 46.5771 19.8317 46.5828 19.8291C46.6243 19.7974 46.6678 19.7702 46.7103 19.7441C46.7447 19.7217 46.7752 19.7044 46.8096 19.6876C46.8377 19.6167 46.8638 19.5424 46.8839 19.4695C46.8602 19.4494 46.8377 19.427 46.8177 19.4033ZM46.8177 19.4033C46.7836 19.421 46.7495 19.4374 46.7187 19.4574C46.6986 19.5307 46.6702 19.605 46.6397 19.6783C46.6173 19.7325 46.5935 19.7866 46.5651 19.8412C46.571 19.8376 46.5771 19.8317 46.5828 19.8291C46.6243 19.7974 46.6678 19.7702 46.7103 19.7441C46.7447 19.7217 46.7752 19.7044 46.8096 19.6876C46.8377 19.6167 46.8638 19.5424 46.8839 19.4695C46.8602 19.4494 46.8377 19.427 46.8177 19.4033ZM46.8177 19.4033C46.7836 19.421 46.7495 19.4374 46.7187 19.4574C46.6986 19.5307 46.6702 19.605 46.6397 19.6783C46.6173 19.7325 46.5935 19.7866 46.5651 19.8412C46.571 19.8376 46.5771 19.8317 46.5828 19.8291C46.6243 19.7974 46.6678 19.7702 46.7103 19.7441C46.7447 19.7217 46.7752 19.7044 46.8096 19.6876C46.8377 19.6167 46.8638 19.5424 46.8839 19.4695C46.8602 19.4494 46.8377 19.427 46.8177 19.4033ZM46.8177 19.4033C46.7836 19.421 46.7495 19.4374 46.7187 19.4574C46.6986 19.5307 46.6702 19.605 46.6397 19.6783C46.6173 19.7325 46.5935 19.7866 46.5651 19.8412C46.571 19.8376 46.5771 19.8317 46.5828 19.8291C46.6243 19.7974 46.6678 19.7702 46.7103 19.7441C46.7447 19.7217 46.7752 19.7044 46.8096 19.6876C46.8377 19.6167 46.8638 19.5424 46.8839 19.4695C46.8602 19.4494 46.8377 19.427 46.8177 19.4033ZM46.8177 19.4033C46.7836 19.421 46.7495 19.4374 46.7187 19.4574C46.6986 19.5307 46.6702 19.605 46.6397 19.6783C46.6173 19.7325 46.5935 19.7866 46.5651 19.8412C46.571 19.8376 46.5771 19.8317 46.5828 19.8291C46.6243 19.7974 46.6678 19.7702 46.7103 19.7441C46.7447 19.7217 46.7752 19.7044 46.8096 19.6876C46.8377 19.6167 46.8638 19.5424 46.8839 19.4695C46.8602 19.4494 46.8377 19.427 46.8177 19.4033ZM46.8177 19.4033C46.7836 19.421 46.7495 19.4374 46.7187 19.4574C46.6986 19.5307 46.6702 19.605 46.6397 19.6783C46.6173 19.7325 46.5935 19.7866 46.5651 19.8412C46.571 19.8376 46.5771 19.8317 46.5828 19.8291C46.6243 19.7974 46.6678 19.7702 46.7103 19.7441C46.7447 19.7217 46.7752 19.7044 46.8096 19.6876C46.8377 19.6167 46.8638 19.5424 46.8839 19.4695C46.8602 19.4494 46.8377 19.427 46.8177 19.4033ZM46.8177 19.4033C46.7836 19.421 46.7495 19.4374 46.7187 19.4574C46.6986 19.5307 46.6702 19.605 46.6397 19.6783C46.6173 19.7325 46.5935 19.7866 46.5651 19.8412C46.571 19.8376 46.5771 19.8317 46.5828 19.8291C46.6243 19.7974 46.6678 19.7702 46.7103 19.7441C46.7447 19.7217 46.7752 19.7044 46.8096 19.6876C46.8377 19.6167 46.8638 19.5424 46.8839 19.4695C46.8602 19.4494 46.8377 19.427 46.8177 19.4033ZM46.8177 19.4033C46.7836 19.421 46.7495 19.4374 46.7187 19.4574C46.6986 19.5307 46.6702 19.605 46.6397 19.6783C46.6173 19.7325 46.5935 19.7866 46.5651 19.8412C46.571 19.8376 46.5771 19.8317 46.5828 19.8291C46.6243 19.7974 46.6678 19.7702 46.7103 19.7441C46.7447 19.7217 46.7752 19.7044 46.8096 19.6876C46.8377 19.6167 46.8638 19.5424 46.8839 19.4695C46.8602 19.4494 46.8377 19.427 46.8177 19.4033ZM46.8177 19.4033C46.7836 19.421 46.7495 19.4374 46.7187 19.4574C46.6986 19.5307 46.6702 19.605 46.6397 19.6783C46.6173 19.7325 46.5935 19.7866 46.5651 19.8412C46.571 19.8376 46.5771 19.8317 46.5828 19.8291C46.6243 19.7974 46.6678 19.7702 46.7103 19.7441C46.7447 19.7217 46.7752 19.7044 46.8096 19.6876C46.8377 19.6167 46.8638 19.5424 46.8839 19.4695C46.8602 19.4494 46.8377 19.427 46.8177 19.4033ZM46.8177 19.4033C46.7836 19.421 46.7495 19.4374 46.7187 19.4574C46.6986 19.5307 46.6702 19.605 46.6397 19.6783C46.6173 19.7325 46.5935 19.7866 46.5651 19.8412C46.571 19.8376 46.5771 19.8317 46.5828 19.8291C46.6243 19.7974 46.6678 19.7702 46.7103 19.7441C46.7447 19.7217 46.7752 19.7044 46.8096 19.6876C46.8377 19.6167 46.8638 19.5424 46.8839 19.4695C46.8602 19.4494 46.8377 19.427 46.8177 19.4033ZM46.8177 19.4033C46.7836 19.421 46.7495 19.4374 46.7187 19.4574C46.6986 19.5307 46.6702 19.605 46.6397 19.6783C46.6173 19.7325 46.5935 19.7866 46.5651 19.8412C46.571 19.8376 46.5771 19.8317 46.5828 19.8291C46.6243 19.7974 46.6678 19.7702 46.7103 19.7441C46.7447 19.7217 46.7752 19.7044 46.8096 19.6876C46.8377 19.6167 46.8638 19.5424 46.8839 19.4695C46.8602 19.4494 46.8377 19.427 46.8177 19.4033ZM46.8177 19.4033C46.7836 19.421 46.7495 19.4374 46.7187 19.4574C46.6986 19.5307 46.6702 19.605 46.6397 19.6783C46.6173 19.7325 46.5935 19.7866 46.5651 19.8412C46.571 19.8376 46.5771 19.8317 46.5828 19.8291C46.6243 19.7974 46.6678 19.7702 46.7103 19.7441C46.7447 19.7217 46.7752 19.7044 46.8096 19.6876C46.8377 19.6167 46.8638 19.5424 46.8839 19.4695C46.8602 19.4494 46.8377 19.427 46.8177 19.4033ZM46.8177 19.4033C46.7836 19.421 46.7495 19.4374 46.7187 19.4574C46.6986 19.5307 46.6702 19.605 46.6397 19.6783C46.6173 19.7325 46.5935 19.7866 46.5651 19.8412C46.571 19.8376 46.5771 19.8317 46.5828 19.8291C46.6243 19.7974 46.6678 19.7702 46.7103 19.7441C46.7447 19.7217 46.7752 19.7044 46.8096 19.6876C46.8377 19.6167 46.8638 19.5424 46.8839 19.4695C46.8602 19.4494 46.8377 19.427 46.8177 19.4033ZM46.8177 19.4033C46.7836 19.421 46.7495 19.4374 46.7187 19.4574C46.6986 19.5307 46.6702 19.605 46.6397 19.6783C46.6173 19.7325 46.5935 19.7866 46.5651 19.8412C46.571 19.8376 46.5771 19.8317 46.5828 19.8291C46.6243 19.7974 46.6678 19.7702 46.7103 19.7441C46.7447 19.7217 46.7752 19.7044 46.8096 19.6876C46.8377 19.6167 46.8638 19.5424 46.8839 19.4695C46.8602 19.4494 46.8377 19.427 46.8177 19.4033ZM46.8177 19.4033C46.7836 19.421 46.7495 19.4374 46.7187 19.4574C46.6986 19.5307 46.6702 19.605 46.6397 19.6783C46.6173 19.7325 46.5935 19.7866 46.5651 19.8412C46.571 19.8376 46.5771 19.8317 46.5828 19.8291C46.6243 19.7974 46.6678 19.7702 46.7103 19.7441C46.7447 19.7217 46.7752 19.7044 46.8096 19.6876C46.8377 19.6167 46.8638 19.5424 46.8839 19.4695C46.8602 19.4494 46.8377 19.427 46.8177 19.4033ZM46.8177 19.4033C46.7836 19.421 46.7495 19.4374 46.7187 19.4574C46.6986 19.5307 46.6702 19.605 46.6397 19.6783C46.6173 19.7325 46.5935 19.7866 46.5651 19.8412C46.571 19.8376 46.5771 19.8317 46.5828 19.8291C46.6243 19.7974 46.6678 19.7702 46.7103 19.7441C46.7447 19.7217 46.7752 19.7044 46.8096 19.6876C46.8377 19.6167 46.8638 19.5424 46.8839 19.4695C46.8602 19.4494 46.8377 19.427 46.8177 19.4033ZM46.8177 19.4033C46.7836 19.421 46.7495 19.4374 46.7187 19.4574C46.6986 19.5307 46.6702 19.605 46.6397 19.6783C46.6173 19.7325 46.5935 19.7866 46.5651 19.8412C46.571 19.8376 46.5771 19.8317 46.5828 19.8291C46.6243 19.7974 46.6678 19.7702 46.7103 19.7441C46.7447 19.7217 46.7752 19.7044 46.8096 19.6876C46.8377 19.6167 46.8638 19.5424 46.8839 19.4695C46.8602 19.4494 46.8377 19.427 46.8177 19.4033ZM46.8177 19.4033C46.7836 19.421 46.7495 19.4374 46.7187 19.4574C46.6986 19.5307 46.6702 19.605 46.6397 19.6783C46.6173 19.7325 46.5935 19.7866 46.5651 19.8412C46.571 19.8376 46.5771 19.8317 46.5828 19.8291C46.6243 19.7974 46.6678 19.7702 46.7103 19.7441C46.7447 19.7217 46.7752 19.7044 46.8096 19.6876C46.8377 19.6167 46.8638 19.5424 46.8839 19.4695C46.8602 19.4494 46.8377 19.427 46.8177 19.4033ZM46.8177 19.4033C46.7836 19.421 46.7495 19.4374 46.7187 19.4574C46.6986 19.5307 46.6702 19.605 46.6397 19.6783C46.6173 19.7325 46.5935 19.7866 46.5651 19.8412C46.571 19.8376 46.5771 19.8317 46.5828 19.8291C46.6243 19.7974 46.6678 19.7702 46.7103 19.7441C46.7447 19.7217 46.7752 19.7044 46.8096 19.6876C46.8377 19.6167 46.8638 19.5424 46.8839 19.4695C46.8602 19.4494 46.8377 19.427 46.8177 19.4033ZM46.8177 19.4033C46.7836 19.421 46.7495 19.4374 46.7187 19.4574C46.6986 19.5307 46.6702 19.605 46.6397 19.6783C46.6173 19.7325 46.5935 19.7866 46.5651 19.8412C46.571 19.8376 46.5771 19.8317 46.5828 19.8291C46.6243 19.7974 46.6678 19.7702 46.7103 19.7441C46.7447 19.7217 46.7752 19.7044 46.8096 19.6876C46.8377 19.6167 46.8638 19.5424 46.8839 19.4695C46.8602 19.4494 46.8377 19.427 46.8177 19.4033ZM46.8177 19.4033C46.7836 19.421 46.7495 19.4374 46.7187 19.4574C46.6986 19.5307 46.6702 19.605 46.6397 19.6783C46.6173 19.7325 46.5935 19.7866 46.5651 19.8412C46.571 19.8376 46.5771 19.8317 46.5828 19.8291C46.6243 19.7974 46.6678 19.7702 46.7103 19.7441C46.7447 19.7217 46.7752 19.7044 46.8096 19.6876C46.8377 19.6167 46.8638 19.5424 46.8839 19.4695C46.8602 19.4494 46.8377 19.427 46.8177 19.4033ZM46.8177 19.4033C46.7836 19.421 46.7495 19.4374 46.7187 19.4574C46.6986 19.5307 46.6702 19.605 46.6397 19.6783C46.6173 19.7325 46.5935 19.7866 46.5651 19.8412C46.571 19.8376 46.5771 19.8317 46.5828 19.8291C46.6243 19.7974 46.6678 19.7702 46.7103 19.7441C46.7447 19.7217 46.7752 19.7044 46.8096 19.6876C46.8377 19.6167 46.8638 19.5424 46.8839 19.4695C46.8602 19.4494 46.8377 19.427 46.8177 19.4033ZM46.8177 19.4033C46.7836 19.421 46.7495 19.4374 46.7187 19.4574C46.6986 19.5307 46.6702 19.605 46.6397 19.6783C46.6173 19.7325 46.5935 19.7866 46.5651 19.8412C46.571 19.8376 46.5771 19.8317 46.5828 19.8291C46.6243 19.7974 46.6678 19.7702 46.7103 19.7441C46.7447 19.7217 46.7752 19.7044 46.8096 19.6876C46.8377 19.6167 46.8638 19.5424 46.8839 19.4695C46.8602 19.4494 46.8377 19.427 46.8177 19.4033ZM46.8177 19.4033C46.7836 19.421 46.7495 19.4374 46.7187 19.4574C46.6986 19.5307 46.6702 19.605 46.6397 19.6783C46.6173 19.7325 46.5935 19.7866 46.5651 19.8412C46.571 19.8376 46.5771 19.8317 46.5828 19.8291C46.6243 19.7974 46.6678 19.7702 46.7103 19.7441C46.7447 19.7217 46.7752 19.7044 46.8096 19.6876C46.8377 19.6167 46.8638 19.5424 46.8839 19.4695C46.8602 19.4494 46.8377 19.427 46.8177 19.4033ZM46.1451 19.8776C46.1451 19.8459 46.1546 19.8127 46.1732 19.7833C46.1911 19.7549 46.204 19.7301 46.2219 19.7017C46.276 19.6017 46.3185 19.4999 46.3527 19.3949C46.3326 19.4055 46.3162 19.421 46.2985 19.4317C46.2336 19.4765 46.171 19.5284 46.1107 19.5769C45.6175 19.9934 45.2927 20.5468 45.1572 21.1407C45.2515 21.1183 45.3425 21.0898 45.4332 21.052C45.5382 21.0132 45.6423 20.9647 45.7427 20.9045C45.8665 20.593 46.0541 20.3038 46.3068 20.0593C46.2806 20.0557 46.2582 20.0498 46.2359 20.0369C46.1794 20.0028 46.1451 19.9402 46.1451 19.8776ZM46.7896 19.1483C46.7813 19.2095 46.7695 19.2758 46.7528 19.3347V19.3382C46.7445 19.3784 46.7327 19.4172 46.7187 19.4573C46.6986 19.5306 46.6702 19.6049 46.6397 19.6782C46.6173 19.7323 46.5935 19.7865 46.5651 19.841C46.571 19.8375 46.5771 19.8316 46.5828 19.829C46.6243 19.7973 46.6678 19.7701 46.7103 19.744C46.7447 19.7216 46.7752 19.7042 46.8096 19.6875C46.8377 19.6166 46.8638 19.5423 46.8839 19.4694C46.8945 19.4349 46.9027 19.4008 46.9123 19.3629V19.3606C46.9348 19.2672 46.9512 19.1728 46.9629 19.0771C46.9027 19.0962 46.8461 19.122 46.7896 19.1481V19.1483ZM46.8177 19.4033C46.7836 19.421 46.7495 19.4374 46.7187 19.4574C46.6986 19.5307 46.6702 19.605 46.6397 19.6783C46.6173 19.7325 46.5935 19.7866 46.5651 19.8412C46.571 19.8376 46.5771 19.8317 46.5828 19.8291C46.6243 19.7974 46.6678 19.7702 46.7103 19.7441C46.7447 19.7217 46.7752 19.7044 46.8096 19.6876C46.8377 19.6167 46.8638 19.5424 46.8839 19.4695C46.8602 19.4494 46.8377 19.427 46.8177 19.4033ZM46.8177 19.4033C46.7836 19.421 46.7495 19.4374 46.7187 19.4574C46.6986 19.5307 46.6702 19.605 46.6397 19.6783C46.6173 19.7325 46.5935 19.7866 46.5651 19.8412C46.571 19.8376 46.5771 19.8317 46.5828 19.8291C46.6243 19.7974 46.6678 19.7702 46.7103 19.7441C46.7447 19.7217 46.7752 19.7044 46.8096 19.6876C46.8377 19.6167 46.8638 19.5424 46.8839 19.4695C46.8602 19.4494 46.8377 19.427 46.8177 19.4033ZM46.8177 19.4033C46.7836 19.421 46.7495 19.4374 46.7187 19.4574C46.6986 19.5307 46.6702 19.605 46.6397 19.6783C46.6173 19.7325 46.5935 19.7866 46.5651 19.8412C46.571 19.8376 46.5771 19.8317 46.5828 19.8291C46.6243 19.7974 46.6678 19.7702 46.7103 19.7441C46.7447 19.7217 46.7752 19.7044 46.8096 19.6876C46.8377 19.6167 46.8638 19.5424 46.8839 19.4695C46.8602 19.4494 46.8377 19.427 46.8177 19.4033ZM46.8177 19.4033C46.7836 19.421 46.7495 19.4374 46.7187 19.4574C46.6986 19.5307 46.6702 19.605 46.6397 19.6783C46.6173 19.7325 46.5935 19.7866 46.5651 19.8412C46.571 19.8376 46.5771 19.8317 46.5828 19.8291C46.6243 19.7974 46.6678 19.7702 46.7103 19.7441C46.7447 19.7217 46.7752 19.7044 46.8096 19.6876C46.8377 19.6167 46.8638 19.5424 46.8839 19.4695C46.8602 19.4494 46.8377 19.427 46.8177 19.4033ZM46.8177 19.4033C46.7836 19.421 46.7495 19.4374 46.7187 19.4574C46.6986 19.5307 46.6702 19.605 46.6397 19.6783C46.6173 19.7325 46.5935 19.7866 46.5651 19.8412C46.571 19.8376 46.5771 19.8317 46.5828 19.8291C46.6243 19.7974 46.6678 19.7702 46.7103 19.7441C46.7447 19.7217 46.7752 19.7044 46.8096 19.6876C46.8377 19.6167 46.8638 19.5424 46.8839 19.4695C46.8602 19.4494 46.8377 19.427 46.8177 19.4033ZM46.8177 19.4033C46.7836 19.421 46.7495 19.4374 46.7187 19.4574C46.6986 19.5307 46.6702 19.605 46.6397 19.6783C46.6173 19.7325 46.5935 19.7866 46.5651 19.8412C46.571 19.8376 46.5771 19.8317 46.5828 19.8291C46.6243 19.7974 46.6678 19.7702 46.7103 19.7441C46.7447 19.7217 46.7752 19.7044 46.8096 19.6876C46.8377 19.6167 46.8638 19.5424 46.8839 19.4695C46.8602 19.4494 46.8377 19.427 46.8177 19.4033ZM46.8177 19.4033C46.7836 19.421 46.7495 19.4374 46.7187 19.4574C46.6986 19.5307 46.6702 19.605 46.6397 19.6783C46.6173 19.7325 46.5935 19.7866 46.5651 19.8412C46.571 19.8376 46.5771 19.8317 46.5828 19.8291C46.6243 19.7974 46.6678 19.7702 46.7103 19.7441C46.7447 19.7217 46.7752 19.7044 46.8096 19.6876C46.8377 19.6167 46.8638 19.5424 46.8839 19.4695C46.8602 19.4494 46.8377 19.427 46.8177 19.4033ZM46.8177 19.4033C46.7836 19.421 46.7495 19.4374 46.7187 19.4574C46.6986 19.5307 46.6702 19.605 46.6397 19.6783C46.6173 19.7325 46.5935 19.7866 46.5651 19.8412C46.571 19.8376 46.5771 19.8317 46.5828 19.8291C46.6243 19.7974 46.6678 19.7702 46.7103 19.7441C46.7447 19.7217 46.7752 19.7044 46.8096 19.6876C46.8377 19.6167 46.8638 19.5424 46.8839 19.4695C46.8602 19.4494 46.8377 19.427 46.8177 19.4033ZM46.8177 19.4033C46.7836 19.421 46.7495 19.4374 46.7187 19.4574C46.6986 19.5307 46.6702 19.605 46.6397 19.6783C46.6173 19.7325 46.5935 19.7866 46.5651 19.8412C46.571 19.8376 46.5771 19.8317 46.5828 19.8291C46.6243 19.7974 46.6678 19.7702 46.7103 19.7441C46.7447 19.7217 46.7752 19.7044 46.8096 19.6876C46.8377 19.6167 46.8638 19.5424 46.8839 19.4695C46.8602 19.4494 46.8377 19.427 46.8177 19.4033ZM46.8177 19.4033C46.7836 19.421 46.7495 19.4374 46.7187 19.4574C46.6986 19.5307 46.6702 19.605 46.6397 19.6783C46.6173 19.7325 46.5935 19.7866 46.5651 19.8412C46.571 19.8376 46.5771 19.8317 46.5828 19.8291C46.6243 19.7974 46.6678 19.7702 46.7103 19.7441C46.7447 19.7217 46.7752 19.7044 46.8096 19.6876C46.8377 19.6167 46.8638 19.5424 46.8839 19.4695C46.8602 19.4494 46.8377 19.427 46.8177 19.4033ZM46.8177 19.4033C46.7836 19.421 46.7495 19.4374 46.7187 19.4574C46.6986 19.5307 46.6702 19.605 46.6397 19.6783C46.6173 19.7325 46.5935 19.7866 46.5651 19.8412C46.571 19.8376 46.5771 19.8317 46.5828 19.8291C46.6243 19.7974 46.6678 19.7702 46.7103 19.7441C46.7447 19.7217 46.7752 19.7044 46.8096 19.6876C46.8377 19.6167 46.8638 19.5424 46.8839 19.4695C46.8602 19.4494 46.8377 19.427 46.8177 19.4033ZM46.8177 19.4033C46.7836 19.421 46.7495 19.4374 46.7187 19.4574C46.6986 19.5307 46.6702 19.605 46.6397 19.6783C46.6173 19.7325 46.5935 19.7866 46.5651 19.8412C46.571 19.8376 46.5771 19.8317 46.5828 19.8291C46.6243 19.7974 46.6678 19.7702 46.7103 19.7441C46.7447 19.7217 46.7752 19.7044 46.8096 19.6876C46.8377 19.6167 46.8638 19.5424 46.8839 19.4695C46.8602 19.4494 46.8377 19.427 46.8177 19.4033ZM46.8177 19.4033C46.7836 19.421 46.7495 19.4374 46.7187 19.4574C46.6986 19.5307 46.6702 19.605 46.6397 19.6783C46.6173 19.7325 46.5935 19.7866 46.5651 19.8412C46.571 19.8376 46.5771 19.8317 46.5828 19.8291C46.6243 19.7974 46.6678 19.7702 46.7103 19.7441C46.7447 19.7217 46.7752 19.7044 46.8096 19.6876C46.8377 19.6167 46.8638 19.5424 46.8839 19.4695C46.8602 19.4494 46.8377 19.427 46.8177 19.4033ZM46.8177 19.4033C46.7836 19.421 46.7495 19.4374 46.7187 19.4574C46.6986 19.5307 46.6702 19.605 46.6397 19.6783C46.6173 19.7325 46.5935 19.7866 46.5651 19.8412C46.571 19.8376 46.5771 19.8317 46.5828 19.8291C46.6243 19.7974 46.6678 19.7702 46.7103 19.7441C46.7447 19.7217 46.7752 19.7044 46.8096 19.6876C46.8377 19.6167 46.8638 19.5424 46.8839 19.4695C46.8602 19.4494 46.8377 19.427 46.8177 19.4033ZM46.8177 19.4033C46.7836 19.421 46.7495 19.4374 46.7187 19.4574C46.6986 19.5307 46.6702 19.605 46.6397 19.6783C46.6173 19.7325 46.5935 19.7866 46.5651 19.8412C46.571 19.8376 46.5771 19.8317 46.5828 19.8291C46.6243 19.7974 46.6678 19.7702 46.7103 19.7441C46.7447 19.7217 46.7752 19.7044 46.8096 19.6876C46.8377 19.6167 46.8638 19.5424 46.8839 19.4695C46.8602 19.4494 46.8377 19.427 46.8177 19.4033ZM46.8177 19.4033C46.7836 19.421 46.7495 19.4374 46.7187 19.4574C46.6986 19.5307 46.6702 19.605 46.6397 19.6783C46.6173 19.7325 46.5935 19.7866 46.5651 19.8412C46.571 19.8376 46.5771 19.8317 46.5828 19.8291C46.6243 19.7974 46.6678 19.7702 46.7103 19.7441C46.7447 19.7217 46.7752 19.7044 46.8096 19.6876C46.8377 19.6167 46.8638 19.5424 46.8839 19.4695C46.8602 19.4494 46.8377 19.427 46.8177 19.4033ZM46.8177 19.4033C46.7836 19.421 46.7495 19.4374 46.7187 19.4574C46.6986 19.5307 46.6702 19.605 46.6397 19.6783C46.6173 19.7325 46.5935 19.7866 46.5651 19.8412C46.571 19.8376 46.5771 19.8317 46.5828 19.8291C46.6243 19.7974 46.6678 19.7702 46.7103 19.7441C46.7447 19.7217 46.7752 19.7044 46.8096 19.6876C46.8377 19.6167 46.8638 19.5424 46.8839 19.4695C46.8602 19.4494 46.8377 19.427 46.8177 19.4033ZM46.8177 19.4033C46.7836 19.421 46.7495 19.4374 46.7187 19.4574C46.6986 19.5307 46.6702 19.605 46.6397 19.6783C46.6173 19.7325 46.5935 19.7866 46.5651 19.8412C46.571 19.8376 46.5771 19.8317 46.5828 19.8291C46.6243 19.7974 46.6678 19.7702 46.7103 19.7441C46.7447 19.7217 46.7752 19.7044 46.8096 19.6876C46.8377 19.6167 46.8638 19.5424 46.8839 19.4695C46.8602 19.4494 46.8377 19.427 46.8177 19.4033ZM46.8177 19.4033C46.7836 19.421 46.7495 19.4374 46.7187 19.4574C46.6986 19.5307 46.6702 19.605 46.6397 19.6783C46.6173 19.7325 46.5935 19.7866 46.5651 19.8412C46.571 19.8376 46.5771 19.8317 46.5828 19.8291C46.6243 19.7974 46.6678 19.7702 46.7103 19.7441C46.7447 19.7217 46.7752 19.7044 46.8096 19.6876C46.8377 19.6167 46.8638 19.5424 46.8839 19.4695C46.8602 19.4494 46.8377 19.427 46.8177 19.4033ZM46.8177 19.4033C46.7836 19.421 46.7495 19.4374 46.7187 19.4574C46.6986 19.5307 46.6702 19.605 46.6397 19.6783C46.6173 19.7325 46.5935 19.7866 46.5651 19.8412C46.571 19.8376 46.5771 19.8317 46.5828 19.8291C46.6243 19.7974 46.6678 19.7702 46.7103 19.7441C46.7447 19.7217 46.7752 19.7044 46.8096 19.6876C46.8377 19.6167 46.8638 19.5424 46.8839 19.4695C46.8602 19.4494 46.8377 19.427 46.8177 19.4033ZM46.8177 19.4033C46.7836 19.421 46.7495 19.4374 46.7187 19.4574C46.6986 19.5307 46.6702 19.605 46.6397 19.6783C46.6173 19.7325 46.5935 19.7866 46.5651 19.8412C46.571 19.8376 46.5771 19.8317 46.5828 19.8291C46.6243 19.7974 46.6678 19.7702 46.7103 19.7441C46.7447 19.7217 46.7752 19.7044 46.8096 19.6876C46.8377 19.6167 46.8638 19.5424 46.8839 19.4695C46.8602 19.4494 46.8377 19.427 46.8177 19.4033ZM46.8177 19.4033C46.7836 19.421 46.7495 19.4374 46.7187 19.4574C46.6986 19.5307 46.6702 19.605 46.6397 19.6783C46.6173 19.7325 46.5935 19.7866 46.5651 19.8412C46.571 19.8376 46.5771 19.8317 46.5828 19.8291C46.6243 19.7974 46.6678 19.7702 46.7103 19.7441C46.7447 19.7217 46.7752 19.7044 46.8096 19.6876C46.8377 19.6167 46.8638 19.5424 46.8839 19.4695C46.8602 19.4494 46.8377 19.427 46.8177 19.4033ZM46.8177 19.4033C46.7836 19.421 46.7495 19.4374 46.7187 19.4574C46.6986 19.5307 46.6702 19.605 46.6397 19.6783C46.6173 19.7325 46.5935 19.7866 46.5651 19.8412C46.571 19.8376 46.5771 19.8317 46.5828 19.8291C46.6243 19.7974 46.6678 19.7702 46.7103 19.7441C46.7447 19.7217 46.7752 19.7044 46.8096 19.6876C46.8377 19.6167 46.8638 19.5424 46.8839 19.4695C46.8602 19.4494 46.8377 19.427 46.8177 19.4033ZM46.8177 19.4033C46.7836 19.421 46.7495 19.4374 46.7187 19.4574C46.6986 19.5307 46.6702 19.605 46.6397 19.6783C46.6173 19.7325 46.5935 19.7866 46.5651 19.8412C46.571 19.8376 46.5771 19.8317 46.5828 19.8291C46.6243 19.7974 46.6678 19.7702 46.7103 19.7441C46.7447 19.7217 46.7752 19.7044 46.8096 19.6876C46.8377 19.6167 46.8638 19.5424 46.8839 19.4695C46.8602 19.4494 46.8377 19.427 46.8177 19.4033Z" fill="#FCFCFC"/>
<path fill-rule="evenodd" clip-rule="evenodd" d="M46.6824 19.957C46.6599 19.9995 46.6362 20.0397 46.6114 20.0761C46.4558 20.3311 46.2481 20.5589 45.9932 20.7456C46.131 20.4786 46.3247 20.2381 46.5689 20.0397C46.6058 20.0139 46.6398 19.9855 46.6763 19.9594C46.6799 19.9594 46.6799 19.957 46.6822 19.957H46.6824Z" fill="#FCFCFC"/>
<path fill-rule="evenodd" clip-rule="evenodd" d="M46.7896 19.1486C46.7813 19.2112 46.7695 19.2761 46.7531 19.3363V19.3386C46.7437 19.3788 46.7331 19.4189 46.7187 19.4577C46.6986 19.532 46.6705 19.6053 46.6397 19.6795C46.6173 19.734 46.5936 19.7869 46.5655 19.8414C46.5655 19.8414 46.5631 19.8414 46.5631 19.8438C46.5407 19.8863 46.517 19.9298 46.4922 19.9713C46.4922 19.9748 46.4886 19.9748 46.4886 19.9772C46.4746 19.9972 46.4582 20.014 46.4381 20.0295C46.4002 20.0576 46.3531 20.0682 46.3069 20.0599C46.2811 20.0576 46.2587 20.0517 46.2363 20.0375C46.1795 20.0033 46.1453 19.9407 46.1453 19.8781C46.1453 19.8475 46.1535 19.8132 46.1737 19.7848C46.1912 19.7567 46.2042 19.7306 46.222 19.7022C46.2762 19.6031 46.3187 19.5005 46.3531 19.3954C46.3555 19.393 46.3614 19.3907 46.3672 19.3871C46.3613 19.3848 46.3577 19.3813 46.3577 19.3789C46.4036 19.2454 46.4321 19.1062 46.4438 18.9671C46.452 18.8901 46.4544 18.8134 46.452 18.7368C46.4485 18.6552 46.5062 18.5809 46.5832 18.5585C46.5996 18.5526 46.6136 18.5502 46.6304 18.5502C46.7331 18.5467 46.8181 18.6272 46.8204 18.7284C46.8204 18.7687 46.8204 18.8074 46.818 18.8476C46.818 18.9503 46.8074 19.0497 46.7896 19.1487V19.1486ZM43.4482 17.2495C42.597 17.8575 42.4013 19.0472 43.0116 19.898C43.0717 19.9807 43.0541 20.0964 42.9691 20.1543C42.8865 20.2132 42.773 20.1954 42.7128 20.1104C41.9871 19.0977 42.2193 17.6778 43.2357 16.9484C43.3183 16.8919 43.4317 16.9096 43.4917 16.9909C43.5509 17.0735 43.5308 17.1904 43.4482 17.2495ZM46.5253 17.3804C46.4096 17.215 46.2737 17.0675 46.1261 16.9424C46.02 16.8527 45.9066 16.7724 45.7899 16.7042C45.6909 16.645 45.5891 16.5931 45.4817 16.5519C45.3814 16.5094 45.28 16.475 45.1749 16.4493C44.4988 16.2709 43.7527 16.3807 43.1423 16.8209C42.0554 17.5989 41.805 19.1178 42.583 20.2049C43.1815 21.0392 44.2177 21.3829 45.1572 21.141C45.2515 21.1185 45.3412 21.0901 45.4335 21.0536C45.5373 21.0135 45.6423 20.965 45.7427 20.9061C45.8193 20.866 45.8962 20.8174 45.9692 20.7642C45.9774 20.7583 45.9859 20.7524 45.9916 20.7469C46.248 20.5592 46.4544 20.3323 46.6112 20.0774C46.636 20.0395 46.6597 20.0008 46.6822 19.9583C46.713 19.904 46.7387 19.8495 46.7648 19.7929C46.7812 19.7588 46.7956 19.722 46.8096 19.6879C46.8381 19.617 46.8629 19.5427 46.8839 19.4694C46.8945 19.4353 46.903 19.4012 46.9123 19.3644V19.3608C46.9348 19.2675 46.9512 19.1732 46.9632 19.0774C46.9715 19.0149 46.9738 18.9523 46.9772 18.8898C46.9997 18.3681 46.8522 17.8372 46.5253 17.3802V17.3804Z" fill="#FCFCFC"/>
<path fill-rule="evenodd" clip-rule="evenodd" d="M46.367 19.3865C46.3611 19.3888 46.3563 19.3924 46.3525 19.3948C46.3561 19.3888 46.3585 19.3841 46.3585 19.3779C46.3585 19.3803 46.3608 19.3839 46.3668 19.3862L46.367 19.3865Z" fill="#FCFCFC"/>
<path fill-rule="evenodd" clip-rule="evenodd" d="M26.0239 34.6379C25.9894 34.6604 25.9446 34.6684 25.9044 34.6497C25.8419 34.6202 25.8138 34.5493 25.8419 34.488C25.888 34.383 25.9164 34.2696 25.9268 34.1528C25.9327 34.0843 25.9931 34.0361 26.058 34.0418C26.1266 34.0453 26.1771 34.1043 26.1714 34.1716C26.1608 34.3168 26.1229 34.4559 26.064 34.5872C26.0557 34.6072 26.0416 34.6235 26.0239 34.6379ZM24.3042 33.2335C23.8438 33.5613 23.7364 34.2061 24.068 34.666C24.1058 34.7229 24.0941 34.7996 24.0395 34.8398C23.983 34.8762 23.9064 34.8644 23.8696 34.8103C23.4577 34.2402 23.5911 33.4422 24.1613 33.0337C24.2155 32.9935 24.2921 33.0089 24.3323 33.0621C24.3724 33.1163 24.357 33.1932 24.3042 33.2335ZM26.157 33.1708C25.6602 32.478 24.6959 32.3188 24.0067 32.8156C23.3138 33.3125 23.1545 34.2743 23.6477 34.9672C24.1446 35.6601 25.1102 35.818 25.7994 35.3225C26.4923 34.8257 26.6515 33.8625 26.157 33.1708Z" fill="#FCFCFC"/>
<path fill-rule="evenodd" clip-rule="evenodd" d="M11.4959 94.7482H11.3968C11.3968 94.7482 11.5207 93.6389 10.1707 93.4133C11.5207 93.1925 11.3968 92.082 11.3968 92.082H11.4959C11.4959 92.082 11.3684 93.1925 12.7225 93.4133C11.3684 93.6389 11.4959 94.7482 11.4959 94.7482Z" fill="#FCFCFC"/>
<path fill-rule="evenodd" clip-rule="evenodd" d="M20.7665 91.6569L14.3115 94.4014L19.8012 91.3076L20.7665 91.6569Z" fill="#FCFCFC"/>
<path fill-rule="evenodd" clip-rule="evenodd" d="M25.1917 96.9034L20.4775 102.399L25.01 95.7397L25.1917 96.9034Z" fill="#FCFCFC"/>
<path fill-rule="evenodd" clip-rule="evenodd" d="M25.5214 100.697H25.4247C25.4247 100.697 25.5498 99.5891 24.1985 99.3673C25.5498 99.1428 25.4247 98.0322 25.4247 98.0322H25.5214C25.5214 98.0322 25.3963 99.1428 26.7479 99.3673C25.3963 99.5891 25.5214 100.697 25.5214 100.697Z" fill="#FCFCFC"/>
<path fill-rule="evenodd" clip-rule="evenodd" d="M26.2676 103.571V103.596H12.1714V103.571C14.2605 103.153 16.386 102.929 18.5461 102.875L19.168 102.863C19.796 102.869 20.2671 102.927 20.9362 102.949L21.1698 102.96C22.7965 103.071 24.4336 103.259 26.0916 103.543C26.1509 103.55 26.2074 103.56 26.2676 103.571V103.571Z" fill="#FCFCFC"/>
<path fill-rule="evenodd" clip-rule="evenodd" d="M28.0448 89.6245C27.9374 89.6386 27.8263 89.6526 27.7129 89.6526C27.8203 89.6268 27.9314 89.6245 28.0448 89.6245Z" fill="#FCFCFC"/>
<path fill-rule="evenodd" clip-rule="evenodd" d="M31.1494 104.975C31.0788 104.975 31.0044 104.97 30.9335 104.963L30.361 112.457C30.361 113.763 29.3048 114.821 27.9994 114.821H10.2639C8.95872 114.821 7.89976 113.763 7.89976 112.457L7.32863 104.963C7.25545 104.969 7.18449 104.975 7.11013 104.975C5.06962 104.975 3.41484 103.393 3.41484 101.441C3.41484 99.6249 4.85118 98.1284 6.69965 97.9289L6.69608 97.9076H7.15876C7.66169 97.9076 8.14444 97.9807 8.60122 98.1166V92.8347C8.60122 90.7536 10.2865 89.066 12.3675 89.066H16.8206C16.7394 89.5088 16.4265 90.2003 15.2709 90.388C17.0061 90.6747 16.8431 92.0969 16.8431 92.0969H16.9682C16.9682 92.0969 16.8066 90.6747 18.5417 90.388C17.3861 90.2003 17.0733 89.5088 16.9906 89.066H26.7009C26.7328 89.066 26.7673 89.066 26.7979 89.0671L29.4218 86.4456C29.2564 86.2771 29.2564 86.0114 29.4241 85.8462C29.5881 85.6786 29.8548 85.6785 30.0224 85.8438L30.9997 84.8698L31.6749 85.5451L27.9453 89.2772C29.4159 89.7894 30.4687 91.1906 30.4687 92.8347V97.9466C30.6766 97.9205 30.889 97.9076 31.1037 97.9076H31.5642V97.9289C33.41 98.1284 34.8487 99.6249 34.8487 101.441C34.8487 103.393 33.1929 104.975 31.1496 104.975H31.1494ZM10.1612 80.5926H10.3148C10.3148 80.5926 10.1164 82.3488 12.2563 82.7018C10.1164 83.0534 10.3148 84.81 10.3148 84.81H10.1612C10.1612 84.81 10.3609 83.0534 8.22092 82.7018C10.3609 82.3488 10.1612 80.5926 10.1612 80.5926ZM16.5679 82.6229H16.7238C16.7238 82.6229 16.5231 84.379 18.6631 84.7307C16.5231 85.0823 16.7238 86.8398 16.7238 86.8398H16.5679C16.5679 86.8398 16.7663 85.0823 14.6264 84.7307C16.7663 84.379 16.5679 82.6229 16.5679 82.6229ZM26.2101 79.0144H26.4743C26.4743 79.0144 26.1307 82.0173 29.7933 82.6169C26.1307 83.2177 26.4743 86.2202 26.4743 86.2202H26.2101C26.2101 86.2202 26.5509 83.2177 22.8921 82.6169C26.5509 82.0173 26.2101 79.0144 26.2101 79.0144ZM37.8773 97.9265C35.7986 97.9265 34.1134 96.241 34.1134 94.1636V67.2716H28.2319C26.3893 67.2716 25.3107 65.3916 25.9527 63.8652H2.32178V121.77H60.2276V97.9265H37.8773Z" fill="#FCFCFC"/>
<path fill-rule="evenodd" clip-rule="evenodd" d="M105.044 85.7727C106.765 85.4636 108.322 85.9002 109.705 86.8481C111.698 88.2078 112.581 90.1894 112.683 92.7306C111.213 92.0413 110.134 91.0533 108.953 90.1858C109.368 91.3485 110.454 91.9811 111.178 92.9229C108.538 93.4001 104.695 88.9927 105.044 85.7727ZM102.353 91.7191C101.925 92.0778 101.434 92.1478 100.912 91.9386C100.438 91.7475 100.127 91.2741 100.153 90.7148C100.167 90.4458 100.213 90.1493 100.335 89.9144C100.668 89.2734 101.048 88.6561 101.468 87.9305C101.911 88.7555 102.337 89.4909 102.703 90.2581C102.935 90.7465 102.762 91.3732 102.353 91.7191ZM99.1828 95.9659C97.8114 96.7685 96.166 95.8467 96.1767 94.2569C96.1791 93.8624 96.2734 93.4366 96.4457 93.0872C96.9887 92.0059 97.5906 90.953 98.1443 89.9308C98.7251 91.0206 99.3387 92.1618 99.9407 93.3127C100.02 93.4599 100.052 93.6383 100.086 93.8059C100.258 94.7253 99.9183 95.5363 99.1828 95.9659ZM94.7805 89.1473C94.7581 88.903 94.7723 88.6196 94.8736 88.4026C95.1438 87.8114 95.4674 87.2458 95.8332 86.553C96.3892 87.4215 97.043 88.0803 96.9569 89.0884C96.9037 89.728 96.5059 90.1269 95.8983 90.1387C95.2937 90.1493 94.8394 89.7692 94.7805 89.1473ZM114.159 95.5741V63.8652H99.3271C99.9692 65.3925 98.8901 67.2715 97.049 67.2715H90.5997V94.1635C90.5997 96.241 88.9131 97.9275 86.8357 97.9275H66.4719V111.552H114.159V96.5762C113.432 96.5029 112.788 96.437 112.144 96.3708C111.695 97.0567 111.306 97.6926 110.88 98.3015C108.723 101.382 105.729 103.19 102.103 104.001C100.043 104.464 97.9543 104.581 95.8475 104.317C95.0023 104.215 94.1502 104.126 93.3038 104.001C92.932 103.947 92.572 103.817 92.1116 103.696C92.8189 100.841 94.1077 98.4374 96.2818 96.53C96.6796 96.6668 96.983 96.7638 97.2804 96.8712C98.7794 97.4129 100.5 96.4735 100.767 94.8929C100.88 94.2144 101.221 93.9217 101.826 93.8119C103.814 93.4426 105.816 93.3255 107.826 93.6266C108.586 93.741 109.344 93.8768 110.103 94.0183C110.321 94.0608 110.528 94.1575 110.752 94.3335C107.578 95.1515 104.451 96.0178 101.763 97.9937C105.708 96.2587 109.807 95.3215 114.159 95.5741Z" fill="#FCFCFC"/>
<path fill-rule="evenodd" clip-rule="evenodd" d="M109.319 37.6068L98.5745 27.8363L88.2963 18.4872L88.6978 18.0493L98.9662 27.3879L109.719 37.1688L109.319 37.6068ZM107.761 39.3209L97.0461 29.5737L86.7386 20.2009L87.9648 18.8496L98.2486 28.2056L108.987 37.9705L107.761 39.3209ZM95.9838 32.8067C94.9898 33.3745 87.7664 43.2949 87.7664 43.2949C87.7262 43.3407 87.6804 43.3772 87.6308 43.4093C87.2435 43.937 86.6191 44.2803 85.9159 44.2803C84.7402 44.2803 83.7866 43.3267 83.7866 42.151C83.7866 41.3473 84.2326 40.6474 84.8937 40.2861C84.8973 40.2838 84.8996 40.2802 84.902 40.2802C86.3303 39.0112 93.9114 32.2504 94.3373 31.3086C94.3373 31.3086 93.5397 27.3107 93.9372 27.0501L95.1069 28.1147C95.1069 28.1147 94.957 30.0479 95.669 31.1372C95.7148 31.2082 95.754 31.2848 95.8045 31.3473C96.9153 32.1313 99.0916 31.7396 99.0916 31.7396L100.261 32.8004C100.041 33.2207 95.9838 32.8067 95.9838 32.8067ZM77.1837 30.0706H77.0282C77.0282 30.0706 77.2276 28.313 75.0863 27.9614C77.2276 27.6098 77.0282 25.8522 77.0282 25.8522H77.1837C77.1837 25.8522 76.9831 27.6098 79.123 27.9614C76.9831 28.313 77.1837 30.0706 77.1837 30.0706ZM90.3607 6.06546H90.6253C90.6253 6.06546 90.2817 9.06828 93.943 9.66788C90.2817 10.2688 90.6253 13.2726 90.6253 13.2726H90.3607C90.3607 13.2726 90.7019 10.2688 87.0416 9.66788C90.7019 9.06828 90.3607 6.06546 90.3607 6.06546ZM101.726 13.5336H101.993C101.993 13.5336 101.649 16.5457 105.32 17.1476C101.649 17.7519 101.993 20.7627 101.993 20.7627H101.726C101.726 20.7627 102.069 17.7519 98.3998 17.1476C102.069 16.5457 101.726 13.5336 101.726 13.5336ZM66.4714 0V29.2702L93.8496 57.9044H124.377V0H66.4714Z" fill="#FCFCFC"/>
<path fill-rule="evenodd" clip-rule="evenodd" d="M31.3337 58.0041L44.6722 44.0527L33.9034 55.5373L33.463 56.0058L32.0324 57.5274C31.8367 57.7372 31.5945 57.8991 31.3337 58.0041Z" fill="#FCFCFC"/>
<path fill-rule="evenodd" clip-rule="evenodd" d="M52.512 53.9307H61.6579V63.0793H52.512V53.9307Z" fill="#FCFCFC"/>
<path fill-rule="evenodd" clip-rule="evenodd" d="M11.4959 94.7482H11.3968C11.3968 94.7482 11.5207 93.6389 10.1707 93.4133C11.5207 93.1925 11.3968 92.082 11.3968 92.082H11.4959C11.4959 92.082 11.3684 93.1925 12.7225 93.4133C11.3684 93.6389 11.4959 94.7482 11.4959 94.7482Z" fill="#FCFCFC"/>
<path fill-rule="evenodd" clip-rule="evenodd" d="M16.9695 92.0978H16.8444C16.8444 92.0978 17.006 90.6755 15.2722 90.3887C16.4275 90.2023 16.7393 89.5095 16.8219 89.0669H16.9919C17.0745 89.5095 17.3871 90.2023 18.5427 90.3887C16.8076 90.6755 16.9695 92.0978 16.9695 92.0978Z" fill="#FCFCFC"/>
<path fill-rule="evenodd" clip-rule="evenodd" d="M20.7665 91.6569L14.3115 94.4014L19.8012 91.3076L20.7665 91.6569Z" fill="#FCFCFC"/>
<path fill-rule="evenodd" clip-rule="evenodd" d="M25.1917 96.9034L20.4775 102.399L25.01 95.7397L25.1917 96.9034Z" fill="#FCFCFC"/>
<path fill-rule="evenodd" clip-rule="evenodd" d="M25.5214 100.697H25.4247C25.4247 100.697 25.5498 99.5891 24.1985 99.3673C25.5498 99.1428 25.4247 98.0322 25.4247 98.0322H25.5214C25.5214 98.0322 25.3963 99.1428 26.7479 99.3673C25.3963 99.5891 25.5214 100.697 25.5214 100.697Z" fill="#FCFCFC"/>
<path fill-rule="evenodd" clip-rule="evenodd" d="M26.2676 103.571V103.596H12.1714V103.571C14.2605 103.153 16.386 102.929 18.5461 102.875L19.168 102.863C19.796 102.869 20.2671 102.927 20.9362 102.949L21.1698 102.96C22.7965 103.071 24.4336 103.259 26.0916 103.543C26.1509 103.55 26.2074 103.56 26.2676 103.571V103.571Z" fill="#FCFCFC"/>
<path fill-rule="evenodd" clip-rule="evenodd" d="M28.0448 89.6245C27.9374 89.6386 27.8263 89.6526 27.7129 89.6526C27.8203 89.6268 27.9314 89.6245 28.0448 89.6245Z" fill="#FCFCFC"/>
<path fill-rule="evenodd" clip-rule="evenodd" d="M26.2676 103.571V103.596H12.1714V103.571C14.2605 103.153 16.386 102.929 18.5461 102.875L19.168 102.863C19.796 102.869 20.2671 102.927 20.9362 102.949L21.1698 102.96C22.7965 103.071 24.4336 103.259 26.0916 103.543C26.1509 103.55 26.2074 103.56 26.2676 103.571V103.571Z" fill="#FCFCFC"/>
<path fill-rule="evenodd" clip-rule="evenodd" d="M10.8661 102.92V113.517H10.2638C9.67971 113.517 9.20525 113.041 9.20525 112.457V112.4L8.51608 103.586L7.1868 103.666C7.16095 103.666 7.13628 103.67 7.11008 103.67C5.79286 103.67 4.71997 102.67 4.71997 101.441C4.71997 100.308 5.62891 99.357 6.83507 99.2295L6.98865 99.2129H7.1586C7.66955 99.2129 8.15832 99.3179 8.60105 99.5045C9.9289 100.067 10.8661 101.387 10.8661 102.92V102.92Z" fill="#FCFCFC"/>
<path fill-rule="evenodd" clip-rule="evenodd" d="M26.2675 103.57V103.595H26.0916V103.542C26.1508 103.549 26.2074 103.559 26.2675 103.57Z" fill="#FCFCFC"/>
<path fill-rule="evenodd" clip-rule="evenodd" d="M33.5428 101.442C33.5428 102.67 32.4698 103.67 31.1502 103.67C31.1241 103.67 31.0995 103.666 31.0736 103.666L30.469 103.63L29.748 103.586L29.6714 104.574L29.0575 112.4V112.457C29.0575 113.041 28.5807 113.516 27.9989 113.516H27.397V102.92C27.397 101.092 28.726 99.5705 30.469 99.2698C30.6758 99.233 30.8883 99.2129 31.104 99.2129H31.2978L31.4252 99.2295C32.6337 99.357 33.5428 100.308 33.5428 101.441V101.442Z" fill="#FCFCFC"/>
<path fill-rule="evenodd" clip-rule="evenodd" d="M28.0448 89.6245C27.9374 89.6386 27.8263 89.6526 27.7129 89.6526C27.8203 89.6268 27.9314 89.6245 28.0448 89.6245Z" fill="#FCFCFC"/>
<path fill-rule="evenodd" clip-rule="evenodd" d="M23.0183 89.066H22.7458L22.8814 88.9302L23.0183 89.066Z" fill="#FCFCFC"/>
<path fill-rule="evenodd" clip-rule="evenodd" d="M27.6161 93.6643L25.5872 95.6945L20.853 90.9592L22.746 89.0659H23.0177L24.9107 90.9592L25.2497 90.6193L25.9272 91.2968L25.5872 91.6345L27.6161 93.6643Z" fill="#FCFCFC"/>
<path fill-rule="evenodd" clip-rule="evenodd" d="M31.675 85.5457L27.9452 89.278L26.2657 90.9585L25.5872 90.281L26.7993 89.0679L29.4217 86.4461C29.2567 86.2775 29.2567 86.0118 29.4241 85.8466C29.5883 85.679 29.855 85.679 30.0239 85.8442L30.9999 84.8706L31.675 85.5457Z" fill="#FCFCFC"/>
<path fill-rule="evenodd" clip-rule="evenodd" d="M25.1917 96.9034L20.4775 102.399L25.01 95.7397L25.1917 96.9034Z" fill="#FCFCFC"/>
<path fill-rule="evenodd" clip-rule="evenodd" d="M20.7665 91.6569L14.3115 94.4014L19.8012 91.3076L20.7665 91.6569Z" fill="#FCFCFC"/>
<path fill-rule="evenodd" clip-rule="evenodd" d="M11.4959 94.7482H11.3968C11.3968 94.7482 11.5207 93.6389 10.1707 93.4133C11.5207 93.1925 11.3968 92.082 11.3968 92.082H11.4959C11.4959 92.082 11.3684 93.1925 12.7225 93.4133C11.3684 93.6389 11.4959 94.7482 11.4959 94.7482Z" fill="#FCFCFC"/>
<path fill-rule="evenodd" clip-rule="evenodd" d="M16.9695 92.0973H16.8444C16.8444 92.0973 17.006 90.675 15.2722 90.3882C16.4275 90.2019 16.7393 89.5091 16.8219 89.0664C16.8621 88.8409 16.8444 88.6816 16.8444 88.6816H16.9695C16.9695 88.6816 16.9518 88.8409 16.9919 89.0664C17.0745 89.5091 17.3871 90.2019 18.5427 90.3882C16.8076 90.675 16.9695 92.0973 16.9695 92.0973Z" fill="#FCFCFC"/>
<path fill-rule="evenodd" clip-rule="evenodd" d="M25.5214 100.697H25.4247C25.4247 100.697 25.5498 99.5891 24.1985 99.3673C25.5498 99.1428 25.4247 98.0322 25.4247 98.0322H25.5214C25.5214 98.0322 25.3963 99.1428 26.7479 99.3673C25.3963 99.5891 25.5214 100.697 25.5214 100.697Z" fill="#FCFCFC"/>
<path fill-rule="evenodd" clip-rule="evenodd" d="M59.6596 19.1768V27.2902C59.6596 27.7944 59.4663 28.2791 59.1204 28.6489L44.6722 44.054L33.9032 55.5382L33.4628 56.0071L32.0325 57.5284C31.8365 57.7374 31.5956 57.9004 31.3337 58.0041C31.0988 58.1032 30.8428 58.1554 30.5852 58.1554H13.0886V52.3364H28.7487L37.5363 42.9068V24.9732H44.2321V35.7258L59.6596 19.1768Z" fill="#FCFCFC"/>
<path fill-rule="evenodd" clip-rule="evenodd" d="M61.6579 63.0793H52.512V53.9307H61.6579V63.0793Z" fill="#FCFCFC"/>
<path fill-rule="evenodd" clip-rule="evenodd" d="M72.5407 63.0793H63.3945V53.9307H72.5407V63.0793Z" fill="#FCFCFC"/>
<path fill-rule="evenodd" clip-rule="evenodd" d="M61.6579 73.8025H52.512V64.6553H61.6579V73.8025Z" fill="#FCFCFC"/>
<path fill-rule="evenodd" clip-rule="evenodd" d="M72.5407 73.8025H63.3945V64.6553H72.5407V73.8025Z" fill="#FCFCFC"/>
</svg>
