<svg width="61" height="74" viewBox="0 0 61 74" fill="none" xmlns="http://www.w3.org/2000/svg">
<path d="M0.495605 61.6821L2.53271 61.6821L3.31885 64.731L4.10156 61.6821L6.13184 61.6821L6.13184 66.6929L4.86719 66.6929L4.86719 62.8716L3.88623 66.6929L2.74121 66.6929L1.76367 62.8716L1.76367 66.6929L0.495605 66.6929L0.495605 61.6821ZM6.47486 64.8882C6.47486 64.3345 6.66171 63.8787 7.03541 63.521C7.40911 63.161 7.91383 62.981 8.54957 62.981C9.27646 62.981 9.82561 63.1917 10.197 63.6133C10.4955 63.9528 10.6448 64.3709 10.6448 64.8677C10.6448 65.4259 10.4591 65.884 10.0877 66.2417C9.71852 66.5972 9.20696 66.7749 8.55299 66.7749C7.96965 66.7749 7.49798 66.6268 7.13795 66.3306C6.69589 65.9637 6.47486 65.4829 6.47486 64.8882ZM7.86939 64.8848C7.86939 65.2083 7.93434 65.4476 8.06422 65.6025C8.19638 65.7575 8.36158 65.835 8.55982 65.835C8.76034 65.835 8.92441 65.7586 9.05201 65.606C9.18189 65.4533 9.24684 65.2083 9.24684 64.8711C9.24684 64.5566 9.18189 64.3231 9.05201 64.1704C8.92213 64.0155 8.76148 63.938 8.57008 63.938C8.36728 63.938 8.1998 64.0166 8.06764 64.1738C7.93548 64.3288 7.86939 64.5658 7.86939 64.8848ZM10.6836 65.688L12.0645 65.5581C12.1214 65.7222 12.2012 65.8395 12.3037 65.9102C12.4063 65.9808 12.543 66.0161 12.7139 66.0161C12.9007 66.0161 13.0454 65.9762 13.148 65.8965C13.2277 65.8372 13.2676 65.7632 13.2676 65.6743C13.2676 65.5741 13.2152 65.4966 13.1104 65.4419C13.0352 65.4032 12.8358 65.3553 12.5122 65.2983C12.0292 65.214 11.6931 65.1366 11.5039 65.0659C11.3171 64.993 11.1587 64.8711 11.0288 64.7002C10.9012 64.5293 10.8374 64.3345 10.8374 64.1157C10.8374 63.8765 10.9069 63.6702 11.0459 63.4971C11.1849 63.3239 11.3763 63.1951 11.6201 63.1108C11.864 63.0243 12.1909 62.981 12.6011 62.981C13.034 62.981 13.353 63.014 13.5581 63.0801C13.7655 63.1462 13.9375 63.2487 14.0742 63.3877C14.2132 63.5267 14.3283 63.7147 14.4195 63.9517L13.1001 64.0815C13.0659 63.9653 13.009 63.8799 12.9292 63.8252C12.8198 63.7523 12.6877 63.7158 12.5327 63.7158C12.3755 63.7158 12.2604 63.7443 12.1875 63.8013C12.1169 63.856 12.0816 63.9232 12.0816 64.0029C12.0816 64.0918 12.1271 64.159 12.2183 64.2046C12.3094 64.2502 12.5077 64.2912 12.813 64.3276C13.2756 64.38 13.6196 64.453 13.8452 64.5464C14.0708 64.6398 14.2429 64.7731 14.3613 64.9463C14.4821 65.1195 14.5425 65.3097 14.5425 65.5171C14.5425 65.7267 14.4787 65.9307 14.3511 66.1289C14.2258 66.3271 14.0264 66.4855 13.7529 66.604C13.4818 66.7202 13.1115 66.7783 12.6421 66.7783C11.979 66.7783 11.5062 66.6838 11.2237 66.4946C10.9434 66.3055 10.7634 66.0366 10.6836 65.688ZM18.2522 64.6455L19.6092 65.0557C19.518 65.4362 19.3745 65.7541 19.1785 66.0093C18.9825 66.2645 18.7387 66.457 18.4471 66.5869C18.1577 66.7168 17.7885 66.7817 17.3396 66.7817C16.795 66.7817 16.3496 66.7031 16.0032 66.5459C15.6591 66.3864 15.3618 66.1073 15.1111 65.7085C14.8605 65.3097 14.7351 64.7993 14.7351 64.1772C14.7351 63.3478 14.955 62.7109 15.3948 62.2666C15.8369 61.82 16.4612 61.5967 17.2679 61.5967C17.899 61.5967 18.3946 61.7243 18.7547 61.9795C19.117 62.2347 19.3859 62.6266 19.5613 63.1553L18.1941 63.4595C18.1463 63.3068 18.0961 63.1951 18.0437 63.1245C17.9571 63.006 17.8512 62.9149 17.7259 62.8511C17.6005 62.7873 17.4604 62.7554 17.3054 62.7554C16.9545 62.7554 16.6857 62.8966 16.4988 63.1792C16.3575 63.3888 16.2869 63.7181 16.2869 64.167C16.2869 64.723 16.3712 65.1047 16.5398 65.312C16.7084 65.5171 16.9454 65.6196 17.2508 65.6196C17.547 65.6196 17.7703 65.5365 17.9207 65.3701C18.0734 65.2038 18.1839 64.9622 18.2522 64.6455ZM19.9351 61.6821L21.3296 61.6821L21.3296 66.6929L19.9351 66.6929L19.9351 61.6821ZM25.8631 65.2231L23.074 65.2231C23.0991 65.4465 23.1595 65.6128 23.2552 65.7222C23.3896 65.8794 23.5651 65.958 23.7815 65.958C23.9183 65.958 24.0481 65.9238 24.1712 65.8555C24.2464 65.8122 24.3273 65.7358 24.4139 65.6265L25.7845 65.7529C25.5748 66.1175 25.3219 66.3796 25.0257 66.5391C24.7295 66.6963 24.3045 66.7749 23.7508 66.7749C23.27 66.7749 22.8917 66.7077 22.616 66.5732C22.3403 66.4365 22.1113 66.2212 21.929 65.9272C21.749 65.631 21.659 65.2835 21.659 64.8848C21.659 64.3174 21.8401 63.8582 22.2024 63.5073C22.567 63.1564 23.0695 62.981 23.7098 62.981C24.2293 62.981 24.6395 63.0596 24.9402 63.2168C25.241 63.374 25.47 63.6019 25.6272 63.9004C25.7845 64.1989 25.8631 64.5874 25.8631 65.0659L25.8631 65.2231ZM24.448 64.5566C24.4207 64.2878 24.3478 64.0952 24.2293 63.979C24.1131 63.8628 23.9593 63.8047 23.7679 63.8047C23.5468 63.8047 23.3702 63.8924 23.2381 64.0679C23.1538 64.1772 23.1002 64.3402 23.0774 64.5566L24.448 64.5566ZM27.3853 64.2388L26.0557 64.0986C26.1059 63.8662 26.1776 63.6839 26.2711 63.5518C26.3668 63.4173 26.5035 63.3011 26.6812 63.2031C26.8088 63.1325 26.9843 63.0778 27.2076 63.0391C27.4309 63.0003 27.6724 62.981 27.9322 62.981C28.3492 62.981 28.6841 63.0049 28.9371 63.0527C29.19 63.0983 29.4008 63.1951 29.5694 63.3433C29.6879 63.4458 29.7813 63.5916 29.8497 63.7808C29.918 63.9676 29.9522 64.1465 29.9522 64.3174L29.9522 65.9204C29.9522 66.0913 29.9625 66.2257 29.983 66.3237C30.0058 66.4194 30.0536 66.5425 30.1265 66.6929L28.8209 66.6929C28.7685 66.5994 28.7343 66.5288 28.7183 66.481C28.7024 66.4308 28.6864 66.3534 28.6705 66.2485C28.4882 66.424 28.307 66.5493 28.127 66.6245C27.8809 66.7248 27.5949 66.7749 27.2691 66.7749C26.8362 66.7749 26.5069 66.6746 26.2813 66.4741C26.058 66.2736 25.9463 66.0264 25.9463 65.7324C25.9463 65.4567 26.0272 65.23 26.189 65.0522C26.3508 64.8745 26.6493 64.7424 27.0845 64.6558C27.6063 64.5509 27.9447 64.478 28.0997 64.437C28.2546 64.3937 28.4187 64.3379 28.5919 64.2695C28.5919 64.0986 28.5565 63.979 28.4859 63.9106C28.4153 63.8423 28.2911 63.8081 28.1133 63.8081C27.8855 63.8081 27.7146 63.8446 27.6006 63.9175C27.5118 63.9744 27.44 64.0815 27.3853 64.2388ZM28.5919 64.9702C28.4004 65.0386 28.2011 65.099 27.9937 65.1514C27.7112 65.2266 27.5323 65.3006 27.4571 65.3735C27.3796 65.4487 27.3409 65.5342 27.3409 65.6299C27.3409 65.7393 27.3785 65.8293 27.4537 65.8999C27.5311 65.9683 27.6439 66.0024 27.7921 66.0024C27.947 66.0024 28.0906 65.9648 28.2227 65.8896C28.3572 65.8145 28.4517 65.7233 28.5064 65.6162C28.5634 65.5068 28.5919 65.3656 28.5919 65.1924L28.5919 64.9702ZM30.4012 63.063L31.6966 63.063L31.6966 63.6543C31.8903 63.4128 32.0863 63.2407 32.2845 63.1382C32.4827 63.0334 32.7243 62.981 33.0091 62.981C33.3942 62.981 33.695 63.096 33.9114 63.3262C34.1302 63.554 34.2396 63.9072 34.2396 64.3857L34.2396 66.6929L32.8416 66.6929L32.8416 64.6968C32.8416 64.4689 32.7995 64.3083 32.7152 64.2148C32.6308 64.1191 32.5124 64.0713 32.3597 64.0713C32.1911 64.0713 32.0543 64.1351 31.9495 64.2627C31.8447 64.3903 31.7923 64.6193 31.7923 64.9497L31.7923 66.6929L30.4012 66.6929L30.4012 63.063ZM34.5074 65.0352L35.9805 64.9429C36.0124 65.1821 36.0774 65.3644 36.1754 65.4897C36.3349 65.6925 36.5627 65.7939 36.859 65.7939C37.08 65.7939 37.2498 65.7427 37.3682 65.6401C37.489 65.5353 37.5494 65.4146 37.5494 65.2778C37.5494 65.1479 37.4924 65.0317 37.3785 64.9292C37.2646 64.8267 37.0002 64.7298 36.5855 64.6387C35.9065 64.486 35.4223 64.2832 35.1329 64.0303C34.8412 63.7773 34.6954 63.4549 34.6954 63.063C34.6954 62.8055 34.7694 62.5628 34.9176 62.335C35.0679 62.1048 35.2924 61.9248 35.5909 61.7949C35.8917 61.6628 36.303 61.5967 36.8248 61.5967C37.4651 61.5967 37.9527 61.7163 38.2877 61.9556C38.6249 62.1925 38.8254 62.5708 38.8892 63.0903L37.4298 63.1758C37.391 62.9502 37.309 62.7861 37.1837 62.6836C37.0606 62.5811 36.8897 62.5298 36.671 62.5298C36.491 62.5298 36.3554 62.5685 36.2642 62.646C36.1731 62.7212 36.1275 62.8135 36.1275 62.9229C36.1275 63.0026 36.1651 63.0744 36.2403 63.1382C36.3132 63.2043 36.4864 63.2658 36.7598 63.3228C37.4366 63.4686 37.9208 63.6167 38.2125 63.7671C38.5064 63.9152 38.7195 64.0998 38.8516 64.3208C38.9861 64.5418 39.0533 64.7891 39.0533 65.0625C39.0533 65.3838 38.9644 65.68 38.7867 65.9512C38.609 66.2223 38.3606 66.4285 38.0416 66.5698C37.7226 66.7088 37.3204 66.7783 36.835 66.7783C35.9828 66.7783 35.3927 66.6143 35.0645 66.2861C34.7364 65.958 34.5507 65.541 34.5074 65.0352ZM43.3885 65.2231L40.5995 65.2231C40.6245 65.4465 40.6849 65.6128 40.7806 65.7222C40.915 65.8794 41.0905 65.958 41.307 65.958C41.4437 65.958 41.5736 65.9238 41.6966 65.8555C41.7718 65.8122 41.8527 65.7358 41.9393 65.6265L43.3099 65.7529C43.1003 66.1175 42.8473 66.3796 42.5511 66.5391C42.2549 66.6963 41.8299 66.7749 41.2762 66.7749C40.7954 66.7749 40.4172 66.7077 40.1414 66.5732C39.8657 66.4365 39.6367 66.2212 39.4544 65.9272C39.2744 65.631 39.1844 65.2835 39.1844 64.8848C39.1844 64.3174 39.3656 63.8582 39.7279 63.5073C40.0925 63.1564 40.5949 62.981 41.2352 62.981C41.7547 62.981 42.1649 63.0596 42.4657 63.2168C42.7664 63.374 42.9954 63.6019 43.1527 63.9004C43.3099 64.1989 43.3885 64.5874 43.3885 65.0659L43.3885 65.2231ZM41.9735 64.5566C41.9461 64.2878 41.8732 64.0952 41.7547 63.979C41.6385 63.8628 41.4847 63.8047 41.2933 63.8047C41.0723 63.8047 40.8957 63.8924 40.7635 64.0679C40.6792 64.1772 40.6257 64.3402 40.6029 64.5566L41.9735 64.5566ZM43.6563 63.063L44.9586 63.063L44.9586 63.6577C45.0839 63.4002 45.2127 63.2236 45.3448 63.1279C45.4793 63.0299 45.6445 62.981 45.8404 62.981C46.0455 62.981 46.27 63.0448 46.5138 63.1724L46.0831 64.1636C45.919 64.0952 45.7892 64.061 45.6935 64.061C45.5112 64.061 45.3699 64.1362 45.2696 64.2866C45.1261 64.4985 45.0543 64.895 45.0543 65.4761L45.0543 66.6929L43.6563 66.6929L43.6563 63.063ZM46.3646 63.063L47.8138 63.063L48.5179 65.3633L49.246 63.063L50.6507 63.063L49.1092 66.6929L47.8754 66.6929L46.3646 63.063ZM50.7238 61.6821L52.1149 61.6821L52.1149 62.6289L50.7238 62.6289L50.7238 61.6821ZM50.7238 63.063L52.1149 63.063L52.1149 66.6929L50.7238 66.6929L50.7238 63.063ZM55.3256 65.2744L56.6483 65.4248C56.5754 65.7005 56.4558 65.9398 56.2894 66.1426C56.1231 66.3431 55.91 66.4992 55.6503 66.6108C55.3928 66.7225 55.0647 66.7783 54.6659 66.7783C54.2808 66.7783 53.9595 66.743 53.702 66.6724C53.4468 66.5994 53.2269 66.4832 53.0424 66.3237C52.8578 66.1619 52.7131 65.9728 52.6083 65.7563C52.5035 65.5399 52.4511 65.2528 52.4511 64.895C52.4511 64.5213 52.5149 64.2103 52.6425 63.9619C52.7359 63.7796 52.8635 63.6167 53.0253 63.4731C53.1871 63.3273 53.3534 63.2191 53.5243 63.1484C53.7955 63.0368 54.1429 62.981 54.5668 62.981C55.1592 62.981 55.6104 63.0869 55.9203 63.2988C56.2325 63.5107 56.4512 63.8206 56.5765 64.2285L55.2675 64.4028C55.2264 64.2479 55.1512 64.1317 55.0419 64.0542C54.9348 63.9744 54.7901 63.9346 54.6078 63.9346C54.3776 63.9346 54.1908 64.0177 54.0472 64.1841C53.906 64.3481 53.8353 64.5977 53.8353 64.9326C53.8353 65.2311 53.906 65.4578 54.0472 65.6128C54.1885 65.7677 54.3685 65.8452 54.5873 65.8452C54.7696 65.8452 54.9222 65.7985 55.0453 65.7051C55.1706 65.6117 55.264 65.4681 55.3256 65.2744ZM60.9323 65.2231L58.1432 65.2231C58.1683 65.4465 58.2287 65.6128 58.3244 65.7222C58.4588 65.8794 58.6343 65.958 58.8507 65.958C58.9874 65.958 59.1173 65.9238 59.2404 65.8555C59.3156 65.8122 59.3965 65.7358 59.483 65.6265L60.8537 65.7529C60.644 66.1175 60.3911 66.3796 60.0949 66.5391C59.7986 66.6963 59.3737 66.7749 58.82 66.7749C58.3392 66.7749 57.9609 66.7077 57.6852 66.5732C57.4095 66.4365 57.1805 66.2212 56.9982 65.9272C56.8182 65.631 56.7282 65.2835 56.7282 64.8848C56.7282 64.3174 56.9093 63.8582 57.2716 63.5073C57.6362 63.1564 58.1386 62.981 58.7789 62.981C59.2985 62.981 59.7086 63.0596 60.0094 63.2168C60.3102 63.374 60.5392 63.6019 60.6964 63.9004C60.8537 64.1989 60.9323 64.5874 60.9323 65.0659L60.9323 65.2231ZM59.5172 64.5566C59.4899 64.2878 59.417 64.0952 59.2985 63.979C59.1823 63.8628 59.0285 63.8047 58.8371 63.8047C58.616 63.8047 58.4394 63.8924 58.3073 64.0679C58.223 64.1772 58.1694 64.3402 58.1466 64.5566L59.5172 64.5566Z" fill="#F2F2F2"/>
<path fill-rule="evenodd" clip-rule="evenodd" d="M10.5965 21.4641C10.5908 21.4711 10.5829 21.4779 10.5759 21.4836C10.54 21.5082 10.4922 21.51 10.4561 21.4807C10.4127 21.4464 10.406 21.3828 10.4385 21.3405C10.5879 21.1491 10.6798 20.9197 10.7032 20.6778C10.7089 20.6211 10.7586 20.5812 10.8116 20.5869C10.868 20.5926 10.908 20.6416 10.9023 20.6966C10.875 20.9774 10.7694 21.2428 10.5965 21.464V21.4641ZM8.70004 19.5198C8.13063 19.9293 8.00055 20.7254 8.40797 21.2967C8.43935 21.3406 8.43011 21.4041 8.38452 21.4356C8.33939 21.4682 8.27778 21.4573 8.24594 21.4121C7.77399 20.7517 7.92472 19.8304 8.58359 19.3574C8.62872 19.3242 8.69211 19.3352 8.72349 19.3809C8.75653 19.4248 8.74568 19.4877 8.70004 19.5198V19.5198ZM10.8475 19.5444C10.2918 18.766 9.20787 18.5871 8.43301 19.1441C7.65593 19.7011 7.47786 20.7877 8.03357 21.5648C8.58877 22.3433 9.67287 22.5222 10.4482 21.9646C11.2253 21.4076 11.4033 20.3209 10.8475 19.5444V19.5444Z" fill="#FCFCFC"/>
<path fill-rule="evenodd" clip-rule="evenodd" d="M13.8829 21.9648C13.8509 21.9882 13.8075 21.9893 13.7716 21.9659C13.7276 21.9361 13.7156 21.8755 13.7452 21.8315C13.8183 21.7239 13.8651 21.6004 13.8829 21.4723C13.8896 21.4187 13.9393 21.3814 13.9913 21.3883C14.0448 21.3952 14.082 21.4449 14.0745 21.4987C14.0529 21.6553 13.9951 21.8092 13.9062 21.9402C13.9005 21.9499 13.8924 21.9579 13.8829 21.9648V21.9648ZM12.5528 20.6677C12.1745 20.94 12.0867 21.4712 12.3582 21.8503C12.3896 21.8944 12.3788 21.9551 12.3366 21.987C12.2921 22.0168 12.2323 22.0076 12.2003 21.9637C11.8671 21.497 11.9743 20.845 12.4404 20.511C12.4833 20.4795 12.5437 20.4886 12.5751 20.5334C12.6065 20.5773 12.5973 20.6374 12.5528 20.6677V20.6677ZM13.9746 20.69C13.6073 20.1753 12.8923 20.0576 12.3788 20.4257C11.8671 20.7947 11.749 21.5112 12.1152 22.0255C12.4833 22.5383 13.1981 22.6562 13.7111 22.289C14.2246 21.9207 14.3427 21.2024 13.9746 20.69V20.69Z" fill="#FCFCFC"/>
<path fill-rule="evenodd" clip-rule="evenodd" d="M15.9353 19.7395C15.9296 19.7463 15.9239 19.7532 15.9177 19.7572C15.8926 19.7749 15.8601 19.7766 15.8321 19.7589C15.7996 19.7354 15.7915 19.6902 15.8145 19.656C15.8897 19.5456 15.9365 19.4151 15.9473 19.2785C15.9519 19.2391 15.9872 19.2088 16.0272 19.2128C16.0671 19.2157 16.0973 19.2511 16.0946 19.2911C16.0809 19.4524 16.026 19.6074 15.9353 19.7395V19.7395ZM14.7184 18.5803C14.3697 18.8303 14.2887 19.3204 14.5386 19.6692C14.5632 19.7023 14.5553 19.7482 14.5221 19.7726C14.489 19.7962 14.444 19.7875 14.4189 19.7543C14.1228 19.3392 14.2174 18.7588 14.6334 18.4609C14.6659 18.4374 14.711 18.4442 14.7349 18.4767C14.7595 18.51 14.751 18.5568 14.7184 18.5803V18.5803ZM16.0809 18.562C15.7214 18.06 15.0213 17.945 14.521 18.3034C14.0201 18.6643 13.9043 19.3656 14.2643 19.8676C14.6219 20.3697 15.322 20.4853 15.8229 20.1244C16.324 19.7658 16.4386 19.064 16.0809 18.562Z" fill="#FCFCFC"/>
<path fill-rule="evenodd" clip-rule="evenodd" d="M18.685 9.49609C18.6354 9.53143 18.5697 9.53611 18.5151 9.50289C18.442 9.45765 18.4185 9.36284 18.4643 9.28952C18.5356 9.1728 18.5817 9.04475 18.6051 8.90745C18.6189 8.82349 18.6987 8.7674 18.7821 8.78118C18.8659 8.79433 18.9223 8.87439 18.9087 8.95835C18.8796 9.13454 18.818 9.30108 18.7261 9.45085C18.7153 9.4703 18.7016 9.48522 18.685 9.49609V9.49609ZM16.9381 7.86789C16.4634 8.20993 16.3537 8.876 16.6938 9.3542C16.7451 9.42346 16.7281 9.51942 16.6595 9.56872C16.59 9.61847 16.4936 9.60291 16.4444 9.5332C16.0041 8.91849 16.145 8.05718 16.76 7.6174C16.8284 7.5665 16.925 7.58303 16.974 7.6516C17.023 7.72194 17.0083 7.81808 16.9381 7.86789ZM18.8072 7.83752C18.3131 7.14732 17.3511 6.98776 16.6624 7.48124C15.9749 7.97649 15.8158 8.94022 16.3099 9.63094C16.8022 10.3196 17.7642 10.4796 18.4528 9.9855C19.1403 9.49088 19.2995 8.52669 18.8072 7.83752Z" fill="#FCFCFC"/>
<path fill-rule="evenodd" clip-rule="evenodd" d="M8.42581 17.9061C8.42295 17.9101 8.41903 17.9143 8.41498 17.917C8.40009 17.9285 8.37908 17.9285 8.36419 17.9181C8.34365 17.9032 8.338 17.8757 8.35158 17.8551C8.38878 17.8003 8.41497 17.7385 8.42696 17.6722C8.43266 17.6487 8.45605 17.6322 8.48064 17.6379C8.50568 17.6419 8.52057 17.6653 8.51652 17.6904C8.50003 17.7682 8.47139 17.8397 8.42581 17.906V17.9061ZM7.65614 17.1758C7.43534 17.3344 7.38457 17.6437 7.5421 17.865C7.5575 17.8856 7.55344 17.9131 7.5329 17.9285C7.51185 17.9434 7.48435 17.9376 7.46963 17.917C7.28186 17.6557 7.34171 17.2897 7.60422 17.1016C7.62476 17.0878 7.6521 17.0919 7.66699 17.1125C7.68074 17.1319 7.67668 17.1605 7.65614 17.1758ZM8.51361 17.1674C8.28882 16.8528 7.84956 16.7796 7.53513 17.0055C7.22139 17.2319 7.14831 17.6713 7.3731 17.9858C7.59858 18.3009 8.03732 18.3735 8.35158 18.1482C8.66595 17.9228 8.73841 17.4824 8.51361 17.1674Z" fill="#FCFCFC"/>
<path fill-rule="evenodd" clip-rule="evenodd" d="M13.7908 8.75626C13.7732 8.76889 13.7481 8.77278 13.7264 8.76306C13.6933 8.74831 13.6784 8.70936 13.6933 8.67682C13.7184 8.62003 13.7332 8.55942 13.7384 8.49766C13.7412 8.46168 13.7732 8.43475 13.8086 8.43703C13.8445 8.43989 13.8719 8.47141 13.8689 8.50738C13.8622 8.58475 13.8427 8.65898 13.8113 8.73046C13.8073 8.74133 13.7989 8.74945 13.7908 8.75626V8.75626ZM12.8746 8.00647C12.6286 8.18318 12.5722 8.52688 12.7478 8.77278C12.7684 8.80195 12.7616 8.84312 12.7331 8.86371C12.704 8.8843 12.6629 8.87749 12.6424 8.84833C12.4239 8.54289 12.494 8.11804 12.7975 7.89947C12.8277 7.87888 12.8672 7.88585 12.8893 7.91439C12.9099 7.94538 12.9031 7.98474 12.8746 8.00647ZM13.861 7.97209C13.5958 7.6022 13.0827 7.51871 12.7149 7.78229C12.3456 8.04833 12.2607 8.56234 12.5259 8.93246C12.7889 9.30235 13.3024 9.38652 13.6716 9.12226C14.0402 8.85691 14.1251 8.34221 13.861 7.97209Z" fill="#FCFCFC"/>
<path fill-rule="evenodd" clip-rule="evenodd" d="M20.581 7.82375C20.5787 7.83233 20.5742 7.83753 20.5674 7.84153C20.5566 7.85017 20.5417 7.85131 20.5275 7.84611C20.5069 7.8357 20.4977 7.81174 20.5069 7.79063C20.5223 7.75518 20.532 7.71691 20.536 7.67797C20.5372 7.65446 20.5566 7.63794 20.5798 7.6396C20.6033 7.64074 20.6193 7.66127 20.6164 7.68478C20.6141 7.73276 20.6015 7.77977 20.581 7.82375ZM19.9883 7.36739C19.8319 7.47845 19.7966 7.69564 19.9072 7.85131C19.921 7.87075 19.9169 7.89637 19.8993 7.90901C19.8799 7.92279 19.8542 7.91874 19.8404 7.89929C19.703 7.7072 19.747 7.43727 19.9404 7.29996C19.958 7.28618 19.9842 7.29024 19.9968 7.30968C20.0106 7.32735 20.0065 7.3536 19.9883 7.36739V7.36739ZM20.613 7.3452C20.4453 7.11124 20.12 7.05811 19.8867 7.22556C19.654 7.39364 19.6003 7.71915 19.7675 7.95311C19.9129 8.15538 20.1754 8.22235 20.3961 8.12799L20.3973 8.12627C20.4562 8.06451 20.5223 8.0068 20.5936 7.95591C20.6033 7.9491 20.613 7.9423 20.6238 7.93647V7.93532C20.6238 7.93532 20.625 7.93532 20.625 7.9336C20.7391 7.75912 20.7419 7.52523 20.613 7.34514V7.3452Z" fill="#FCFCFC"/>
<path fill-rule="evenodd" clip-rule="evenodd" d="M15.3496 16.0042C15.3427 16.0157 15.333 16.0237 15.3233 16.0306C15.2835 16.0592 15.2303 16.0609 15.1887 16.0306C15.1368 15.9933 15.1259 15.9207 15.163 15.8698C15.2041 15.8103 15.24 15.7469 15.2686 15.6811C15.293 15.6223 15.3605 15.5947 15.4198 15.6193C15.4774 15.644 15.5043 15.7126 15.4803 15.7703C15.4454 15.8526 15.4016 15.9316 15.3496 16.0042V16.0042ZM13.829 14.5259C13.4 14.8341 13.3007 15.4347 13.6083 15.8652C13.6453 15.918 13.6345 15.9895 13.5821 16.0266C13.5302 16.0637 13.4588 16.0523 13.4217 16.0003C13.0406 15.4666 13.1628 14.721 13.695 14.3372C13.7469 14.3006 13.8193 14.3126 13.8565 14.3646C13.8936 14.4173 13.8816 14.4888 13.829 14.5259V14.5259ZM15.4539 14.5397C15.0323 13.9513 14.2107 13.8144 13.6236 14.237C13.0349 14.6592 12.8991 15.4833 13.3201 16.0718C13.7412 16.6614 14.5633 16.798 15.1517 16.3754C15.7392 15.9522 15.8751 15.1297 15.4539 14.5397Z" fill="#FCFCFC"/>
<path fill-rule="evenodd" clip-rule="evenodd" d="M22.5859 9.15249C22.5847 9.18285 22.583 9.21317 22.5791 9.24348C22.5739 9.2898 22.5653 9.33555 22.5545 9.38078V9.38193C22.5505 9.40028 22.5459 9.41681 22.5407 9.43334C22.531 9.46885 22.5186 9.50482 22.5048 9.53919C22.498 9.55572 22.4911 9.57339 22.4831 9.59009C22.4746 9.58265 22.4655 9.5747 22.457 9.56658C22.4461 9.55686 22.4335 9.546 22.4227 9.53468C22.4376 9.49916 22.4511 9.46319 22.4608 9.42768C22.4678 9.40823 22.4735 9.38941 22.4775 9.36997V9.36826C22.4861 9.33972 22.4911 9.30758 22.4951 9.27795C22.5037 9.2298 22.5089 9.18114 22.5089 9.13202C22.5106 9.11257 22.5106 9.09312 22.5106 9.07431C22.5089 9.02456 22.4679 8.98612 22.4187 8.98727C22.4102 8.98727 22.4034 8.98899 22.3955 8.99185C22.3583 9.00271 22.3309 9.03806 22.3321 9.07809C22.3338 9.11537 22.3321 9.15249 22.3281 9.18966C22.3224 9.25726 22.3087 9.32468 22.287 9.38936C22.2552 9.35207 22.2265 9.31496 22.1974 9.27493C21.9276 8.89525 21.8204 8.4485 21.8631 8.01953C21.915 8.03966 21.9647 8.06477 22.0126 8.09348C22.0685 8.12653 22.1233 8.16496 22.1746 8.20888C22.2459 8.2695 22.3116 8.34099 22.368 8.42111C22.5255 8.64237 22.5974 8.89977 22.586 9.15249H22.5859Z" fill="#FCFCFC"/>
<path fill-rule="evenodd" clip-rule="evenodd" d="M24.0305 9.87979C24.0579 9.91822 24.0825 9.95717 24.1048 9.99835C23.6146 10.111 23.0959 10.016 22.6749 9.73682C22.6995 9.68999 22.7206 9.64201 22.7383 9.59271C22.7576 9.53729 22.7754 9.48251 22.7873 9.42641C23.2335 9.31031 23.723 9.46872 24.0141 9.85812C24.0198 9.86509 24.0254 9.8719 24.0305 9.87979V9.87979Z" fill="#FCFCFC"/>
<path fill-rule="evenodd" clip-rule="evenodd" d="M24.9485 9.04126C24.8993 9.07677 24.8332 9.08129 24.7784 9.04806C24.7059 9.00283 24.6826 8.90801 24.7259 8.83475C24.8291 8.66839 24.8896 8.47727 24.9016 8.2818C24.9085 8.19653 24.9815 8.13202 25.0665 8.13769C25.1516 8.1434 25.2148 8.21775 25.2092 8.30238C25.1927 8.54766 25.1173 8.78677 24.9896 8.99557C24.9787 9.01501 24.965 9.03039 24.9485 9.04126ZM25.0636 7.21639C24.5217 6.45968 23.4667 6.28525 22.7119 6.82688C22.3582 7.08137 22.1317 7.44742 22.0479 7.84196C22.1003 7.86936 22.1493 7.89806 22.1989 7.93112C22.2664 7.55328 22.4745 7.20083 22.8083 6.9619C22.8779 6.91215 22.9744 6.92868 23.0234 6.99742C23.0731 7.06759 23.0566 7.16371 22.9875 7.21347C22.6628 7.44742 22.4883 7.81051 22.4815 8.18338C22.5106 8.21483 22.5361 8.24743 22.5607 8.2818C22.7546 8.55281 22.8381 8.86797 22.8214 9.1761C23.3418 9.07837 23.8964 9.28196 24.2238 9.74124C24.2352 9.75776 24.2472 9.77429 24.2569 9.79099C24.4025 9.74124 24.544 9.6686 24.6751 9.57362C25.4317 9.03153 25.6046 7.97413 25.0636 7.21639V7.21639Z" fill="#FCFCFC"/>
<path fill-rule="evenodd" clip-rule="evenodd" d="M22.4774 9.36969C22.4734 9.38913 22.4677 9.40812 22.4609 9.42756C22.4762 9.41784 22.4923 9.40971 22.5088 9.40114C22.4979 9.39027 22.4882 9.3817 22.4774 9.36969ZM22.4774 9.36969C22.4734 9.38913 22.4677 9.40812 22.4609 9.42756C22.4762 9.41784 22.4923 9.40971 22.5088 9.40114C22.4979 9.39027 22.4882 9.3817 22.4774 9.36969ZM22.4774 9.36969C22.4734 9.38913 22.4677 9.40812 22.4609 9.42756C22.4762 9.41784 22.4923 9.40971 22.5088 9.40114C22.4979 9.39027 22.4882 9.3817 22.4774 9.36969ZM22.4774 9.36969C22.4734 9.38913 22.4677 9.40812 22.4609 9.42756C22.4762 9.41784 22.4923 9.40971 22.5088 9.40114C22.4979 9.39027 22.4882 9.3817 22.4774 9.36969ZM22.4774 9.36969C22.4734 9.38913 22.4677 9.40812 22.4609 9.42756C22.4762 9.41784 22.4923 9.40971 22.5088 9.40114C22.4979 9.39027 22.4882 9.3817 22.4774 9.36969ZM22.4774 9.36969C22.4734 9.38913 22.4677 9.40812 22.4609 9.42756C22.4762 9.41784 22.4923 9.40971 22.5088 9.40114C22.4979 9.39027 22.4882 9.3817 22.4774 9.36969ZM22.4774 9.36969C22.4734 9.38913 22.4677 9.40812 22.4609 9.42756C22.4762 9.41784 22.4923 9.40971 22.5088 9.40114C22.4979 9.39027 22.4882 9.3817 22.4774 9.36969ZM22.4774 9.36969C22.4734 9.38913 22.4677 9.40812 22.4609 9.42756C22.4762 9.41784 22.4923 9.40971 22.5088 9.40114C22.4979 9.39027 22.4882 9.3817 22.4774 9.36969ZM22.4774 9.36969C22.4734 9.38913 22.4677 9.40812 22.4609 9.42756C22.4762 9.41784 22.4923 9.40971 22.5088 9.40114C22.4979 9.39027 22.4882 9.3817 22.4774 9.36969ZM22.4774 9.36969C22.4734 9.38913 22.4677 9.40812 22.4609 9.42756C22.4762 9.41784 22.4923 9.40971 22.5088 9.40114C22.4979 9.39027 22.4882 9.3817 22.4774 9.36969ZM22.4774 9.36969C22.4734 9.38913 22.4677 9.40812 22.4609 9.42756C22.4762 9.41784 22.4923 9.40971 22.5088 9.40114C22.4979 9.39027 22.4882 9.3817 22.4774 9.36969ZM22.4774 9.36969C22.4734 9.38913 22.4677 9.40812 22.4609 9.42756C22.4762 9.41784 22.4923 9.40971 22.5088 9.40114C22.4979 9.39027 22.4882 9.3817 22.4774 9.36969ZM22.4774 9.36969C22.4734 9.38913 22.4677 9.40812 22.4609 9.42756C22.4762 9.41784 22.4923 9.40971 22.5088 9.40114C22.4979 9.39027 22.4882 9.3817 22.4774 9.36969ZM22.4774 9.36969C22.4734 9.38913 22.4677 9.40812 22.4609 9.42756C22.4762 9.41784 22.4923 9.40971 22.5088 9.40114C22.4979 9.39027 22.4882 9.3817 22.4774 9.36969ZM22.4774 9.36969C22.4734 9.38913 22.4677 9.40812 22.4609 9.42756C22.4762 9.41784 22.4923 9.40971 22.5088 9.40114C22.4979 9.39027 22.4882 9.3817 22.4774 9.36969ZM22.4774 9.36969C22.4734 9.38913 22.4677 9.40812 22.4609 9.42756C22.4762 9.41784 22.4923 9.40971 22.5088 9.40114C22.4979 9.39027 22.4882 9.3817 22.4774 9.36969ZM22.4774 9.36969C22.4734 9.38913 22.4677 9.40812 22.4609 9.42756C22.4762 9.41784 22.4923 9.40971 22.5088 9.40114C22.4979 9.39027 22.4882 9.3817 22.4774 9.36969ZM22.4774 9.36969C22.4734 9.38913 22.4677 9.40812 22.4609 9.42756C22.4762 9.41784 22.4923 9.40971 22.5088 9.40114C22.4979 9.39027 22.4882 9.3817 22.4774 9.36969ZM22.4774 9.36969C22.4734 9.38913 22.4677 9.40812 22.4609 9.42756C22.4762 9.41784 22.4923 9.40971 22.5088 9.40114C22.4979 9.39027 22.4882 9.3817 22.4774 9.36969ZM22.4774 9.36969C22.4734 9.38913 22.4677 9.40812 22.4609 9.42756C22.4762 9.41784 22.4923 9.40971 22.5088 9.40114C22.4979 9.39027 22.4882 9.3817 22.4774 9.36969ZM22.4774 9.36969C22.4734 9.38913 22.4677 9.40812 22.4609 9.42756C22.4762 9.41784 22.4923 9.40971 22.5088 9.40114C22.4979 9.39027 22.4882 9.3817 22.4774 9.36969ZM22.4774 9.36969C22.4734 9.38913 22.4677 9.40812 22.4609 9.42756C22.4762 9.41784 22.4923 9.40971 22.5088 9.40114C22.4979 9.39027 22.4882 9.3817 22.4774 9.36969ZM22.4774 9.36969C22.4734 9.38913 22.4677 9.40812 22.4609 9.42756C22.4762 9.41784 22.4923 9.40971 22.5088 9.40114C22.4979 9.39027 22.4882 9.3817 22.4774 9.36969ZM22.4774 9.36969C22.4734 9.38913 22.4677 9.40812 22.4609 9.42756C22.4762 9.41784 22.4923 9.40971 22.5088 9.40114C22.4979 9.39027 22.4882 9.3817 22.4774 9.36969ZM22.5088 9.40114C22.4979 9.39027 22.4882 9.3817 22.4774 9.36969C22.4734 9.38913 22.4677 9.40812 22.4609 9.42756C22.4512 9.46353 22.4374 9.49904 22.4225 9.53501C22.4117 9.56081 22.4004 9.58706 22.3867 9.61331C22.3867 9.61331 22.3855 9.6133 22.3855 9.61445C22.3747 9.63504 22.3632 9.65562 22.3512 9.67621C22.3632 9.68885 22.3758 9.69972 22.3884 9.70944C22.3952 9.71625 22.402 9.72197 22.409 9.72711C22.4209 9.70944 22.4323 9.69051 22.4431 9.66941C22.458 9.64361 22.4706 9.61737 22.483 9.58981C22.4911 9.57328 22.4979 9.5556 22.5047 9.53891C22.5184 9.50471 22.5311 9.46874 22.5408 9.43322C22.5293 9.4235 22.5185 9.41263 22.5088 9.40114V9.40114ZM22.328 9.18961C22.3262 9.18846 22.3251 9.1856 22.3234 9.18388C22.0878 8.85562 21.988 8.47012 22.0125 8.09325C21.9645 8.06472 21.915 8.0396 21.8631 8.01947C21.8146 7.99889 21.7654 7.98237 21.7146 7.96973C21.6582 8.44662 21.7724 8.94478 22.073 9.36402C22.1026 9.40697 22.1346 9.44684 22.1676 9.48527C22.1837 9.50585 22.2019 9.52644 22.2207 9.54589C22.2471 9.49773 22.2676 9.44815 22.2841 9.39725C22.2858 9.39611 22.2881 9.39439 22.2909 9.39325C22.288 9.3921 22.2869 9.39039 22.2869 9.38924C22.3086 9.32473 22.3221 9.25714 22.328 9.18972V9.18961ZM24.1045 9.99818C24.0824 9.95701 24.0583 9.91806 24.0305 9.8798C24.0253 9.87191 24.0196 9.86493 24.0138 9.85813C23.5723 9.94454 23.1112 9.84949 22.7381 9.59272C22.7205 9.64184 22.6999 9.69051 22.6748 9.73683C22.6532 9.78373 22.6286 9.82782 22.5995 9.87008C23.0616 10.1744 23.6339 10.2733 24.1707 10.1412C24.1531 10.0932 24.1308 10.0452 24.1045 9.99818ZM22.4774 9.36969C22.4734 9.38913 22.4677 9.40812 22.4609 9.42756C22.4762 9.41784 22.4923 9.40971 22.5088 9.40114C22.4979 9.39027 22.4882 9.3817 22.4774 9.36969ZM22.4774 9.36969C22.4734 9.38913 22.4677 9.40812 22.4609 9.42756C22.4762 9.41784 22.4923 9.40971 22.5088 9.40114C22.4979 9.39027 22.4882 9.3817 22.4774 9.36969ZM22.4774 9.36969C22.4734 9.38913 22.4677 9.40812 22.4609 9.42756C22.4762 9.41784 22.4923 9.40971 22.5088 9.40114C22.4979 9.39027 22.4882 9.3817 22.4774 9.36969ZM22.4774 9.36969C22.4734 9.38913 22.4677 9.40812 22.4609 9.42756C22.4762 9.41784 22.4923 9.40971 22.5088 9.40114C22.4979 9.39027 22.4882 9.3817 22.4774 9.36969ZM22.4774 9.36969C22.4734 9.38913 22.4677 9.40812 22.4609 9.42756C22.4762 9.41784 22.4923 9.40971 22.5088 9.40114C22.4979 9.39027 22.4882 9.3817 22.4774 9.36969ZM22.4774 9.36969C22.4734 9.38913 22.4677 9.40812 22.4609 9.42756C22.4762 9.41784 22.4923 9.40971 22.5088 9.40114C22.4979 9.39027 22.4882 9.3817 22.4774 9.36969ZM22.4774 9.36969C22.4734 9.38913 22.4677 9.40812 22.4609 9.42756C22.4762 9.41784 22.4923 9.40971 22.5088 9.40114C22.4979 9.39027 22.4882 9.3817 22.4774 9.36969ZM22.4774 9.36969C22.4734 9.38913 22.4677 9.40812 22.4609 9.42756C22.4762 9.41784 22.4923 9.40971 22.5088 9.40114C22.4979 9.39027 22.4882 9.3817 22.4774 9.36969ZM22.4774 9.36969C22.4734 9.38913 22.4677 9.40812 22.4609 9.42756C22.4762 9.41784 22.4923 9.40971 22.5088 9.40114C22.4979 9.39027 22.4882 9.3817 22.4774 9.36969ZM22.4774 9.36969C22.4734 9.38913 22.4677 9.40812 22.4609 9.42756C22.4762 9.41784 22.4923 9.40971 22.5088 9.40114C22.4979 9.39027 22.4882 9.3817 22.4774 9.36969ZM22.4774 9.36969C22.4734 9.38913 22.4677 9.40812 22.4609 9.42756C22.4762 9.41784 22.4923 9.40971 22.5088 9.40114C22.4979 9.39027 22.4882 9.3817 22.4774 9.36969ZM22.4774 9.36969C22.4734 9.38913 22.4677 9.40812 22.4609 9.42756C22.4762 9.41784 22.4923 9.40971 22.5088 9.40114C22.4979 9.39027 22.4882 9.3817 22.4774 9.36969ZM22.4774 9.36969C22.4734 9.38913 22.4677 9.40812 22.4609 9.42756C22.4762 9.41784 22.4923 9.40971 22.5088 9.40114C22.4979 9.39027 22.4882 9.3817 22.4774 9.36969ZM22.4774 9.36969C22.4734 9.38913 22.4677 9.40812 22.4609 9.42756C22.4762 9.41784 22.4923 9.40971 22.5088 9.40114C22.4979 9.39027 22.4882 9.3817 22.4774 9.36969ZM22.4774 9.36969C22.4734 9.38913 22.4677 9.40812 22.4609 9.42756C22.4762 9.41784 22.4923 9.40971 22.5088 9.40114C22.4979 9.39027 22.4882 9.3817 22.4774 9.36969ZM22.4774 9.36969C22.4734 9.38913 22.4677 9.40812 22.4609 9.42756C22.4762 9.41784 22.4923 9.40971 22.5088 9.40114C22.4979 9.39027 22.4882 9.3817 22.4774 9.36969ZM22.4774 9.36969C22.4734 9.38913 22.4677 9.40812 22.4609 9.42756C22.4762 9.41784 22.4923 9.40971 22.5088 9.40114C22.4979 9.39027 22.4882 9.3817 22.4774 9.36969ZM22.4774 9.36969C22.4734 9.38913 22.4677 9.40812 22.4609 9.42756C22.4762 9.41784 22.4923 9.40971 22.5088 9.40114C22.4979 9.39027 22.4882 9.3817 22.4774 9.36969ZM22.4774 9.36969C22.4734 9.38913 22.4677 9.40812 22.4609 9.42756C22.4762 9.41784 22.4923 9.40971 22.5088 9.40114C22.4979 9.39027 22.4882 9.3817 22.4774 9.36969ZM22.4774 9.36969C22.4734 9.38913 22.4677 9.40812 22.4609 9.42756C22.4762 9.41784 22.4923 9.40971 22.5088 9.40114C22.4979 9.39027 22.4882 9.3817 22.4774 9.36969ZM22.4774 9.36969C22.4734 9.38913 22.4677 9.40812 22.4609 9.42756C22.4762 9.41784 22.4923 9.40971 22.5088 9.40114C22.4979 9.39027 22.4882 9.3817 22.4774 9.36969ZM22.4774 9.36969C22.4734 9.38913 22.4677 9.40812 22.4609 9.42756C22.4762 9.41784 22.4923 9.40971 22.5088 9.40114C22.4979 9.39027 22.4882 9.3817 22.4774 9.36969ZM22.4774 9.36969C22.4734 9.38913 22.4677 9.40812 22.4609 9.42756C22.4762 9.41784 22.4923 9.40971 22.5088 9.40114C22.4979 9.39027 22.4882 9.3817 22.4774 9.36969ZM22.4774 9.36969C22.4734 9.38913 22.4677 9.40812 22.4609 9.42756C22.4762 9.41784 22.4923 9.40971 22.5088 9.40114C22.4979 9.39027 22.4882 9.3817 22.4774 9.36969Z" fill="#FCFCFC"/>
<path fill-rule="evenodd" clip-rule="evenodd" d="M22.5858 9.15246C22.5584 9.15246 22.5321 9.14674 22.5088 9.13188C22.5105 9.11243 22.5105 9.09298 22.5105 9.07417C22.5088 9.02442 22.4678 8.98598 22.4186 8.98713C22.4101 8.98713 22.4033 8.98885 22.3954 8.99171C22.2469 8.74809 22.1756 8.47701 22.1744 8.20874C22.2458 8.26936 22.3114 8.34085 22.3678 8.42097C22.5254 8.64223 22.5972 8.89963 22.5859 9.15235L22.5858 9.15246Z" fill="#FCFCFC"/>
<path fill-rule="evenodd" clip-rule="evenodd" d="M21.989 10.129C21.9411 10.1575 21.8903 10.181 21.8395 10.2005C21.9012 9.98715 22.0165 9.79054 22.1836 9.63081C22.1836 9.66118 22.2001 9.69149 22.2276 9.70819C22.2384 9.71499 22.2497 9.71791 22.2623 9.71905C22.284 9.72363 22.3074 9.7179 22.3251 9.70412C22.3348 9.69731 22.3427 9.68868 22.3497 9.67896C22.3497 9.67782 22.3514 9.67782 22.3514 9.6761C22.3634 9.6562 22.3748 9.63561 22.3857 9.61503C22.3857 9.61331 22.3868 9.61331 22.3868 9.61331C22.4006 9.58706 22.4118 9.56132 22.4227 9.53502C22.4376 9.49887 22.4513 9.46354 22.461 9.4274C22.4764 9.41784 22.4924 9.40972 22.5089 9.40177C22.5238 9.3948 22.5391 9.38799 22.5545 9.38232C22.5499 9.4 22.5459 9.41653 22.5409 9.43322C22.5312 9.4692 22.5186 9.50471 22.5049 9.53891C22.4981 9.55561 22.4913 9.57328 22.4832 9.58981C22.4707 9.61737 22.4581 9.64367 22.4432 9.66992C22.4324 9.69051 22.4211 9.70996 22.4091 9.7278C22.3338 9.85133 22.2333 9.96153 22.1096 10.052C22.1073 10.0549 22.1026 10.0577 22.0987 10.0606C22.0634 10.0862 22.0262 10.1097 21.9891 10.1291L21.989 10.129Z" fill="#FCFCFC"/>
<path fill-rule="evenodd" clip-rule="evenodd" d="M23.9882 11.1632C23.9608 11.1838 23.922 11.1867 23.8906 11.1672C23.8478 11.1408 23.8358 11.086 23.8604 11.0448C23.9539 10.8921 24.0001 10.7159 23.995 10.5376C23.9933 10.4878 24.0322 10.4466 24.0818 10.4466C24.1308 10.4438 24.1719 10.4838 24.1737 10.5317C24.1788 10.7463 24.124 10.9555 24.0127 11.1369C24.0059 11.1478 23.9979 11.1563 23.9882 11.1631V11.1632ZM24.1708 10.1413C24.1531 10.0933 24.1308 10.0447 24.1046 9.99835C24.083 9.95718 24.0584 9.91823 24.0304 9.87997C24.0252 9.87191 24.0195 9.86441 24.0139 9.85823C23.7234 9.46873 23.2334 9.31032 22.7878 9.42589C22.7752 9.48251 22.7576 9.53747 22.7382 9.59226C22.7204 9.64201 22.6998 9.68999 22.6747 9.737C22.6531 9.78384 22.6285 9.82793 22.5995 9.87025C22.5059 10.016 22.3838 10.147 22.236 10.2528C22.2281 10.258 22.2195 10.2648 22.2098 10.2705C22.1197 10.5416 22.155 10.851 22.3337 11.0997C22.3604 11.1397 22.3524 11.1947 22.3125 11.2232C22.2732 11.2524 22.2166 11.2426 22.1881 11.2026C22.0136 10.9585 21.9536 10.6651 21.9969 10.39C21.9696 10.4038 21.9423 10.4146 21.9148 10.4243C21.8818 10.7063 21.9491 11.0008 22.1259 11.2485C22.5025 11.7752 23.2363 11.8964 23.7617 11.5195C24.2051 11.2004 24.3597 10.6279 24.1708 10.1413V10.1413Z" fill="#FCFCFC"/>
<path fill-rule="evenodd" clip-rule="evenodd" d="M22.5088 9.40142C22.4923 9.41 22.4758 9.41795 22.461 9.42767C22.4513 9.46318 22.4375 9.49916 22.4228 9.53467C22.4119 9.56092 22.4005 9.58717 22.3867 9.61359C22.3896 9.61188 22.3925 9.60901 22.3953 9.60775C22.4154 9.59237 22.4364 9.57922 22.4569 9.56658C22.4736 9.55572 22.4883 9.54731 22.5049 9.53919C22.5185 9.50482 22.5311 9.46885 22.5408 9.43351C22.5294 9.42379 22.5185 9.41292 22.5088 9.40142ZM22.5088 9.40142C22.4923 9.41 22.4758 9.41795 22.461 9.42767C22.4513 9.46318 22.4375 9.49916 22.4228 9.53467C22.4119 9.56092 22.4005 9.58717 22.3867 9.61359C22.3896 9.61188 22.3925 9.60901 22.3953 9.60775C22.4154 9.59237 22.4364 9.57922 22.4569 9.56658C22.4736 9.55572 22.4883 9.54731 22.5049 9.53919C22.5185 9.50482 22.5311 9.46885 22.5408 9.43351C22.5294 9.42379 22.5185 9.41292 22.5088 9.40142ZM22.5088 9.40142C22.4923 9.41 22.4758 9.41795 22.461 9.42767C22.4513 9.46318 22.4375 9.49916 22.4228 9.53467C22.4119 9.56092 22.4005 9.58717 22.3867 9.61359C22.3896 9.61188 22.3925 9.60901 22.3953 9.60775C22.4154 9.59237 22.4364 9.57922 22.4569 9.56658C22.4736 9.55572 22.4883 9.54731 22.5049 9.53919C22.5185 9.50482 22.5311 9.46885 22.5408 9.43351C22.5294 9.42379 22.5185 9.41292 22.5088 9.40142ZM22.5088 9.40142C22.4923 9.41 22.4758 9.41795 22.461 9.42767C22.4513 9.46318 22.4375 9.49916 22.4228 9.53467C22.4119 9.56092 22.4005 9.58717 22.3867 9.61359C22.3896 9.61188 22.3925 9.60901 22.3953 9.60775C22.4154 9.59237 22.4364 9.57922 22.4569 9.56658C22.4736 9.55572 22.4883 9.54731 22.5049 9.53919C22.5185 9.50482 22.5311 9.46885 22.5408 9.43351C22.5294 9.42379 22.5185 9.41292 22.5088 9.40142ZM22.5088 9.40142C22.4923 9.41 22.4758 9.41795 22.461 9.42767C22.4513 9.46318 22.4375 9.49916 22.4228 9.53467C22.4119 9.56092 22.4005 9.58717 22.3867 9.61359C22.3896 9.61188 22.3925 9.60901 22.3953 9.60775C22.4154 9.59237 22.4364 9.57922 22.4569 9.56658C22.4736 9.55572 22.4883 9.54731 22.5049 9.53919C22.5185 9.50482 22.5311 9.46885 22.5408 9.43351C22.5294 9.42379 22.5185 9.41292 22.5088 9.40142ZM22.5088 9.40142C22.4923 9.41 22.4758 9.41795 22.461 9.42767C22.4513 9.46318 22.4375 9.49916 22.4228 9.53467C22.4119 9.56092 22.4005 9.58717 22.3867 9.61359C22.3896 9.61188 22.3925 9.60901 22.3953 9.60775C22.4154 9.59237 22.4364 9.57922 22.4569 9.56658C22.4736 9.55572 22.4883 9.54731 22.5049 9.53919C22.5185 9.50482 22.5311 9.46885 22.5408 9.43351C22.5294 9.42379 22.5185 9.41292 22.5088 9.40142ZM22.5088 9.40142C22.4923 9.41 22.4758 9.41795 22.461 9.42767C22.4513 9.46318 22.4375 9.49916 22.4228 9.53467C22.4119 9.56092 22.4005 9.58717 22.3867 9.61359C22.3896 9.61188 22.3925 9.60901 22.3953 9.60775C22.4154 9.59237 22.4364 9.57922 22.4569 9.56658C22.4736 9.55572 22.4883 9.54731 22.5049 9.53919C22.5185 9.50482 22.5311 9.46885 22.5408 9.43351C22.5294 9.42379 22.5185 9.41292 22.5088 9.40142ZM22.5088 9.40142C22.4923 9.41 22.4758 9.41795 22.461 9.42767C22.4513 9.46318 22.4375 9.49916 22.4228 9.53467C22.4119 9.56092 22.4005 9.58717 22.3867 9.61359C22.3896 9.61188 22.3925 9.60901 22.3953 9.60775C22.4154 9.59237 22.4364 9.57922 22.4569 9.56658C22.4736 9.55572 22.4883 9.54731 22.5049 9.53919C22.5185 9.50482 22.5311 9.46885 22.5408 9.43351C22.5294 9.42379 22.5185 9.41292 22.5088 9.40142ZM22.5088 9.40142C22.4923 9.41 22.4758 9.41795 22.461 9.42767C22.4513 9.46318 22.4375 9.49916 22.4228 9.53467C22.4119 9.56092 22.4005 9.58717 22.3867 9.61359C22.3896 9.61188 22.3925 9.60901 22.3953 9.60775C22.4154 9.59237 22.4364 9.57922 22.4569 9.56658C22.4736 9.55572 22.4883 9.54731 22.5049 9.53919C22.5185 9.50482 22.5311 9.46885 22.5408 9.43351C22.5294 9.42379 22.5185 9.41292 22.5088 9.40142ZM22.5088 9.40142C22.4923 9.41 22.4758 9.41795 22.461 9.42767C22.4513 9.46318 22.4375 9.49916 22.4228 9.53467C22.4119 9.56092 22.4005 9.58717 22.3867 9.61359C22.3896 9.61188 22.3925 9.60901 22.3953 9.60775C22.4154 9.59237 22.4364 9.57922 22.4569 9.56658C22.4736 9.55572 22.4883 9.54731 22.5049 9.53919C22.5185 9.50482 22.5311 9.46885 22.5408 9.43351C22.5294 9.42379 22.5185 9.41292 22.5088 9.40142ZM22.5088 9.40142C22.4923 9.41 22.4758 9.41795 22.461 9.42767C22.4513 9.46318 22.4375 9.49916 22.4228 9.53467C22.4119 9.56092 22.4005 9.58717 22.3867 9.61359C22.3896 9.61188 22.3925 9.60901 22.3953 9.60775C22.4154 9.59237 22.4364 9.57922 22.4569 9.56658C22.4736 9.55572 22.4883 9.54731 22.5049 9.53919C22.5185 9.50482 22.5311 9.46885 22.5408 9.43351C22.5294 9.42379 22.5185 9.41292 22.5088 9.40142ZM22.5088 9.40142C22.4923 9.41 22.4758 9.41795 22.461 9.42767C22.4513 9.46318 22.4375 9.49916 22.4228 9.53467C22.4119 9.56092 22.4005 9.58717 22.3867 9.61359C22.3896 9.61188 22.3925 9.60901 22.3953 9.60775C22.4154 9.59237 22.4364 9.57922 22.4569 9.56658C22.4736 9.55572 22.4883 9.54731 22.5049 9.53919C22.5185 9.50482 22.5311 9.46885 22.5408 9.43351C22.5294 9.42379 22.5185 9.41292 22.5088 9.40142ZM22.5088 9.40142C22.4923 9.41 22.4758 9.41795 22.461 9.42767C22.4513 9.46318 22.4375 9.49916 22.4228 9.53467C22.4119 9.56092 22.4005 9.58717 22.3867 9.61359C22.3896 9.61188 22.3925 9.60901 22.3953 9.60775C22.4154 9.59237 22.4364 9.57922 22.4569 9.56658C22.4736 9.55572 22.4883 9.54731 22.5049 9.53919C22.5185 9.50482 22.5311 9.46885 22.5408 9.43351C22.5294 9.42379 22.5185 9.41292 22.5088 9.40142ZM22.5088 9.40142C22.4923 9.41 22.4758 9.41795 22.461 9.42767C22.4513 9.46318 22.4375 9.49916 22.4228 9.53467C22.4119 9.56092 22.4005 9.58717 22.3867 9.61359C22.3896 9.61188 22.3925 9.60901 22.3953 9.60775C22.4154 9.59237 22.4364 9.57922 22.4569 9.56658C22.4736 9.55572 22.4883 9.54731 22.5049 9.53919C22.5185 9.50482 22.5311 9.46885 22.5408 9.43351C22.5294 9.42379 22.5185 9.41292 22.5088 9.40142ZM22.5088 9.40142C22.4923 9.41 22.4758 9.41795 22.461 9.42767C22.4513 9.46318 22.4375 9.49916 22.4228 9.53467C22.4119 9.56092 22.4005 9.58717 22.3867 9.61359C22.3896 9.61188 22.3925 9.60901 22.3953 9.60775C22.4154 9.59237 22.4364 9.57922 22.4569 9.56658C22.4736 9.55572 22.4883 9.54731 22.5049 9.53919C22.5185 9.50482 22.5311 9.46885 22.5408 9.43351C22.5294 9.42379 22.5185 9.41292 22.5088 9.40142ZM22.5088 9.40142C22.4923 9.41 22.4758 9.41795 22.461 9.42767C22.4513 9.46318 22.4375 9.49916 22.4228 9.53467C22.4119 9.56092 22.4005 9.58717 22.3867 9.61359C22.3896 9.61188 22.3925 9.60901 22.3953 9.60775C22.4154 9.59237 22.4364 9.57922 22.4569 9.56658C22.4736 9.55572 22.4883 9.54731 22.5049 9.53919C22.5185 9.50482 22.5311 9.46885 22.5408 9.43351C22.5294 9.42379 22.5185 9.41292 22.5088 9.40142ZM22.5088 9.40142C22.4923 9.41 22.4758 9.41795 22.461 9.42767C22.4513 9.46318 22.4375 9.49916 22.4228 9.53467C22.4119 9.56092 22.4005 9.58717 22.3867 9.61359C22.3896 9.61188 22.3925 9.60901 22.3953 9.60775C22.4154 9.59237 22.4364 9.57922 22.4569 9.56658C22.4736 9.55572 22.4883 9.54731 22.5049 9.53919C22.5185 9.50482 22.5311 9.46885 22.5408 9.43351C22.5294 9.42379 22.5185 9.41292 22.5088 9.40142ZM22.5088 9.40142C22.4923 9.41 22.4758 9.41795 22.461 9.42767C22.4513 9.46318 22.4375 9.49916 22.4228 9.53467C22.4119 9.56092 22.4005 9.58717 22.3867 9.61359C22.3896 9.61188 22.3925 9.60901 22.3953 9.60775C22.4154 9.59237 22.4364 9.57922 22.4569 9.56658C22.4736 9.55572 22.4883 9.54731 22.5049 9.53919C22.5185 9.50482 22.5311 9.46885 22.5408 9.43351C22.5294 9.42379 22.5185 9.41292 22.5088 9.40142ZM22.5088 9.40142C22.4923 9.41 22.4758 9.41795 22.461 9.42767C22.4513 9.46318 22.4375 9.49916 22.4228 9.53467C22.4119 9.56092 22.4005 9.58717 22.3867 9.61359C22.3896 9.61188 22.3925 9.60901 22.3953 9.60775C22.4154 9.59237 22.4364 9.57922 22.4569 9.56658C22.4736 9.55572 22.4883 9.54731 22.5049 9.53919C22.5185 9.50482 22.5311 9.46885 22.5408 9.43351C22.5294 9.42379 22.5185 9.41292 22.5088 9.40142ZM22.5088 9.40142C22.4923 9.41 22.4758 9.41795 22.461 9.42767C22.4513 9.46318 22.4375 9.49916 22.4228 9.53467C22.4119 9.56092 22.4005 9.58717 22.3867 9.61359C22.3896 9.61188 22.3925 9.60901 22.3953 9.60775C22.4154 9.59237 22.4364 9.57922 22.4569 9.56658C22.4736 9.55572 22.4883 9.54731 22.5049 9.53919C22.5185 9.50482 22.5311 9.46885 22.5408 9.43351C22.5294 9.42379 22.5185 9.41292 22.5088 9.40142ZM22.5088 9.40142C22.4923 9.41 22.4758 9.41795 22.461 9.42767C22.4513 9.46318 22.4375 9.49916 22.4228 9.53467C22.4119 9.56092 22.4005 9.58717 22.3867 9.61359C22.3896 9.61188 22.3925 9.60901 22.3953 9.60775C22.4154 9.59237 22.4364 9.57922 22.4569 9.56658C22.4736 9.55572 22.4883 9.54731 22.5049 9.53919C22.5185 9.50482 22.5311 9.46885 22.5408 9.43351C22.5294 9.42379 22.5185 9.41292 22.5088 9.40142ZM22.5088 9.40142C22.4923 9.41 22.4758 9.41795 22.461 9.42767C22.4513 9.46318 22.4375 9.49916 22.4228 9.53467C22.4119 9.56092 22.4005 9.58717 22.3867 9.61359C22.3896 9.61188 22.3925 9.60901 22.3953 9.60775C22.4154 9.59237 22.4364 9.57922 22.4569 9.56658C22.4736 9.55572 22.4883 9.54731 22.5049 9.53919C22.5185 9.50482 22.5311 9.46885 22.5408 9.43351C22.5294 9.42379 22.5185 9.41292 22.5088 9.40142ZM22.5088 9.40142C22.4923 9.41 22.4758 9.41795 22.461 9.42767C22.4513 9.46318 22.4375 9.49916 22.4228 9.53467C22.4119 9.56092 22.4005 9.58717 22.3867 9.61359C22.3896 9.61188 22.3925 9.60901 22.3953 9.60775C22.4154 9.59237 22.4364 9.57922 22.4569 9.56658C22.4736 9.55572 22.4883 9.54731 22.5049 9.53919C22.5185 9.50482 22.5311 9.46885 22.5408 9.43351C22.5294 9.42379 22.5185 9.41292 22.5088 9.40142ZM22.5088 9.40142C22.4923 9.41 22.4758 9.41795 22.461 9.42767C22.4513 9.46318 22.4375 9.49916 22.4228 9.53467C22.4119 9.56092 22.4005 9.58717 22.3867 9.61359C22.3896 9.61188 22.3925 9.60901 22.3953 9.60775C22.4154 9.59237 22.4364 9.57922 22.4569 9.56658C22.4736 9.55572 22.4883 9.54731 22.5049 9.53919C22.5185 9.50482 22.5311 9.46885 22.5408 9.43351C22.5294 9.42379 22.5185 9.41292 22.5088 9.40142ZM22.1837 9.63126C22.1837 9.61588 22.1883 9.59981 22.1973 9.58557C22.2059 9.57179 22.2122 9.55978 22.2208 9.546C22.247 9.49756 22.2675 9.44826 22.284 9.39736C22.2743 9.40251 22.2664 9.41001 22.2578 9.41521C22.2265 9.43688 22.1962 9.46204 22.1671 9.48554C21.9287 9.68736 21.7717 9.95546 21.7062 10.2432C21.7518 10.2324 21.7957 10.2186 21.8396 10.2003C21.8903 10.1815 21.9407 10.158 21.9892 10.1288C22.049 9.97788 22.1397 9.83777 22.2619 9.71927C22.2492 9.71756 22.2384 9.7147 22.2276 9.70841C22.2003 9.69188 22.1837 9.66157 22.1837 9.63126V9.63126ZM22.4952 9.27789C22.4912 9.30752 22.4855 9.33966 22.4774 9.36819V9.36991C22.4734 9.38936 22.4677 9.40817 22.461 9.42762C22.4513 9.46313 22.4375 9.4991 22.4228 9.53461C22.4119 9.56086 22.4005 9.58711 22.3867 9.61353C22.3896 9.61181 22.3925 9.60896 22.3953 9.6077C22.4154 9.59232 22.4364 9.57916 22.4569 9.56652C22.4736 9.55566 22.4883 9.54725 22.5049 9.53913C22.5185 9.50476 22.5311 9.46879 22.5408 9.43345C22.546 9.41675 22.5499 9.40022 22.5546 9.38187V9.38072C22.5654 9.33549 22.5734 9.28973 22.579 9.24341C22.5499 9.25262 22.5226 9.26514 22.4952 9.27778V9.27789ZM22.5088 9.40142C22.4923 9.41 22.4758 9.41795 22.461 9.42767C22.4513 9.46318 22.4375 9.49916 22.4228 9.53467C22.4119 9.56092 22.4005 9.58717 22.3867 9.61359C22.3896 9.61188 22.3925 9.60901 22.3953 9.60775C22.4154 9.59237 22.4364 9.57922 22.4569 9.56658C22.4736 9.55572 22.4883 9.54731 22.5049 9.53919C22.5185 9.50482 22.5311 9.46885 22.5408 9.43351C22.5294 9.42379 22.5185 9.41292 22.5088 9.40142ZM22.5088 9.40142C22.4923 9.41 22.4758 9.41795 22.461 9.42767C22.4513 9.46318 22.4375 9.49916 22.4228 9.53467C22.4119 9.56092 22.4005 9.58717 22.3867 9.61359C22.3896 9.61188 22.3925 9.60901 22.3953 9.60775C22.4154 9.59237 22.4364 9.57922 22.4569 9.56658C22.4736 9.55572 22.4883 9.54731 22.5049 9.53919C22.5185 9.50482 22.5311 9.46885 22.5408 9.43351C22.5294 9.42379 22.5185 9.41292 22.5088 9.40142ZM22.5088 9.40142C22.4923 9.41 22.4758 9.41795 22.461 9.42767C22.4513 9.46318 22.4375 9.49916 22.4228 9.53467C22.4119 9.56092 22.4005 9.58717 22.3867 9.61359C22.3896 9.61188 22.3925 9.60901 22.3953 9.60775C22.4154 9.59237 22.4364 9.57922 22.4569 9.56658C22.4736 9.55572 22.4883 9.54731 22.5049 9.53919C22.5185 9.50482 22.5311 9.46885 22.5408 9.43351C22.5294 9.42379 22.5185 9.41292 22.5088 9.40142ZM22.5088 9.40142C22.4923 9.41 22.4758 9.41795 22.461 9.42767C22.4513 9.46318 22.4375 9.49916 22.4228 9.53467C22.4119 9.56092 22.4005 9.58717 22.3867 9.61359C22.3896 9.61188 22.3925 9.60901 22.3953 9.60775C22.4154 9.59237 22.4364 9.57922 22.4569 9.56658C22.4736 9.55572 22.4883 9.54731 22.5049 9.53919C22.5185 9.50482 22.5311 9.46885 22.5408 9.43351C22.5294 9.42379 22.5185 9.41292 22.5088 9.40142ZM22.5088 9.40142C22.4923 9.41 22.4758 9.41795 22.461 9.42767C22.4513 9.46318 22.4375 9.49916 22.4228 9.53467C22.4119 9.56092 22.4005 9.58717 22.3867 9.61359C22.3896 9.61188 22.3925 9.60901 22.3953 9.60775C22.4154 9.59237 22.4364 9.57922 22.4569 9.56658C22.4736 9.55572 22.4883 9.54731 22.5049 9.53919C22.5185 9.50482 22.5311 9.46885 22.5408 9.43351C22.5294 9.42379 22.5185 9.41292 22.5088 9.40142ZM22.5088 9.40142C22.4923 9.41 22.4758 9.41795 22.461 9.42767C22.4513 9.46318 22.4375 9.49916 22.4228 9.53467C22.4119 9.56092 22.4005 9.58717 22.3867 9.61359C22.3896 9.61188 22.3925 9.60901 22.3953 9.60775C22.4154 9.59237 22.4364 9.57922 22.4569 9.56658C22.4736 9.55572 22.4883 9.54731 22.5049 9.53919C22.5185 9.50482 22.5311 9.46885 22.5408 9.43351C22.5294 9.42379 22.5185 9.41292 22.5088 9.40142ZM22.5088 9.40142C22.4923 9.41 22.4758 9.41795 22.461 9.42767C22.4513 9.46318 22.4375 9.49916 22.4228 9.53467C22.4119 9.56092 22.4005 9.58717 22.3867 9.61359C22.3896 9.61188 22.3925 9.60901 22.3953 9.60775C22.4154 9.59237 22.4364 9.57922 22.4569 9.56658C22.4736 9.55572 22.4883 9.54731 22.5049 9.53919C22.5185 9.50482 22.5311 9.46885 22.5408 9.43351C22.5294 9.42379 22.5185 9.41292 22.5088 9.40142ZM22.5088 9.40142C22.4923 9.41 22.4758 9.41795 22.461 9.42767C22.4513 9.46318 22.4375 9.49916 22.4228 9.53467C22.4119 9.56092 22.4005 9.58717 22.3867 9.61359C22.3896 9.61188 22.3925 9.60901 22.3953 9.60775C22.4154 9.59237 22.4364 9.57922 22.4569 9.56658C22.4736 9.55572 22.4883 9.54731 22.5049 9.53919C22.5185 9.50482 22.5311 9.46885 22.5408 9.43351C22.5294 9.42379 22.5185 9.41292 22.5088 9.40142ZM22.5088 9.40142C22.4923 9.41 22.4758 9.41795 22.461 9.42767C22.4513 9.46318 22.4375 9.49916 22.4228 9.53467C22.4119 9.56092 22.4005 9.58717 22.3867 9.61359C22.3896 9.61188 22.3925 9.60901 22.3953 9.60775C22.4154 9.59237 22.4364 9.57922 22.4569 9.56658C22.4736 9.55572 22.4883 9.54731 22.5049 9.53919C22.5185 9.50482 22.5311 9.46885 22.5408 9.43351C22.5294 9.42379 22.5185 9.41292 22.5088 9.40142ZM22.5088 9.40142C22.4923 9.41 22.4758 9.41795 22.461 9.42767C22.4513 9.46318 22.4375 9.49916 22.4228 9.53467C22.4119 9.56092 22.4005 9.58717 22.3867 9.61359C22.3896 9.61188 22.3925 9.60901 22.3953 9.60775C22.4154 9.59237 22.4364 9.57922 22.4569 9.56658C22.4736 9.55572 22.4883 9.54731 22.5049 9.53919C22.5185 9.50482 22.5311 9.46885 22.5408 9.43351C22.5294 9.42379 22.5185 9.41292 22.5088 9.40142ZM22.5088 9.40142C22.4923 9.41 22.4758 9.41795 22.461 9.42767C22.4513 9.46318 22.4375 9.49916 22.4228 9.53467C22.4119 9.56092 22.4005 9.58717 22.3867 9.61359C22.3896 9.61188 22.3925 9.60901 22.3953 9.60775C22.4154 9.59237 22.4364 9.57922 22.4569 9.56658C22.4736 9.55572 22.4883 9.54731 22.5049 9.53919C22.5185 9.50482 22.5311 9.46885 22.5408 9.43351C22.5294 9.42379 22.5185 9.41292 22.5088 9.40142ZM22.5088 9.40142C22.4923 9.41 22.4758 9.41795 22.461 9.42767C22.4513 9.46318 22.4375 9.49916 22.4228 9.53467C22.4119 9.56092 22.4005 9.58717 22.3867 9.61359C22.3896 9.61188 22.3925 9.60901 22.3953 9.60775C22.4154 9.59237 22.4364 9.57922 22.4569 9.56658C22.4736 9.55572 22.4883 9.54731 22.5049 9.53919C22.5185 9.50482 22.5311 9.46885 22.5408 9.43351C22.5294 9.42379 22.5185 9.41292 22.5088 9.40142ZM22.5088 9.40142C22.4923 9.41 22.4758 9.41795 22.461 9.42767C22.4513 9.46318 22.4375 9.49916 22.4228 9.53467C22.4119 9.56092 22.4005 9.58717 22.3867 9.61359C22.3896 9.61188 22.3925 9.60901 22.3953 9.60775C22.4154 9.59237 22.4364 9.57922 22.4569 9.56658C22.4736 9.55572 22.4883 9.54731 22.5049 9.53919C22.5185 9.50482 22.5311 9.46885 22.5408 9.43351C22.5294 9.42379 22.5185 9.41292 22.5088 9.40142ZM22.5088 9.40142C22.4923 9.41 22.4758 9.41795 22.461 9.42767C22.4513 9.46318 22.4375 9.49916 22.4228 9.53467C22.4119 9.56092 22.4005 9.58717 22.3867 9.61359C22.3896 9.61188 22.3925 9.60901 22.3953 9.60775C22.4154 9.59237 22.4364 9.57922 22.4569 9.56658C22.4736 9.55572 22.4883 9.54731 22.5049 9.53919C22.5185 9.50482 22.5311 9.46885 22.5408 9.43351C22.5294 9.42379 22.5185 9.41292 22.5088 9.40142ZM22.5088 9.40142C22.4923 9.41 22.4758 9.41795 22.461 9.42767C22.4513 9.46318 22.4375 9.49916 22.4228 9.53467C22.4119 9.56092 22.4005 9.58717 22.3867 9.61359C22.3896 9.61188 22.3925 9.60901 22.3953 9.60775C22.4154 9.59237 22.4364 9.57922 22.4569 9.56658C22.4736 9.55572 22.4883 9.54731 22.5049 9.53919C22.5185 9.50482 22.5311 9.46885 22.5408 9.43351C22.5294 9.42379 22.5185 9.41292 22.5088 9.40142ZM22.5088 9.40142C22.4923 9.41 22.4758 9.41795 22.461 9.42767C22.4513 9.46318 22.4375 9.49916 22.4228 9.53467C22.4119 9.56092 22.4005 9.58717 22.3867 9.61359C22.3896 9.61188 22.3925 9.60901 22.3953 9.60775C22.4154 9.59237 22.4364 9.57922 22.4569 9.56658C22.4736 9.55572 22.4883 9.54731 22.5049 9.53919C22.5185 9.50482 22.5311 9.46885 22.5408 9.43351C22.5294 9.42379 22.5185 9.41292 22.5088 9.40142ZM22.5088 9.40142C22.4923 9.41 22.4758 9.41795 22.461 9.42767C22.4513 9.46318 22.4375 9.49916 22.4228 9.53467C22.4119 9.56092 22.4005 9.58717 22.3867 9.61359C22.3896 9.61188 22.3925 9.60901 22.3953 9.60775C22.4154 9.59237 22.4364 9.57922 22.4569 9.56658C22.4736 9.55572 22.4883 9.54731 22.5049 9.53919C22.5185 9.50482 22.5311 9.46885 22.5408 9.43351C22.5294 9.42379 22.5185 9.41292 22.5088 9.40142ZM22.5088 9.40142C22.4923 9.41 22.4758 9.41795 22.461 9.42767C22.4513 9.46318 22.4375 9.49916 22.4228 9.53467C22.4119 9.56092 22.4005 9.58717 22.3867 9.61359C22.3896 9.61188 22.3925 9.60901 22.3953 9.60775C22.4154 9.59237 22.4364 9.57922 22.4569 9.56658C22.4736 9.55572 22.4883 9.54731 22.5049 9.53919C22.5185 9.50482 22.5311 9.46885 22.5408 9.43351C22.5294 9.42379 22.5185 9.41292 22.5088 9.40142ZM22.5088 9.40142C22.4923 9.41 22.4758 9.41795 22.461 9.42767C22.4513 9.46318 22.4375 9.49916 22.4228 9.53467C22.4119 9.56092 22.4005 9.58717 22.3867 9.61359C22.3896 9.61188 22.3925 9.60901 22.3953 9.60775C22.4154 9.59237 22.4364 9.57922 22.4569 9.56658C22.4736 9.55572 22.4883 9.54731 22.5049 9.53919C22.5185 9.50482 22.5311 9.46885 22.5408 9.43351C22.5294 9.42379 22.5185 9.41292 22.5088 9.40142ZM22.5088 9.40142C22.4923 9.41 22.4758 9.41795 22.461 9.42767C22.4513 9.46318 22.4375 9.49916 22.4228 9.53467C22.4119 9.56092 22.4005 9.58717 22.3867 9.61359C22.3896 9.61188 22.3925 9.60901 22.3953 9.60775C22.4154 9.59237 22.4364 9.57922 22.4569 9.56658C22.4736 9.55572 22.4883 9.54731 22.5049 9.53919C22.5185 9.50482 22.5311 9.46885 22.5408 9.43351C22.5294 9.42379 22.5185 9.41292 22.5088 9.40142ZM22.5088 9.40142C22.4923 9.41 22.4758 9.41795 22.461 9.42767C22.4513 9.46318 22.4375 9.49916 22.4228 9.53467C22.4119 9.56092 22.4005 9.58717 22.3867 9.61359C22.3896 9.61188 22.3925 9.60901 22.3953 9.60775C22.4154 9.59237 22.4364 9.57922 22.4569 9.56658C22.4736 9.55572 22.4883 9.54731 22.5049 9.53919C22.5185 9.50482 22.5311 9.46885 22.5408 9.43351C22.5294 9.42379 22.5185 9.41292 22.5088 9.40142ZM22.5088 9.40142C22.4923 9.41 22.4758 9.41795 22.461 9.42767C22.4513 9.46318 22.4375 9.49916 22.4228 9.53467C22.4119 9.56092 22.4005 9.58717 22.3867 9.61359C22.3896 9.61188 22.3925 9.60901 22.3953 9.60775C22.4154 9.59237 22.4364 9.57922 22.4569 9.56658C22.4736 9.55572 22.4883 9.54731 22.5049 9.53919C22.5185 9.50482 22.5311 9.46885 22.5408 9.43351C22.5294 9.42379 22.5185 9.41292 22.5088 9.40142ZM22.5088 9.40142C22.4923 9.41 22.4758 9.41795 22.461 9.42767C22.4513 9.46318 22.4375 9.49916 22.4228 9.53467C22.4119 9.56092 22.4005 9.58717 22.3867 9.61359C22.3896 9.61188 22.3925 9.60901 22.3953 9.60775C22.4154 9.59237 22.4364 9.57922 22.4569 9.56658C22.4736 9.55572 22.4883 9.54731 22.5049 9.53919C22.5185 9.50482 22.5311 9.46885 22.5408 9.43351C22.5294 9.42379 22.5185 9.41292 22.5088 9.40142ZM22.5088 9.40142C22.4923 9.41 22.4758 9.41795 22.461 9.42767C22.4513 9.46318 22.4375 9.49916 22.4228 9.53467C22.4119 9.56092 22.4005 9.58717 22.3867 9.61359C22.3896 9.61188 22.3925 9.60901 22.3953 9.60775C22.4154 9.59237 22.4364 9.57922 22.4569 9.56658C22.4736 9.55572 22.4883 9.54731 22.5049 9.53919C22.5185 9.50482 22.5311 9.46885 22.5408 9.43351C22.5294 9.42379 22.5185 9.41292 22.5088 9.40142Z" fill="#FCFCFC"/>
<path fill-rule="evenodd" clip-rule="evenodd" d="M22.4431 9.66943C22.4323 9.69002 22.4208 9.70947 22.4088 9.72714C22.3336 9.85067 22.2332 9.96104 22.11 10.0515C22.1766 9.92215 22.2703 9.8056 22.3883 9.70947C22.4061 9.697 22.4226 9.68322 22.4402 9.67058C22.4419 9.67058 22.4419 9.66943 22.4431 9.66943H22.4431Z" fill="#FCFCFC"/>
<path fill-rule="evenodd" clip-rule="evenodd" d="M22.4953 9.27784C22.4913 9.30815 22.4856 9.3396 22.4776 9.36877V9.36991C22.4731 9.38935 22.4679 9.4088 22.461 9.42762C22.4513 9.46359 22.4377 9.4991 22.4228 9.53507C22.412 9.56149 22.4005 9.58711 22.3869 9.61353C22.3869 9.61353 22.3858 9.61353 22.3858 9.61467C22.3749 9.63526 22.3635 9.65636 22.3515 9.67643C22.3515 9.67815 22.3498 9.67815 22.3498 9.6793C22.343 9.68902 22.335 9.69714 22.3253 9.70463C22.307 9.71824 22.2843 9.72339 22.262 9.71938C22.2495 9.71824 22.2386 9.71538 22.2278 9.70852C22.2003 9.69194 22.1838 9.66162 22.1838 9.63131C22.1838 9.61644 22.1878 9.59987 22.1975 9.58608C22.206 9.57247 22.2123 9.55983 22.2209 9.54605C22.2471 9.49807 22.2676 9.44831 22.2843 9.39741C22.2854 9.39627 22.2883 9.39512 22.2911 9.39341C22.2882 9.39227 22.2865 9.39056 22.2865 9.38941C22.3087 9.32473 22.3224 9.2573 22.3281 9.18988C22.3321 9.15259 22.3332 9.11542 22.3321 9.07831C22.3304 9.03879 22.3583 9.00277 22.3955 8.9919C22.4034 8.98904 22.4102 8.98789 22.4183 8.98789C22.4679 8.98618 22.509 9.02518 22.5102 9.07425C22.5102 9.09375 22.5101 9.11251 22.509 9.13201C22.509 9.18176 22.5039 9.22991 22.4953 9.27789V9.27784ZM20.88 8.35768C20.4686 8.65225 20.374 9.22871 20.669 9.64092C20.6981 9.68101 20.6895 9.73706 20.6485 9.76514C20.6085 9.79367 20.5537 9.78504 20.5246 9.74386C20.1738 9.25319 20.2861 8.56522 20.7774 8.2118C20.8173 8.1844 20.8721 8.19298 20.9011 8.23238C20.9297 8.27241 20.92 8.32903 20.88 8.35768V8.35768ZM22.3675 8.4211C22.3115 8.34098 22.2459 8.2695 22.1745 8.20888C22.1233 8.16542 22.0684 8.12653 22.012 8.09348C21.9641 8.06477 21.915 8.03966 21.863 8.0197C21.8145 7.99911 21.7655 7.98242 21.7148 7.96995C21.3879 7.88354 21.0272 7.93672 20.7322 8.15003C20.2068 8.52696 20.0858 9.26291 20.4618 9.78961C20.7512 10.1939 21.252 10.3604 21.7062 10.2432C21.7518 10.2323 21.7951 10.2185 21.8398 10.2009C21.8899 10.1814 21.9407 10.1579 21.9892 10.1294C22.0262 10.1099 22.0634 10.0864 22.0987 10.0606C22.1027 10.0578 22.1068 10.0549 22.1095 10.0522C22.2334 9.96129 22.3332 9.85138 22.409 9.72785C22.421 9.70949 22.4325 9.69073 22.4433 9.67014C22.4582 9.64384 22.4707 9.61742 22.4833 9.59003C22.4912 9.5735 22.4982 9.55565 22.5049 9.53913C22.5187 9.50476 22.5307 9.46878 22.5408 9.43327C22.546 9.41674 22.5501 9.40022 22.5546 9.38238V9.38066C22.5654 9.33542 22.5734 9.28973 22.5792 9.24335C22.5832 9.21304 22.5843 9.18274 22.586 9.15243C22.5968 8.89966 22.5255 8.64242 22.3675 8.42099V8.4211Z" fill="#FCFCFC"/>
<path fill-rule="evenodd" clip-rule="evenodd" d="M22.2906 9.39314C22.2878 9.39425 22.2856 9.39592 22.2838 9.39702C22.2855 9.39425 22.2866 9.39204 22.2866 9.38916C22.2866 9.39027 22.2877 9.39192 22.2905 9.39303L22.2906 9.39314Z" fill="#FCFCFC"/>
<path fill-rule="evenodd" clip-rule="evenodd" d="M12.457 16.7829C12.4403 16.7937 12.4186 16.7976 12.3992 16.7886C12.369 16.7743 12.3554 16.7399 12.369 16.7102C12.3913 16.6593 12.405 16.6044 12.4101 16.5478C12.4129 16.5146 12.4421 16.4913 12.4734 16.494C12.5066 16.4957 12.531 16.5243 12.5283 16.5569C12.5231 16.6273 12.5048 16.6947 12.4764 16.7583C12.4724 16.768 12.4655 16.7759 12.457 16.7829V16.7829ZM11.6257 16.1024C11.4032 16.2612 11.3512 16.5736 11.5115 16.7965C11.5298 16.824 11.5241 16.8612 11.4978 16.8807C11.4704 16.8983 11.4334 16.8926 11.4156 16.8664C11.2165 16.5901 11.281 16.2035 11.5566 16.0056C11.5828 15.9861 11.6199 15.9936 11.6393 16.0193C11.6587 16.0456 11.6512 16.0829 11.6257 16.1024V16.1024ZM12.5213 16.072C12.2812 15.7363 11.815 15.6592 11.4819 15.8999C11.1469 16.1406 11.07 16.6067 11.3083 16.9424C11.5485 17.2781 12.0153 17.3546 12.3484 17.1146C12.6834 16.8738 12.7604 16.4071 12.5213 16.072Z" fill="#FCFCFC"/>
<path fill-rule="evenodd" clip-rule="evenodd" d="M5.43454 45.9074H5.38667C5.38667 45.9074 5.44653 45.3699 4.79395 45.2606C5.44653 45.1536 5.38667 44.6156 5.38667 44.6156H5.43454C5.43454 44.6156 5.37293 45.1536 6.02745 45.2606C5.37293 45.3699 5.43454 45.9074 5.43454 45.9074Z" fill="#FCFCFC"/>
<path fill-rule="evenodd" clip-rule="evenodd" d="M9.91596 44.4096L6.79572 45.7394L9.44937 44.2404L9.91596 44.4096Z" fill="#FCFCFC"/>
<path fill-rule="evenodd" clip-rule="evenodd" d="M12.055 46.9513L9.77625 49.6139L11.9672 46.3875L12.055 46.9513Z" fill="#FCFCFC"/>
<path fill-rule="evenodd" clip-rule="evenodd" d="M12.2143 48.7898H12.1676C12.1676 48.7898 12.228 48.253 11.5748 48.1455C12.228 48.0367 12.1676 47.4987 12.1676 47.4987H12.2143C12.2143 47.4987 12.1538 48.0367 12.8072 48.1455C12.1538 48.253 12.2143 48.7898 12.2143 48.7898Z" fill="#FCFCFC"/>
<path fill-rule="evenodd" clip-rule="evenodd" d="M12.5751 50.1821V50.1941H5.76117V50.1821C6.77103 49.9797 7.79846 49.871 8.84261 49.8446L9.14324 49.8389C9.44682 49.8417 9.67451 49.8699 9.99796 49.8807L10.1109 49.8858C10.8972 49.9396 11.6885 50.0306 12.49 50.1684C12.5187 50.1718 12.546 50.1765 12.5751 50.1822V50.1821Z" fill="#FCFCFC"/>
<path fill-rule="evenodd" clip-rule="evenodd" d="M13.434 43.4249C13.3821 43.4315 13.3284 43.4381 13.2736 43.4381C13.3255 43.426 13.3792 43.4249 13.434 43.4249Z" fill="#FCFCFC"/>
<path fill-rule="evenodd" clip-rule="evenodd" d="M14.9349 50.8629C14.9008 50.8629 14.8648 50.86 14.8306 50.8571L14.5538 54.4879C14.5538 55.1205 14.0433 55.6334 13.4122 55.6334H4.83912C4.20822 55.6334 3.69633 55.1205 3.69633 54.4879L3.42025 50.8571C3.38488 50.8599 3.35058 50.8629 3.31463 50.8629C2.32827 50.8629 1.52837 50.0964 1.52837 49.1505C1.52837 48.2705 2.22268 47.5454 3.11621 47.4487L3.11448 47.4384H3.33814C3.58125 47.4384 3.8146 47.4738 4.0354 47.5397V44.9805C4.0354 43.9722 4.85004 43.1545 5.85596 43.1545H8.00856C7.96931 43.369 7.81806 43.7041 7.25944 43.795C8.0982 43.9339 8.01941 44.623 8.01941 44.623H8.07988C8.07988 44.623 8.00177 43.9339 8.84052 43.795C8.2819 43.7041 8.13072 43.369 8.09073 43.1545H12.7846C12.8 43.1545 12.8166 43.1545 12.8315 43.155L14.0998 41.8849C14.0199 41.8032 14.0199 41.6745 14.1009 41.5944C14.1802 41.5132 14.3091 41.5132 14.3901 41.5932L14.8626 41.1213L15.1889 41.4485L13.3861 43.2568C14.0969 43.505 14.6059 44.1839 14.6059 44.9805V47.4573C14.7063 47.4447 14.809 47.4384 14.9128 47.4384H15.1354V47.4487C16.0277 47.5454 16.7231 48.2705 16.7231 49.1505C16.7231 50.0964 15.9227 50.8629 14.935 50.8629H14.9349ZM4.7895 39.049H4.86373C4.86373 39.049 4.76782 39.8999 5.80221 40.0709C4.76782 40.2413 4.86373 41.0923 4.86373 41.0923H4.7895C4.7895 41.0923 4.88602 40.2413 3.85157 40.0709C4.88602 39.8999 4.7895 39.049 4.7895 39.049ZM7.8864 40.0326H7.96177C7.96177 40.0326 7.86473 40.8835 8.89918 41.0539C7.86473 41.2243 7.96177 42.0759 7.96177 42.0759H7.8864C7.8864 42.0759 7.98231 41.2243 6.94791 41.0539C7.98231 40.8835 7.8864 40.0326 7.8864 40.0326ZM12.5473 38.2843H12.675C12.675 38.2843 12.509 39.7392 14.2794 40.0297C12.509 40.3209 12.675 41.7756 12.675 41.7756H12.5473C12.5473 41.7756 12.7121 40.3209 10.9434 40.0297C12.7121 39.7392 12.5473 38.2843 12.5473 38.2843ZM18.1871 47.4476C17.1823 47.4476 16.3677 46.6309 16.3677 45.6244V32.5947H13.5246C12.634 32.5947 12.1125 31.6838 12.4229 30.9442H1V59H28.9909V47.4476H18.1871Z" fill="#FCFCFC"/>
<path fill-rule="evenodd" clip-rule="evenodd" d="M50.6547 41.5584C51.4866 41.4087 52.2391 41.6202 52.9077 42.0795C53.8708 42.7383 54.2976 43.6984 54.3473 44.9297C53.6363 44.5957 53.1149 44.117 52.5443 43.6967C52.7447 44.26 53.2695 44.5665 53.6198 45.0228C52.3435 45.2541 50.4858 43.1186 50.6547 41.5584V41.5584ZM49.3539 44.4396C49.1467 44.6134 48.9095 44.6473 48.6573 44.5459C48.4278 44.4534 48.2779 44.224 48.2904 43.953C48.2972 43.8226 48.3195 43.679 48.3782 43.5652C48.5391 43.2546 48.7228 42.9555 48.926 42.6039C49.1399 43.0037 49.3459 43.36 49.5228 43.7317C49.6352 43.9683 49.5513 44.272 49.3539 44.4396V44.4396ZM47.8213 46.4973C47.1584 46.8861 46.363 46.4395 46.3682 45.6692C46.3693 45.4781 46.4149 45.2717 46.4982 45.1024C46.7607 44.5785 47.0517 44.0684 47.3193 43.5731C47.6001 44.1011 47.8967 44.6541 48.1877 45.2117C48.226 45.283 48.2414 45.3694 48.2579 45.4507C48.3412 45.8962 48.1768 46.2891 47.8213 46.4973V46.4973ZM45.6933 43.1935C45.6825 43.0751 45.6893 42.9378 45.7383 42.8327C45.8689 42.5462 46.0253 42.2722 46.2021 41.9365C46.4709 42.3573 46.7869 42.6765 46.7453 43.165C46.7196 43.4749 46.5273 43.6681 46.2336 43.6738C45.9414 43.679 45.7218 43.4948 45.6933 43.1935V43.1935ZM55.0605 46.3074V30.9438H47.891C48.2014 31.6839 47.6798 32.5942 46.7898 32.5942H43.6723V45.6239C43.6723 46.6305 42.8571 47.4477 41.8529 47.4477H32.0093V54.0489H55.0605V46.7929C54.7091 46.7574 54.3981 46.7255 54.0865 46.6934C53.8697 47.0257 53.6815 47.3339 53.4755 47.6289C52.433 49.1216 50.9856 49.9976 49.2329 50.3906C48.2373 50.6148 47.2274 50.6714 46.2091 50.5433C45.8005 50.4942 45.3886 50.4512 44.9795 50.3906C44.7997 50.3643 44.6257 50.3014 44.4032 50.2424C44.7451 48.8591 45.3681 47.6947 46.419 46.7706C46.6113 46.8368 46.758 46.8838 46.9017 46.9359C47.6263 47.1983 48.4581 46.7432 48.5871 45.9774C48.6418 45.6486 48.8068 45.5068 49.0988 45.4536C50.0601 45.2746 51.0278 45.2179 51.9994 45.3638C52.3669 45.4192 52.7332 45.485 53.1 45.5536C53.2056 45.5742 53.3054 45.621 53.4139 45.7063C51.8796 46.1027 50.3678 46.5224 49.0686 47.4798C50.9753 46.6391 52.9569 46.185 55.0605 46.3074V46.3074Z" fill="#FCFCFC"/>
<path fill-rule="evenodd" clip-rule="evenodd" d="M52.7209 18.2212L47.5273 13.4872L42.559 8.95741L42.7531 8.74524L47.7167 13.27L52.9143 18.009L52.7209 18.2212ZM51.9679 19.0517L46.7885 14.329L41.806 9.78773L42.3987 9.13298L47.3698 13.6662L52.5607 18.3974L51.9679 19.0517ZM46.275 15.8955C45.7945 16.1706 42.3028 20.9772 42.3028 20.9772C42.2834 20.9994 42.2613 21.0171 42.2373 21.0327C42.05 21.2883 41.7482 21.4547 41.4083 21.4547C40.84 21.4547 40.379 20.9926 40.379 20.423C40.379 20.0336 40.5946 19.6945 40.9142 19.5194C40.9159 19.5183 40.9171 19.5165 40.9182 19.5165C41.6086 18.9017 45.2732 15.6259 45.4791 15.1696C45.4791 15.1696 45.0936 13.2326 45.2857 13.1063L45.8511 13.6221C45.8511 13.6221 45.7787 14.5588 46.1228 15.0866C46.145 15.121 46.1639 15.1581 46.1883 15.1884C46.7253 15.5682 47.7773 15.3784 47.7773 15.3784L48.3427 15.8924C48.2361 16.0961 46.2751 15.8953 46.2751 15.8953L46.275 15.8955ZM37.1873 14.5698H37.1121C37.1121 14.5698 37.2085 13.7182 36.1734 13.5478C37.2085 13.3775 37.1121 12.5259 37.1121 12.5259H37.1873C37.1873 12.5259 37.0903 13.3775 38.1247 13.5478C37.0903 13.7182 37.1873 14.5698 37.1873 14.5698ZM43.5568 2.93883H43.6848C43.6848 2.93883 43.5187 4.39376 45.2885 4.68427C43.5187 4.97542 43.6848 6.43085 43.6848 6.43085H43.5568C43.5568 6.43085 43.7218 4.97542 41.9525 4.68427C43.7218 4.39376 43.5568 2.93883 43.5568 2.93883ZM49.0506 6.55729H49.1797C49.1797 6.55729 49.0136 8.01673 50.7879 8.30833C49.0136 8.60114 49.1797 10.0599 49.1797 10.0599H49.0506C49.0506 10.0599 49.2167 8.60114 47.4429 8.30833C49.2167 8.01673 49.0506 6.55729 49.0506 6.55729ZM32.0091 0V14.182L45.2434 28.0558H60V0H32.0091Z" fill="#FCFCFC"/>
<path fill-rule="evenodd" clip-rule="evenodd" d="M15.0242 28.1042L21.4718 21.3445L16.2663 26.909L16.0534 27.136L15.3619 27.8732C15.2673 27.9749 15.1502 28.0533 15.0242 28.1042V28.1042Z" fill="#FCFCFC"/>
<path fill-rule="evenodd" clip-rule="evenodd" d="M25.2612 26.1306H29.6822V30.5633H25.2612V26.1306Z" fill="#FCFCFC"/>
<path fill-rule="evenodd" clip-rule="evenodd" d="M5.43454 45.9074H5.38667C5.38667 45.9074 5.44653 45.3699 4.79395 45.2606C5.44653 45.1536 5.38667 44.6156 5.38667 44.6156H5.43454C5.43454 44.6156 5.37293 45.1536 6.02745 45.2606C5.37293 45.3699 5.43454 45.9074 5.43454 45.9074Z" fill="#FCFCFC"/>
<path fill-rule="evenodd" clip-rule="evenodd" d="M8.08014 44.6229H8.01967C8.01967 44.6229 8.09778 43.9338 7.2597 43.7949C7.81815 43.7046 7.96888 43.3689 8.00882 43.1544H8.09099C8.13093 43.3689 8.28201 43.7046 8.84063 43.7949C8.00187 43.9338 8.08014 44.6229 8.08014 44.6229Z" fill="#FCFCFC"/>
<path fill-rule="evenodd" clip-rule="evenodd" d="M9.91596 44.4096L6.79572 45.7394L9.44937 44.2404L9.91596 44.4096Z" fill="#FCFCFC"/>
<path fill-rule="evenodd" clip-rule="evenodd" d="M12.055 46.9513L9.77625 49.6139L11.9672 46.3875L12.055 46.9513Z" fill="#FCFCFC"/>
<path fill-rule="evenodd" clip-rule="evenodd" d="M12.2143 48.7898H12.1676C12.1676 48.7898 12.228 48.253 11.5748 48.1455C12.228 48.0367 12.1676 47.4987 12.1676 47.4987H12.2143C12.2143 47.4987 12.1538 48.0367 12.8072 48.1455C12.1538 48.253 12.2143 48.7898 12.2143 48.7898Z" fill="#FCFCFC"/>
<path fill-rule="evenodd" clip-rule="evenodd" d="M12.5751 50.1821V50.1941H5.76117V50.1821C6.77103 49.9797 7.79846 49.871 8.84261 49.8446L9.14324 49.8389C9.44682 49.8417 9.67451 49.8699 9.99796 49.8807L10.1109 49.8858C10.8972 49.9396 11.6885 50.0306 12.49 50.1684C12.5187 50.1718 12.546 50.1765 12.5751 50.1822V50.1821Z" fill="#FCFCFC"/>
<path fill-rule="evenodd" clip-rule="evenodd" d="M13.434 43.4249C13.3821 43.4315 13.3284 43.4381 13.2736 43.4381C13.3255 43.426 13.3792 43.4249 13.434 43.4249Z" fill="#FCFCFC"/>
<path fill-rule="evenodd" clip-rule="evenodd" d="M12.5751 50.1821V50.1941H5.76117V50.1821C6.77103 49.9797 7.79846 49.871 8.84261 49.8446L9.14324 49.8389C9.44682 49.8417 9.67451 49.8699 9.99796 49.8807L10.1109 49.8858C10.8972 49.9396 11.6885 50.0306 12.49 50.1684C12.5187 50.1718 12.546 50.1765 12.5751 50.1822V50.1821Z" fill="#FCFCFC"/>
<path fill-rule="evenodd" clip-rule="evenodd" d="M5.13025 49.8671V55.0014H4.83914C4.55678 55.0014 4.32743 54.771 4.32743 54.4878V54.4604L3.99429 50.1897L3.35174 50.2286C3.33924 50.2286 3.32732 50.2303 3.31465 50.2303C2.67792 50.2303 2.1593 49.746 2.1593 49.1507C2.1593 48.6016 2.59867 48.1407 3.18171 48.079L3.25596 48.0709H3.3381C3.58509 48.0709 3.82136 48.1218 4.03537 48.2122C4.67723 48.4849 5.13025 49.1243 5.13025 49.8672V49.8671Z" fill="#FCFCFC"/>
<path fill-rule="evenodd" clip-rule="evenodd" d="M12.5751 50.1816V50.1932H12.49V50.1682C12.5186 50.1715 12.546 50.1761 12.5751 50.1816Z" fill="#FCFCFC"/>
<path fill-rule="evenodd" clip-rule="evenodd" d="M16.0917 49.1507C16.0917 49.746 15.5731 50.2303 14.9352 50.2303C14.9226 50.2303 14.9106 50.2286 14.8981 50.2286L14.6059 50.2108L14.2574 50.1897L14.2203 50.6682L13.9236 54.4604V54.4878C13.9236 54.771 13.6931 55.0009 13.4119 55.0009H13.1209V49.8671C13.1209 48.9813 13.7633 48.2441 14.6059 48.0984C14.7059 48.0805 14.8086 48.0708 14.9129 48.0708H15.0065L15.0681 48.0789C15.6523 48.1406 16.0917 48.6015 16.0917 49.1506V49.1507Z" fill="#FCFCFC"/>
<path fill-rule="evenodd" clip-rule="evenodd" d="M13.434 43.4249C13.3821 43.4315 13.3284 43.4381 13.2736 43.4381C13.3255 43.426 13.3792 43.4249 13.434 43.4249Z" fill="#FCFCFC"/>
<path fill-rule="evenodd" clip-rule="evenodd" d="M11.0041 43.1534H10.8724L10.9379 43.0885L11.0041 43.1534Z" fill="#FCFCFC"/>
<path fill-rule="evenodd" clip-rule="evenodd" d="M13.2267 45.3819L12.246 46.3656L9.95752 44.0713L10.8726 43.1539H11.0039L11.9189 44.0713L12.0828 43.9066L12.4103 44.2348L12.246 44.3985L13.2267 45.3819Z" fill="#FCFCFC"/>
<path fill-rule="evenodd" clip-rule="evenodd" d="M15.1888 41.4486L13.3858 43.2569L12.574 44.0712L12.246 43.7429L12.8319 43.1551L14.0996 41.8848C14.0198 41.8031 14.0198 41.6744 14.1007 41.5943C14.1801 41.5131 14.309 41.5131 14.3906 41.5932L14.8624 41.1215L15.1888 41.4486Z" fill="#FCFCFC"/>
<path fill-rule="evenodd" clip-rule="evenodd" d="M12.055 46.9513L9.77625 49.6139L11.9672 46.3875L12.055 46.9513Z" fill="#FCFCFC"/>
<path fill-rule="evenodd" clip-rule="evenodd" d="M9.91596 44.4096L6.79572 45.7394L9.44937 44.2404L9.91596 44.4096Z" fill="#FCFCFC"/>
<path fill-rule="evenodd" clip-rule="evenodd" d="M5.43454 45.9074H5.38667C5.38667 45.9074 5.44653 45.3699 4.79395 45.2606C5.44653 45.1536 5.38667 44.6156 5.38667 44.6156H5.43454C5.43454 44.6156 5.37293 45.1536 6.02745 45.2606C5.37293 45.3699 5.43454 45.9074 5.43454 45.9074Z" fill="#FCFCFC"/>
<path fill-rule="evenodd" clip-rule="evenodd" d="M8.08014 44.623H8.01967C8.01967 44.623 8.09778 43.9339 7.2597 43.7949C7.81815 43.7046 7.96888 43.3689 8.00882 43.1545C8.02822 43.0452 8.01967 42.968 8.01967 42.968H8.08014C8.08014 42.968 8.07159 43.0452 8.09099 43.1545C8.13093 43.3689 8.28201 43.7046 8.84063 43.7949C8.00187 43.9339 8.08014 44.623 8.08014 44.623Z" fill="#FCFCFC"/>
<path fill-rule="evenodd" clip-rule="evenodd" d="M12.2143 48.7898H12.1676C12.1676 48.7898 12.228 48.253 11.5748 48.1455C12.228 48.0367 12.1676 47.4987 12.1676 47.4987H12.2143C12.2143 47.4987 12.1538 48.0367 12.8072 48.1455C12.1538 48.253 12.2143 48.7898 12.2143 48.7898Z" fill="#FCFCFC"/>
<path fill-rule="evenodd" clip-rule="evenodd" d="M28.7162 9.29126V13.2224C28.7162 13.4667 28.6227 13.7015 28.4555 13.8807L21.4714 21.3448L16.2658 26.9091L16.053 27.1363L15.3616 27.8734C15.2668 27.9746 15.1504 28.0536 15.0238 28.1039C14.9102 28.1519 14.7865 28.1771 14.662 28.1771H6.20435V25.3578H13.7742L18.022 20.7889V12.0998H21.2587V17.3096L28.7162 9.29126Z" fill="#FCFCFC"/>
<path fill-rule="evenodd" clip-rule="evenodd" d="M29.6822 30.5633H25.2612V26.1306H29.6822V30.5633Z" fill="#FCFCFC"/>
<path fill-rule="evenodd" clip-rule="evenodd" d="M34.9429 30.5633H30.5217V26.1306H34.9429V30.5633Z" fill="#FCFCFC"/>
<path fill-rule="evenodd" clip-rule="evenodd" d="M29.6822 35.7587H25.2612V31.3267H29.6822V35.7587Z" fill="#FCFCFC"/>
<path fill-rule="evenodd" clip-rule="evenodd" d="M34.9429 35.7587H30.5217V31.3267H34.9429V35.7587Z" fill="#FCFCFC"/>
</svg>
