<svg width="60" height="60" viewBox="0 0 60 60" fill="none" xmlns="http://www.w3.org/2000/svg">
<path d="M40.5002 49H19.4998C17.5701 49 16 47.3756 16 45.3792V10.6208C16 8.62441 17.5701 7 19.4998 7H40.5002C42.4299 7 44 8.62441 44 10.6208V45.3792C44 47.3756 42.4299 49 40.5002 49ZM19.4998 8.44832C18.3422 8.44832 17.3999 9.42319 17.3999 10.6208V45.3792C17.3999 46.5768 18.3422 47.5517 19.4998 47.5517H40.5002C41.6578 47.5517 42.6001 46.5768 42.6001 45.3792V10.6208C42.6001 9.42319 41.6578 8.44832 40.5002 8.44832H19.4998Z" fill="#43C951"/>
<path d="M40.5002 53H19.4998C17.5701 53 16 51.3799 16 49.3888V14.7222C16 14.323 16.3127 14 16.7 14C17.0872 14 17.3999 14.323 17.3999 14.7222V49.3888C17.3999 50.5832 18.3422 51.5555 19.4998 51.5555H40.5002C41.6578 51.5555 42.6001 50.5832 42.6001 49.3888V14.7222C42.6001 14.323 42.9131 14 43.3 14C43.6873 14 44 14.323 44 14.7222V49.3888C44 51.3799 42.4299 53 40.5002 53Z" fill="#43C951"/>
<path d="M21.5 53C21.2236 53 21 52.6648 21 52.2496V50.7504C21 50.3356 21.2236 50 21.5 50C21.7766 50 22 50.3356 22 50.7504V52.2496C22 52.6648 21.7766 53 21.5 53Z" fill="#43C951"/>
<path d="M25.5 53C25.2236 53 25 52.6648 25 52.2496V50.7504C25 50.3356 25.2236 50 25.5 50C25.7766 50 26 50.3356 26 50.7504V52.2496C26 52.6648 25.7766 53 25.5 53Z" fill="#43C951"/>
<path d="M30 53C29.4473 53 29 52.6648 29 52.2496V50.7504C29 50.3356 29.4473 50 30 50C30.5532 50 31 50.3356 31 50.7504V52.2496C31 52.6648 30.5532 53 30 53Z" fill="#43C951"/>
<path d="M34.5 53C34.2236 53 34 52.6648 34 52.2496V50.7504C34 50.3356 34.2236 50 34.5 50C34.7766 50 35 50.3356 35 50.7504V52.2496C35 52.6648 34.7766 53 34.5 53Z" fill="#43C951"/>
<path d="M38.5 53C38.2236 53 38 52.6648 38 52.2496V50.7504C38 50.3356 38.2236 50 38.5 50C38.7766 50 39 50.3356 39 50.7504V52.2496C39 52.6648 38.7766 53 38.5 53Z" fill="#43C951"/>
<path d="M30.4997 15C30.3717 15 30.2435 14.9264 30.146 14.7802L29.1467 13.2811C28.9511 12.9876 28.9511 12.5135 29.1467 12.2201C29.3423 11.9266 29.6583 11.9266 29.854 12.2201L30.8533 13.7192C31.0489 14.0127 31.0489 14.4867 30.8533 14.7802C30.7558 14.9264 30.6276 15 30.4997 15Z" fill="#43C951"/>
<path d="M29.5003 15C29.3724 15 29.2444 14.9264 29.1467 14.7802C28.9511 14.4867 28.9511 14.0127 29.1467 13.7192L30.146 12.2201C30.3417 11.9266 30.6577 11.9266 30.8533 12.2201C31.0489 12.5135 31.0489 12.9876 30.8533 13.2811L29.854 14.7802C29.7565 14.9264 29.6283 15 29.5003 15Z" fill="#43C951"/>
<path d="M38.2495 15C38.0575 15 37.8652 14.9264 37.7191 14.7802L36.2201 13.2811C35.9266 12.9876 35.9266 12.5135 36.2201 12.2201C36.5135 11.9266 36.9875 11.9266 37.2809 12.2201L38.7799 13.7192C39.0734 14.0127 39.0734 14.4867 38.7799 14.7802C38.6327 14.9264 38.4407 15 38.2495 15Z" fill="#43C951"/>
<path d="M36.7505 15C36.5586 15 36.3662 14.9264 36.2201 14.7802C35.9266 14.4867 35.9266 14.0127 36.2201 13.7192L37.7191 12.2201C38.0125 11.9266 38.4865 11.9266 38.7799 12.2201C39.0734 12.5135 39.0734 12.9876 38.7799 13.2811L37.2809 14.7802C37.1337 14.9264 36.9417 15 36.7505 15Z" fill="#43C951"/>
<path d="M23.2497 15C23.0574 15 22.8654 14.9264 22.7192 14.7802L21.2201 13.2811C20.9266 12.9876 20.9266 12.5135 21.2201 12.2201C21.5135 11.9266 21.9876 11.9266 22.2811 12.2201L23.7802 13.7192C24.0733 14.0127 24.0733 14.4867 23.7802 14.7802C23.6329 14.9264 23.4417 15 23.2497 15Z" fill="#43C951"/>
<path d="M21.7506 15C21.5582 15 21.3663 14.9264 21.2201 14.7802C20.9266 14.4867 20.9266 14.0127 21.2201 13.7192L22.7192 12.2201C23.0127 11.9266 23.4867 11.9266 23.7802 12.2201C24.0733 12.5135 24.0733 12.9876 23.7802 13.2811L22.2811 14.7802C22.1338 14.9264 21.9425 15 21.7506 15Z" fill="#43C951"/>
<path d="M30.4997 29C30.3717 29 30.2435 28.9264 30.146 28.7802L29.1467 27.2811C28.9511 26.9876 28.9511 26.5135 29.1467 26.2201C29.3423 25.9266 29.6583 25.9266 29.854 26.2201L30.8533 27.7192C31.0489 28.0127 31.0489 28.4867 30.8533 28.7802C30.7558 28.9264 30.6276 29 30.4997 29Z" fill="#43C951"/>
<path d="M29.5003 29C29.3724 29 29.2444 28.9264 29.1467 28.7802C28.9511 28.4867 28.9511 28.0127 29.1467 27.7192L30.146 26.2201C30.3417 25.9266 30.6577 25.9266 30.8533 26.2201C31.0489 26.5135 31.0489 26.9876 30.8533 27.2811L29.854 28.7802C29.7565 28.9264 29.6283 29 29.5003 29Z" fill="#43C951"/>
<path d="M38.2495 29C38.0575 29 37.8652 28.9264 37.7191 28.7802L36.2201 27.2811C35.9266 26.9876 35.9266 26.5135 36.2201 26.2201C36.5135 25.9266 36.9875 25.9266 37.2809 26.2201L38.7799 27.7192C39.0734 28.0127 39.0734 28.4867 38.7799 28.7802C38.6327 28.9264 38.4407 29 38.2495 29Z" fill="#43C951"/>
<path d="M36.7505 29C36.5586 29 36.3662 28.9264 36.2201 28.7802C35.9266 28.4867 35.9266 28.0127 36.2201 27.7192L37.7191 26.2201C38.0125 25.9266 38.4865 25.9266 38.7799 26.2201C39.0734 26.5135 39.0734 26.9876 38.7799 27.2811L37.2809 28.7802C37.1337 28.9264 36.9417 29 36.7505 29Z" fill="#43C951"/>
<path d="M23.2497 29C23.0574 29 22.8654 28.9264 22.7192 28.7802L21.2201 27.2811C20.9266 26.9876 20.9266 26.5135 21.2201 26.2201C21.5135 25.9266 21.9876 25.9266 22.2811 26.2201L23.7802 27.7192C24.0733 28.0127 24.0733 28.4867 23.7802 28.7802C23.6329 28.9264 23.4417 29 23.2497 29Z" fill="#43C951"/>
<path d="M21.7506 29C21.5582 29 21.3663 28.9264 21.2201 28.7802C20.9266 28.4867 20.9266 28.0127 21.2201 27.7192L22.7192 26.2201C23.0127 25.9266 23.4867 25.9266 23.7802 26.2201C24.0733 26.5135 24.0733 26.9876 23.7802 27.2811L22.2811 28.7802C22.1338 28.9264 21.9425 29 21.7506 29Z" fill="#43C951"/>
<path d="M30.4997 44C30.3717 44 30.2435 43.9264 30.146 43.7802L29.1467 42.2811C28.9511 41.9876 28.9511 41.5135 29.1467 41.2201C29.3423 40.9266 29.6583 40.9266 29.854 41.2201L30.8533 42.7192C31.0489 43.0127 31.0489 43.4867 30.8533 43.7802C30.7558 43.9264 30.6276 44 30.4997 44Z" fill="#43C951"/>
<path d="M29.5003 44C29.3724 44 29.2444 43.9264 29.1467 43.7802C28.9511 43.4867 28.9511 43.0127 29.1467 42.7192L30.146 41.2201C30.3417 40.9266 30.6577 40.9266 30.8533 41.2201C31.0489 41.5135 31.0489 41.9876 30.8533 42.2811L29.854 43.7802C29.7565 43.9264 29.6283 44 29.5003 44Z" fill="#43C951"/>
<path d="M38.2495 44C38.0575 44 37.8652 43.9264 37.7191 43.7802L36.2201 42.2811C35.9266 41.9876 35.9266 41.5135 36.2201 41.2201C36.5135 40.9266 36.9875 40.9266 37.2809 41.2201L38.7799 42.7192C39.0734 43.0127 39.0734 43.4867 38.7799 43.7802C38.6327 43.9264 38.4407 44 38.2495 44Z" fill="#43C951"/>
<path d="M36.7505 44C36.5586 44 36.3662 43.9264 36.2201 43.7802C35.9266 43.4867 35.9266 43.0127 36.2201 42.7192L37.7191 41.2201C38.0125 40.9266 38.4865 40.9266 38.7799 41.2201C39.0734 41.5135 39.0734 41.9876 38.7799 42.2811L37.2809 43.7802C37.1337 43.9264 36.9417 44 36.7505 44Z" fill="#43C951"/>
<path d="M23.2497 44C23.0574 44 22.8654 43.9264 22.7192 43.7802L21.2201 42.2811C20.9266 41.9876 20.9266 41.5135 21.2201 41.2201C21.5135 40.9266 21.9876 40.9266 22.2811 41.2201L23.7802 42.7192C24.0733 43.0127 24.0733 43.4867 23.7802 43.7802C23.6329 43.9264 23.4417 44 23.2497 44Z" fill="#43C951"/>
<path d="M21.7506 44C21.5582 44 21.3663 43.9264 21.2201 43.7802C20.9266 43.4867 20.9266 43.0127 21.2201 42.7192L22.7192 41.2201C23.0127 40.9266 23.4867 40.9266 23.7802 41.2201C24.0733 41.5135 24.0733 41.9876 23.7802 42.2811L22.2811 43.7802C22.1338 43.9264 21.9425 44 21.7506 44Z" fill="#43C951"/>
<path d="M34.2494 22C34.0575 22 33.8655 21.9264 33.7189 21.7802L32.2198 20.2811C31.9267 19.9876 31.9267 19.5135 32.2198 19.2201C32.5133 18.9266 32.9877 18.9266 33.2808 19.2201L34.7799 20.7192C35.0734 21.0127 35.0734 21.4867 34.7799 21.7802C34.6337 21.9264 34.4418 22 34.2494 22Z" fill="#43C951"/>
<path d="M32.7503 22C32.5583 22 32.3664 21.9264 32.2198 21.7802C31.9267 21.4867 31.9267 21.0127 32.2198 20.7192L33.7189 19.2201C34.0124 18.9266 34.4865 18.9266 34.7799 19.2201C35.0734 19.5135 35.0734 19.9876 34.7799 20.2811L33.2808 21.7802C33.1346 21.9264 32.9426 22 32.7503 22Z" fill="#43C951"/>
<path d="M27.2495 22C27.0575 22 26.8652 21.9264 26.7191 21.7802L25.2201 20.2811C24.9266 19.9876 24.9266 19.5135 25.2201 19.2201C25.5135 18.9266 25.9875 18.9266 26.2809 19.2201L27.7799 20.7192C28.0734 21.0127 28.0734 21.4867 27.7799 21.7802C27.6327 21.9264 27.4407 22 27.2495 22Z" fill="#43C951"/>
<path d="M25.7505 22C25.5586 22 25.3662 21.9264 25.2201 21.7802C24.9266 21.4867 24.9266 21.0127 25.2201 20.7192L26.7191 19.2201C27.0125 18.9266 27.4865 18.9266 27.7799 19.2201C28.0734 19.5135 28.0734 19.9876 27.7799 20.2811L26.2809 21.7802C26.134 21.9264 25.9417 22 25.7505 22Z" fill="#43C951"/>
<path d="M34.2494 36C34.0575 36 33.8655 35.9509 33.7189 35.8535L32.2198 34.854C31.9267 34.6584 31.9267 34.3424 32.2198 34.1467C32.5133 33.9511 32.9877 33.9511 33.2808 34.1467L34.7799 35.1461C35.0734 35.3418 35.0734 35.6578 34.7799 35.8535C34.6337 35.9509 34.4418 36 34.2494 36Z" fill="#43C951"/>
<path d="M32.7503 36C32.5583 36 32.3664 35.9509 32.2198 35.8535C31.9267 35.6578 31.9267 35.3418 32.2198 35.1461L33.7189 34.1467C34.0124 33.9511 34.4865 33.9511 34.7799 34.1467C35.0734 34.3424 35.0734 34.6584 34.7799 34.854L33.2808 35.8535C33.1346 35.9509 32.9426 36 32.7503 36Z" fill="#43C951"/>
<path d="M27.2495 36C27.0575 36 26.8652 35.9509 26.7191 35.8535L25.2201 34.854C24.9266 34.6584 24.9266 34.3424 25.2201 34.1467C25.5135 33.9511 25.9875 33.9511 26.2809 34.1467L27.7799 35.1461C28.0734 35.3418 28.0734 35.6578 27.7799 35.8535C27.6327 35.9509 27.4407 36 27.2495 36Z" fill="#43C951"/>
<path d="M25.7505 36C25.5586 36 25.3662 35.9509 25.2201 35.8535C24.9266 35.6578 24.9266 35.3418 25.2201 35.1461L26.7191 34.1467C27.0125 33.9511 27.4865 33.9511 27.7799 34.1467C28.0734 34.3424 28.0734 34.6584 27.7799 34.854L26.2809 35.8535C26.134 35.9509 25.9417 36 25.7505 36Z" fill="#43C951"/>
</svg>
