<svg width="17" height="25" viewBox="0 0 17 25" fill="none" xmlns="http://www.w3.org/2000/svg">
<path d="M9.36214 17.8625L9.18 17.7125C9.11231 17.6652 9.03881 17.6274 8.96143 17.6L8.74286 17.5C8.54593 17.4576 8.34186 17.4663 8.14898 17.5252C7.9561 17.5841 7.78047 17.6914 7.63786 17.8375C7.5306 17.959 7.44435 18.0985 7.38286 18.25C7.29096 18.4778 7.26657 18.7284 7.31274 18.9704C7.35891 19.2124 7.47359 19.4349 7.64235 19.61C7.8111 19.785 8.02638 19.9048 8.2611 19.9542C8.49582 20.0035 8.73948 19.9803 8.96143 19.8875C9.10653 19.815 9.24134 19.7225 9.36214 19.6125C9.53063 19.4367 9.64477 19.2135 9.69016 18.971C9.73554 18.7285 9.71013 18.4776 9.61714 18.25C9.5566 18.1055 9.47009 17.974 9.36214 17.8625ZM13.3571 0H3.64286C2.67671 0 1.75014 0.395088 1.06697 1.09835C0.3838 1.80161 0 2.75544 0 3.75V21.25C0 22.2446 0.3838 23.1984 1.06697 23.9017C1.75014 24.6049 2.67671 25 3.64286 25H13.3571C14.3233 25 15.2499 24.6049 15.933 23.9017C16.6162 23.1984 17 22.2446 17 21.25V3.75C17 2.75544 16.6162 1.80161 15.933 1.09835C15.2499 0.395088 14.3233 0 13.3571 0ZM14.5714 21.25C14.5714 21.5815 14.4435 21.8995 14.2158 22.1339C13.9881 22.3683 13.6792 22.5 13.3571 22.5H3.64286C3.32081 22.5 3.01195 22.3683 2.78423 22.1339C2.5565 21.8995 2.42857 21.5815 2.42857 21.25V3.75C2.42857 3.41848 2.5565 3.10054 2.78423 2.86612C3.01195 2.6317 3.32081 2.5 3.64286 2.5H13.3571C13.6792 2.5 13.9881 2.6317 14.2158 2.86612C14.4435 3.10054 14.5714 3.41848 14.5714 3.75V21.25Z" fill="#FCFCFC"/>
</svg>
