<svg width="60" height="60" viewBox="0 0 60 60" fill="none" xmlns="http://www.w3.org/2000/svg">
<path d="M23.077 0.433838C20.1033 0.433535 17.1586 1.01899 14.4112 2.15678C11.6637 3.29456 9.16731 4.96239 7.06446 7.06503C4.96161 9.16766 3.29353 11.6639 2.15546 14.4113C1.0174 17.1586 0.431641 20.1032 0.431641 23.0769C0.431338 26.0508 1.01687 28.9957 2.1548 31.7433C3.29273 34.4909 4.96076 36.9874 7.06364 39.0903C9.16652 41.1932 11.6631 42.8612 14.4107 43.9991C17.1583 45.1371 20.1031 45.7226 23.077 45.7223C28.3616 45.7223 33.2147 43.8508 37.0686 40.8185L39.0878 42.8377C38.6732 43.6433 38.5264 44.5602 38.6687 45.455C38.8111 46.3498 39.2352 47.1759 39.8793 47.8131L50.4809 58.4861C52.1263 60.1338 54.8193 60.1338 56.467 58.4861L58.4862 56.4669C59.2768 55.6714 59.7205 54.5954 59.7205 53.4738C59.7205 52.3523 59.2768 51.2763 58.4862 50.4808L47.8132 39.8792C47.1715 39.2394 46.3405 38.8237 45.4437 38.694C44.5469 38.5643 43.6321 38.7275 42.8355 39.1592L40.8162 37.14C43.4594 33.8046 45.109 29.7919 45.576 25.5619C46.0431 21.3319 45.3086 17.056 43.4569 13.2243C41.6051 9.39261 38.711 6.16034 35.1064 3.8981C31.5018 1.63585 27.3327 0.435207 23.077 0.433838ZM23.077 4.61538C27.9733 4.61538 32.6691 6.56043 36.1313 10.0226C39.5935 13.4848 41.5386 18.1806 41.5386 23.0769C41.5386 27.9732 39.5935 32.669 36.1313 36.1312C32.6691 39.5934 27.9733 41.5385 23.077 41.5385C18.1807 41.5385 13.485 39.5934 10.0227 36.1312C6.56054 32.669 4.61549 27.9732 4.61549 23.0769C4.61549 18.1806 6.56054 13.4848 10.0227 10.0226C13.485 6.56043 18.1807 4.61538 23.077 4.61538ZM11.3932 17.2361C10.1623 19.2298 9.51329 21.5278 9.51933 23.8708C9.5166 25.5289 9.84118 27.1713 10.4745 28.7038C11.1077 30.2362 12.0373 31.6286 13.2098 32.8011C14.3823 33.9736 15.7746 34.9031 17.3071 35.5364C18.8396 36.1697 20.4819 36.4943 22.1401 36.4915C24.7468 36.4862 27.289 35.6806 29.4232 34.1838C28.8479 34.2371 28.2701 34.2602 27.6924 34.2531C25.5506 34.2585 23.4289 33.8408 21.449 33.0237C19.4692 32.2067 17.6703 31.0065 16.1557 29.4922C14.6411 27.9778 13.4407 26.1791 12.6234 24.1994C11.8061 22.2196 11.388 20.0979 11.3932 17.9561C11.3932 17.7161 11.3816 17.4761 11.3932 17.2361Z" fill="#43C951"/>
</svg>
