<svg width="60" height="60" viewBox="0 0 60 60" fill="none" xmlns="http://www.w3.org/2000/svg">
<path d="M45.8667 6H14.1333C11.3028 6 9 8.31309 9 11.1562V17.8125C9 20.6557 11.3028 22.9688 14.1333 22.9688H15.7968L12.2408 49.2421C11.9002 51.7591 13.8508 54 16.3772 54C18.4554 54 20.2337 52.4402 20.5136 50.3717L22.3192 37.0312H37.6757L39.4858 50.3732C39.7664 52.4408 41.5445 54 43.6219 54C46.1511 54 48.0992 51.7558 47.758 49.2409L44.1938 22.9688H45.8667C48.6972 22.9688 51 20.6557 51 17.8125V11.1562C51 8.31309 48.6972 6 45.8667 6V6ZM17.7392 49.9928C17.6471 50.6739 17.0615 51.1875 16.3772 51.1875C15.5437 51.1875 14.9028 50.452 15.0152 49.6209L18.6226 22.9688H21.3968L17.7392 49.9928ZM35.7679 22.9688L36.5311 28.5938H23.4613L24.2226 22.9688H35.7679ZM22.6999 34.2188L23.0805 31.4062H36.9126L37.2942 34.2188H22.6999ZM44.9837 49.6206C45.0962 50.4503 44.4569 51.1875 43.6219 51.1875C42.938 51.1875 42.3525 50.6741 42.2601 49.9934L38.5938 22.9688H41.3679L44.9837 49.6206ZM48.2 17.8125C48.2 19.1048 47.1533 20.1562 45.8667 20.1562H14.1333C12.8467 20.1562 11.8 19.1048 11.8 17.8125V11.1562C11.8 9.86391 12.8467 8.8125 14.1333 8.8125H45.8667C47.1533 8.8125 48.2 9.86391 48.2 11.1562V17.8125Z" fill="#43C951"/>
</svg>
