<svg width="60" height="60" viewBox="0 0 60 60" fill="none" xmlns="http://www.w3.org/2000/svg">
<path d="M55 50H52.5002L52.5084 10.0013C52.5096 7.33031 51.4696 4.81816 49.5812 2.92969C47.6928 1.04004 45.1807 0 42.5098 0C36.9959 0 32.511 4.48488 32.511 9.99879V18.739C32.511 22.6371 30.5182 26.0749 27.5 28.097V24.7697C28.9519 24.2521 30 22.8775 30 21.25C30 19.1821 28.3179 17.5 26.25 17.5H24.8735C24.2927 14.6507 21.768 12.4999 18.75 12.4999H11.25C8.23195 12.4999 5.70727 14.6507 5.12648 17.5H3.75C1.68211 17.5 0 19.1821 0 21.25C0 22.8775 1.04813 24.252 2.49996 24.7697V50.2302C1.04813 50.7479 0 52.1225 0 53.75C0 55.3936 1.06969 56.778 2.54391 57.2834C2.53699 57.3585 2.49996 57.4233 2.49996 57.5C2.49996 58.8782 3.6218 60 4.99992 60C6.37816 60 7.5 58.8782 7.5 57.5H22.5C22.5 58.8782 23.6218 60 25 60C26.3781 60 27.4999 58.8782 27.4999 57.5C27.4999 57.4233 27.4629 57.3585 27.456 57.2834C28.9303 56.7779 30 55.3935 30 53.75C30 52.1225 28.9519 50.748 27.5 50.2303V36.4068C34.7763 33.8239 40.011 26.8895 40.011 18.7391V9.99996C40.011 8.62184 41.1328 7.5 42.5109 7.5C43.1787 7.5 43.8061 7.76004 44.2785 8.23242C44.7497 8.7048 45.0097 9.33223 45.0097 9.99996L45.0002 49.9999H42.4999C39.7424 49.9999 37.4999 52.2423 37.4999 55V56.25C37.4999 56.9409 38.059 57.5 38.7499 57.5H40V58.7501C40 59.441 40.5591 60.0001 41.25 60.0001H56.25C56.9409 60.0001 57.5 59.441 57.5 58.7501V57.5H58.7501C59.441 57.5 60.0001 56.9409 60.0001 56.25V55C60 52.2424 57.7576 50 55 50ZM11.25 15H18.75C20.3775 15 21.752 16.0481 22.2697 17.5H7.73027C8.24801 16.0481 9.6225 15 11.25 15ZM3.75 20H26.25C26.9396 20 27.5 20.5603 27.5 21.2501C27.5 21.9397 26.9398 22.5001 26.25 22.5001H3.75C3.06035 22.5001 2.49996 21.9398 2.49996 21.2501C2.49996 20.5603 3.06035 20 3.75 20ZM21.25 37.5C22.534 37.5 23.7878 37.369 25 37.1221V50H5.00004V25H25.0001V29.3095C23.8212 29.7293 22.5714 30 21.2501 30C19.1822 30 17.5001 31.6821 17.5001 33.75C17.5001 35.8179 19.1822 37.5 21.25 37.5ZM26.25 55H3.75C3.06035 55 2.49996 54.4397 2.49996 53.7499C2.49996 53.0602 3.06035 52.5 3.75 52.5H26.25C26.9396 52.5 27.5 53.0603 27.5 53.75C27.5 54.4398 26.9396 55 26.25 55ZM42.5109 5.00004C39.7534 5.00004 37.5109 7.24242 37.5109 10.0001V18.7391C37.5109 27.7051 30.216 35 21.25 35C20.5603 35 19.9999 34.4398 19.9999 33.75C19.9999 33.0602 20.5602 32.5 21.25 32.5C28.8379 32.5 35.0109 26.3269 35.0109 18.739V9.99879C35.0109 5.8643 38.3752 2.49996 42.5098 2.49996C44.513 2.49996 46.3965 3.27996 47.8125 4.69723C49.2298 6.1132 50.0086 7.99805 50.0086 10.0011L50.0004 49.9999H47.5004L47.5099 10.0011C47.5111 8.66566 46.9911 7.40953 46.0462 6.46477C45.1014 5.52 43.8464 5.00004 42.5109 5.00004ZM40 55C40 53.6218 41.1218 52.5 42.4999 52.5H55C56.3781 52.5 57.4999 53.6218 57.4999 55H40Z" fill="#43C951"/>
<path d="M11.25 27.5H8.75004C8.0591 27.5 7.5 28.0591 7.5 28.75C7.5 29.4409 8.0591 30 8.75004 30H11.25C11.9409 30 12.5 29.4409 12.5 28.7499C12.5 28.0591 11.9409 27.5 11.25 27.5Z" fill="#43C951"/>
<path d="M11.25 32.5H8.75004C8.0591 32.5 7.5 33.0591 7.5 33.75C7.5 34.441 8.0591 35.0001 8.75004 35.0001H11.25C11.9409 35.0001 12.5 34.441 12.5 33.75C12.5 33.0591 11.9409 32.5 11.25 32.5Z" fill="#43C951"/>
</svg>
