<svg width="60" height="60" viewBox="0 0 60 60" fill="none" xmlns="http://www.w3.org/2000/svg">
<path d="M47.3453 7H12.6545C12.2382 7 11.9607 7.27753 11.9607 7.69382V52.3062C11.9607 52.7225 12.2382 53 12.6545 53H47.3453C47.7616 53 48.0391 52.7225 48.0391 52.3062V7.69382C48.0391 7.27753 47.7616 7 47.3453 7ZM46.6515 51.6124H13.3483V8.38763H46.6515V51.6124Z" fill="#43C951"/>
<path d="M16.1833 48.1668V11.8335C16.1833 11.6954 16.2953 11.5835 16.4333 11.5835H43.5667C43.7048 11.5835 43.8167 11.6954 43.8167 11.8335V48.1668C43.8167 48.3049 43.7048 48.4168 43.5667 48.4168H16.4333C16.2953 48.4168 16.1833 48.3049 16.1833 48.1668Z" stroke="#43C951" stroke-width="1.5"/>
</svg>
